<svg width="19" height="18" viewBox="0 0 19 18" fill="none" xmlns="http://www.w3.org/2000/svg">
<path d="M9.39116 0C4.20255 0 0 4.13211 0 9.22838C0 13.3065 2.69057 16.7648 6.42121 17.9841C6.89077 18.0709 7.06294 17.7853 7.06294 17.5403C7.06294 17.3212 7.05511 16.7405 7.0512 15.9712C4.43889 16.5277 3.88794 14.7332 3.88794 14.7332C3.46064 13.6681 2.84317 13.3832 2.84317 13.3832C1.99249 12.8111 2.90891 12.8229 2.90891 12.8229C3.85194 12.887 4.34733 13.7737 4.34733 13.7737C5.18471 15.1847 6.54564 14.777 7.0825 14.5414C7.16702 13.9443 7.40885 13.5381 7.67728 13.3073C5.59166 13.0764 3.3996 12.2829 3.3996 8.74709C3.3996 7.73988 3.76351 6.91659 4.36611 6.27095C4.26046 6.03774 3.94351 5.0994 4.44828 3.82846C4.44828 3.82846 5.23479 3.58116 7.03085 4.77462C7.78214 4.56958 8.58039 4.46785 9.37864 4.46315C10.1769 4.46785 10.9751 4.56958 11.7264 4.77462C13.5108 3.58116 14.2973 3.82846 14.2973 3.82846C14.802 5.0994 14.4851 6.03774 14.3912 6.27095C14.9899 6.91659 15.3538 7.73988 15.3538 8.74709C15.3538 12.2923 13.1586 13.0725 11.0691 13.2995C11.3977 13.5765 11.703 14.1423 11.703 15.0071C11.703 16.242 11.6912 17.2344 11.6912 17.5341C11.6912 17.7759 11.8556 18.0647 12.3369 17.9723C16.0941 16.7609 18.7823 13.3002 18.7823 9.22838C18.7823 4.13211 14.5774 0 9.39116 0V0Z" fill="#C9C9C9"/>
</svg>
