<?xml version="1.0" encoding="UTF-8" standalone="no"?>
<!-- Created with Keyshape -->
<svg xmlns="http://www.w3.org/2000/svg" width="530px" height="360px" viewBox="0 0 530 360" enable-background="new 0 0 530 360" opacity="1" style="white-space: preserve-spaces; animation: 18s linear infinite both a0_o;">
    <style>
        @keyframes a0_o { 0% { opacity: 1; } 94.4444% { opacity: 1; } 98.3333% { opacity: 0; } 100% { opacity: 0; } }
        @keyframes _x31_-user-ory_o { 0% { opacity: 0; } 2.7778% { opacity: 0; } 3.8889% { opacity: 1; } 100% { opacity: 1; } }
        @keyframes _x31_-user-ory_do { 0% { stroke-dashoffset: 0px; } 2.7778% { stroke-dashoffset: 0px; } 100% { stroke-dashoffset: -840px; } }
        @keyframes _x35_-ory-user_o { 0% { opacity: 0; } 2.7778% { opacity: 0; } 3.8889% { opacity: 1; } 100% { opacity: 1; } }
        @keyframes _x35_-ory-user_do { 0% { stroke-dashoffset: 0px; } 2.7778% { stroke-dashoffset: 0px; animation-timing-function: cubic-bezier(0,0,1,1); } 100% { stroke-dashoffset: -840px; } }
        @keyframes ory_t { 0% { transform: translate(75px,180px) rotate(0deg) translate(-265px,-95px); } 2.7777% { transform: translate(75px,180px) rotate(0deg) translate(-265px,-95px); } 5.5555% { transform: translate(75px,180px) rotate(180deg) translate(-265px,-95px); } 16.6666% { transform: translate(75px,180px) rotate(180deg) translate(-265px,-95px); } 19.4444% { transform: translate(75px,180px) rotate(360deg) translate(-265px,-95px); } 30.5555% { transform: translate(75px,180px) rotate(360deg) translate(-265px,-95px); } 33.3333% { transform: translate(75px,180px) rotate(540deg) translate(-265px,-95px); } 44.4444% { transform: translate(75px,180px) rotate(540deg) translate(-265px,-95px); } 47.2222% { transform: translate(75px,180px) rotate(720deg) translate(-265px,-95px); } 58.3333% { transform: translate(75px,180px) rotate(720deg) translate(-265px,-95px); } 61.1111% { transform: translate(75px,180px) rotate(900deg) translate(-265px,-95px); } 72.2222% { transform: translate(75px,180px) rotate(900deg) translate(-265px,-95px); } 75% { transform: translate(75px,180px) rotate(1080deg) translate(-265px,-95px); } 86.1111% { transform: translate(75px,180px) rotate(1080deg) translate(-265px,-95px); } 88.8888% { transform: translate(75px,180px) rotate(1260deg) translate(-265px,-95px); } 100% { transform: translate(75px,180px) rotate(1260deg) translate(-265px,-95px); } }
        @keyframes ory_o { 0% { opacity: 0; } 2.7778% { opacity: 0; } 3.8889% { opacity: 1; } 100% { opacity: 1; } }
        @keyframes lang_o { 0% { opacity: 0; } 2.7778% { opacity: 0; } 3.8889% { opacity: 1; } 100% { opacity: 1; } }
        @keyframes js_t { 0% { transform: translate(-0.004008px,-29.576159px); } 2.7777% { transform: translate(-0.004008px,-29.576159px); } 3.8888% { transform: translate(0px,-55.915855px); } 13.8888% { transform: translate(0px,-55.915855px); } 15% { transform: translate(0px,-86.917px); } 100% { transform: translate(0px,-86.917px); } }
        @keyframes js_o { 0% { opacity: 0; } 2.7778% { opacity: 0; } 3.8889% { opacity: 1; } 13.8889% { opacity: 1; } 15% { opacity: 0; } 100% { opacity: 0; } }
        @keyframes php_t { 0% { transform: translate(-0.004px,-29.576px); } 16.6666% { transform: translate(-0.004px,-29.576px); } 17.7777% { transform: translate(0px,-55.916px); } 27.7777% { transform: translate(0px,-55.916px); } 28.8888% { transform: translate(0px,-86.917px); } 100% { transform: translate(0px,-86.917px); } }
        @keyframes php_o { 0% { opacity: 0; } 16.6667% { opacity: 0; } 17.7778% { opacity: 1; } 27.7778% { opacity: 1; } 28.8889% { opacity: 0; } 100% { opacity: 0; } }
        @keyframes go_t { 0% { transform: translate(-0.004px,-29.576px); } 30.5555% { transform: translate(-0.004px,-29.576px); } 31.6666% { transform: translate(0px,-55.916px); } 41.6666% { transform: translate(0px,-55.916px); } 42.7777% { transform: translate(0px,-86.917px); } 100% { transform: translate(0px,-86.917px); } }
        @keyframes go_o { 0% { opacity: 0; } 30.5556% { opacity: 0; } 31.6667% { opacity: 1; } 41.6667% { opacity: 1; } 42.7778% { opacity: 0; } 100% { opacity: 0; } }
        @keyframes java_t { 0% { transform: translate(-0.004px,-29.576px); } 44.4444% { transform: translate(-0.004px,-29.576px); } 45.5555% { transform: translate(0px,-55.916px); } 55.5555% { transform: translate(0px,-55.916px); } 56.6666% { transform: translate(0px,-86.917px); } 100% { transform: translate(0px,-86.917px); } }
        @keyframes java_o { 0% { opacity: 0; } 44.4444% { opacity: 0; } 45.5556% { opacity: 1; } 55.5556% { opacity: 1; } 56.6667% { opacity: 0; } 100% { opacity: 0; } }
        @keyframes c_t { 0% { transform: translate(-0.004px,-29.576px); } 58.3333% { transform: translate(-0.004px,-29.576px); } 59.4444% { transform: translate(0px,-55.916px); } 69.4444% { transform: translate(0px,-55.916px); } 70.5555% { transform: translate(0px,-86.917px); } 100% { transform: translate(0px,-86.917px); } }
        @keyframes c_o { 0% { opacity: 0; } 58.3333% { opacity: 0; } 59.4444% { opacity: 1; } 69.4444% { opacity: 1; } 70.5556% { opacity: 0; } 100% { opacity: 0; } }
        @keyframes py_t { 0% { transform: translate(-0.004px,-29.576px); } 72.2222% { transform: translate(-0.004px,-29.576px); } 73.3333% { transform: translate(0px,-55.916px); } 83.3333% { transform: translate(0px,-55.916px); } 84.4444% { transform: translate(0px,-86.917px); } 100% { transform: translate(0px,-86.917px); } }
        @keyframes py_o { 0% { opacity: 0; } 72.2222% { opacity: 0; } 73.3333% { opacity: 1; } 83.3333% { opacity: 1; } 84.4444% { opacity: 0; } 100% { opacity: 0; } }
        @keyframes rb_t { 0% { transform: translate(-0.004px,-29.576px); } 86.1111% { transform: translate(-0.004px,-29.576px); } 87.2222% { transform: translate(0px,-55.916px); } 97.2222% { transform: translate(0px,-55.916px); } 98.3333% { transform: translate(0px,-86.917px); } 100% { transform: translate(0px,-86.917px); } }
        @keyframes rb_o { 0% { opacity: 0; } 86.1111% { opacity: 0; } 87.2222% { opacity: 1; } 97.2222% { opacity: 1; } 98.3333% { opacity: 0; } 100% { opacity: 0; } }
    </style>
    <g id="Elements">
        <g id="Lines" transform="translate(0,85)">
            <path id="_x31_-user-ory" fill="none" stroke="#6274F3" stroke-width="3" stroke-linecap="round" stroke-linejoin="round" stroke-miterlimit="10" d="M110,85L423,85" stroke-dasharray="0 10" stroke-dashoffset="0" opacity="0" style="animation: 18s linear infinite both _x31_-user-ory_o, 18s linear infinite both _x31_-user-ory_do;"/>
            <path id="_x35_-ory-user" fill="none" stroke="#6274f3" stroke-width="3" stroke-linecap="round" stroke-linejoin="round" stroke-miterlimit="10" d="M-83,105L230,105" stroke-dasharray="0 10" opacity="0" stroke-dashoffset="0" transform="translate(170,105) rotate(180) translate(-170,-105)" style="animation: 18s linear infinite both _x35_-ory-user_o, 18s linear infinite both _x35_-ory-user_do;"/>
        </g>
        <g id="ory" opacity="0" transform="translate(75,180) translate(-265,-95)" style="animation: 18s linear infinite both ory_t, 18s linear infinite both ory_o;">
            <ellipse fill="#F04870" rx="45" ry="45" transform="translate(0,0) translate(265,95)"/>
            <path id="Hydra_1_" fill-rule="evenodd" clip-rule="evenodd" fill="#FFFFFF" d="M249.702,97.544L248.395,100.094L245.18,106.37C244.982,106.757,244.578,107.001,244.136,107.001L240.583,107.001C240.149,107.001,239.867,106.554,240.061,106.173L245.784,94.998L240.062,83.828C239.867,83.448,240.15,83.001,240.584,83.001L244.141,83.001C244.583,83.001,244.987,83.245,245.185,83.632L249.701,92.449L250.875,94.743C250.958,94.904,250.958,95.094,250.875,95.255L249.702,97.544ZM265.254,109.124C265.093,109.041,264.903,109.041,264.742,109.124L262.448,110.298L253.631,114.814C253.244,115.012,253,115.416,253,115.858L253,119.415C253,119.849,253.447,120.131,253.827,119.937L264.997,114.215L276.172,119.938C276.552,120.132,276.999,119.85,276.999,119.416L276.999,115.863C276.999,115.421,276.755,115.017,276.368,114.819L270.092,111.604L267.542,110.297L265.254,109.124ZM280.298,97.544L281.605,100.094L284.82,106.37C285.018,106.757,285.422,107.001,285.864,107.001L289.417,107.001C289.851,107.001,290.133,106.554,289.939,106.174L284.216,94.999L289.938,83.829C290.133,83.449,289.851,83.001,289.416,83.001L285.859,83.001C285.417,83.001,285.013,83.245,284.815,83.632L280.299,92.449L279.125,94.743C279.043,94.904,279.043,95.094,279.125,95.255L280.298,97.544ZM264.746,80.876C264.907,80.958,265.097,80.958,265.258,80.876L267.552,79.702L276.369,75.186C276.756,74.988,277,74.584,277,74.142L277,70.585C277,70.151,276.552,69.869,276.172,70.063L265.002,75.785L253.827,70.062C253.447,69.868,253,70.15,253,70.584L253,74.137C253,74.579,253.244,74.983,253.631,75.181L259.907,78.396L262.457,79.703L264.746,80.876ZM272.5,95C272.5,90.858,269.142,87.5,265,87.5C260.858,87.5,257.5,90.858,257.5,95C257.5,99.142,260.858,102.5,265,102.5C269.142,102.5,272.5,99.142,272.5,95ZM277,95C277,101.627,271.627,107,265,107C258.372,107,253,101.627,253,95C253,88.373,258.372,83,265,83C271.628,83,277,88.373,277,95Z"/>
        </g>
        <g id="lang" opacity="0" transform="translate(0,85)" style="animation: 18s linear infinite both lang_o;">
            <ellipse fill="#6274F3" rx="45" ry="45" transform="translate(0,0) translate(455,95)"/>
            <g id="js" opacity="0" transform="translate(266.236,221.111) translate(-266.24,-250.687)" style="animation: 18s linear infinite both js_t, 18s linear infinite both js_o;">
                <path fill="#ffffff" d="M-7.10844,0.198C-7.64844,0.198,-8.04744,0.063,-8.30544,-0.207C-8.56344,-0.477,-8.69244,-0.822,-8.69244,-1.242L-8.69244,-1.602C-8.69244,-2.022,-8.56344,-2.367,-8.30544,-2.637C-8.04744,-2.907,-7.64844,-3.042,-7.10844,-3.042C-6.56844,-3.042,-6.16944,-2.907,-5.91144,-2.637C-5.65344,-2.367,-5.52444,-2.022,-5.52444,-1.602L-5.52444,-1.242C-5.52444,-0.822,-5.65344,-0.477,-5.91144,-0.207C-6.16944,0.063,-6.56844,0.198,-7.10844,0.198ZM-3.07831,-9.45L-0.414313,-9.45L-0.414313,1.008C-0.414313,1.848,-0.624313,2.49,-1.04431,2.934C-1.46431,3.378,-2.14231,3.6,-3.07831,3.6L-4.48231,3.6L-4.48231,1.53L-3.07831,1.53ZM-1.74631,-10.458C-2.28631,-10.458,-2.67931,-10.581,-2.92531,-10.827C-3.17131,-11.073,-3.29431,-11.388,-3.29431,-11.772L-3.29431,-12.168C-3.29431,-12.552,-3.17131,-12.867,-2.92531,-13.113C-2.67931,-13.359,-2.28631,-13.482,-1.74631,-13.482C-1.20631,-13.482,-0.813313,-13.359,-0.567312,-13.113C-0.321312,-12.867,-0.198312,-12.552,-0.198312,-12.168L-0.198312,-11.772C-0.198312,-11.388,-0.321312,-11.073,-0.567312,-10.827C-0.813313,-10.581,-1.20631,-10.458,-1.74631,-10.458ZM5.26631,0.216C4.35431,0.216,3.58631,0.069,2.96231,-0.225C2.33831,-0.519,1.78031,-0.936,1.28831,-1.476L2.85431,-3.06C3.19031,-2.688,3.56231,-2.394,3.97031,-2.178C4.37831,-1.962,4.84031,-1.854,5.35631,-1.854C5.88431,-1.854,6.25031,-1.935,6.45431,-2.097C6.65831,-2.259,6.76031,-2.478,6.76031,-2.754C6.76031,-3.198,6.44231,-3.462,5.80631,-3.546L4.78031,-3.672C2.65631,-3.936,1.59431,-4.908,1.59431,-6.588C1.59431,-7.044,1.68131,-7.461,1.85531,-7.839C2.02931,-8.217,2.27531,-8.541,2.59331,-8.811C2.91131,-9.081,3.29531,-9.291,3.74531,-9.441C4.19531,-9.591,4.70231,-9.666,5.26631,-9.666C5.75831,-9.666,6.19331,-9.633,6.57131,-9.567C6.94931,-9.501,7.28531,-9.405,7.57931,-9.279C7.87331,-9.153,8.14331,-8.997,8.38931,-8.811C8.63531,-8.625,8.87831,-8.418,9.11831,-8.19L7.58831,-6.624C7.28831,-6.924,6.94931,-7.161,6.57131,-7.335C6.19331,-7.509,5.80631,-7.596,5.41031,-7.596C4.95431,-7.596,4.63031,-7.524,4.43831,-7.38C4.24631,-7.236,4.15031,-7.044,4.15031,-6.804C4.15031,-6.552,4.21931,-6.357,4.35731,-6.219C4.49531,-6.081,4.75631,-5.982,5.14031,-5.922L6.20231,-5.778C8.27831,-5.502,9.31631,-4.554,9.31631,-2.934C9.31631,-2.478,9.22031,-2.058,9.02831,-1.674C8.83631,-1.29,8.56331,-0.957,8.20931,-0.675C7.85531,-0.393,7.42931,-0.174,6.93131,-0.018C6.43331,0.138,5.87831,0.216,5.26631,0.216Z" transform="translate(454.144,159.773) scale(1.35,1.35)"/>
            </g>
            <g id="php" opacity="0" transform="translate(266.236,221.111) translate(-266.24,-250.687)" style="white-space: preserve-spaces; animation: 18s linear infinite both php_t, 18s linear infinite both php_o;">
                <path fill="#ffffff" d="M-16.3037,0.198C-16.8438,0.198,-17.2428,0.063,-17.5007,-0.207C-17.7588,-0.477,-17.8878,-0.822,-17.8878,-1.242L-17.8878,-1.602C-17.8878,-2.022,-17.7588,-2.367,-17.5007,-2.637C-17.2428,-2.907,-16.8438,-3.042,-16.3037,-3.042C-15.7637,-3.042,-15.3647,-2.907,-15.1068,-2.637C-14.8487,-2.367,-14.7197,-2.022,-14.7197,-1.602L-14.7197,-1.242C-14.7197,-0.822,-14.8487,-0.477,-15.1068,-0.207C-15.3647,0.063,-15.7637,0.198,-16.3037,0.198ZM-12.2736,-9.45L-9.60962,-9.45L-9.60962,-7.866L-9.51962,-7.866C-9.38762,-8.394,-9.08462,-8.826,-8.61062,-9.162C-8.13662,-9.498,-7.59362,-9.666,-6.98163,-9.666C-5.78163,-9.666,-4.87563,-9.246,-4.26363,-8.406C-3.65162,-7.566,-3.34562,-6.342,-3.34562,-4.734C-3.34562,-3.126,-3.65162,-1.899,-4.26363,-1.053C-4.87563,-0.207,-5.78163,0.216,-6.98163,0.216C-7.29363,0.216,-7.58762,0.171,-7.86362,0.081C-8.13962,-0.009,-8.38862,-0.135,-8.61062,-0.297C-8.83262,-0.459,-9.02162,-0.651,-9.17763,-0.873C-9.33363,-1.095,-9.44762,-1.332,-9.51962,-1.584L-9.60962,-1.584L-9.60962,3.6L-12.2736,3.6ZM-7.86362,-1.944C-7.35962,-1.944,-6.94262,-2.121,-6.61262,-2.475C-6.28262,-2.829,-6.11762,-3.306,-6.11762,-3.906L-6.11762,-5.544C-6.11762,-6.144,-6.28262,-6.621,-6.61262,-6.975C-6.94262,-7.329,-7.35962,-7.506,-7.86362,-7.506C-8.36762,-7.506,-8.78463,-7.383,-9.11462,-7.137C-9.44462,-6.891,-9.60962,-6.552,-9.60962,-6.12L-9.60962,-3.33C-9.60962,-2.898,-9.44462,-2.559,-9.11462,-2.313C-8.78463,-2.067,-8.36762,-1.944,-7.86362,-1.944ZM-1.33613,-13.32L1.32787,-13.32L1.32787,-7.848L1.43587,-7.848C1.60388,-8.34,1.89788,-8.766,2.31788,-9.126C2.73788,-9.486,3.31987,-9.666,4.06387,-9.666C5.03587,-9.666,5.77087,-9.342,6.26888,-8.694C6.76687,-8.046,7.01587,-7.122,7.01587,-5.922L7.01587,0L4.35187,0L4.35187,-5.706C4.35187,-6.318,4.25587,-6.771,4.06387,-7.065C3.87187,-7.359,3.52987,-7.506,3.03788,-7.506C2.82187,-7.506,2.61187,-7.479,2.40788,-7.425C2.20387,-7.371,2.02087,-7.284,1.85887,-7.164C1.69687,-7.044,1.56787,-6.897,1.47187,-6.723C1.37587,-6.549,1.32787,-6.348,1.32787,-6.12L1.32787,0L-1.33613,0ZM9.39825,-9.45L12.0623,-9.45L12.0623,-7.866L12.1523,-7.866C12.2843,-8.394,12.5873,-8.826,13.0613,-9.162C13.5353,-9.498,14.0783,-9.666,14.6903,-9.666C15.8902,-9.666,16.7962,-9.246,17.4082,-8.406C18.0202,-7.566,18.3263,-6.342,18.3263,-4.734C18.3263,-3.126,18.0202,-1.899,17.4082,-1.053C16.7962,-0.207,15.8902,0.216,14.6903,0.216C14.3783,0.216,14.0843,0.171,13.8083,0.081C13.5323,-0.009,13.2833,-0.135,13.0613,-0.297C12.8393,-0.459,12.6503,-0.651,12.4942,-0.873C12.3382,-1.095,12.2243,-1.332,12.1523,-1.584L12.0623,-1.584L12.0623,3.6L9.39825,3.6ZM13.8083,-1.944C14.3123,-1.944,14.7292,-2.121,15.0592,-2.475C15.3893,-2.829,15.5543,-3.306,15.5543,-3.906L15.5543,-5.544C15.5543,-6.144,15.3893,-6.621,15.0592,-6.975C14.7292,-7.329,14.3123,-7.506,13.8083,-7.506C13.3043,-7.506,12.8872,-7.383,12.5573,-7.137C12.2273,-6.891,12.0623,-6.552,12.0623,-6.12L12.0623,-3.33C12.0623,-2.898,12.2273,-2.559,12.5573,-2.313C12.8872,-2.067,13.3043,-1.944,13.8083,-1.944Z" transform="translate(454.144,159.773) scale(1.35,1.35)"/>
            </g>
            <g id="go" opacity="0" transform="translate(266.236,221.111) translate(-266.24,-250.687)" style="white-space: preserve-spaces; animation: 18s linear infinite both go_t, 18s linear infinite both go_o;">
                <path fill="#ffffff" d="M-9.99125,0.198C-10.5313,0.198,-10.9303,0.063,-11.1882,-0.207C-11.4462,-0.477,-11.5752,-0.822,-11.5752,-1.242L-11.5752,-1.602C-11.5752,-2.022,-11.4462,-2.367,-11.1882,-2.637C-10.9303,-2.907,-10.5313,-3.042,-9.99125,-3.042C-9.45125,-3.042,-9.05225,-2.907,-8.79425,-2.637C-8.53625,-2.367,-8.40725,-2.022,-8.40725,-1.602L-8.40725,-1.242C-8.40725,-0.822,-8.53625,-0.477,-8.79425,-0.207C-9.05225,0.063,-9.45125,0.198,-9.99125,0.198ZM2.78687,0.684C2.78687,1.188,2.69987,1.632,2.52588,2.016C2.35188,2.4,2.06688,2.727,1.67087,2.997C1.27487,3.267,0.749875,3.471,0.0958748,3.609C-0.558125,3.747,-1.36512,3.816,-2.32513,3.816C-3.14113,3.816,-3.83413,3.765,-4.40413,3.663C-4.97412,3.561,-5.43612,3.417,-5.79012,3.231C-6.14412,3.045,-6.40213,2.817,-6.56413,2.547C-6.72613,2.277,-6.80713,1.968,-6.80713,1.62C-6.80713,1.092,-6.65113,0.678,-6.33913,0.378C-6.02713,0.078,-5.59513,-0.108,-5.04313,-0.18L-5.04313,-0.378C-5.49913,-0.462,-5.84113,-0.657,-6.06913,-0.963C-6.29713,-1.269,-6.41113,-1.626,-6.41113,-2.034C-6.41113,-2.286,-6.36013,-2.505,-6.25812,-2.691C-6.15612,-2.877,-6.02412,-3.039,-5.86212,-3.177C-5.70012,-3.315,-5.51112,-3.426,-5.29513,-3.51C-5.07913,-3.594,-4.86313,-3.66,-4.64713,-3.708L-4.64713,-3.78C-5.22313,-4.044,-5.64913,-4.407,-5.92513,-4.869C-6.20113,-5.331,-6.33913,-5.868,-6.33913,-6.48C-6.33913,-7.44,-6.00613,-8.211,-5.34013,-8.793C-4.67413,-9.375,-3.65712,-9.666,-2.28912,-9.666C-1.66513,-9.666,-1.13113,-9.606,-0.687125,-9.486L-0.687125,-9.846C-0.687125,-10.35,-0.564125,-10.713,-0.318125,-10.935C-0.0721253,-11.157,0.278875,-11.268,0.734875,-11.268L2.22888,-11.268L2.22888,-9.288L0.140875,-9.288L0.140875,-9.18C0.692875,-8.916,1.10087,-8.553,1.36487,-8.091C1.62887,-7.629,1.76087,-7.092,1.76087,-6.48C1.76087,-5.532,1.42787,-4.773,0.761875,-4.203C0.0958751,-3.633,-0.921125,-3.348,-2.28912,-3.348C-2.90112,-3.348,-3.45912,-3.414,-3.96312,-3.546C-4.23912,-3.366,-4.37712,-3.114,-4.37712,-2.79C-4.37712,-2.562,-4.29012,-2.385,-4.11613,-2.259C-3.94213,-2.133,-3.65112,-2.07,-3.24312,-2.07L-0.507125,-2.07C0.644875,-2.07,1.48187,-1.83,2.00387,-1.35C2.52587,-0.87,2.78687,-0.192,2.78687,0.684ZM0.284875,1.044C0.284875,0.768,0.176875,0.558,-0.039125,0.414C-0.255125,0.27,-0.633125,0.198,-1.17312,0.198L-4.41313,0.198C-4.53313,0.318,-4.62013,0.453,-4.67413,0.603C-4.72813,0.753,-4.75513,0.9,-4.75513,1.044C-4.75513,1.392,-4.60513,1.647,-4.30513,1.809C-4.00513,1.971,-3.49512,2.052,-2.77513,2.052L-1.69513,2.052C-0.975125,2.052,-0.465125,1.971,-0.165125,1.809C0.134875,1.647,0.284875,1.392,0.284875,1.044ZM-2.28912,-5.094C-1.76113,-5.094,-1.36813,-5.205,-1.11013,-5.427C-0.852125,-5.649,-0.723125,-5.97,-0.723125,-6.39L-0.723125,-6.606C-0.723125,-7.026,-0.852125,-7.347,-1.11013,-7.569C-1.36813,-7.791,-1.76113,-7.902,-2.28912,-7.902C-2.81712,-7.902,-3.21012,-7.791,-3.46813,-7.569C-3.72613,-7.347,-3.85512,-7.026,-3.85512,-6.606L-3.85512,-6.39C-3.85512,-5.97,-3.72613,-5.649,-3.46813,-5.427C-3.21012,-5.205,-2.81712,-5.094,-2.28912,-5.094ZM7.701,0.216C7.005,0.216,6.384,0.102,5.838,-0.126C5.292,-0.354,4.83,-0.684,4.452,-1.116C4.074,-1.548,3.783,-2.07,3.579,-2.682C3.375,-3.294,3.273,-3.978,3.273,-4.734C3.273,-5.49,3.375,-6.174,3.579,-6.786C3.783,-7.398,4.074,-7.917,4.452,-8.343C4.83,-8.769,5.292,-9.096,5.838,-9.324C6.384,-9.552,7.005,-9.666,7.701,-9.666C8.397,-9.666,9.018,-9.552,9.564,-9.324C10.11,-9.096,10.572,-8.769,10.95,-8.343C11.328,-7.917,11.619,-7.398,11.823,-6.786C12.027,-6.174,12.129,-5.49,12.129,-4.734C12.129,-3.978,12.027,-3.294,11.823,-2.682C11.619,-2.07,11.328,-1.548,10.95,-1.116C10.572,-0.684,10.11,-0.354,9.564,-0.126C9.018,0.102,8.397,0.216,7.701,0.216ZM7.701,-1.89C8.229,-1.89,8.637,-2.052,8.925,-2.376C9.213,-2.7,9.357,-3.162,9.357,-3.762L9.357,-5.688C9.357,-6.288,9.213,-6.75,8.925,-7.074C8.637,-7.398,8.229,-7.56,7.701,-7.56C7.173,-7.56,6.765,-7.398,6.477,-7.074C6.189,-6.75,6.045,-6.288,6.045,-5.688L6.045,-3.762C6.045,-3.162,6.189,-2.7,6.477,-2.376C6.765,-2.052,7.173,-1.89,7.701,-1.89Z" transform="translate(454.144,159.773) scale(1.35,1.35)"/>
            </g>
            <g id="java" opacity="0" transform="translate(266.236,221.111) translate(-266.24,-250.687)" style="white-space: preserve-spaces; animation: 18s linear infinite both java_t, 18s linear infinite both java_o;">
                <path fill="#ffffff" d="M-17.4756,0.198C-18.0156,0.198,-18.4146,0.063,-18.6726,-0.207C-18.9306,-0.477,-19.0596,-0.822,-19.0596,-1.242L-19.0596,-1.602C-19.0596,-2.022,-18.9306,-2.367,-18.6726,-2.637C-18.4146,-2.907,-18.0156,-3.042,-17.4756,-3.042C-16.9356,-3.042,-16.5366,-2.907,-16.2786,-2.637C-16.0206,-2.367,-15.8916,-2.022,-15.8916,-1.602L-15.8916,-1.242C-15.8916,-0.822,-16.0206,-0.477,-16.2786,-0.207C-16.5366,0.063,-16.9356,0.198,-17.4756,0.198ZM-13.4455,-9.45L-10.7815,-9.45L-10.7815,1.008C-10.7815,1.848,-10.9915,2.49,-11.4115,2.934C-11.8315,3.378,-12.5095,3.6,-13.4455,3.6L-14.8495,3.6L-14.8495,1.53L-13.4455,1.53ZM-12.1135,-10.458C-12.6535,-10.458,-13.0465,-10.581,-13.2925,-10.827C-13.5385,-11.073,-13.6615,-11.388,-13.6615,-11.772L-13.6615,-12.168C-13.6615,-12.552,-13.5385,-12.867,-13.2925,-13.113C-13.0465,-13.359,-12.6535,-13.482,-12.1135,-13.482C-11.5735,-13.482,-11.1805,-13.359,-10.9345,-13.113C-10.6885,-12.867,-10.5655,-12.552,-10.5655,-12.168L-10.5655,-11.772C-10.5655,-11.388,-10.6885,-11.073,-10.9345,-10.827C-11.1805,-10.581,-11.5735,-10.458,-12.1135,-10.458ZM-1.32088,0C-1.80088,0,-2.19987,-0.15,-2.51787,-0.45C-2.83587,-0.75,-3.03688,-1.152,-3.12088,-1.656L-3.22887,-1.656C-3.37288,-1.044,-3.69088,-0.579,-4.18287,-0.261C-4.67487,0.057,-5.28088,0.216,-6.00087,0.216C-6.94887,0.216,-7.67487,-0.036,-8.17887,-0.54C-8.68287,-1.044,-8.93487,-1.71,-8.93487,-2.538C-8.93487,-3.534,-8.57187,-4.275,-7.84587,-4.761C-7.11987,-5.247,-6.13287,-5.49,-4.88487,-5.49L-3.39087,-5.49L-3.39087,-6.084C-3.39087,-6.54,-3.51087,-6.903,-3.75087,-7.173C-3.99088,-7.443,-4.39288,-7.578,-4.95687,-7.578C-5.48488,-7.578,-5.90488,-7.464,-6.21688,-7.236C-6.52888,-7.008,-6.78688,-6.75,-6.99088,-6.462L-8.57487,-7.866C-8.19087,-8.43,-7.70787,-8.871,-7.12587,-9.189C-6.54388,-9.507,-5.75488,-9.666,-4.75887,-9.666C-3.41488,-9.666,-2.40688,-9.372,-1.73488,-8.784C-1.06288,-8.196,-0.726875,-7.338,-0.726875,-6.21L-0.726875,-2.07L0.155125,-2.07L0.155125,0ZM-5.01087,-1.638C-4.56687,-1.638,-4.18587,-1.734,-3.86788,-1.926C-3.54987,-2.118,-3.39087,-2.43,-3.39087,-2.862L-3.39087,-3.978L-4.68687,-3.978C-5.73088,-3.978,-6.25288,-3.624,-6.25288,-2.916L-6.25288,-2.646C-6.25288,-2.298,-6.14488,-2.043,-5.92887,-1.881C-5.71288,-1.719,-5.40687,-1.638,-5.01087,-1.638ZM3.758,0L0.662,-9.45L3.29,-9.45L4.46,-5.634L5.342,-2.214L5.486,-2.214L6.368,-5.634L7.502,-9.45L10.022,-9.45L6.926,0ZM18.2572,0C17.7773,0,17.3783,-0.15,17.0602,-0.45C16.7422,-0.75,16.5412,-1.152,16.4572,-1.656L16.3493,-1.656C16.2052,-1.044,15.8872,-0.579,15.3953,-0.261C14.9032,0.057,14.2972,0.216,13.5772,0.216C12.6293,0.216,11.9033,-0.036,11.3993,-0.54C10.8953,-1.044,10.6433,-1.71,10.6433,-2.538C10.6433,-3.534,11.0063,-4.275,11.7323,-4.761C12.4583,-5.247,13.4453,-5.49,14.6933,-5.49L16.1873,-5.49L16.1873,-6.084C16.1873,-6.54,16.0672,-6.903,15.8272,-7.173C15.5872,-7.443,15.1852,-7.578,14.6213,-7.578C14.0933,-7.578,13.6733,-7.464,13.3612,-7.236C13.0492,-7.008,12.7912,-6.75,12.5872,-6.462L11.0033,-7.866C11.3873,-8.43,11.8703,-8.871,12.4522,-9.189C13.0342,-9.507,13.8232,-9.666,14.8193,-9.666C16.1633,-9.666,17.1713,-9.372,17.8433,-8.784C18.5152,-8.196,18.8512,-7.338,18.8512,-6.21L18.8512,-2.07L19.7332,-2.07L19.7332,0ZM14.5673,-1.638C15.0112,-1.638,15.3922,-1.734,15.7102,-1.926C16.0283,-2.118,16.1873,-2.43,16.1873,-2.862L16.1873,-3.978L14.8913,-3.978C13.8472,-3.978,13.3252,-3.624,13.3252,-2.916L13.3252,-2.646C13.3252,-2.298,13.4332,-2.043,13.6493,-1.881C13.8652,-1.719,14.1712,-1.638,14.5673,-1.638Z" transform="translate(454.144,159.773) scale(1.35,1.35)"/>
            </g>
            <g id="c" opacity="0" transform="translate(266.236,221.111) translate(-266.24,-250.687)" style="white-space: preserve-spaces; animation: 18s linear infinite both c_t, 18s linear infinite both c_o;">
                <path fill="#ffffff" d="M-4.5225,0.198C-5.0625,0.198,-5.4615,0.063,-5.7195,-0.207C-5.9775,-0.477,-6.1065,-0.822,-6.1065,-1.242L-6.1065,-1.602C-6.1065,-2.022,-5.9775,-2.367,-5.7195,-2.637C-5.4615,-2.907,-5.0625,-3.042,-4.5225,-3.042C-3.9825,-3.042,-3.5835,-2.907,-3.3255,-2.637C-3.0675,-2.367,-2.9385,-2.022,-2.9385,-1.602L-2.9385,-1.242C-2.9385,-0.822,-3.0675,-0.477,-3.3255,-0.207C-3.5835,0.063,-3.9825,0.198,-4.5225,0.198ZM3.058,0.216C2.35,0.216,1.72,0.099,1.168,-0.135C0.616,-0.369,0.154,-0.699,-0.218,-1.125C-0.59,-1.551,-0.872,-2.07,-1.064,-2.682C-1.256,-3.294,-1.352,-3.978,-1.352,-4.734C-1.352,-5.49,-1.256,-6.171,-1.064,-6.777C-0.872,-7.383,-0.59,-7.902,-0.218,-8.334C0.154,-8.766,0.616,-9.096,1.168,-9.324C1.72,-9.552,2.35,-9.666,3.058,-9.666C4.018,-9.666,4.819,-9.45,5.461,-9.018C6.103,-8.586,6.562,-7.98,6.838,-7.2L4.678,-6.264C4.594,-6.624,4.42,-6.93,4.156,-7.182C3.892,-7.434,3.526,-7.56,3.058,-7.56C2.518,-7.56,2.11,-7.383,1.834,-7.029C1.558,-6.675,1.42,-6.198,1.42,-5.598L1.42,-3.834C1.42,-3.234,1.558,-2.757,1.834,-2.403C2.11,-2.049,2.518,-1.872,3.058,-1.872C3.586,-1.872,3.979,-2.013,4.237,-2.295C4.495,-2.577,4.69,-2.91,4.822,-3.294L6.892,-2.394C6.58,-1.494,6.097,-0.834,5.443,-0.414C4.789,0.006,3.994,0.216,3.058,0.216Z" transform="translate(454.144,159.773) scale(1.35,1.35)"/>
            </g>
            <g id="py" opacity="0" transform="translate(266.236,221.111) translate(-266.24,-250.687)" style="white-space: preserve-spaces; animation: 18s linear infinite both py_t, 18s linear infinite both py_o;">
                <path fill="#ffffff" d="M-10.1788,0.198C-10.7188,0.198,-11.1178,0.063,-11.3757,-0.207C-11.6337,-0.477,-11.7627,-0.822,-11.7627,-1.242L-11.7627,-1.602C-11.7627,-2.022,-11.6337,-2.367,-11.3757,-2.637C-11.1178,-2.907,-10.7188,-3.042,-10.1788,-3.042C-9.63875,-3.042,-9.23975,-2.907,-8.98175,-2.637C-8.72375,-2.367,-8.59475,-2.022,-8.59475,-1.602L-8.59475,-1.242C-8.59475,-0.822,-8.72375,-0.477,-8.98175,-0.207C-9.23975,0.063,-9.63875,0.198,-10.1788,0.198ZM-6.14862,-9.45L-3.48463,-9.45L-3.48463,-7.866L-3.39462,-7.866C-3.26263,-8.394,-2.95963,-8.826,-2.48562,-9.162C-2.01162,-9.498,-1.46862,-9.666,-0.856625,-9.666C0.343375,-9.666,1.24937,-9.246,1.86137,-8.406C2.47338,-7.566,2.77938,-6.342,2.77938,-4.734C2.77938,-3.126,2.47338,-1.899,1.86137,-1.053C1.24937,-0.207,0.343375,0.216,-0.856625,0.216C-1.16863,0.216,-1.46262,0.171,-1.73862,0.081C-2.01462,-0.009,-2.26362,-0.135,-2.48562,-0.297C-2.70762,-0.459,-2.89663,-0.651,-3.05263,-0.873C-3.20862,-1.095,-3.32262,-1.332,-3.39462,-1.584L-3.48463,-1.584L-3.48463,3.6L-6.14862,3.6ZM-1.73862,-1.944C-1.23462,-1.944,-0.817625,-2.121,-0.487625,-2.475C-0.157625,-2.829,0.00737524,-3.306,0.00737524,-3.906L0.00737524,-5.544C0.00737524,-6.144,-0.157625,-6.621,-0.487625,-6.975C-0.817625,-7.329,-1.23462,-7.506,-1.73862,-7.506C-2.24262,-7.506,-2.65962,-7.383,-2.98962,-7.137C-3.31963,-6.891,-3.48463,-6.552,-3.48463,-6.12L-3.48463,-3.33C-3.48463,-2.898,-3.31963,-2.559,-2.98962,-2.313C-2.65962,-2.067,-2.24262,-1.944,-1.73862,-1.944ZM10.3794,-9.45L12.8634,-9.45L9.22738,1.458C8.98737,2.19,8.64837,2.73,8.21037,3.078C7.77237,3.426,7.14537,3.6,6.32938,3.6L4.67338,3.6L4.67338,1.53L6.45538,1.53L6.77938,0.486L3.46738,-9.45L6.11337,-9.45L7.49937,-5.04L8.18338,-2.304L8.29137,-2.304L8.99337,-5.04Z" transform="translate(454.144,159.773) scale(1.35,1.35)"/>
            </g>
            <g id="rb" opacity="0" transform="translate(266.236,221.111) translate(-266.24,-250.687)" style="white-space: preserve-spaces; animation: 18s linear infinite both rb_t, 18s linear infinite both rb_o;">
                <path fill="#ffffff" d="M-9.10063,0.198C-9.64063,0.198,-10.0396,0.063,-10.2976,-0.207C-10.5556,-0.477,-10.6846,-0.822,-10.6846,-1.242L-10.6846,-1.602C-10.6846,-2.022,-10.5556,-2.367,-10.2976,-2.637C-10.0396,-2.907,-9.64063,-3.042,-9.10063,-3.042C-8.56062,-3.042,-8.16162,-2.907,-7.90363,-2.637C-7.64562,-2.367,-7.51662,-2.022,-7.51662,-1.602L-7.51662,-1.242C-7.51662,-0.822,-7.64562,-0.477,-7.90363,-0.207C-8.16162,0.063,-8.56062,0.198,-9.10063,0.198ZM-5.0705,0L-5.0705,-9.45L-2.4065,-9.45L-2.4065,-7.398L-2.3165,-7.398C-2.2685,-7.662,-2.1845,-7.917,-2.0645,-8.163C-1.9445,-8.409,-1.7855,-8.628,-1.5875,-8.82C-1.3895,-9.012,-1.1525,-9.165,-0.8765,-9.279C-0.6005,-9.393,-0.2765,-9.45,0.0955,-9.45L0.5635,-9.45L0.5635,-6.966L-0.1025,-6.966C-0.8825,-6.966,-1.4615,-6.864,-1.8395,-6.66C-2.2175,-6.456,-2.4065,-6.078,-2.4065,-5.526L-2.4065,0ZM2.19513,-13.32L4.85913,-13.32L4.85913,-7.866L4.94913,-7.866C5.08112,-8.394,5.38412,-8.826,5.85813,-9.162C6.33213,-9.498,6.87513,-9.666,7.48712,-9.666C8.68712,-9.666,9.59312,-9.246,10.2051,-8.406C10.8171,-7.566,11.1231,-6.342,11.1231,-4.734C11.1231,-3.126,10.8171,-1.899,10.2051,-1.053C9.59312,-0.207,8.68712,0.216,7.48712,0.216C7.17512,0.216,6.88113,0.171,6.60513,0.081C6.32913,-0.009,6.08013,-0.135,5.85813,-0.297C5.63613,-0.459,5.44712,-0.651,5.29112,-0.873C5.13513,-1.095,5.02113,-1.332,4.94913,-1.584L4.85913,-1.584L4.85913,0L2.19513,0ZM6.60513,-1.944C7.10913,-1.944,7.52613,-2.121,7.85613,-2.475C8.18613,-2.829,8.35113,-3.306,8.35113,-3.906L8.35113,-5.544C8.35113,-6.144,8.18613,-6.621,7.85613,-6.975C7.52613,-7.329,7.10913,-7.506,6.60513,-7.506C6.10113,-7.506,5.68413,-7.383,5.35413,-7.137C5.02413,-6.891,4.85913,-6.552,4.85913,-6.12L4.85913,-3.33C4.85913,-2.898,5.02413,-2.559,5.35413,-2.313C5.68413,-2.067,6.10113,-1.944,6.60513,-1.944Z" transform="translate(454.144,159.773) scale(1.35,1.35)"/>
            </g>
        </g>
    </g>
</svg>
