<svg xmlns="http://www.w3.org/2000/svg" width="130" height="130" viewBox="0 0 130 130" fill="none"><style>
@keyframes a_t { 0% { transform: translate(65px,65px) rotate(0deg) translate(-61.5px,-61.5px); animation-timing-function: cubic-bezier(.42,0,.58,1); } 11.494% { transform: translate(65px,65px) rotate(180deg) translate(-61.5px,-61.5px); } 12.644% { transform: translate(65px,65px) rotate(180deg) translate(-61.5px,-61.5px); animation-timing-function: cubic-bezier(.42,0,.58,1); } 24.138% { transform: translate(65px,65px) rotate(360deg) translate(-61.5px,-61.5px); } 25.287% { transform: translate(65px,65px) rotate(360deg) translate(-61.5px,-61.5px); animation-timing-function: cubic-bezier(.42,0,.58,1); } 36.782% { transform: translate(65px,65px) rotate(540deg) translate(-61.5px,-61.5px); } 37.931% { transform: translate(65px,65px) rotate(540deg) translate(-61.5px,-61.5px); animation-timing-function: cubic-bezier(.42,0,.58,1); } 49.425% { transform: translate(65px,65px) rotate(720deg) translate(-61.5px,-61.5px); } 50.575% { transform: translate(65px,65px) rotate(720deg) translate(-61.5px,-61.5px); animation-timing-function: cubic-bezier(.42,0,.58,1); } 62.069% { transform: translate(65px,65px) rotate(900deg) translate(-61.5px,-61.5px); } 63.218% { transform: translate(65px,65px) rotate(900deg) translate(-61.5px,-61.5px); animation-timing-function: cubic-bezier(.42,0,.58,1); } 74.713% { transform: translate(65px,65px) rotate(1080deg) translate(-61.5px,-61.5px); } 75.862% { transform: translate(65px,65px) rotate(1080deg) translate(-61.5px,-61.5px); animation-timing-function: cubic-bezier(.42,0,.58,1); } 87.356% { transform: translate(65px,65px) rotate(1260deg) translate(-61.5px,-61.5px); } 88.506% { transform: translate(65px,65px) rotate(1260deg) translate(-61.5px,-61.5px); animation-timing-function: cubic-bezier(.42,0,.58,1); } 100% { transform: translate(65px,65px) rotate(1440deg) translate(-61.5px,-61.5px); } }
@keyframes b_f { 0% { fill: #fff; } 100% { fill: #fff; } }
@keyframes c_f { 0% { fill: #fff; } 100% { fill: #fff; } }
@keyframes d_o { 0% { opacity: 0; } 1.149% { opacity: 1; } 10.345% { opacity: 1; } 11.494% { opacity: 0; } 100% { opacity: 0; } }
@keyframes e_o { 0% { opacity: 0; } 12.644% { opacity: 0; } 13.793% { opacity: 1; } 22.989% { opacity: 1; } 24.138% { opacity: 0; } 100% { opacity: 0; } }
@keyframes f_o { 0% { opacity: 0; } 25.287% { opacity: 0; } 26.437% { opacity: 1; } 35.632% { opacity: 1; } 36.782% { opacity: 0; } 100% { opacity: 0; } }
@keyframes g_o { 0% { opacity: 0; } 37.931% { opacity: 0; } 39.08% { opacity: 1; } 48.276% { opacity: 1; } 49.425% { opacity: 0; } 100% { opacity: 0; } }
@keyframes h_o { 0% { opacity: 0; } 50.575% { opacity: 0; } 51.724% { opacity: 1; } 60.92% { opacity: 1; } 62.069% { opacity: 0; } 100% { opacity: 0; } }
@keyframes i_o { 0% { opacity: 0; } 63.218% { opacity: 0; } 64.368% { opacity: 1; } 73.563% { opacity: 1; } 74.713% { opacity: 0; } 100% { opacity: 0; } }
@keyframes j_o { 0% { opacity: 0; } 75.862% { opacity: 0; } 77.011% { opacity: 1; } 86.207% { opacity: 1; } 87.356% { opacity: 0; } 100% { opacity: 0; } }
@keyframes k_o { 0% { opacity: 0; } 88.506% { opacity: 0; } 89.655% { opacity: 1; } 98.851% { opacity: 1; } 100% { opacity: 0; } }
</style><g transform="translate(65,65) translate(-61.5,-61.5)" style="animation: 8.7s linear infinite both a_t;"><path d="M4.07 67.87l-0.5 .03l.5-0.03Zm13.93-41.75l-0.39-0.32l.39 .32Zm38.4-21.51l-0.07-0.5l.07 .5Zm42.98 10.43c.27-0.05 .45-0.31 .4-0.59l-0.85-4.42c-0.05-0.27-0.31-0.44-0.58-0.39c-0.27 .05-0.45 .31-0.4 .58l.75 3.93l-3.93 .75c-0.27 .05-0.45 .31-0.39 .59c.05 .27 .31 .44 .58 .39l4.42-0.84Zm-77.16 92.74c-10.65-10.65-16.94-24.89-17.65-39.93l-1 .05c.72 15.29 7.12 29.76 17.94 40.59l.71-0.71Zm-17.65-39.93c-0.71-15.04 4.21-29.81 13.81-41.41l-0.77-0.64c-9.75 11.79-14.76 26.81-14.04 42.1l1-0.05Zm13.81-41.41c9.6-11.61 23.19-19.21 38.1-21.34l-0.15-0.99c-15.15 2.16-28.96 9.89-38.72 21.69l.77 .64Zm38.1-21.34c14.9-2.12 30.07 1.4 42.53 9.86l.56-0.83c-12.66-8.6-28.08-12.17-43.24-10.02l.15 .99Z" fill="#fff" transform="translate(-3.5,-3.5)" style="animation: 8.7s linear infinite both b_f;"/><path d="M125.93 62.13l.5-0.03l-0.5 .03Zm-13.93 41.75l.39 .32l-0.39-0.32Zm-38.41 21.51l.08 .5l-0.08-0.5Zm-42.97-10.43c-0.27 .05-0.45 .31-0.4 .59l.84 4.42c.06 .27 .32 .44 .59 .39c.27-0.05 .45-0.31 .4-0.58l-0.75-3.93l3.93-0.75c.27-0.05 .45-0.31 .39-0.59c-0.05-0.27-0.31-0.44-0.58-0.39l-4.42 .84Zm77.16-92.74c10.65 10.65 16.94 24.89 17.65 39.93l1-0.05c-0.72-15.29-7.12-29.76-17.94-40.59l-0.71 .71Zm17.65 39.93c.71 15.04-4.22 29.81-13.81 41.41l.77 .64c9.75-11.79 14.76-26.81 14.04-42.1l-1 .05Zm-13.81 41.41c-9.6 11.61-23.19 19.21-38.1 21.34l.15 .99c15.15-2.16 28.96-9.89 38.72-21.69l-0.77-0.64Zm-38.1 21.34c-14.91 2.12-30.07-1.4-42.53-9.86l-0.56 .82c12.66 8.61 28.08 12.18 43.24 10.03l-0.15-0.99Z" fill="#fff" transform="translate(-3.5,-3.5)" style="animation: 8.7s linear infinite both c_f;"/></g><g transform="translate(33.04,53.3)"><text fill="#db2b56" font-size="18" font-family="'IBM Plex Sans'" letter-spacing="0" word-spacing="0" text-anchor="middle" opacity="0" transform="translate(31.96,18.45)" style="line-height: 16px; white-space: pre; animation: 8.7s linear infinite both d_o;">&lt;/&gt;</text><text fill="#db2b56" font-size="18" font-family="'IBM Plex Sans'" letter-spacing="0" word-spacing="0" text-anchor="middle" opacity="0" transform="translate(31.96,18.45)" style="line-height: 16px; white-space: pre; animation: 8.7s linear infinite both e_o;">&lt;.js&gt;</text><text fill="#db2b56" font-size="18" font-family="'IBM Plex Sans'" letter-spacing="0" word-spacing="0" text-anchor="middle" opacity="0" transform="translate(31.96,18.45)" style="line-height: 16px; white-space: pre; animation: 8.7s linear infinite both f_o;">&lt;.py&gt;</text><text fill="#db2b56" font-size="18" font-family="'IBM Plex Sans'" letter-spacing="0" word-spacing="0" text-anchor="middle" opacity="0" transform="translate(31.96,18.45)" style="line-height: 16px; white-space: pre; animation: 8.7s linear infinite both g_o;">&lt;.go&gt;</text><text fill="#db2b56" font-size="18" font-family="'IBM Plex Sans'" letter-spacing="0" word-spacing="0" text-anchor="middle" opacity="0" transform="translate(31.96,18.45)" style="line-height: 16px; white-space: pre; animation: 8.7s linear infinite both h_o;">&lt;.php&gt;</text><text fill="#db2b56" font-size="18" font-family="'IBM Plex Sans'" letter-spacing="0" word-spacing="0" text-anchor="middle" opacity="0" transform="translate(31.96,18.45)" style="line-height: 16px; white-space: pre; animation: 8.7s linear infinite both i_o;">&lt;.java&gt;</text><text fill="#db2b56" font-size="18" font-family="'IBM Plex Sans'" letter-spacing="0" word-spacing="0" text-anchor="middle" opacity="0" transform="translate(31.96,18.45)" style="line-height: 16px; white-space: pre; animation: 8.7s linear infinite both j_o;">&lt;.ts&gt;</text><text fill="#db2b56" font-size="18" font-family="'IBM Plex Sans'" letter-spacing="0" word-spacing="0" text-anchor="middle" opacity="0" transform="translate(31.96,18.45)" style="line-height: 16px; white-space: pre; animation: 8.7s linear infinite both k_o;">&lt;.ruby&gt;</text></g></svg>