<svg xmlns="http://www.w3.org/2000/svg" width="530" height="444" viewBox="0 0 530 444" fill="none"><style>
@keyframes a_t { 0% { transform: translate(400.5px,100.5px) rotate(0deg) translate(-40.5px,-40.5px); } 12.222% { transform: translate(400.5px,100.5px) rotate(0deg) translate(-40.5px,-40.5px); } 14.444% { transform: translate(400.5px,100.5px) rotate(180deg) translate(-40.5px,-40.5px); } 51.111% { transform: translate(400.5px,100.5px) rotate(180deg) translate(-40.5px,-40.5px); } 53.333% { transform: translate(400.5px,100.5px) rotate(0deg) translate(-40.5px,-40.5px); } 100% { transform: translate(400.5px,100.5px) rotate(0deg) translate(-40.5px,-40.5px); } }
@keyframes b_t { 0% { transform: translate(0px,46.72px) rotate(90deg); } 100% { transform: translate(0px,46.72px) rotate(90deg); } }
@keyframes c_d { 0% { d: path('M-3.31,0L0,0'); } 11.111% { d: path('M-3.31,0L180.5,0'); } 100% { d: path('M-3.31,0L180.5,0'); } }
@keyframes d_o { 0% { opacity: 0; } 11.111% { opacity: 0; animation-timing-function: cubic-bezier(.42,0,.58,1); } 12.222% { opacity: 1; } 100% { opacity: 1; } }
@keyframes e_d { 0% { d: path('M-3.31,0L0,0'); } 14.444% { d: path('M-3.31,0L0,0'); } 25.556% { d: path('M-3.31,-0.47L152.59,-0.47'); } 100% { d: path('M-3.31,-0.47L152.59,-0.47'); } }
@keyframes f_o { 0% { opacity: 0; } 25.556% { opacity: 0; animation-timing-function: cubic-bezier(.42,0,.58,1); } 26.667% { opacity: 1; } 100% { opacity: 1; } }
@keyframes g_d { 0% { d: path('M-3.31,0L0,0'); } 38.889% { d: path('M-3.31,0L0,0'); } 50% { d: path('M-3.31,-0.47L152.59,-0.47'); } 100% { d: path('M-3.31,-0.47L152.59,-0.47'); } }
@keyframes h_o { 0% { opacity: 0; } 50% { opacity: 0; animation-timing-function: cubic-bezier(.42,0,.58,1); } 51.111% { opacity: 1; } 100% { opacity: 1; } }
@keyframes i_d { 0% { d: path('M-3.31,0L0,0'); } 53.333% { d: path('M-3.31,0L0,0'); } 64.444% { d: path('M-3.31,0L180.5,0'); } 100% { d: path('M-3.31,0L180.5,0'); } }
@keyframes j_o { 0% { opacity: 0; } 64.444% { opacity: 0; animation-timing-function: cubic-bezier(.42,0,.58,1); } 65.556% { opacity: 1; } 100% { opacity: 1; } }
@keyframes k_d { 0% { d: path('M-3.31,0L0,0'); } 26.667% { d: path('M-3.31,0L0,0'); } 37.778% { d: path('M-3.31,0L270.06,0'); } 100% { d: path('M-3.31,0L270.06,0'); } }
@keyframes l_o { 0% { opacity: 0; } 37.778% { opacity: 0; animation-timing-function: cubic-bezier(.42,0,.58,1); } 38.889% { opacity: 1; } 100% { opacity: 1; } }
@keyframes m_d { 0% { d: path('M-3.31,0L0,0'); } 26.667% { d: path('M-3.31,0L0,0'); } 37.778% { d: path('M-3.31,0L270.06,0'); } 100% { d: path('M-3.31,0L270.06,0'); } }
@keyframes n_o { 0% { opacity: 0; } 37.778% { opacity: 0; animation-timing-function: cubic-bezier(.42,0,.58,1); } 38.889% { opacity: 1; } 100% { opacity: 1; } }
@keyframes o_d { 0% { d: path('M-3.31,0L0,0'); } 65.556% { d: path('M-3.31,0L0,0'); } 76.667% { d: path('M-3.31,-0.47L152.59,-0.47'); } 100% { d: path('M-3.31,-0.47L152.59,-0.47'); } }
@keyframes p_o { 0% { opacity: 0; } 76.667% { opacity: 0; animation-timing-function: cubic-bezier(.42,0,.58,1); } 77.778% { opacity: 1; } 100% { opacity: 1; } }
</style><g transform="translate(89,303)"><path d="M0 40.5c0 22.37 18.13 40.5 40.5 40.5c22.37 0 40.5-18.13 40.5-40.5c0-22.37-18.13-40.5-40.5-40.5c-22.37 0-40.5 18.13-40.5 40.5Z" fill="#15283b"/><path d="M18.22 37.62h3.45c.7 0 1.24 .2 1.63 .59c.4 .39 .6 .92 .6 1.57c0 .32-0.04 .58-0.13 .8c-0.09 .21-0.2 .39-0.34 .54c-0.13 .13-0.28 .24-0.44 .31c-0.16 .06-0.31 .11-0.45 .13v.07c.16 .01 .32 .05 .51 .12c.19 .07 .37 .19 .54 .35c.17 .15 .31 .35 .42 .6c.12 .24 .18 .53 .18 .88c0 .34-0.06 .66-0.17 .96c-0.1 .29-0.25 .55-0.44 .76c-0.2 .22-0.42 .39-0.69 .52c-0.26 .12-0.55 .18-0.86 .18h-3.8v-8.38Zm1.01 7.49h2.49c.43 0 .77-0.11 1.02-0.32c.24-0.23 .37-0.55 .37-0.97v-0.41c0-0.43-0.13-0.75-0.37-0.96c-0.25-0.23-0.59-0.34-1.02-0.34h-2.49v3Zm0-3.86h2.32c.4 0 .71-0.1 .93-0.3c.23-0.2 .34-0.49 .34-0.87v-0.4c0-0.38-0.11-0.67-0.34-0.87c-0.22-0.2-0.53-0.3-0.93-0.3h-2.32v2.74Zm11.24 4.75c-0.36 0-0.62-0.1-0.78-0.29c-0.15-0.19-0.25-0.43-0.29-0.72h-0.06c-0.14 .39-0.36 .67-0.67 .87c-0.31 .19-0.69 .28-1.12 .28c-0.65 0-1.17-0.16-1.53-0.5c-0.36-0.34-0.54-0.79-0.54-1.37c0-0.58 .21-1.03 .63-1.34c.43-0.31 1.1-0.47 2.01-0.47h1.22v-0.61c0-0.44-0.12-0.78-0.36-1.01c-0.24-0.23-0.61-0.35-1.1-0.35c-0.38 0-0.69 .09-0.95 .25c-0.25 .17-0.46 .4-0.62 .68l-0.58-0.54c.17-0.34 .44-0.62 .8-0.86c.37-0.24 .84-0.36 1.39-0.36c.76 0 1.34 .19 1.76 .56c.41 .36 .62 .88 .62 1.53v3.41h.71v.84h-0.54Zm-2.76-0.67c.24 0 .46-0.03 .66-0.09c.2-0.05 .37-0.13 .52-0.24c.14-0.1 .25-0.22 .33-0.36c.08-0.13 .12-0.28 .12-0.44v-1.02h-1.27c-0.55 0-0.96 .08-1.21 .24c-0.25 .16-0.38 .39-0.38 .7v.25c0 .3 .11 .54 .33 .71c.22 .16 .52 .25 .9 .25Zm6.97 .81c-0.43 0-0.82-0.07-1.16-0.22c-0.34-0.16-0.64-0.37-0.88-0.65c-0.23-0.28-0.41-0.62-0.54-1.02c-0.12-0.4-0.18-0.85-0.18-1.35c0-0.49 .06-0.94 .18-1.34c.13-0.4 .31-0.74 .54-1.02c.24-0.28 .54-0.5 .88-0.65c.34-0.15 .73-0.23 1.16-0.23c.62 0 1.11 .14 1.48 .41c.38 .27 .66 .61 .84 1.05l-0.8 .4c-0.12-0.32-0.3-0.56-0.56-0.74c-0.25-0.18-0.57-0.26-0.96-0.26c-0.28 0-0.54 .04-0.75 .14c-0.22 .09-0.4 .22-0.54 .38c-0.15 .16-0.25 .36-0.33 .59c-0.07 .23-0.1 .47-0.1 .75v1.05c0 .55 .14 .99 .43 1.35c.29 .34 .73 .51 1.29 .51c.78 0 1.34-0.36 1.68-1.08l.7 .47c-0.2 .45-0.5 .8-0.9 1.07c-0.39 .26-0.88 .39-1.48 .39Zm3.73-9.02h.97v5.63h.04l.95-1.06l1.75-1.88h1.17l-2.29 2.45l2.52 3.74h-1.17l-2.05-3.16l-0.93 .95v2.21h-0.96v-8.88Zm8.46 9.02c-0.42 0-0.81-0.07-1.15-0.22c-0.34-0.16-0.63-0.37-0.88-0.65c-0.24-0.29-0.42-0.63-0.56-1.02c-0.13-0.4-0.19-0.85-0.19-1.35c0-0.48 .06-0.93 .19-1.33c.14-0.4 .32-0.74 .56-1.02c.25-0.29 .54-0.51 .88-0.66c.34-0.15 .73-0.23 1.15-0.23c.42 0 .79 .08 1.12 .23c.33 .15 .61 .37 .84 .64c.23 .26 .41 .58 .52 .95c.13 .36 .2 .77 .2 1.21v.45h-4.45v.29c0 .27 .04 .51 .12 .75c.08 .22 .2 .42 .36 .58c.16 .17 .35 .3 .57 .4c.23 .1 .49 .14 .78 .14c.39 0 .73-0.09 1.02-0.27c.3-0.19 .52-0.45 .69-0.79l.68 .49c-0.2 .42-0.51 .77-0.94 1.03c-0.42 .26-0.93 .38-1.51 .38Zm0-5.67c-0.26 0-0.5 .05-0.72 .14c-0.21 .09-0.4 .22-0.56 .39c-0.15 .16-0.27 .36-0.36 .6c-0.09 .22-0.13 .47-0.13 .74v.08h3.42v-0.13c0-0.55-0.16-0.99-0.46-1.32c-0.3-0.33-0.69-0.5-1.19-0.5Zm4.26 5.53v-6.19h.96v1.01h.05c.15-0.36 .36-0.64 .63-0.84c.28-0.21 .66-0.32 1.12-0.32c.64 0 1.14 .21 1.51 .63c.38 .41 .57 .99 .57 1.74v3.97h-0.96v-3.8c0-1.12-0.47-1.67-1.41-1.67c-0.19 0-0.38 .02-0.56 .07c-0.18 .05-0.34 .12-0.48 .22c-0.15 .09-0.26 .22-0.35 .37c-0.08 .14-0.12 .31-0.12 .51v4.3h-0.96Zm10.78-1.01h-0.05c-0.37 .77-0.98 1.15-1.81 1.15c-0.38 0-0.73-0.07-1.04-0.22c-0.32-0.16-0.58-0.37-0.81-0.65c-0.21-0.28-0.38-0.62-0.5-1.02c-0.11-0.4-0.17-0.85-0.17-1.35c0-0.49 .06-0.94 .17-1.34c.12-0.4 .29-0.74 .5-1.02c.23-0.28 .49-0.5 .81-0.65c.31-0.15 .66-0.23 1.04-0.23c.43 0 .8 .1 1.1 .29c.32 .19 .55 .47 .71 .87h.05v-3.7h.96v8.88h-0.96v-1.01Zm-1.6 .29c.22 0 .42-0.03 .62-0.08c.2-0.06 .37-0.14 .51-0.24c.15-0.12 .26-0.25 .34-0.4c.09-0.16 .13-0.34 .13-0.54v-2.3c0-0.17-0.04-0.33-0.13-0.47c-0.08-0.15-0.19-0.28-0.34-0.39c-0.14-0.1-0.31-0.18-0.51-0.24c-0.2-0.06-0.4-0.09-0.62-0.09c-0.54 0-0.97 .17-1.28 .51c-0.31 .34-0.47 .78-0.47 1.34v1.05c0 .55 .16 1 .47 1.35c.31 .33 .74 .5 1.28 .5Z" fill="#fff"/></g><g transform="translate(360,303)"><path d="M0 40.5c0 22.37 18.13 40.5 40.5 40.5c22.37 0 40.5-18.13 40.5-40.5c0-22.37-18.13-40.5-40.5-40.5c-22.37 0-40.5 18.13-40.5 40.5Z" fill="#15283b"/><path d="M15.01 46v-8.38h1.01v7.49h3.56v.89h-4.57Zm8.14 .14c-0.42 0-0.8-0.07-1.14-0.22c-0.35-0.16-0.64-0.37-0.89-0.65c-0.24-0.29-0.43-0.63-0.56-1.02c-0.14-0.4-0.21-0.85-0.21-1.35c0-0.48 .07-0.93 .21-1.33c.13-0.4 .32-0.74 .56-1.02c.25-0.29 .54-0.51 .89-0.66c.34-0.15 .72-0.23 1.14-0.23c.41 0 .79 .08 1.12 .23c.35 .15 .64 .37 .89 .66c.25 .28 .44 .62 .58 1.02c.14 .4 .2 .85 .2 1.33c0 .5-0.06 .95-0.2 1.35c-0.14 .39-0.33 .73-0.58 1.02c-0.25 .28-0.54 .49-0.89 .65c-0.33 .15-0.71 .22-1.12 .22Zm0-0.85c.52 0 .94-0.16 1.27-0.48c.33-0.32 .49-0.81 .49-1.46v-0.89c0-0.66-0.16-1.14-0.49-1.46c-0.33-0.32-0.75-0.48-1.27-0.48c-0.52 0-0.95 .16-1.27 .48c-0.33 .32-0.5 .8-0.5 1.46v.89c0 .65 .17 1.14 .5 1.46c.32 .32 .75 .48 1.27 .48Zm9.59 1.39c0 .64-0.25 1.11-0.75 1.41c-0.5 .3-1.25 .45-2.25 .45c-0.97 0-1.66-0.13-2.09-0.39c-0.42-0.27-0.63-0.64-0.63-1.13c0-0.34 .09-0.6 .26-0.79c.18-0.19 .42-0.32 .72-0.41v-0.13c-0.37-0.18-0.55-0.47-0.55-0.87c0-0.31 .1-0.54 .3-0.7c.2-0.17 .46-0.3 .77-0.38v-0.04c-0.37-0.18-0.66-0.43-0.87-0.76c-0.2-0.33-0.3-0.71-0.3-1.14c0-0.31 .06-0.6 .17-0.86c.11-0.27 .27-0.49 .47-0.68c.21-0.19 .45-0.34 .73-0.44c.29-0.1 .61-0.16 .96-0.16c.44 0 .83 .08 1.18 .24v-0.1c0-0.24 .05-0.44 .17-0.59c.11-0.16 .29-0.24 .55-0.24h.92v.84h-1.17v.39c.22 .2 .39 .43 .51 .7c.13 .26 .19 .56 .19 .9c0 .31-0.05 .6-0.16 .86c-0.12 .27-0.28 .5-0.48 .69c-0.2 .18-0.45 .33-0.74 .43c-0.28 .1-0.6 .16-0.96 .16c-0.2 0-0.4-0.02-0.6-0.06c-0.2 .05-0.39 .14-0.56 .25c-0.17 .1-0.25 .25-0.25 .44c0 .19 .09 .31 .26 .37c.18 .07 .41 .1 .69 .1h1.32c.76 0 1.32 .15 1.66 .44c.36 .29 .53 .69 .53 1.2Zm-0.9 .08c0-0.25-0.09-0.45-0.29-0.6c-0.18-0.15-0.51-0.22-0.99-0.22h-2.07c-0.38 .18-0.57 .46-0.57 .84c0 .27 .1 .5 .3 .7c.21 .19 .55 .28 1.04 .28h.89c.54 0 .95-0.08 1.25-0.25c.29-0.17 .44-0.42 .44-0.75Zm-2.15-3.59c.41 0 .74-0.1 .98-0.29c.24-0.2 .36-0.5 .36-0.91v-0.34c0-0.41-0.12-0.71-0.36-0.9c-0.24-0.2-0.57-0.3-0.98-0.3c-0.4 0-0.73 .1-0.97 .3c-0.24 .19-0.36 .49-0.36 .9v.34c0 .41 .12 .71 .36 .91c.24 .19 .57 .29 .97 .29Zm4.65-4.81c-0.21 0-0.36-0.05-0.45-0.15c-0.09-0.1-0.14-0.23-0.14-0.39v-0.16c0-0.16 .05-0.29 .14-0.38c.09-0.11 .24-0.16 .45-0.16c.21 0 .36 .05 .45 .16c.09 .09 .14 .22 .14 .38v.16c0 .16-0.05 .29-0.14 .39c-0.09 .1-0.24 .15-0.45 .15Zm-0.48 1.45h.96v6.19h-0.96v-6.19Zm3 6.19v-6.19h.96v1.01h.05c.15-0.36 .36-0.64 .64-0.84c.28-0.21 .65-0.32 1.11-0.32c.64 0 1.15 .21 1.51 .63c.38 .41 .57 .99 .57 1.74v3.97h-0.96v-3.8c0-1.12-0.47-1.67-1.41-1.67c-0.19 0-0.38 .02-0.56 .07c-0.18 .05-0.34 .12-0.48 .22c-0.14 .09-0.26 .22-0.35 .37c-0.08 .14-0.12 .31-0.12 .51v4.3h-0.96Zm15 0l-0.84-2.47h-3.39l-0.84 2.47h-1.02l2.93-8.38h1.29l2.92 8.38h-1.05Zm-2.51-7.44h-0.06l-1.42 4.08h2.9l-1.42-4.08Zm4.86 1.25h.96v1.01h.04c.16-0.4 .4-0.68 .7-0.87c.31-0.19 .68-0.29 1.12-0.29c.38 0 .73 .08 1.04 .23c.31 .15 .58 .37 .79 .65c.23 .28 .39 .62 .51 1.02c.12 .4 .18 .85 .18 1.34c0 .5-0.06 .95-0.18 1.35c-0.12 .4-0.28 .74-0.51 1.02c-0.21 .28-0.48 .49-0.79 .65c-0.31 .15-0.66 .22-1.04 .22c-0.84 0-1.45-0.38-1.82-1.15h-0.04v3.41h-0.96v-8.59Zm2.55 5.47c.55 0 .97-0.17 1.29-0.5c.31-0.35 .46-0.8 .46-1.35v-1.05c0-0.56-0.15-1-0.46-1.34c-0.32-0.34-0.74-0.51-1.29-0.51c-0.21 0-0.42 .03-0.62 .09c-0.19 .06-0.36 .14-0.51 .24c-0.14 .11-0.26 .24-0.34 .39c-0.08 .14-0.12 .3-0.12 .47v2.3c0 .2 .04 .38 .12 .54c.08 .15 .2 .28 .34 .4c.15 .1 .32 .18 .51 .24c.2 .05 .41 .08 .62 .08Zm4.41-5.47h.96v1.01h.04c.16-0.4 .4-0.68 .7-0.87c.31-0.19 .68-0.29 1.12-0.29c.38 0 .73 .08 1.04 .23c.31 .15 .58 .37 .79 .65c.23 .28 .39 .62 .51 1.02c.12 .4 .18 .85 .18 1.34c0 .5-0.06 .95-0.18 1.35c-0.12 .4-0.28 .74-0.51 1.02c-0.21 .28-0.48 .49-0.79 .65c-0.31 .15-0.66 .22-1.04 .22c-0.84 0-1.45-0.38-1.82-1.15h-0.04v3.41h-0.96v-8.59Zm2.55 5.47c.55 0 .97-0.17 1.29-0.5c.31-0.35 .46-0.8 .46-1.35v-1.05c0-0.56-0.15-1-0.46-1.34c-0.32-0.34-0.74-0.51-1.29-0.51c-0.21 0-0.42 .03-0.62 .09c-0.19 .06-0.36 .14-0.51 .24c-0.14 .11-0.26 .24-0.34 .39c-0.08 .14-0.12 .3-0.12 .47v2.3c0 .2 .04 .38 .12 .54c.08 .15 .2 .28 .34 .4c.15 .1 .32 .18 .51 .24c.2 .05 .41 .08 .62 .08Z" fill="#fff"/></g><g transform="translate(400.5,100.5) translate(-40.5,-40.5)" style="animation: 9s linear infinite both a_t;"><path d="M0 40.5c0 22.37 18.13 40.5 40.5 40.5c22.37 0 40.5-18.13 40.5-40.5c0-22.37-18.13-40.5-40.5-40.5c-22.37 0-40.5 18.13-40.5 40.5Z" fill="#db2b56"/><g transform="translate(31,20)"><path d="M9.7 .11l.21-0.11l2.11 1.06l2.1 1.06l5.69 2.86c0 0 0 .21 0 .56v3.63c0 0-0.37-0.17-0.68-0.33l-9.21-4.62l-9.24 4.62c-0.31 .16-0.68 .33-0.68 .33v-4.19c0 0 .2-0.11 .52-0.27l5.18-2.59l2.1-1.06l1.9-0.95Z" fill="#470b25"/><path d="M10.11 39.89l-0.2 .11l-2.12-1.06l-2.1-1.06l-5.69-2.86c0 0 0-0.21 0-0.56v-3.63c0 0 .37 .18 .68 .33l9.22 4.62l9.23-4.62c.31-0.15 .68-0.33 .68-0.33v4.19c0 0-0.2 .11-0.52 .27l-5.18 2.59l-2.1 1.06l-1.9 .95Z" fill="#470b25"/><path d="M9.91 10.09c-5.48 0-9.91 4.44-9.91 9.91c0 5.47 4.43 9.91 9.91 9.91c5.47 0 9.9-4.44 9.9-9.91c0-5.47-4.43-9.91-9.9-9.91Zm0 16.04c-3.39 0-6.14-2.74-6.14-6.13c0-3.39 2.75-6.13 6.14-6.13c3.38 0 6.13 2.74 6.13 6.13c0 3.39-2.75 6.13-6.13 6.13Z" fill="#470b25"/></g></g><g transform="translate(89,60)"><path d="M0 40.5c0 22.37 18.13 40.5 40.5 40.5c22.37 0 40.5-18.13 40.5-40.5c0-22.37-18.13-40.5-40.5-40.5c-22.37 0-40.5 18.13-40.5 40.5Z" fill="#15283b"/><path d="M12.88 36.62v5.19c0 .8 .14 1.41 .44 1.82c.29 .41 .81 .61 1.56 .61c.74 0 1.26-0.2 1.56-0.61c.29-0.41 .44-1.02 .44-1.82v-5.19h1.01v4.95c0 .61-0.06 1.13-0.17 1.58c-0.1 .45-0.27 .82-0.51 1.12c-0.24 .29-0.56 .51-0.95 .66c-0.38 .14-0.86 .21-1.42 .21c-0.56 0-1.03-0.07-1.41-0.21c-0.38-0.15-0.68-0.37-0.92-0.66c-0.23-0.3-0.4-0.67-0.5-1.12c-0.1-0.45-0.14-0.97-0.14-1.58v-4.95h1.01Zm8.94 8.52c-0.57 0-1.06-0.1-1.45-0.32c-0.38-0.22-0.71-0.52-1-0.89l.69-0.55c.24 .3 .51 .54 .8 .71c.3 .16 .64 .24 1.03 .24c.41 0 .73-0.09 .95-0.27c.23-0.17 .35-0.42 .35-0.74c0-0.24-0.08-0.44-0.24-0.61c-0.15-0.18-0.43-0.3-0.84-0.36l-0.49-0.07c-0.29-0.04-0.55-0.1-0.79-0.18c-0.24-0.09-0.46-0.2-0.64-0.34c-0.18-0.14-0.32-0.32-0.42-0.53c-0.1-0.21-0.14-0.45-0.14-0.74c0-0.31 .05-0.57 .16-0.79c.12-0.24 .27-0.43 .46-0.58c.2-0.15 .44-0.26 .71-0.34c.27-0.08 .56-0.12 .87-0.12c.51 0 .93 .09 1.26 .27c.35 .17 .65 .42 .9 .73l-0.63 .58c-0.14-0.2-0.34-0.37-0.6-0.52c-0.27-0.16-0.6-0.24-1-0.24c-0.4 0-0.7 .09-0.91 .26c-0.2 .17-0.3 .4-0.3 .7c0 .3 .1 .52 .3 .66c.21 .14 .5 .24 .89 .3l.48 .07c.69 .11 1.17 .31 1.46 .6c.29 .29 .43 .67 .43 1.14c0 .6-0.2 1.07-0.61 1.42c-0.41 .34-0.97 .51-1.68 .51Zm6.32 0c-0.43 0-0.81-0.07-1.15-0.22c-0.34-0.16-0.63-0.37-0.88-0.65c-0.24-0.29-0.43-0.63-0.56-1.02c-0.13-0.4-0.2-0.85-0.2-1.35c0-0.48 .07-0.93 .2-1.33c.13-0.4 .32-0.74 .56-1.02c.25-0.29 .54-0.51 .88-0.66c.34-0.15 .72-0.23 1.15-0.23c.41 0 .79 .08 1.11 .23c.33 .15 .61 .37 .84 .64c.24 .26 .41 .58 .53 .95c.13 .36 .2 .77 .2 1.21v.45h-4.46v.29c0 .27 .04 .51 .12 .75c.09 .22 .21 .42 .36 .58c.16 .17 .36 .3 .58 .4c.23 .1 .49 .14 .78 .14c.39 0 .73-0.09 1.02-0.27c.3-0.19 .52-0.45 .68-0.79l.69 .49c-0.2 .42-0.52 .77-0.94 1.03c-0.42 .26-0.93 .38-1.51 .38Zm0-5.67c-0.27 0-0.5 .05-0.72 .14c-0.22 .09-0.41 .22-0.57 .39c-0.15 .16-0.27 .36-0.36 .6c-0.08 .22-0.13 .47-0.13 .74v.08h3.42v-0.13c0-0.55-0.15-0.99-0.45-1.32c-0.3-0.33-0.7-0.5-1.19-0.5Zm4.26 5.53v-6.19h.96v1.14h.06c.11-0.3 .31-0.56 .6-0.79c.28-0.24 .68-0.35 1.19-0.35h.37v.96h-0.57c-0.52 0-0.92 .1-1.22 .3c-0.29 .19-0.43 .43-0.43 .73v4.2h-0.96Zm12.58 0l-0.84-2.47h-3.38l-0.84 2.47h-1.02l2.92-8.38h1.29l2.93 8.38h-1.06Zm-2.51-7.44h-0.06l-1.41 4.08h2.89l-1.42-4.08Zm10.08 8.12c0 .64-0.25 1.11-0.76 1.41c-0.49 .3-1.24 .45-2.24 .45c-0.97 0-1.67-0.13-2.09-0.39c-0.42-0.27-0.64-0.64-0.64-1.13c0-0.34 .09-0.6 .27-0.79c.17-0.19 .41-0.32 .72-0.41v-0.13c-0.37-0.18-0.55-0.47-0.55-0.87c0-0.31 .09-0.54 .3-0.7c.2-0.17 .45-0.3 .76-0.38v-0.04c-0.36-0.18-0.65-0.43-0.86-0.76c-0.2-0.33-0.3-0.71-0.3-1.14c0-0.31 .06-0.6 .17-0.86c.11-0.27 .27-0.49 .47-0.68c.2-0.19 .45-0.34 .73-0.44c.29-0.1 .61-0.16 .96-0.16c.44 0 .83 .08 1.17 .24v-0.1c0-0.24 .06-0.44 .17-0.59c.11-0.16 .3-0.24 .55-0.24h.93v.84h-1.18v.39c.23 .2 .4 .43 .52 .7c.13 .26 .19 .56 .19 .9c0 .31-0.06 .6-0.17 .86c-0.11 .27-0.27 .5-0.48 .69c-0.2 .18-0.44 .33-0.73 .43c-0.29 .1-0.61 .16-0.96 .16c-0.2 0-0.4-0.02-0.6-0.06c-0.21 .05-0.4 .14-0.56 .25c-0.17 .1-0.26 .25-0.26 .44c0 .19 .09 .31 .27 .37c.17 .07 .4 .1 .68 .1h1.32c.77 0 1.33 .15 1.67 .44c.35 .29 .53 .69 .53 1.2Zm-0.9 .08c0-0.25-0.1-0.45-0.29-0.6c-0.18-0.15-0.52-0.22-1-0.22h-2.06c-0.38 .18-0.58 .46-0.58 .84c0 .27 .1 .5 .3 .7c.21 .19 .56 .28 1.05 .28h.89c.53 0 .95-0.08 1.24-0.25c.3-0.17 .45-0.42 .45-0.75Zm-2.15-3.59c.41 0 .73-0.1 .97-0.29c.24-0.2 .36-0.5 .36-0.91v-0.34c0-0.41-0.12-0.71-0.36-0.9c-0.24-0.2-0.56-0.3-0.97-0.3c-0.41 0-0.73 .1-0.97 .3c-0.24 .19-0.36 .49-0.36 .9v.34c0 .41 .12 .71 .36 .91c.24 .19 .56 .29 .97 .29Zm6.42 2.97c-0.42 0-0.8-0.07-1.15-0.22c-0.33-0.16-0.63-0.37-0.87-0.65c-0.24-0.29-0.43-0.63-0.57-1.02c-0.13-0.4-0.19-0.85-0.19-1.35c0-0.48 .06-0.93 .19-1.33c.14-0.4 .33-0.74 .57-1.02c.24-0.29 .54-0.51 .87-0.66c.35-0.15 .73-0.23 1.15-0.23c.42 0 .79 .08 1.12 .23c.33 .15 .61 .37 .84 .64c.23 .26 .41 .58 .53 .95c.13 .36 .19 .77 .19 1.21v.45h-4.45v.29c0 .27 .04 .51 .12 .75c.09 .22 .21 .42 .36 .58c.16 .17 .35 .3 .57 .4c.24 .1 .5 .14 .78 .14c.4 0 .74-0.09 1.02-0.27c.3-0.19 .53-0.45 .69-0.79l.68 .49c-0.2 .42-0.51 .77-0.93 1.03c-0.43 .26-0.93 .38-1.52 .38Zm0-5.67c-0.26 0-0.5 .05-0.72 .14c-0.21 .09-0.4 .22-0.56 .39c-0.15 .16-0.27 .36-0.36 .6c-0.09 .22-0.13 .47-0.13 .74v.08h3.42v-0.13c0-0.55-0.15-0.99-0.46-1.32c-0.29-0.33-0.69-0.5-1.19-0.5Zm4.26 5.53v-6.19h.96v1.01h.05c.15-0.36 .36-0.64 .64-0.84c.28-0.21 .65-0.32 1.11-0.32c.64 0 1.15 .21 1.51 .63c.38 .41 .57 .99 .57 1.74v3.97h-0.96v-3.8c0-1.12-0.47-1.67-1.41-1.67c-0.19 0-0.38 .02-0.56 .07c-0.18 .05-0.34 .12-0.48 .22c-0.14 .09-0.26 .22-0.35 .37c-0.08 .14-0.12 .31-0.12 .51v4.3h-0.96Zm8.19 0c-0.34 0-0.59-0.09-0.77-0.28c-0.17-0.19-0.25-0.44-0.25-0.74v-4.33h-1.02v-0.84h.58c.2 0 .34-0.04 .42-0.12c.08-0.09 .12-0.24 .12-0.45v-1.15h.86v1.72h1.36v.84h-1.36v4.51h1.26v.84h-1.2Z" fill="#fff"/></g><g transform="translate(166.69,92.17)"/><g transform="translate(166.69,91.39)"><path d="M-3.31 0h3.31" stroke="#15283b" transform="translate(3.31,3.68)" style="animation: 9s linear infinite both c_d;"/><path d="M4.35 4.35c.2-0.19 .2-0.51 0-0.7l-3.18-3.19c-0.19-0.19-0.51-0.19-0.71 0c-0.19 .2-0.19 .52 0 .71l2.83 2.83l-2.83 2.83c-0.19 .19-0.19 .51 0 .71c.2 .19 .52 .19 .71 0l3.18-3.19Zm-1.35 .15h1v-1h-1v1Z" fill="#15283b" opacity="0" transform="translate(180.51,-0.32)" style="animation: 9s linear infinite both d_o;"/></g><g transform="translate(405.3,230.11) rotate(90) translate(-92.51,-3.68)"><path d="M-3.31 0h3.31" stroke="#db2b56" transform="translate(3.31,3.68)" style="animation: 9s linear infinite both e_d;"/><path d="M4.35 4.35c.2-0.19 .2-0.51 0-0.7l-3.18-3.19c-0.19-0.19-0.51-0.19-0.71 0c-0.19 .2-0.19 .52 0 .71l2.83 2.83l-2.83 2.83c-0.19 .19-0.19 .51 0 .71c.2 .19 .52 .19 .71 0l3.18-3.19Zm-1.35 .15h1v-1h-1v1Z" fill="#db2b56" opacity="0" transform="translate(152.21,-0.79)" style="animation: 9s linear infinite both f_o;"/></g><g transform="translate(396.15,214.7) rotate(270) translate(-92.51,-3.68)"><path d="M-3.31 0h3.31" stroke="#15283b" transform="translate(3.31,3.68)" style="animation: 9s linear infinite both g_d;"/><path d="M4.35 4.35c.2-0.19 .2-0.51 0-0.7l-3.18-3.19c-0.19-0.19-0.51-0.19-0.71 0c-0.19 .2-0.19 .52 0 .71l2.83 2.83l-2.83 2.83c-0.19 .19-0.19 .51 0 .71c.2 .19 .52 .19 .71 0l3.18-3.19Zm-1.35 .15h1v-1h-1v1Z" fill="#15283b" opacity="0" transform="translate(152.21,-0.79)" style="animation: 9s linear infinite both h_o;"/></g><g transform="translate(271.18,105.39) rotate(180) translate(-92.51,-3.68)"><path d="M-3.31 0h3.31" stroke="#db2b56" transform="translate(3.31,3.68)" style="animation: 9s linear infinite both i_d;"/><path d="M4.35 4.35c.2-0.19 .2-0.51 0-0.7l-3.18-3.19c-0.19-0.19-0.51-0.19-0.71 0c-0.19 .2-0.19 .52 0 .71l2.83 2.83l-2.83 2.83c-0.19 .19-0.19 .51 0 .71c.2 .19 .52 .19 .71 0l3.18-3.19Zm-1.35 .15h1v-1h-1v1Z" fill="#db2b56" opacity="0" transform="translate(180.51,-0.32)" style="animation: 9s linear infinite both j_o;"/></g><g transform="translate(226.37,186.57) rotate(41.89) translate(-92.51,-3.68)"><path d="M-3.31 0h3.31" stroke="#15283b" transform="translate(3.31,3.68)" style="animation: 9s linear infinite both k_d;"/><path d="M4.35 4.35c.2-0.19 .2-0.51 0-0.7l-3.18-3.19c-0.19-0.19-0.51-0.19-0.71 0c-0.19 .2-0.19 .52 0 .71l2.83 2.83l-2.83 2.83c-0.19 .19-0.19 .51 0 .71c.2 .19 .52 .19 .71 0l3.18-3.19Zm-1.35 .15h1v-1h-1v1Z" fill="#15283b" opacity="0" transform="translate(270.03,-0.32)" style="animation: 9s linear infinite both l_o;"/></g><g transform="translate(297.58,266.15) rotate(221.89) translate(-92.51,-3.68)"><path d="M-3.31 0h3.31" stroke="#15283b" transform="translate(3.31,3.68)" style="animation: 9s linear infinite both m_d;"/><path d="M4.35 4.35c.2-0.19 .2-0.51 0-0.7l-3.18-3.19c-0.19-0.19-0.51-0.19-0.71 0c-0.19 .2-0.19 .52 0 .71l2.83 2.83l-2.83 2.83c-0.19 .19-0.19 .51 0 .71c.2 .19 .52 .19 .71 0l3.18-3.19Zm-1.35 .15h1v-1h-1v1Z" fill="#15283b" opacity="0" transform="translate(270.03,-0.32)" style="animation: 9s linear infinite both n_o;"/></g><g transform="translate(128.73,229.11) rotate(90) translate(-92.51,-3.68)"><path d="M-3.31 0h3.31" stroke="#15283b" transform="translate(3.31,3.68)" style="animation: 9s linear infinite both o_d;"/><path d="M4.35 4.35c.2-0.19 .2-0.51 0-0.7l-3.18-3.19c-0.19-0.19-0.51-0.19-0.71 0c-0.19 .2-0.19 .52 0 .71l2.83 2.83l-2.83 2.83c-0.19 .19-0.19 .51 0 .71c.2 .19 .52 .19 .71 0l3.18-3.19Zm-1.35 .15h1v-1h-1v1Z" fill="#15283b" opacity="0" transform="translate(152.21,-0.79)" style="animation: 9s linear infinite both p_o;"/></g></svg>