<svg xmlns="http://www.w3.org/2000/svg" width="405" height="333" viewBox="0 0 405 333" fill="none"><style>
@keyframes a0_t { 0% { transform: translate(-10px,0px); } 11.2% { transform: translate(-10px,0px); } 12.8% { transform: translate(0px,0px); } 100% { transform: translate(0px,0px); } }
@keyframes a0_o { 0% { opacity: 0; } 12% { opacity: 0; } 12.8% { opacity: 1; } 100% { opacity: 1; } }
@keyframes a1_t { 0% { transform: translate(-10px,0px); } 10.4% { transform: translate(-10px,0px); } 12% { transform: translate(0px,0px); } 100% { transform: translate(0px,0px); } }
@keyframes a1_o { 0% { opacity: 0; } 11.2% { opacity: 0; } 12% { opacity: 1; } 100% { opacity: 1; } }
@keyframes a2_t { 0% { transform: translate(-10px,0px); } 9.6% { transform: translate(-10px,0px); } 11.2% { transform: translate(0px,0px); } 100% { transform: translate(0px,0px); } }
@keyframes a2_o { 0% { opacity: 0; } 10.4% { opacity: 0; } 11.2% { opacity: 1; } 100% { opacity: 1; } }
@keyframes a3_f { 0% { fill: #f0f0f1; } 73.6% { fill: #f0f0f1; } 75.2% { fill: #db2b56; } 100% { fill: #db2b56; } }
@keyframes a4_t { 0% { transform: translate(-10px,0px); } 8.8% { transform: translate(-10px,0px); } 10.4% { transform: translate(0px,0px); } 100% { transform: translate(0px,0px); } }
@keyframes a4_o { 0% { opacity: 0; } 9.6% { opacity: 0; } 10.4% { opacity: 1; } 100% { opacity: 1; } }
@keyframes a5_t { 0% { transform: translate(-10px,0px); } 8% { transform: translate(-10px,0px); } 9.6% { transform: translate(0px,0px); } 100% { transform: translate(0px,0px); } }
@keyframes a5_o { 0% { opacity: 0; } 8.8% { opacity: 0; } 9.6% { opacity: 1; } 100% { opacity: 1; } }
@keyframes a6_f { 0% { fill: #f0f0f1; } 72% { fill: #f0f0f1; } 73.6% { fill: #db2b56; } 100% { fill: #db2b56; } }
@keyframes a7_t { 0% { transform: translate(-10px,0px); } 7.2% { transform: translate(-10px,0px); } 8.8% { transform: translate(0px,0px); } 100% { transform: translate(0px,0px); } }
@keyframes a7_o { 0% { opacity: 0; } 8% { opacity: 0; } 8.8% { opacity: 1; } 100% { opacity: 1; } }
@keyframes a8_t { 0% { transform: translate(-10px,0px); } 6.4% { transform: translate(-10px,0px); } 8% { transform: translate(0px,0px); } 100% { transform: translate(0px,0px); } }
@keyframes a8_o { 0% { opacity: 0; } 7.2% { opacity: 0; } 8% { opacity: 1; } 100% { opacity: 1; } }
@keyframes a9_t { 0% { transform: translate(-10px,0px); } 5.6% { transform: translate(-10px,0px); } 7.2% { transform: translate(0px,0px); } 100% { transform: translate(0px,0px); } }
@keyframes a9_o { 0% { opacity: 0; } 6.4% { opacity: 0; } 7.2% { opacity: 1; } 100% { opacity: 1; } }
@keyframes a10_t { 0% { transform: translate(-10px,0px); } 4.8% { transform: translate(-10px,0px); } 6.4% { transform: translate(0px,0px); } 100% { transform: translate(0px,0px); } }
@keyframes a10_o { 0% { opacity: 0; } 5.6% { opacity: 0; } 6.4% { opacity: 1; } 100% { opacity: 1; } }
@keyframes a11_t { 0% { transform: translate(-10px,0px); } 4% { transform: translate(-10px,0px); } 5.6% { transform: translate(0px,0px); } 100% { transform: translate(0px,0px); } }
@keyframes a11_o { 0% { opacity: 0; } 4.8% { opacity: 0; } 5.6% { opacity: 1; } 100% { opacity: 1; } }
@keyframes a12_s { 0% { stroke: #19191d; } 25.6% { stroke: #19191d; } 27.2% { stroke: #f0f0f1; } 80% { stroke: #f0f0f1; } 81.6% { stroke: #19191d; } 100% { stroke: #19191d; } }
@keyframes a12_f { 0% { fill: #f0f0f1; } 25.6% { fill: #f0f0f1; } 27.2% { fill: #db2b56; } 80% { fill: #db2b56; } 81.6% { fill: #f0f0f1; } 100% { fill: #f0f0f1; } }
@keyframes a13_s { 0% { stroke: #19191d; } 25.6% { stroke: #19191d; } 27.2% { stroke: #f0f0f1; } 80% { stroke: #f0f0f1; } 81.6% { stroke: #19191d; } 100% { stroke: #19191d; } }
@keyframes a14_t { 0% { transform: translate(0px,0px); } 24% { transform: translate(0px,0px); } 25.6% { transform: translate(-10px,0px); } 80% { transform: translate(-10px,0px); } 81.6% { transform: translate(0px,0px); } 100% { transform: translate(0px,0px); } }
@keyframes a14_o { 0% { opacity: 1; } 24% { opacity: 1; } 24.8% { opacity: 0; } 80% { opacity: 0; } 80.8% { opacity: 1; } 100% { opacity: 1; } }
@keyframes a15_t { 0% { transform: translate(-3px,0px); } 84% { transform: translate(-3px,0px); } 85.6% { transform: translate(0px,0px); } 100% { transform: translate(0px,0px); } }
@keyframes a15_o { 0% { opacity: 0; } 84.8% { opacity: 0; } 85.6% { opacity: 1; } 100% { opacity: 1; } }
@keyframes a16_t { 0% { transform: translate(-3px,0px); } 84.8% { transform: translate(-3px,0px); } 86.4% { transform: translate(0px,0px); } 100% { transform: translate(0px,0px); } }
@keyframes a16_o { 0% { opacity: 0; } 85.6% { opacity: 0; } 86.4% { opacity: 1; } 100% { opacity: 1; } }
@keyframes a17_t { 0% { transform: translate(-3px,0px); } 85.6% { transform: translate(-3px,0px); } 87.2% { transform: translate(0px,0px); } 100% { transform: translate(0px,0px); } }
@keyframes a17_o { 0% { opacity: 0; } 86.4% { opacity: 0; } 87.2% { opacity: 1; } 100% { opacity: 1; } }
@keyframes a18_t { 0% { transform: translate(-3px,0px); } 86.4% { transform: translate(-3px,0px); } 88% { transform: translate(0px,0px); } 100% { transform: translate(0px,0px); } }
@keyframes a18_o { 0% { opacity: 0; } 87.2% { opacity: 0; } 88% { opacity: 1; } 100% { opacity: 1; } }
@keyframes a19_t { 0% { transform: translate(-3px,0px); } 87.2% { transform: translate(-3px,0px); } 88.8% { transform: translate(0px,0px); } 100% { transform: translate(0px,0px); } }
@keyframes a19_o { 0% { opacity: 0; } 88% { opacity: 0; } 88.8% { opacity: 1; } 100% { opacity: 1; } }
@keyframes a20_t { 0% { transform: translate(-3px,0px); } 88% { transform: translate(-3px,0px); } 89.6% { transform: translate(0px,0px); } 100% { transform: translate(0px,0px); } }
@keyframes a20_o { 0% { opacity: 0; } 88.8% { opacity: 0; } 89.6% { opacity: 1; } 100% { opacity: 1; } }
@keyframes a21_t { 0% { transform: translate(-3px,0px); } 88.8% { transform: translate(-3px,0px); } 90.4% { transform: translate(0px,0px); } 100% { transform: translate(0px,0px); } }
@keyframes a21_o { 0% { opacity: 0; } 89.6% { opacity: 0; } 90.4% { opacity: 1; } 100% { opacity: 1; } }
@keyframes a22_t { 0% { transform: translate(-3px,0px); } 89.6% { transform: translate(-3px,0px); } 91.2% { transform: translate(0px,0px); } 100% { transform: translate(0px,0px); } }
@keyframes a22_o { 0% { opacity: 0; } 90.4% { opacity: 0; } 91.2% { opacity: 1; } 100% { opacity: 1; } }
@keyframes a23_f { 0% { fill: #db2b56; } 16% { fill: #db2b56; } 17.6% { fill: #19191d; } 24% { fill: #19191d; } 25.6% { fill: #db2b56; } 100% { fill: #db2b56; } }
@keyframes a24_t { 0% { transform: translate(10px,0px); } 28% { transform: translate(10px,0px); } 29.6% { transform: translate(0px,0px); } 48% { transform: translate(0px,0px); } 49.6% { transform: translate(-10px,0px); } 100% { transform: translate(-10px,0px); } }
@keyframes a24_o { 0% { opacity: 0; } 28% { opacity: 0; } 28.8% { opacity: 1; } 48% { opacity: 1; } 48.8% { opacity: 0; } 100% { opacity: 0; } }
@keyframes a25_o { 0% { opacity: 0; } 30.4% { opacity: 0; } 31.2% { opacity: 1; } 100% { opacity: 1; } }
@keyframes a26_o { 0% { opacity: 0; } 31.2% { opacity: 0; } 32% { opacity: 1; } 100% { opacity: 1; } }
@keyframes a27_o { 0% { opacity: 0; } 32% { opacity: 0; } 32.8% { opacity: 1; } 100% { opacity: 1; } }
@keyframes a28_o { 0% { opacity: 0; } 32.8% { opacity: 0; } 33.6% { opacity: 1; } 100% { opacity: 1; } }
@keyframes a29_o { 0% { opacity: 0; } 33.6% { opacity: 0; } 34.4% { opacity: 1; } 100% { opacity: 1; } }
@keyframes a30_o { 0% { opacity: 0; } 34.4% { opacity: 0; } 35.2% { opacity: 1; } 100% { opacity: 1; } }
@keyframes a31_o { 0% { opacity: 0; } 35.2% { opacity: 0; } 36% { opacity: 1; } 100% { opacity: 1; } }
@keyframes a32_o { 0% { opacity: 0; } 36% { opacity: 0; } 36.8% { opacity: 1; } 100% { opacity: 1; } }
@keyframes a33_o { 0% { opacity: 0; } 36.8% { opacity: 0; } 37.6% { opacity: 1; } 100% { opacity: 1; } }
@keyframes a34_o { 0% { opacity: 0; } 37.6% { opacity: 0; } 38.4% { opacity: 1; } 100% { opacity: 1; } }
@keyframes a35_o { 0% { opacity: 0; } 38.4% { opacity: 0; } 39.2% { opacity: 1; } 100% { opacity: 1; } }
@keyframes a36_o { 0% { opacity: 0; } 39.2% { opacity: 0; } 40% { opacity: 1; } 100% { opacity: 1; } }
@keyframes a37_o { 0% { opacity: 0; } 40% { opacity: 0; } 40.8% { opacity: 1; } 100% { opacity: 1; } }
@keyframes a38_f { 0% { fill: #19191d; } 40.8% { fill: #19191d; } 42.4% { fill: #fff; } 100% { fill: #fff; } }
@keyframes a39_t { 0% { transform: translate(10px,0px); } 52% { transform: translate(10px,0px); } 53.6% { transform: translate(0px,0px); } 76% { transform: translate(0px,0px); } 77.6% { transform: translate(-10px,0px); } 100% { transform: translate(-10px,0px); } }
@keyframes a39_o { 0% { opacity: 0; } 52% { opacity: 0; } 52.8% { opacity: 1; } 76% { opacity: 1; } 76.8% { opacity: 0; } 100% { opacity: 0; } }
@keyframes a40_f { 0% { fill: #fff; } 63.2% { fill: #fff; } 64.8% { fill: #19191d; } 100% { fill: #19191d; } }
@keyframes a41_f { 0% { fill: #fff; } 61.6% { fill: #fff; } 63.2% { fill: #19191d; } 100% { fill: #19191d; } }
@keyframes a42_f { 0% { fill: #fff; } 60% { fill: #fff; } 61.6% { fill: #19191d; } 100% { fill: #19191d; } }
@keyframes a43_f { 0% { fill: #db2b56; } 70.4% { fill: #db2b56; } 72% { fill: #fff; } 100% { fill: #fff; } }
@keyframes a44_f { 0% { fill: #fff; } 70.4% { fill: #fff; } 72% { fill: #db2b56; } 100% { fill: #db2b56; } }
</style><rect width="405" height="333" fill="#fff"/><rect x="129.2" y="60.2" width="203.5" height="137.5" fill="#19191d" stroke="#f0f0f1" stroke-width=".5"/><path stroke="#f0f0f1" stroke-width=".5" d="M129 67.8h204"/><rect x="131" y="62" width="4" height="4" rx="2" fill="#db2b56"/><g opacity="0" transform="translate(-10,0)" style="animation: 12.5s linear infinite both a0_t, 12.5s linear infinite both a0_o;"><rect x="139" y="127" width="12" height=".5" fill="#f0f0f1"/><rect x="155" y="127" width="19" height=".5" fill="#f0f0f1"/></g><g opacity="0" transform="translate(-10,0)" style="animation: 12.5s linear infinite both a1_t, 12.5s linear infinite both a1_o;"><rect x="150" y="122" width="14" height=".5" fill="#f0f0f1"/><rect x="168" y="122" width="24" height=".5" fill="#f0f0f1"/></g><g opacity="0" transform="translate(-10,0)" style="animation: 12.5s linear infinite both a2_t, 12.5s linear infinite both a2_o;"><rect width="24" height=".5" fill="#f0f0f1" transform="translate(150,116.5)" style="animation: 12.5s linear infinite both a3_f;"/><rect x="178" y="116.5" width="8" height=".5" fill="#f0f0f1"/></g><g opacity="0" transform="translate(-10,0)" style="animation: 12.5s linear infinite both a4_t, 12.5s linear infinite both a4_o;"><rect x="146" y="111" width="24" height=".5" fill="#f0f0f1"/><rect x="174" y="111" width="16" height=".5" fill="#f0f0f1"/></g><g opacity="0" transform="translate(-10,0)" style="animation: 12.5s linear infinite both a5_t, 12.5s linear infinite both a5_o;"><rect x="150" y="105.5" width="14" height=".5" fill="#f0f0f1"/><rect x="168" y="105.5" width="8" height=".5" fill="#f0f0f1"/><rect width="7" height=".5" fill="#f0f0f1" transform="translate(180,105.5)" style="animation: 12.5s linear infinite both a6_f;"/></g><g opacity="0" transform="translate(-10,0)" style="animation: 12.5s linear infinite both a7_t, 12.5s linear infinite both a7_o;"><rect x="150" y="100" width="24" height=".5" fill="#f0f0f1"/><rect x="178" y="100" width="16" height=".5" fill="#f0f0f1"/></g><g opacity="0" transform="translate(-10,0)" style="animation: 12.5s linear infinite both a8_t, 12.5s linear infinite both a8_o;"><rect x="162" y="94.5" width="16" height=".5" fill="#f0f0f1"/><rect x="182" y="94.5" width="4.2" height=".5" fill="#f0f0f1"/><rect x="146" y="94.5" width="12" height=".5" fill="#f0f0f1"/></g><g opacity="0" transform="translate(-10,0)" style="animation: 12.5s linear infinite both a9_t, 12.5s linear infinite both a9_o;"><rect x="150" y="89" width="7.7" height=".5" fill="#f0f0f1"/><rect x="162" y="89" width="11.7" height=".5" fill="#f0f0f1"/></g><g opacity="0" transform="translate(-10,0)" style="animation: 12.5s linear infinite both a10_t, 12.5s linear infinite both a10_o;"><rect x="146" y="83.5" width="8" height=".5" fill="#f0f0f1"/><rect x="158" y="83.5" width="38" height=".5" fill="#f0f0f1"/></g><g opacity="0" transform="translate(-10,0)" style="animation: 12.5s linear infinite both a11_t, 12.5s linear infinite both a11_o;"><rect x="139" y="78" width="12" height=".5" fill="#f0f0f1"/><rect x="155" y="78" width="19" height=".5" fill="#f0f0f1"/></g><rect width="203.5" height="137.5" fill="#f0f0f1" stroke="#19191d" stroke-width=".5" transform="translate(73.2,136.2)" style="animation: 12.5s linear infinite both a12_s, 12.5s linear infinite both a12_f;"/><rect x="75" y="138" width="4" height="4" rx="2" fill="#15283b"/><path stroke="#19191d" stroke-width=".5" d="M73 143.8l204-0.1" style="animation: 12.5s linear infinite both a13_s;"/><g style="animation: 12.5s linear infinite both a14_t, 12.5s linear infinite both a14_o;"><g><ellipse cx="86" cy="159" fill="#99999e" rx="5" ry="5"/><rect x="93" y="159" width="4" height=".5" fill="#99999e"/><rect x="98" y="159" width="9" height=".5" fill="#99999e"/><rect x="81" y="173" width="23" height=".5" fill="#99999e"/><rect x="81" y="195.5" width="18" height=".5" fill="#99999e"/><rect x="81" y="180.5" width="20" height=".5" fill="#99999e"/><rect x="81" y="203" width="20" height=".5" fill="#99999e"/><rect x="81" y="188" width="22" height=".5" fill="#99999e"/><rect x="81" y="210.5" width="15" height=".5" fill="#99999e"/><path stroke="#99999e" stroke-width=".5" d="M113.2 154v110"/></g><g><path stroke="#99999e" stroke-width=".5" d="M126 154.8l11-0.1"/><path stroke="#99999e" stroke-width=".5" d="M197 154.8l22-0.1"/><path stroke="#99999e" stroke-width=".5" d="M151 154.8l7-0.1"/><path stroke="#99999e" stroke-width=".5" d="M233 154.8l7-0.1"/><path stroke="#99999e" stroke-width=".5" d="M172 154.8l11-0.1"/><path stroke="#99999e" stroke-width=".5" d="M254 154.8l11-0.1"/></g><g><rect x="119" y="160" opacity=".2" width="150" height="6" fill="#99999e"/><rect x="121" y="162" opacity=".4" width="2" height="2" fill="#99999e"/><g opacity=".4"><path stroke="#99999e" stroke-width=".5" d="M126 163h11"/><path stroke="#99999e" stroke-width=".5" d="M197 163h22"/><path stroke="#99999e" stroke-width=".5" d="M151 163h7"/><path stroke="#99999e" stroke-width=".5" d="M233 163h7"/><path stroke="#99999e" stroke-width=".5" d="M172 163h11"/><path stroke="#99999e" stroke-width=".5" d="M254 163h11"/></g></g><g><rect x="119" y="168" opacity=".2" width="150" height="6" fill="#99999e"/><rect x="121" y="170" opacity=".4" width="2" height="2" fill="#99999e"/><g opacity=".4"><path stroke="#99999e" stroke-width=".5" d="M126 171h11"/><path stroke="#99999e" stroke-width=".5" d="M197 171h22"/><path stroke="#99999e" stroke-width=".5" d="M151 171h7"/><path stroke="#99999e" stroke-width=".5" d="M233 171h7"/><path stroke="#99999e" stroke-width=".5" d="M172 171h11"/><path stroke="#99999e" stroke-width=".5" d="M254 171h11"/></g></g><g><rect x="119" y="176" opacity=".2" width="150" height="6" fill="#99999e"/><rect x="121" y="178" opacity=".4" width="2" height="2" fill="#99999e"/><g opacity=".4"><path stroke="#99999e" stroke-width=".5" d="M126 179h11"/><path stroke="#99999e" stroke-width=".5" d="M197 179h22"/><path stroke="#99999e" stroke-width=".5" d="M151 179h7"/><path stroke="#99999e" stroke-width=".5" d="M233 179h7"/><path stroke="#99999e" stroke-width=".5" d="M172 179h11"/><path stroke="#99999e" stroke-width=".5" d="M254 179h11"/></g></g><g opacity="0" transform="translate(-3,0)" style="animation: 12.5s linear infinite both a15_t, 12.5s linear infinite both a15_o;"><rect x="119" y="184" width="150" height="6" fill="#db2b56"/><rect x="121" y="186" width="2" height="2" fill="#fff"/><path stroke="#fff" stroke-width=".5" d="M126 187h11"/><path stroke="#fff" stroke-width=".5" d="M197 187h22"/><path stroke="#fff" stroke-width=".5" d="M151 187h7"/><path stroke="#fff" stroke-width=".5" d="M233 187h7"/><path stroke="#fff" stroke-width=".5" d="M172 187h11"/><path stroke="#fff" stroke-width=".5" d="M254 187h11"/></g><g opacity="0" transform="translate(-3,0)" style="animation: 12.5s linear infinite both a16_t, 12.5s linear infinite both a16_o;"><rect x="119" y="192" width="150" height="6" fill="#db2b56"/><rect x="121" y="194" width="2" height="2" fill="#fff"/><path stroke="#fff" stroke-width=".5" d="M126 195h11"/><path stroke="#fff" stroke-width=".5" d="M197 195h22"/><path stroke="#fff" stroke-width=".5" d="M151 195h7"/><path stroke="#fff" stroke-width=".5" d="M233 195h7"/><path stroke="#fff" stroke-width=".5" d="M172 195h11"/><path stroke="#fff" stroke-width=".5" d="M254 195h11"/></g><g opacity="0" transform="translate(-3,0)" style="animation: 12.5s linear infinite both a17_t, 12.5s linear infinite both a17_o;"><rect x="119" y="200" width="150" height="6" fill="#db2b56"/><rect x="121" y="202" width="2" height="2" fill="#fff"/><path stroke="#fff" stroke-width=".5" d="M126 203h11"/><path stroke="#fff" stroke-width=".5" d="M197 203h22"/><path stroke="#fff" stroke-width=".5" d="M151 203h7"/><path stroke="#fff" stroke-width=".5" d="M233 203h7"/><path stroke="#fff" stroke-width=".5" d="M172 203h11"/><path stroke="#fff" stroke-width=".5" d="M254 203h11"/></g><g opacity="0" transform="translate(-3,0)" style="animation: 12.5s linear infinite both a18_t, 12.5s linear infinite both a18_o;"><rect x="119" y="208" width="150" height="6" fill="#db2b56"/><rect x="121" y="210" width="2" height="2" fill="#fff"/><path stroke="#fff" stroke-width=".5" d="M126 211h11"/><path stroke="#fff" stroke-width=".5" d="M197 211h22"/><path stroke="#fff" stroke-width=".5" d="M151 211h7"/><path stroke="#fff" stroke-width=".5" d="M233 211h7"/><path stroke="#fff" stroke-width=".5" d="M172 211h11"/><path stroke="#fff" stroke-width=".5" d="M254 211h11"/></g><g opacity="0" transform="translate(-3,0)" style="animation: 12.5s linear infinite both a19_t, 12.5s linear infinite both a19_o;"><rect x="119" y="216" width="150" height="6" fill="#db2b56"/><rect x="121" y="218" width="2" height="2" fill="#fff"/><path stroke="#fff" stroke-width=".5" d="M126 219h11"/><path stroke="#fff" stroke-width=".5" d="M197 219h22"/><path stroke="#fff" stroke-width=".5" d="M151 219h7"/><path stroke="#fff" stroke-width=".5" d="M233 219h7"/><path stroke="#fff" stroke-width=".5" d="M172 219h11"/><path stroke="#fff" stroke-width=".5" d="M254 219h11"/></g><g opacity="0" transform="translate(-3,0)" style="animation: 12.5s linear infinite both a20_t, 12.5s linear infinite both a20_o;"><rect x="119" y="224" width="150" height="6" fill="#db2b56"/><rect x="121" y="226" width="2" height="2" fill="#fff"/><path stroke="#fff" stroke-width=".5" d="M126 227h11"/><path stroke="#fff" stroke-width=".5" d="M197 227h22"/><path stroke="#fff" stroke-width=".5" d="M151 227h7"/><path stroke="#fff" stroke-width=".5" d="M233 227h7"/><path stroke="#fff" stroke-width=".5" d="M172 227h11"/><path stroke="#fff" stroke-width=".5" d="M254 227h11"/></g><g opacity="0" transform="translate(-3,0)" style="animation: 12.5s linear infinite both a21_t, 12.5s linear infinite both a21_o;"><rect x="119" y="232" width="150" height="6" fill="#db2b56"/><rect x="121" y="234" width="2" height="2" fill="#fff"/><g><path stroke="#fff" stroke-width=".5" d="M126 235h11"/><path stroke="#fff" stroke-width=".5" d="M197 235h22"/><path stroke="#fff" stroke-width=".5" d="M151 235h7"/><path stroke="#fff" stroke-width=".5" d="M233 235h7"/><path stroke="#fff" stroke-width=".5" d="M172 235h11"/><path stroke="#fff" stroke-width=".5" d="M254 235h11"/></g></g><g opacity="0" transform="translate(-3,0)" style="animation: 12.5s linear infinite both a22_t, 12.5s linear infinite both a22_o;"><rect x="119" y="240" width="150" height="6" fill="#db2b56"/><rect x="121" y="242" width="2" height="2" fill="#fff"/><g><g><path stroke="#fff" stroke-width=".5" d="M126 243h11"/><path stroke="#fff" stroke-width=".5" d="M197 243h22"/><path stroke="#fff" stroke-width=".5" d="M151 243h7"/><path stroke="#fff" stroke-width=".5" d="M233 243h7"/><path stroke="#fff" stroke-width=".5" d="M172 243h11"/><path stroke="#fff" stroke-width=".5" d="M254 243h11"/></g></g></g><rect width="28" height="6" fill="#db2b56" transform="translate(241,258)" style="animation: 12.5s linear infinite both a23_f;"/></g><g opacity="0" transform="translate(10,0)" style="animation: 12.5s linear infinite both a24_t, 12.5s linear infinite both a24_o;"><g><rect x="145" y="194" width="60" height="8" fill="#fff"/><g><ellipse fill="#db2b56" rx=".5" ry=".5" opacity="0" transform="translate(147.5,198)" style="animation: 12.5s linear infinite both a25_o;"/><ellipse fill="#db2b56" rx=".5" ry=".5" opacity="0" transform="translate(150.5,198)" style="animation: 12.5s linear infinite both a26_o;"/><ellipse fill="#db2b56" rx=".5" ry=".5" opacity="0" transform="translate(153.5,198)" style="animation: 12.5s linear infinite both a27_o;"/><ellipse fill="#db2b56" rx=".5" ry=".5" opacity="0" transform="translate(156.5,198)" style="animation: 12.5s linear infinite both a28_o;"/><ellipse fill="#db2b56" rx=".5" ry=".5" opacity="0" transform="translate(159.5,198)" style="animation: 12.5s linear infinite both a29_o;"/></g><rect x="145" y="206" width="60" height="8" fill="#fff"/><g><ellipse fill="#db2b56" rx=".5" ry=".5" opacity="0" transform="translate(147.5,210)" style="animation: 12.5s linear infinite both a30_o;"/><ellipse fill="#db2b56" rx=".5" ry=".5" opacity="0" transform="translate(150.5,210)" style="animation: 12.5s linear infinite both a31_o;"/><ellipse fill="#db2b56" rx=".5" ry=".5" opacity="0" transform="translate(153.5,210)" style="animation: 12.5s linear infinite both a32_o;"/><ellipse fill="#db2b56" rx=".5" ry=".5" opacity="0" transform="translate(156.5,210)" style="animation: 12.5s linear infinite both a33_o;"/><ellipse fill="#db2b56" rx=".5" ry=".5" opacity="0" transform="translate(159.5,210)" style="animation: 12.5s linear infinite both a34_o;"/><ellipse fill="#db2b56" rx=".5" ry=".5" opacity="0" transform="translate(162.5,210)" style="animation: 12.5s linear infinite both a35_o;"/><ellipse fill="#db2b56" rx=".5" ry=".5" opacity="0" transform="translate(165.5,210)" style="animation: 12.5s linear infinite both a36_o;"/><ellipse fill="#db2b56" rx=".5" ry=".5" opacity="0" transform="translate(168.5,210)" style="animation: 12.5s linear infinite both a37_o;"/></g><rect width="60" height="8" fill="#19191d" transform="translate(145,244)" style="animation: 12.5s linear infinite both a38_f;"/></g><rect x="170" y="164" width="10" height="10" fill="#19191d"/></g><g opacity="0" transform="translate(10,0)" style="animation: 12.5s linear infinite both a39_t, 12.5s linear infinite both a39_o;"><g><rect width="3.5" height="3.5" fill="#fff" stroke="#19191d" stroke-width=".5" transform="translate(145.2,230.2)" style="animation: 12.5s linear infinite both a40_f;"/><path stroke="#19191d" stroke-width=".5" d="M152 232h20"/><path stroke="#19191d" stroke-width=".5" d="M174 232h7"/></g><g><rect width="3.5" height="3.5" fill="#fff" stroke="#19191d" stroke-width=".5" transform="translate(145.2,223.2)" style="animation: 12.5s linear infinite both a41_f;"/><path stroke="#19191d" stroke-width=".5" d="M152 225h20"/><path stroke="#19191d" stroke-width=".5" d="M174 225h7"/></g><g><rect width="3.5" height="3.5" fill="#fff" stroke="#19191d" stroke-width=".5" transform="translate(145.2,216.2)" style="animation: 12.5s linear infinite both a42_f;"/><path stroke="#19191d" stroke-width=".5" d="M152 218h20"/><path stroke="#19191d" stroke-width=".5" d="M174 218h7"/></g><g><path stroke="#fff" stroke-width=".5" d="M145 188h23.1"/><path stroke="#fff" stroke-width=".5" d="M171.5 188h8.1"/><path stroke="#fff" stroke-width=".5" d="M181.9 188h23.1"/><path stroke="#fff" stroke-width=".5" d="M145 190.8l46.2-0.1"/><path stroke="#fff" stroke-width=".5" d="M194.6 190.8l8.1-0.1"/><path stroke="#fff" stroke-width=".5" d="M145 193.8l28.8-0.1"/><path stroke="#fff" stroke-width=".5" d="M177.3 193.8l21.9-0.1"/><path stroke="#fff" stroke-width=".5" d="M145 196.8l40.4-0.1"/><path stroke="#fff" stroke-width=".5" d="M187.7 196.8l11.5-0.1"/><path stroke="#fff" stroke-width=".5" d="M145 199.8l5.8-0.1"/><path stroke="#fff" stroke-width=".5" d="M153.1 199.8l38.1-0.1"/><path stroke="#fff" stroke-width=".5" d="M193.5 199.8l9.2-0.1"/><path stroke="#fff" stroke-width=".5" d="M145 202.8l21.9-0.1"/></g><ellipse cx="148" cy="222" fill="#db2b56" rx="1" ry="1"/><ellipse cx="152" cy="222" fill="#db2b56" rx="1" ry="1"/><ellipse cx="156" cy="222" fill="#db2b56" rx="1" ry="1"/><ellipse cx="160" cy="222" fill="#db2b56" rx="1" ry="1"/><ellipse cx="164" cy="222" fill="#db2b56" rx="1" ry="1"/><ellipse cx="168" cy="222" fill="#db2b56" rx="1" ry="1"/><ellipse cx="172" cy="222" fill="#db2b56" rx="1" ry="1"/><ellipse cx="176" cy="222" fill="#db2b56" rx="1" ry="1"/><ellipse cx="180" cy="222" fill="#db2b56" rx="1" ry="1"/><path fill-rule="evenodd" clip-rule="evenodd" d="M191.6 248l1.4 1.4l-0.6 .6l-1.4-1.4l-1.4 1.4l-0.6-0.6l1.4-1.4l-1.4-1.4l.6-0.6l1.4 1.4l1.4-1.4l.6 .6l-1.4 1.4Z" fill="#fff"/><rect x="177.2" y="244.2" width="27.5" height="7.5" stroke="#fff" stroke-width=".5"/><rect width="27.5" height="7.5" stroke="#fff" stroke-width=".5" fill="#db2b56" transform="translate(145.2,244.2)" style="animation: 12.5s linear infinite both a43_f;"/><path fill-rule="evenodd" clip-rule="evenodd" d="M161.2 246.7l-2.9 3l-1.5-1.5l.5-0.6l1 1l2.4-2.5l.6 .6Z" fill="#fff" style="animation: 12.5s linear infinite both a44_f;"/><g><rect x="183" y="164" width="10" height="10" fill="#19191d"/><ellipse cx="162" cy="169" fill="#19191d" rx="5" ry="5"/><path d="M179 169l-1.6-1.6v1.2h-6v.8h6v1.2l1.6-1.6Z" fill="#19191d"/></g></g></svg>