<svg xmlns="http://www.w3.org/2000/svg" viewBox="0 0 316 230" fill="none"><style>
@keyframes a0_t { 0% { transform: translate(361.2px,230.5px) rotate(0deg) translate(-361.2px,-161px); } 17.778% { transform: translate(361.2px,230.5px) rotate(0deg) translate(-361.2px,-161px); } 20.555% { transform: translate(361.2px,161px) rotate(0deg) translate(-361.2px,-161px); } 25% { transform: translate(361.2px,161px) rotate(0deg) translate(-361.2px,-161px); } 26.111% { transform: translate(361.2px,161px) rotate(180deg) translate(-361.2px,-161px); } 72.222% { transform: translate(361.2px,161px) rotate(180deg) translate(-361.2px,-161px); } 73.333% { transform: translate(361.2px,161px) rotate(0deg) translate(-361.2px,-161px); } 75% { transform: translate(361.2px,161px) rotate(0deg) translate(-361.2px,-161px); } 77.778% { transform: translate(361.2px,230.5px) rotate(0deg) translate(-361.2px,-161px); } 100% { transform: translate(361.2px,230.5px) rotate(0deg) translate(-361.2px,-161px); } }
@keyframes a0_o { 0% { opacity: 0; } 17.778% { opacity: 0; } 20.556% { opacity: 1; } 75% { opacity: 1; } 77.778% { opacity: 0; } 100% { opacity: 0; } }
@keyframes a1_t { 0% { transform: translate(0px,10px); } 2.778% { transform: translate(0px,0px); } 93.333% { transform: translate(0px,0px); } 96.111% { transform: translate(0px,10px); } 100% { transform: translate(0px,10px); } }
@keyframes a1_o { 0% { opacity: 0; } 2.778% { opacity: 1; } 93.333% { opacity: 1; } 96.111% { opacity: 0; } 100% { opacity: 0; } }
@keyframes a2_s { 0% { stroke: #15283b; } 22.222% { stroke: #15283b; } 25% { stroke: #f0f0f1; } 75% { stroke: #f0f0f1; } 77.778% { stroke: #15283b; } 100% { stroke: #15283b; } }
@keyframes a2_f { 0% { fill: #f0f0f1; } 22.222% { fill: #f0f0f1; } 25% { fill: #db2b56; } 75% { fill: #db2b56; } 77.778% { fill: #f0f0f1; } 100% { fill: #f0f0f1; } }
@keyframes a3_s { 0% { stroke: #15283b; } 22.222% { stroke: #15283b; } 25% { stroke: #f0f0f1; } 75% { stroke: #f0f0f1; } 77.778% { stroke: #15283b; } 100% { stroke: #15283b; } }
@keyframes a4_t { 0% { transform: translate(0px,0px); } 19.444% { transform: translate(0px,0px); animation-timing-function: cubic-bezier(.4,0,1,1); } 22.222% { transform: translate(-102px,0px); } 77.778% { transform: translate(-102px,0px); animation-timing-function: cubic-bezier(0,0,.6,1); } 80.555% { transform: translate(0px,0px); } 100% { transform: translate(0px,0px); } }
@keyframes a4_o { 0% { opacity: 1; } 19.444% { opacity: 1; animation-timing-function: cubic-bezier(.4,0,1,1); } 21.111% { opacity: 0; } 78.889% { opacity: 0; animation-timing-function: cubic-bezier(0,0,.6,1); } 80.556% { opacity: 1; } 91.667% { opacity: 1; } 93.333% { opacity: 0; } 100% { opacity: 0; } }
@keyframes a5_t { 0% { transform: translate(195px,182.3px); } 2.778% { transform: translate(195px,182.3px); animation-timing-function: cubic-bezier(.4,0,1,1); } 5.556% { transform: translate(195px,179.3px); } 100% { transform: translate(195px,179.3px); } }
@keyframes a5_o { 0% { opacity: 0; } 2.778% { opacity: 0; animation-timing-function: cubic-bezier(.4,0,1,1); } 5.556% { opacity: 1; } 100% { opacity: 1; } }
@keyframes a6_o { 0% { opacity: 0; } 5.556% { opacity: 0; animation-timing-function: cubic-bezier(.4,0,1,1); } 10% { opacity: 1; } 100% { opacity: 1; } }
@keyframes a7_t { 0% { transform: translate(-3px,0px); } 5.556% { transform: translate(-3px,0px); animation-timing-function: cubic-bezier(.4,0,1,1); } 6.667% { transform: translate(0px,0px); } 100% { transform: translate(0px,0px); } }
@keyframes a7_o { 0% { opacity: 0; } 5.556% { opacity: 0; animation-timing-function: cubic-bezier(.4,0,1,1); } 6.667% { opacity: 1; } 100% { opacity: 1; } }
@keyframes a8_s { 0% { stroke: #99999e; } 80.556% { stroke: #99999e; animation-timing-function: cubic-bezier(.4,0,.6,1); } 81.667% { stroke: #fff; } 100% { stroke: #fff; } }
@keyframes a8_f { 0% { fill: #fff; } 80.556% { fill: #fff; animation-timing-function: cubic-bezier(.4,0,.6,1); } 81.667% { fill: #db2b56; } 100% { fill: #db2b56; } }
@keyframes a9_f { 0% { fill: #99999e; } 80.556% { fill: #99999e; animation-timing-function: cubic-bezier(.4,0,.6,1); } 81.667% { fill: #fff; } 100% { fill: #fff; } }
@keyframes a10_s { 0% { stroke: #99999e; } 80.556% { stroke: #99999e; animation-timing-function: cubic-bezier(.4,0,.6,1); } 81.667% { stroke: #fff; } 100% { stroke: #fff; } }
@keyframes a11_t { 0% { transform: translate(-3px,0px); } 6.667% { transform: translate(-3px,0px); animation-timing-function: cubic-bezier(.4,0,1,1); } 7.778% { transform: translate(0px,0px); } 100% { transform: translate(0px,0px); } }
@keyframes a11_o { 0% { opacity: 0; } 6.667% { opacity: 0; animation-timing-function: cubic-bezier(.4,0,1,1); } 7.778% { opacity: 1; } 100% { opacity: 1; } }
@keyframes a12_s { 0% { stroke: #99999e; } 81.111% { stroke: #99999e; animation-timing-function: cubic-bezier(.4,0,.6,1); } 82.222% { stroke: #fff; } 100% { stroke: #fff; } }
@keyframes a12_f { 0% { fill: #fff; } 81.111% { fill: #fff; animation-timing-function: cubic-bezier(.4,0,.6,1); } 82.222% { fill: #db2b56; } 100% { fill: #db2b56; } }
@keyframes a13_f { 0% { fill: #99999e; } 81.111% { fill: #99999e; animation-timing-function: cubic-bezier(.4,0,.6,1); } 82.222% { fill: #fff; } 100% { fill: #fff; } }
@keyframes a14_s { 0% { stroke: #99999e; } 81.111% { stroke: #99999e; animation-timing-function: cubic-bezier(.4,0,.6,1); } 82.222% { stroke: #fff; } 100% { stroke: #fff; } }
@keyframes a15_t { 0% { transform: translate(-3px,0px); } 7.778% { transform: translate(-3px,0px); animation-timing-function: cubic-bezier(.4,0,1,1); } 8.889% { transform: translate(0px,0px); } 100% { transform: translate(0px,0px); } }
@keyframes a15_o { 0% { opacity: 0; } 7.778% { opacity: 0; animation-timing-function: cubic-bezier(.4,0,1,1); } 8.889% { opacity: 1; } 100% { opacity: 1; } }
@keyframes a16_s { 0% { stroke: #99999e; } 81.667% { stroke: #99999e; animation-timing-function: cubic-bezier(.4,0,.6,1); } 82.778% { stroke: #fff; } 100% { stroke: #fff; } }
@keyframes a16_f { 0% { fill: #fff; } 81.667% { fill: #fff; animation-timing-function: cubic-bezier(.4,0,.6,1); } 82.778% { fill: #db2b56; } 100% { fill: #db2b56; } }
@keyframes a17_f { 0% { fill: #99999e; } 81.667% { fill: #99999e; animation-timing-function: cubic-bezier(.4,0,.6,1); } 82.778% { fill: #fff; } 100% { fill: #fff; } }
@keyframes a18_s { 0% { stroke: #99999e; } 81.667% { stroke: #99999e; animation-timing-function: cubic-bezier(.4,0,.6,1); } 82.778% { stroke: #fff; } 100% { stroke: #fff; } }
@keyframes a19_t { 0% { transform: translate(-3px,0px); } 6.667% { transform: translate(-3px,0px); animation-timing-function: cubic-bezier(.4,0,1,1); } 7.778% { transform: translate(0px,0px); } 100% { transform: translate(0px,0px); } }
@keyframes a19_o { 0% { opacity: 0; } 6.667% { opacity: 0; animation-timing-function: cubic-bezier(.4,0,1,1); } 7.778% { opacity: 1; } 100% { opacity: 1; } }
@keyframes a20_s { 0% { stroke: #99999e; } 82.778% { stroke: #99999e; animation-timing-function: cubic-bezier(.4,0,.6,1); } 83.889% { stroke: #fff; } 100% { stroke: #fff; } }
@keyframes a20_f { 0% { fill: #fff; } 82.778% { fill: #fff; animation-timing-function: cubic-bezier(.4,0,.6,1); } 83.889% { fill: #db2b56; } 100% { fill: #db2b56; } }
@keyframes a21_f { 0% { fill: #99999e; } 82.778% { fill: #99999e; animation-timing-function: cubic-bezier(.4,0,.6,1); } 83.889% { fill: #fff; } 100% { fill: #fff; } }
@keyframes a22_s { 0% { stroke: #99999e; } 82.778% { stroke: #99999e; animation-timing-function: cubic-bezier(.4,0,.6,1); } 83.889% { stroke: #fff; } 100% { stroke: #fff; } }
@keyframes a23_t { 0% { transform: translate(-3px,0px); } 7.778% { transform: translate(-3px,0px); animation-timing-function: cubic-bezier(.4,0,1,1); } 8.889% { transform: translate(0px,0px); } 100% { transform: translate(0px,0px); } }
@keyframes a23_o { 0% { opacity: 0; } 7.778% { opacity: 0; animation-timing-function: cubic-bezier(.4,0,1,1); } 8.889% { opacity: 1; } 100% { opacity: 1; } }
@keyframes a24_s { 0% { stroke: #99999e; } 83.333% { stroke: #99999e; animation-timing-function: cubic-bezier(.4,0,.6,1); } 84.444% { stroke: #fff; } 100% { stroke: #fff; } }
@keyframes a24_f { 0% { fill: #fff; } 83.333% { fill: #fff; animation-timing-function: cubic-bezier(.4,0,.6,1); } 84.444% { fill: #db2b56; } 100% { fill: #db2b56; } }
@keyframes a25_f { 0% { fill: #99999e; } 83.333% { fill: #99999e; animation-timing-function: cubic-bezier(.4,0,.6,1); } 84.444% { fill: #fff; } 100% { fill: #fff; } }
@keyframes a26_s { 0% { stroke: #99999e; } 83.333% { stroke: #99999e; animation-timing-function: cubic-bezier(.4,0,.6,1); } 84.444% { stroke: #fff; } 100% { stroke: #fff; } }
@keyframes a27_t { 0% { transform: translate(-3px,0px); } 8.889% { transform: translate(-3px,0px); animation-timing-function: cubic-bezier(.4,0,1,1); } 10% { transform: translate(0px,0px); } 100% { transform: translate(0px,0px); } }
@keyframes a27_o { 0% { opacity: 0; } 8.889% { opacity: 0; animation-timing-function: cubic-bezier(.4,0,1,1); } 10% { opacity: 1; } 100% { opacity: 1; } }
@keyframes a28_s { 0% { stroke: #99999e; } 83.889% { stroke: #99999e; animation-timing-function: cubic-bezier(.4,0,.6,1); } 85% { stroke: #fff; } 100% { stroke: #fff; } }
@keyframes a28_f { 0% { fill: #fff; } 83.889% { fill: #fff; animation-timing-function: cubic-bezier(.4,0,.6,1); } 85% { fill: #db2b56; } 100% { fill: #db2b56; } }
@keyframes a29_f { 0% { fill: #99999e; } 83.889% { fill: #99999e; animation-timing-function: cubic-bezier(.4,0,.6,1); } 85% { fill: #fff; } 100% { fill: #fff; } }
@keyframes a30_s { 0% { stroke: #99999e; } 83.889% { stroke: #99999e; animation-timing-function: cubic-bezier(.4,0,.6,1); } 85% { stroke: #fff; } 100% { stroke: #fff; } }
@keyframes a31_t { 0% { transform: translate(-3px,0px); } 7.778% { transform: translate(-3px,0px); animation-timing-function: cubic-bezier(.4,0,1,1); } 8.889% { transform: translate(0px,0px); } 100% { transform: translate(0px,0px); } }
@keyframes a31_o { 0% { opacity: 0; } 7.778% { opacity: 0; animation-timing-function: cubic-bezier(.4,0,1,1); } 8.889% { opacity: 1; } 100% { opacity: 1; } }
@keyframes a32_s { 0% { stroke: #99999e; } 85% { stroke: #99999e; animation-timing-function: cubic-bezier(.4,0,.6,1); } 86.111% { stroke: #fff; } 100% { stroke: #fff; } }
@keyframes a32_f { 0% { fill: #fff; } 85% { fill: #fff; animation-timing-function: cubic-bezier(.4,0,.6,1); } 86.111% { fill: #db2b56; } 100% { fill: #db2b56; } }
@keyframes a33_f { 0% { fill: #99999e; } 85% { fill: #99999e; animation-timing-function: cubic-bezier(.4,0,.6,1); } 86.111% { fill: #fff; } 100% { fill: #fff; } }
@keyframes a34_s { 0% { stroke: #99999e; } 85% { stroke: #99999e; animation-timing-function: cubic-bezier(.4,0,.6,1); } 86.111% { stroke: #fff; } 100% { stroke: #fff; } }
@keyframes a35_t { 0% { transform: translate(-3px,0px); } 8.889% { transform: translate(-3px,0px); animation-timing-function: cubic-bezier(.4,0,1,1); } 10% { transform: translate(0px,0px); } 100% { transform: translate(0px,0px); } }
@keyframes a35_o { 0% { opacity: 0; } 8.889% { opacity: 0; animation-timing-function: cubic-bezier(.4,0,1,1); } 10% { opacity: 1; } 100% { opacity: 1; } }
@keyframes a36_s { 0% { stroke: #99999e; } 85.556% { stroke: #99999e; animation-timing-function: cubic-bezier(.4,0,.6,1); } 86.667% { stroke: #fff; } 100% { stroke: #fff; } }
@keyframes a36_f { 0% { fill: #fff; } 85.556% { fill: #fff; animation-timing-function: cubic-bezier(.4,0,.6,1); } 86.667% { fill: #db2b56; } 100% { fill: #db2b56; } }
@keyframes a37_f { 0% { fill: #99999e; } 85.556% { fill: #99999e; animation-timing-function: cubic-bezier(.4,0,.6,1); } 86.667% { fill: #fff; } 100% { fill: #fff; } }
@keyframes a38_s { 0% { stroke: #99999e; } 85.556% { stroke: #99999e; animation-timing-function: cubic-bezier(.4,0,.6,1); } 86.667% { stroke: #fff; } 100% { stroke: #fff; } }
@keyframes a39_t { 0% { transform: translate(-3px,0px); } 10% { transform: translate(-3px,0px); animation-timing-function: cubic-bezier(.4,0,1,1); } 11.111% { transform: translate(0px,0px); } 100% { transform: translate(0px,0px); } }
@keyframes a39_o { 0% { opacity: 0; } 10% { opacity: 0; animation-timing-function: cubic-bezier(.4,0,1,1); } 11.111% { opacity: 1; } 100% { opacity: 1; } }
@keyframes a40_s { 0% { stroke: #99999e; } 86.111% { stroke: #99999e; animation-timing-function: cubic-bezier(.4,0,.6,1); } 87.222% { stroke: #fff; } 100% { stroke: #fff; } }
@keyframes a40_f { 0% { fill: #fff; } 86.111% { fill: #fff; animation-timing-function: cubic-bezier(.4,0,.6,1); } 87.222% { fill: #db2b56; } 100% { fill: #db2b56; } }
@keyframes a41_f { 0% { fill: #99999e; } 86.111% { fill: #99999e; animation-timing-function: cubic-bezier(.4,0,.6,1); } 87.222% { fill: #fff; } 100% { fill: #fff; } }
@keyframes a42_s { 0% { stroke: #99999e; } 86.111% { stroke: #99999e; animation-timing-function: cubic-bezier(.4,0,.6,1); } 87.222% { stroke: #fff; } 100% { stroke: #fff; } }
@keyframes a43_f { 0% { fill: #db2b56; } 16.667% { fill: #db2b56; animation-timing-function: cubic-bezier(.4,0,1,1); } 17.778% { fill: #15283b; } 100% { fill: #15283b; } }
@keyframes a44_t { 0% { transform: translate(101.8px,0px); } 28.333% { transform: translate(101.8px,0px); animation-timing-function: cubic-bezier(0,0,.6,1); } 31.111% { transform: translate(0px,0px); } 44.444% { transform: translate(0px,0px); animation-timing-function: cubic-bezier(.4,0,1,1); } 47.222% { transform: translate(-102px,0px); } 100% { transform: translate(-102px,0px); } }
@keyframes a44_o { 0% { opacity: 0; } 29.444% { opacity: 0; animation-timing-function: cubic-bezier(0,0,.6,1); } 31.111% { opacity: 1; } 44.444% { opacity: 1; animation-timing-function: cubic-bezier(.4,0,1,1); } 46.111% { opacity: 0; } 100% { opacity: 0; } }
@keyframes a45_f { 0% { fill: #15283b; } 42.222% { fill: #15283b; animation-timing-function: cubic-bezier(0,0,.6,1); } 43.333% { fill: #fff; } 100% { fill: #fff; } }
@keyframes a46_o { 0% { opacity: 0; } 28.333% { opacity: 0; } 28.889% { opacity: 1; } 100% { opacity: 1; } }
@keyframes a47_o { 0% { opacity: 0; } 28.889% { opacity: 0; } 29.444% { opacity: 1; } 100% { opacity: 1; } }
@keyframes a48_o { 0% { opacity: 0; } 29.444% { opacity: 0; } 30% { opacity: 1; } 100% { opacity: 1; } }
@keyframes a49_o { 0% { opacity: 0; } 30% { opacity: 0; } 30.556% { opacity: 1; } 100% { opacity: 1; } }
@keyframes a50_o { 0% { opacity: 0; } 30.556% { opacity: 0; } 31.111% { opacity: 1; } 100% { opacity: 1; } }
@keyframes a51_o { 0% { opacity: 0; } 31.111% { opacity: 0; } 31.667% { opacity: 1; } 100% { opacity: 1; } }
@keyframes a52_o { 0% { opacity: 0; } 31.667% { opacity: 0; } 32.222% { opacity: 1; } 100% { opacity: 1; } }
@keyframes a53_o { 0% { opacity: 0; } 32.222% { opacity: 0; } 32.778% { opacity: 1; } 100% { opacity: 1; } }
@keyframes a54_o { 0% { opacity: 0; } 32.778% { opacity: 0; } 33.333% { opacity: 1; } 100% { opacity: 1; } }
@keyframes a55_o { 0% { opacity: 0; } 33.889% { opacity: 0; } 34.444% { opacity: 1; } 100% { opacity: 1; } }
@keyframes a56_o { 0% { opacity: 0; } 34.444% { opacity: 0; } 35% { opacity: 1; } 100% { opacity: 1; } }
@keyframes a57_o { 0% { opacity: 0; } 35% { opacity: 0; } 35.556% { opacity: 1; } 100% { opacity: 1; } }
@keyframes a58_o { 0% { opacity: 0; } 35.556% { opacity: 0; } 36.111% { opacity: 1; } 100% { opacity: 1; } }
@keyframes a59_o { 0% { opacity: 0; } 36.111% { opacity: 0; } 36.667% { opacity: 1; } 100% { opacity: 1; } }
@keyframes a60_o { 0% { opacity: 0; } 36.667% { opacity: 0; } 37.222% { opacity: 1; } 100% { opacity: 1; } }
@keyframes a61_o { 0% { opacity: 0; } 37.222% { opacity: 0; } 37.778% { opacity: 1; } 100% { opacity: 1; } }
@keyframes a62_o { 0% { opacity: 0; } 37.778% { opacity: 0; } 38.333% { opacity: 1; } 100% { opacity: 1; } }
@keyframes a63_o { 0% { opacity: 0; } 38.333% { opacity: 0; } 38.889% { opacity: 1; } 100% { opacity: 1; } }
@keyframes a64_o { 0% { opacity: 0; } 38.889% { opacity: 0; } 39.444% { opacity: 1; } 100% { opacity: 1; } }
@keyframes a65_t { 0% { transform: translate(101.8px,0px); } 50% { transform: translate(101.8px,0px); animation-timing-function: cubic-bezier(0,0,.6,1); } 52.778% { transform: translate(0px,0px); } 72.222% { transform: translate(0px,0px); animation-timing-function: cubic-bezier(.4,0,1,1); } 75% { transform: translate(101.8px,0px); } 100% { transform: translate(101.8px,0px); } }
@keyframes a65_o { 0% { opacity: 0; } 51.111% { opacity: 0; animation-timing-function: cubic-bezier(0,0,.6,1); } 52.778% { opacity: 1; } 73.333% { opacity: 1; animation-timing-function: cubic-bezier(.4,0,1,1); } 75% { opacity: 0; } 100% { opacity: 0; } }
@keyframes a66_f { 0% { fill: #db2b56; } 57.778% { fill: #db2b56; animation-timing-function: cubic-bezier(0,0,.6,1); } 58.889% { fill: #fff; } 100% { fill: #fff; } }
@keyframes a67_f { 0% { fill: #db2b56; } 56.667% { fill: #db2b56; animation-timing-function: cubic-bezier(0,0,.6,1); } 57.778% { fill: #fff; } 100% { fill: #fff; } }
@keyframes a68_f { 0% { fill: #db2b56; } 55.556% { fill: #db2b56; animation-timing-function: cubic-bezier(0,0,.6,1); } 56.667% { fill: #fff; } 100% { fill: #fff; } }
@keyframes a69_f { 0% { fill: #db2b56; } 60% { fill: #db2b56; animation-timing-function: cubic-bezier(0,0,.6,1); } 62.778% { fill: #fff; } 100% { fill: #fff; } }
@keyframes a70_f { 0% { fill: #fff; } 60% { fill: #fff; animation-timing-function: cubic-bezier(.4,0,1,1); } 62.778% { fill: #db2b56; } 100% { fill: #db2b56; } }
</style><g transform="translate(-114.2,-92)"><g opacity="0" transform="translate(361.2,230.5) translate(-361.2,-161)" style="animation: 18s linear infinite both a0_t, 18s linear infinite both a0_o;"><path d="M360.5 92.4l.7-0.4l7.3 3.7l7.2 3.6l19.6 9.9c0 0 0 .7 0 1.9v12.6c0 0-1.2-0.7-2.3-1.2l-31.8-15.9l-31.9 15.9c-1 .5-2.3 1.2-2.3 1.2v-14.5c0 0 .7-0.4 1.8-0.9l17.9-9l7.2-3.6l6.6-3.3Z" fill="#db2b56"/><path d="M361.9 229.6l-0.7 .4l-7.3-3.7l-7.3-3.6l-19.6-9.9c0 0 0-0.7 0-1.9v-12.6c0 0 1.3 .7 2.3 1.2l31.8 15.9l31.9-15.9c1.1-0.5 2.3-1.2 2.3-1.2v14.5c0 0-0.6 .4-1.7 .9l-17.9 9l-7.3 3.6l-6.5 3.3Z" fill="#db2b56"/><path d="M361.2 126.8c-18.9 0-34.2 15.3-34.2 34.2c0 18.9 15.3 34.2 34.2 34.2c18.9 0 34.1-15.3 34.1-34.2c0-18.9-15.2-34.2-34.1-34.2Zm0 55.4c-11.7 0-21.2-9.5-21.2-21.2c0-11.7 9.5-21.2 21.2-21.2c11.7 0 21.1 9.5 21.1 21.2c0 11.7-9.4 21.2-21.1 21.2Z" fill="#db2b56"/></g><g opacity="0" transform="translate(0,10)" style="animation: 18s linear infinite both a1_t, 18s linear infinite both a1_o;"><rect width="203.5" height="137.5" fill="#f0f0f1" stroke="#15283b" stroke-width=".5" transform="translate(157.2,161.2)" style="animation: 18s linear infinite both a2_s, 18s linear infinite both a2_f;"/><rect x="159" y="163" width="4" height="4" rx="2" fill="#15283b"/><path stroke="#15283b" stroke-width=".5" d="M157 168.8l204-0.1" style="animation: 18s linear infinite both a3_s;"/></g><g style="animation: 18s linear infinite both a4_t, 18s linear infinite both a4_o;"><g opacity="0" transform="translate(259,184.4) translate(-64,-2.1)" style="animation: 18s linear infinite both a5_t, 18s linear infinite both a5_o;"><g transform="translate(-195,-179.3)"><path d="M250.6 183.5c0 0 0 0-0.1-0.1c0 0 0-0.1 0-0.1l2.1-3.7l-0.4-0.3l.4 .3c.1-0.1 .2-0.1 .2 0l2.1 3.7c0 0 0 .1 0 .1c0 .1-0.1 .1-0.1 .1h-4.2Z" fill="#99999e" stroke="#99999e"/><path d="M259.5 183.5c0 0-0.1 0-0.1-0.1c0 0 0-0.1 0-0.1l2.1-3.7l-0.5-0.3l.5 .3c0-0.1 .2-0.1 .2 0l2.1 3.7c0 0 0 .1 0 .1c0 .1-0.1 .1-0.1 .1h-4.2Z" fill="#99999e" stroke="#99999e"/><path d="M259.2 179.5c.1 0 .1 0 .1 .1c.1 0 .1 .1 0 .1l-2 3.7c-0.1 .1-0.2 .1-0.3 0l-2-3.7c-0.1 0-0.1-0.1 0-0.1c0-0.1 0-0.1 .1-0.1h4.1Z" fill="#99999e" stroke="#99999e"/><path d="M268.1 179.5c.1 0 .1 0 .1 .1c.1 0 .1 .1 0 .1l-2 3.7c-0.1 .1-0.2 .1-0.3 0l-2-3.7c-0.1 0-0.1-0.1 0-0.1c0-0.1 0-0.1 .1-0.1h4.1Z" fill="#99999e" stroke="#99999e"/></g><g transform="translate(-195,-179.3)"><path stroke="#99999e" stroke-width=".5" d="M231.9 181.8l8-0.1"/><path stroke="#99999e" stroke-width=".5" d="M212 181.8l12-0.1"/><path stroke="#99999e" stroke-width=".5" d="M195 181.8l9-0.1"/></g><g transform="translate(-195,-179.3)"><path stroke="#99999e" stroke-width=".5" d="M315 181.8l8-0.1"/><path stroke="#99999e" stroke-width=".5" d="M295 181.8l12-0.1"/><path stroke="#99999e" stroke-width=".5" d="M278 181.8l9-0.1"/></g></g><g opacity="0" transform="translate(0,-6.8)" style="animation: 18s linear infinite both a6_o;"><g opacity="0" transform="translate(-3,0)" style="animation: 18s linear infinite both a7_t, 18s linear infinite both a7_o;"><rect width="39.5" height="19.5" fill="#fff" stroke="#99999e" stroke-width=".5" transform="translate(195.2,205.2)" style="animation: 18s linear infinite both a8_s, 18s linear infinite both a8_f;"/><path d="M206 212.5l.1-0.2l-0.2-0.1l-0.1 .1l.2 .2Zm12.5 7.5l-0.1 .2l.1 .1l.2-0.1l-0.2-0.2Zm6-5l.2-0.2l-0.2-0.1l-0.2 .1l.2 .2Zm9.9 7.7c.1 .1 .2 .1 .3 0c.1-0.2 .1-0.3-0.1-0.4l-0.2 .4Zm-38.7 2l10.5-12l-0.4-0.4l-10.5 12l.4 .4Zm10.2-12l12.5 7.5l.2-0.4l-12.5-7.5l-0.2 .4Zm12.8 7.5l6-5l-0.4-0.4l-6 5l.4 .4Zm5.7-5l10 7.5l.3-0.4l-10-7.5l-0.3 .4Z" fill="#99999e" style="animation: 18s linear infinite both a9_f;"/><ellipse stroke="#99999e" stroke-width=".5" rx="2.2" ry="2.2" transform="translate(217.5,210.5)" style="animation: 18s linear infinite both a10_s;"/></g><g opacity="0" transform="translate(-3,0)" style="animation: 18s linear infinite both a11_t, 18s linear infinite both a11_o;"><rect width="39.5" height="19.5" fill="#fff" stroke="#99999e" stroke-width=".5" transform="translate(239.2,205.2)" style="animation: 18s linear infinite both a12_s, 18s linear infinite both a12_f;"/><path d="M250 212.5l.1-0.2l-0.2-0.1l-0.1 .1l.2 .2Zm12.5 7.5l-0.1 .2l.1 .1l.2-0.1l-0.2-0.2Zm6-5l.2-0.2l-0.2-0.1l-0.2 .1l.2 .2Zm9.9 7.7c.1 .1 .2 .1 .3 0c.1-0.2 .1-0.3 0-0.4l-0.3 .4Zm-38.7 2l10.5-12l-0.4-0.4l-10.5 12l.4 .4Zm10.2-12l12.5 7.5l.2-0.4l-12.5-7.5l-0.2 .4Zm12.8 7.5l6-5l-0.4-0.4l-6 5l.4 .4Zm5.7-5l10 7.5l.3-0.4l-10-7.5l-0.3 .4Z" fill="#99999e" style="animation: 18s linear infinite both a13_f;"/><ellipse stroke="#99999e" stroke-width=".5" rx="2.2" ry="2.2" transform="translate(261.5,210.5)" style="animation: 18s linear infinite both a14_s;"/></g><g opacity="0" transform="translate(-3,0)" style="animation: 18s linear infinite both a15_t, 18s linear infinite both a15_o;"><rect width="39.5" height="19.5" fill="#fff" stroke="#99999e" stroke-width=".5" transform="translate(283.2,205.2)" style="animation: 18s linear infinite both a16_s, 18s linear infinite both a16_f;"/><path d="M294 212.5l.1-0.2l-0.2-0.1l-0.1 .1l.2 .2Zm12.5 7.5l-0.1 .2l.1 .1l.2-0.1l-0.2-0.2Zm6-5l.2-0.2l-0.2-0.1l-0.2 .1l.2 .2Zm9.9 7.7c.1 .1 .2 .1 .3 0c.1-0.2 .1-0.3 0-0.4l-0.3 .4Zm-38.7 2l10.5-12l-0.4-0.4l-10.5 12l.4 .4Zm10.2-12l12.5 7.5l.2-0.4l-12.5-7.5l-0.2 .4Zm12.8 7.5l6-5l-0.4-0.4l-6 5l.4 .4Zm5.7-5l10 7.5l.3-0.4l-10-7.5l-0.3 .4Z" fill="#99999e" style="animation: 18s linear infinite both a17_f;"/><ellipse stroke="#99999e" stroke-width=".5" rx="2.2" ry="2.2" transform="translate(305.5,210.5)" style="animation: 18s linear infinite both a18_s;"/></g><g opacity="0" transform="translate(-3,0)" style="animation: 18s linear infinite both a19_t, 18s linear infinite both a19_o;"><rect width="39.5" height="19.5" fill="#fff" stroke="#99999e" stroke-width=".5" transform="translate(195.2,234.2)" style="animation: 18s linear infinite both a20_s, 18s linear infinite both a20_f;"/><path d="M206 241.5l.1-0.2l-0.2-0.1l-0.1 .1l.2 .2Zm12.5 7.5l-0.1 .2l.1 .1l.2-0.1l-0.2-0.2Zm6-5l.2-0.2l-0.2-0.1l-0.2 .1l.2 .2Zm9.9 7.7c.1 .1 .2 .1 .3 0c.1-0.2 .1-0.3-0.1-0.4l-0.2 .4Zm-38.7 2l10.5-12l-0.4-0.4l-10.5 12l.4 .4Zm10.2-12l12.5 7.5l.2-0.4l-12.5-7.5l-0.2 .4Zm12.8 7.5l6-5l-0.4-0.4l-6 5l.4 .4Zm5.7-5l10 7.5l.3-0.4l-10-7.5l-0.3 .4Z" fill="#99999e" style="animation: 18s linear infinite both a21_f;"/><ellipse stroke="#99999e" stroke-width=".5" rx="2.2" ry="2.2" transform="translate(217.5,239.5)" style="animation: 18s linear infinite both a22_s;"/></g><g opacity="0" transform="translate(-3,0)" style="animation: 18s linear infinite both a23_t, 18s linear infinite both a23_o;"><rect width="39.5" height="19.5" fill="#fff" stroke="#99999e" stroke-width=".5" transform="translate(239.2,234.2)" style="animation: 18s linear infinite both a24_s, 18s linear infinite both a24_f;"/><path d="M250 241.5l.1-0.2l-0.2-0.1l-0.1 .1l.2 .2Zm12.5 7.5l-0.1 .2l.1 .1l.2-0.1l-0.2-0.2Zm6-5l.2-0.2l-0.2-0.1l-0.2 .1l.2 .2Zm9.9 7.7c.1 .1 .2 .1 .3 0c.1-0.2 .1-0.3 0-0.4l-0.3 .4Zm-38.7 2l10.5-12l-0.4-0.4l-10.5 12l.4 .4Zm10.2-12l12.5 7.5l.2-0.4l-12.5-7.5l-0.2 .4Zm12.8 7.5l6-5l-0.4-0.4l-6 5l.4 .4Zm5.7-5l10 7.5l.3-0.4l-10-7.5l-0.3 .4Z" fill="#99999e" style="animation: 18s linear infinite both a25_f;"/><ellipse stroke="#99999e" stroke-width=".5" rx="2.2" ry="2.2" transform="translate(261.5,239.5)" style="animation: 18s linear infinite both a26_s;"/></g><g opacity="0" transform="translate(-3,0)" style="animation: 18s linear infinite both a27_t, 18s linear infinite both a27_o;"><rect width="39.5" height="19.5" fill="#fff" stroke="#99999e" stroke-width=".5" transform="translate(283.2,234.2)" style="animation: 18s linear infinite both a28_s, 18s linear infinite both a28_f;"/><path d="M294 241.5l.1-0.2l-0.2-0.1l-0.1 .1l.2 .2Zm12.5 7.5l-0.1 .2l.1 .1l.2-0.1l-0.2-0.2Zm6-5l.2-0.2l-0.2-0.1l-0.2 .1l.2 .2Zm9.9 7.7c.1 .1 .2 .1 .3 0c.1-0.2 .1-0.3 0-0.4l-0.3 .4Zm-38.7 2l10.5-12l-0.4-0.4l-10.5 12l.4 .4Zm10.2-12l12.5 7.5l.2-0.4l-12.5-7.5l-0.2 .4Zm12.8 7.5l6-5l-0.4-0.4l-6 5l.4 .4Zm5.7-5l10 7.5l.3-0.4l-10-7.5l-0.3 .4Z" fill="#99999e" style="animation: 18s linear infinite both a29_f;"/><ellipse stroke="#99999e" stroke-width=".5" rx="2.2" ry="2.2" transform="translate(305.5,239.5)" style="animation: 18s linear infinite both a30_s;"/></g><g opacity="0" transform="translate(-3,0)" style="animation: 18s linear infinite both a31_t, 18s linear infinite both a31_o;"><rect width="39.5" height="19.5" fill="#fff" stroke="#99999e" stroke-width=".5" transform="translate(195.2,263.2)" style="animation: 18s linear infinite both a32_s, 18s linear infinite both a32_f;"/><path d="M206 270.5l.1-0.2l-0.2-0.1l-0.1 .1l.2 .2Zm12.5 7.5l-0.1 .2l.1 .1l.2-0.1l-0.2-0.2Zm6-5l.2-0.2l-0.2-0.1l-0.2 .1l.2 .2Zm9.9 7.7c.1 .1 .2 .1 .3 0c.1-0.2 .1-0.3-0.1-0.4l-0.2 .4Zm-38.7 2l10.5-12l-0.4-0.4l-10.5 12l.4 .4Zm10.2-12l12.5 7.5l.2-0.4l-12.5-7.5l-0.2 .4Zm12.8 7.5l6-5l-0.4-0.4l-6 5l.4 .4Zm5.7-5l10 7.5l.3-0.4l-10-7.5l-0.3 .4Z" fill="#99999e" style="animation: 18s linear infinite both a33_f;"/><ellipse stroke="#99999e" stroke-width=".5" rx="2.2" ry="2.2" transform="translate(217.5,268.5)" style="animation: 18s linear infinite both a34_s;"/></g><g opacity="0" transform="translate(-3,0)" style="animation: 18s linear infinite both a35_t, 18s linear infinite both a35_o;"><rect width="39.5" height="19.5" fill="#fff" stroke="#99999e" stroke-width=".5" transform="translate(239.2,263.2)" style="animation: 18s linear infinite both a36_s, 18s linear infinite both a36_f;"/><path d="M250 270.5l.1-0.2l-0.2-0.1l-0.1 .1l.2 .2Zm12.5 7.5l-0.1 .2l.1 .1l.2-0.1l-0.2-0.2Zm6-5l.2-0.2l-0.2-0.1l-0.2 .1l.2 .2Zm9.9 7.7c.1 .1 .2 .1 .3 0c.1-0.2 .1-0.3 0-0.4l-0.3 .4Zm-38.7 2l10.5-12l-0.4-0.4l-10.5 12l.4 .4Zm10.2-12l12.5 7.5l.2-0.4l-12.5-7.5l-0.2 .4Zm12.8 7.5l6-5l-0.4-0.4l-6 5l.4 .4Zm5.7-5l10 7.5l.3-0.4l-10-7.5l-0.3 .4Z" fill="#99999e" style="animation: 18s linear infinite both a37_f;"/><ellipse stroke="#99999e" stroke-width=".5" rx="2.2" ry="2.2" transform="translate(261.5,268.5)" style="animation: 18s linear infinite both a38_s;"/></g><g opacity="0" transform="translate(-3,0)" style="animation: 18s linear infinite both a39_t, 18s linear infinite both a39_o;"><rect width="39.5" height="19.5" fill="#fff" stroke="#99999e" stroke-width=".5" transform="translate(283.2,263.2)" style="animation: 18s linear infinite both a40_s, 18s linear infinite both a40_f;"/><path d="M294 270.5l.1-0.2l-0.2-0.1l-0.1 .1l.2 .2Zm12.5 7.5l-0.1 .2l.1 .1l.2-0.1l-0.2-0.2Zm6-5l.2-0.2l-0.2-0.1l-0.2 .1l.2 .2Zm9.9 7.7c.1 .1 .2 .1 .3 0c.1-0.2 .1-0.3 0-0.4l-0.3 .4Zm-38.7 2l10.5-12l-0.4-0.4l-10.5 12l.4 .4Zm10.2-12l12.5 7.5l.2-0.4l-12.5-7.5l-0.2 .4Zm12.8 7.5l6-5l-0.4-0.4l-6 5l.4 .4Zm5.7-5l10 7.5l.3-0.4l-10-7.5l-0.3 .4Z" fill="#99999e" style="animation: 18s linear infinite both a41_f;"/><ellipse stroke="#99999e" stroke-width=".5" rx="2.2" ry="2.2" transform="translate(305.5,268.5)" style="animation: 18s linear infinite both a42_s;"/></g><g transform="translate(295.2,290.9)"><g transform="translate(-229.2,-269.2)"><path fill-rule="evenodd" clip-rule="evenodd" d="M245.2 271.7l-2.9 3l-1.5-1.5l.5-0.6l1 1l2.4-2.5l.6 .6Z" fill="#fff"/></g><rect width="27.5" height="7.5" fill="#db2b56" style="animation: 18s linear infinite both a43_f;"/></g></g></g><g><g opacity="0" transform="translate(101.8,0)" style="animation: 18s linear infinite both a44_t, 18s linear infinite both a44_o;"><rect x="229" y="216" width="60" height="8" fill="#fff"/><rect x="229" y="228" width="60" height="8" fill="#fff"/><rect width="60" height="8" fill="#15283b" transform="translate(229,266)" style="animation: 18s linear infinite both a45_f;"/><g><ellipse fill="#db2b56" rx=".5" ry=".5" opacity="0" transform="translate(231.5,220)" style="animation: 18s linear infinite both a46_o;"/><ellipse fill="#db2b56" rx=".5" ry=".5" opacity="0" transform="translate(234.5,220)" style="animation: 18s linear infinite both a47_o;"/><ellipse fill="#db2b56" rx=".5" ry=".5" opacity="0" transform="translate(237.5,220)" style="animation: 18s linear infinite both a48_o;"/><ellipse fill="#db2b56" rx=".5" ry=".5" opacity="0" transform="translate(240.5,220)" style="animation: 18s linear infinite both a49_o;"/><ellipse fill="#db2b56" rx=".5" ry=".5" opacity="0" transform="translate(243.5,220)" style="animation: 18s linear infinite both a50_o;"/><ellipse fill="#db2b56" rx=".5" ry=".5" opacity="0" transform="translate(246.5,220)" style="animation: 18s linear infinite both a51_o;"/><ellipse fill="#db2b56" rx=".5" ry=".5" opacity="0" transform="translate(249.5,220)" style="animation: 18s linear infinite both a52_o;"/><ellipse fill="#db2b56" rx=".5" ry=".5" opacity="0" transform="translate(252.5,220)" style="animation: 18s linear infinite both a53_o;"/><ellipse fill="#db2b56" rx=".5" ry=".5" opacity="0" transform="translate(255.5,220)" style="animation: 18s linear infinite both a54_o;"/></g><g><ellipse fill="#db2b56" rx=".5" ry=".5" opacity="0" transform="translate(231.5,232)" style="animation: 18s linear infinite both a55_o;"/><ellipse fill="#db2b56" rx=".5" ry=".5" opacity="0" transform="translate(234.5,232)" style="animation: 18s linear infinite both a56_o;"/><ellipse fill="#db2b56" rx=".5" ry=".5" opacity="0" transform="translate(237.5,232)" style="animation: 18s linear infinite both a57_o;"/><ellipse fill="#db2b56" rx=".5" ry=".5" opacity="0" transform="translate(240.5,232)" style="animation: 18s linear infinite both a58_o;"/><ellipse fill="#db2b56" rx=".5" ry=".5" opacity="0" transform="translate(243.5,232)" style="animation: 18s linear infinite both a59_o;"/><ellipse fill="#db2b56" rx=".5" ry=".5" opacity="0" transform="translate(246.5,232)" style="animation: 18s linear infinite both a60_o;"/><ellipse fill="#db2b56" rx=".5" ry=".5" opacity="0" transform="translate(249.5,232)" style="animation: 18s linear infinite both a61_o;"/><ellipse fill="#db2b56" rx=".5" ry=".5" opacity="0" transform="translate(252.5,232)" style="animation: 18s linear infinite both a62_o;"/><ellipse fill="#db2b56" rx=".5" ry=".5" opacity="0" transform="translate(255.5,232)" style="animation: 18s linear infinite both a63_o;"/><ellipse fill="#db2b56" rx=".5" ry=".5" opacity="0" transform="translate(258.5,232)" style="animation: 18s linear infinite both a64_o;"/></g><rect x="254" y="186" width="10" height="10" fill="#15283b"/></g><g opacity="0" transform="translate(101.8,0)" style="animation: 18s linear infinite both a65_t, 18s linear infinite both a65_o;"><rect width="3.5" height="3.5" fill="#db2b56" stroke="#15283b" stroke-width=".5" transform="translate(229.2,251.2)" style="animation: 18s linear infinite both a66_f;"/><path stroke="#15283b" stroke-width=".5" d="M236 253h13"/><path stroke="#15283b" stroke-width=".5" d="M251 253h11"/><rect width="3.5" height="3.5" fill="#db2b56" stroke="#15283b" stroke-width=".5" transform="translate(229.2,244.2)" style="animation: 18s linear infinite both a67_f;"/><path stroke="#15283b" stroke-width=".5" d="M236 246h23"/><path stroke="#15283b" stroke-width=".5" d="M261 246h9"/><rect width="3.5" height="3.5" fill="#db2b56" stroke="#15283b" stroke-width=".5" transform="translate(229.2,237.2)" style="animation: 18s linear infinite both a68_f;"/><path stroke="#15283b" stroke-width=".5" d="M236 239h20"/><path stroke="#15283b" stroke-width=".5" d="M258 239h7"/><g><path stroke="#fff" stroke-width=".5" d="M229 215.8l23.1-0.1"/><path stroke="#fff" stroke-width=".5" d="M255.5 215.8l8.1-0.1"/><path stroke="#fff" stroke-width=".5" d="M265.9 215.8l23.1-0.1"/><path stroke="#fff" stroke-width=".5" d="M229 218.5h46.2"/><path stroke="#fff" stroke-width=".5" d="M278.6 218.5h8.1"/><path stroke="#fff" stroke-width=".5" d="M229 221.5h28.8"/><path stroke="#fff" stroke-width=".5" d="M261.3 221.5h21.9"/><path stroke="#fff" stroke-width=".5" d="M229 224.5h40.4"/><path stroke="#fff" stroke-width=".5" d="M271.7 224.5h11.5"/><path stroke="#fff" stroke-width=".5" d="M229 227.5h5.8"/><path stroke="#fff" stroke-width=".5" d="M237.1 227.5h38.1"/><path stroke="#fff" stroke-width=".5" d="M277.5 227.5h9.2"/><path stroke="#fff" stroke-width=".5" d="M229 230.5h21.9"/></g><rect x="261.2" y="269.2" width="27.5" height="7.5" stroke="#fff" stroke-width=".5"/><g><path fill-rule="evenodd" clip-rule="evenodd" d="M275.6 273l1.4 1.4l-0.6 .6l-1.4-1.4l-1.4 1.4l-0.6-0.6l1.4-1.4l-1.4-1.4l.6-0.6l1.4 1.4l1.4-1.4l.6 .6l-1.4 1.4Z" fill="#fff"/></g><rect width="27.5" height="7.5" stroke="#fff" stroke-width=".5" fill="#db2b56" transform="translate(229.2,269.2)" style="animation: 18s linear infinite both a69_f;"/><path fill-rule="evenodd" clip-rule="evenodd" d="M245.2 271.7l-2.9 3l-1.5-1.5l.5-0.6l1 1l2.4-2.5l.6 .6Z" fill="#fff" style="animation: 18s linear infinite both a70_f;"/><rect x="254" y="186" width="10" height="10" fill="#15283b"/></g></g></g></svg>