<svg width="24" height="24" viewBox="0 0 24 24" fill="none" xmlns="http://www.w3.org/2000/svg">
    <circle cx="12" cy="12" r="12" fill="white"/>
    <path d="M17.3419 4H6.6376C5.73492 4 5 4.73492 5 5.64559V16.4458C5 17.3564 5.73492 18.0914 6.6376 18.0914H15.6963L15.273 16.6135L16.2955 17.5641L17.262 18.4588L18.9795 19.9766V5.64559C18.9795 4.73492 18.2446 4 17.3419 4ZM14.2584 14.4327C14.2584 14.4327 13.9709 14.0892 13.7312 13.7857C14.7777 13.4901 15.1771 12.8351 15.1771 12.8351C14.8496 13.0507 14.538 13.2025 14.2584 13.3064C13.859 13.4741 13.4756 13.586 13.1001 13.6499C12.3333 13.7937 11.6303 13.7537 11.0312 13.6419C10.5758 13.554 10.1844 13.4262 9.85689 13.2984C9.67315 13.2265 9.47345 13.1386 9.27374 13.0268C9.24977 13.0108 9.22581 13.0028 9.20185 12.9868C9.18587 12.9788 9.17788 12.9709 9.16989 12.9629C9.0261 12.883 8.94622 12.8271 8.94622 12.8271C8.94622 12.8271 9.32966 13.4661 10.3442 13.7697C10.1045 14.0732 9.80896 14.4327 9.80896 14.4327C8.04354 14.3768 7.37252 13.2185 7.37252 13.2185C7.37252 10.6463 8.52284 8.56132 8.52284 8.56132C9.67315 7.69858 10.7676 7.72255 10.7676 7.72255L10.8474 7.81841C9.40954 8.2338 8.74651 8.86487 8.74651 8.86487C8.74651 8.86487 8.92225 8.76901 9.21782 8.63321C10.0726 8.25776 10.7516 8.15392 11.0312 8.12995C11.0791 8.12196 11.119 8.11397 11.167 8.11397C11.6543 8.05007 12.2054 8.03409 12.7806 8.098C13.5395 8.18587 14.3543 8.40954 15.1851 8.86487C15.1851 8.86487 14.554 8.26575 13.196 7.85036L13.3078 7.72255C13.3078 7.72255 14.4022 7.69858 15.5525 8.56132C15.5525 8.56132 16.7029 10.6463 16.7029 13.2185C16.7029 13.2185 16.0239 14.3768 14.2584 14.4327ZM10.5439 10.7022C10.0885 10.7022 9.72907 11.1016 9.72907 11.5889C9.72907 12.0762 10.0965 12.4756 10.5439 12.4756C10.9992 12.4756 11.3587 12.0762 11.3587 11.5889C11.3667 11.1016 10.9992 10.7022 10.5439 10.7022ZM13.4596 10.7022C13.0043 10.7022 12.6448 11.1016 12.6448 11.5889C12.6448 12.0762 13.0123 12.4756 13.4596 12.4756C13.9149 12.4756 14.2744 12.0762 14.2744 11.5889C14.2744 11.1016 13.9149 10.7022 13.4596 10.7022Z" fill="#122232"/>
    <path d="M12.0509 6C8.76696 6 6 8.63839 6 11.8955C6 12 6.00268 18 6.00268 18L12.0509 17.9946C15.3375 17.9946 18 15.2545 18 11.9973C18 8.74018 15.3375 6 12.0509 6ZM12 15.4286C11.4804 15.4286 10.9848 15.3134 10.5429 15.1045L8.37054 15.6429L8.98393 13.6339C8.72143 13.1491 8.57143 12.592 8.57143 12C8.57143 10.1063 10.1063 8.57143 12 8.57143C13.8938 8.57143 15.4286 10.1063 15.4286 12C15.4286 13.8938 13.8938 15.4286 12 15.4286Z" fill="#122232"/>
</svg>
