<svg width="24" height="24" viewBox="0 0 24 24" fill="none" xmlns="http://www.w3.org/2000/svg">
    <circle cx="12" cy="12" r="12" fill="white"/>
    <path d="M12.0636 4.5C7.95871 4.5 4.5 7.79799 4.5 11.8694C4.5 12 4.50335 19.5 4.50335 19.5L12.0636 19.4933C16.1719 19.4933 19.5 16.0681 19.5 11.9967C19.5 7.92522 16.1719 4.5 12.0636 4.5ZM12 16.2857C11.3504 16.2857 10.731 16.1417 10.1786 15.8806L7.46317 16.5536L8.22991 14.0424C7.90179 13.4364 7.71429 12.74 7.71429 12C7.71429 9.63281 9.63281 7.71429 12 7.71429C14.3672 7.71429 16.2857 9.63281 16.2857 12C16.2857 14.3672 14.3672 16.2857 12 16.2857Z" fill="#122232"/>
</svg>
