<svg width="24" height="24" viewBox="0 0 24 24" fill="none" xmlns="http://www.w3.org/2000/svg">
    <circle cx="12" cy="12" r="12" fill="white"/>
    <path fill-rule="evenodd" clip-rule="evenodd" d="M18.9269 7.97507C18.2115 6.75221 17.2411 5.78406 16.0155 5.07042C14.7897 4.35675 13.4515 4 11.9999 4C10.5485 4 9.20991 4.35686 7.98437 5.07042C6.75864 5.78403 5.78831 6.75221 5.07293 7.97507C4.35765 9.1979 4 10.5332 4 11.981C4 13.7202 4.50859 15.2841 5.52602 16.6731C6.54335 18.0622 7.85758 19.0235 9.46862 19.5569C9.65615 19.5916 9.79497 19.5672 9.88523 19.4842C9.97553 19.4012 10.0206 19.2971 10.0206 19.1726C10.0206 19.1518 10.0188 18.9648 10.0154 18.6114C10.0118 18.258 10.0101 17.9497 10.0101 17.6867L9.77052 17.728C9.61776 17.7559 9.42505 17.7678 9.19239 17.7644C8.95984 17.7612 8.71843 17.7369 8.46848 17.6917C8.21841 17.6468 7.98583 17.5429 7.77053 17.3801C7.55535 17.2173 7.40259 17.0042 7.31229 16.7411L7.20813 16.502C7.1387 16.3427 7.02939 16.1659 6.88006 15.972C6.73073 15.778 6.57972 15.6464 6.42697 15.5772L6.35403 15.5251C6.30544 15.4905 6.26034 15.4487 6.21864 15.4003C6.17698 15.3518 6.14578 15.3033 6.12495 15.2548C6.10408 15.2062 6.12137 15.1663 6.17701 15.1351C6.23265 15.1038 6.3332 15.0886 6.4791 15.0886L6.68735 15.1197C6.82625 15.1474 6.99805 15.2304 7.20298 15.369C7.40781 15.5076 7.57618 15.6877 7.70814 15.9093C7.86795 16.1934 8.06047 16.4099 8.28627 16.5589C8.51189 16.7079 8.73937 16.7822 8.96849 16.7822C9.19761 16.7822 9.3955 16.7649 9.56224 16.7304C9.72879 16.6958 9.88505 16.6437 10.0309 16.5745C10.0934 16.1101 10.2636 15.7533 10.5413 15.504C10.1455 15.4625 9.78968 15.4 9.47362 15.3169C9.15773 15.2337 8.83131 15.0986 8.49456 14.9114C8.15763 14.7244 7.87812 14.4922 7.65597 14.2152C7.43378 13.9381 7.25144 13.5742 7.10918 13.124C6.96686 12.6736 6.89568 12.154 6.89568 11.5652C6.89568 10.7267 7.17004 10.0132 7.71865 9.4243C7.46166 8.79394 7.48592 8.08729 7.79151 7.30442C7.9929 7.24199 8.29156 7.28884 8.68734 7.44466C9.0832 7.60056 9.37303 7.73411 9.55713 7.84483C9.74123 7.95552 9.88873 8.04932 9.99986 8.1254C10.6458 7.94533 11.3124 7.85528 11.9999 7.85528C12.6873 7.85528 13.354 7.94533 14 8.1254L14.3958 7.8761C14.6665 7.70976 14.9862 7.55732 15.354 7.41875C15.722 7.28025 16.0035 7.2421 16.198 7.30453C16.5104 8.08743 16.5382 8.79405 16.2812 9.42441C16.8297 10.0133 17.1042 10.727 17.1042 11.5653C17.1042 12.1542 17.0328 12.6754 16.8907 13.1292C16.7484 13.5831 16.5645 13.9466 16.3388 14.2204C16.113 14.4942 15.8317 14.7245 15.4949 14.9115C15.1581 15.0986 14.8316 15.2336 14.5157 15.3168C14.1997 15.4 13.8438 15.4626 13.4481 15.5041C13.809 15.8158 13.9896 16.3077 13.9896 16.9797V19.1723C13.9896 19.2969 14.033 19.4008 14.1199 19.4839C14.2067 19.5669 14.3437 19.5913 14.5313 19.5566C16.1425 19.0232 17.4568 18.0619 18.474 16.6728C19.4912 15.2838 20 13.7199 20 11.9807C19.9996 10.5331 19.6418 9.1979 18.9269 7.97507Z" fill="#122232"/>
</svg>
