<svg width="164" height="320" viewBox="0 0 164 320" fill="none" xmlns="http://www.w3.org/2000/svg">
    <g opacity="0.1">
        <path fill-rule="evenodd" clip-rule="evenodd" d="M69.4829 161.343C70.0103 160.314 70.0103 159.101 69.4829 158.071L61.9806 143.418L33.131 87.0851C31.8666 84.615 29.2848 83.0554 26.462 83.0554L3.73528 83.0554C0.96102 83.0554 -0.841996 85.9147 0.401534 88.3424L36.9608 159.707L0.40004 231.102C-0.842743 233.53 0.960266 236.389 3.73453 236.389L26.4329 236.389C29.2557 236.389 31.836 234.83 33.1019 232.36L53.6407 192.265L61.9881 175.975L69.4829 161.343Z" fill="white"/>
        <path fill-rule="evenodd" clip-rule="evenodd" d="M161.343 249.961C160.314 249.434 159.101 249.434 158.071 249.961L143.418 257.464L87.0851 286.313C84.6149 287.578 83.0553 290.16 83.0553 292.982L83.0553 315.709C83.0553 318.483 85.9146 320.286 88.3424 319.043L159.707 282.484L231.102 319.044C233.53 320.287 236.389 318.484 236.389 315.71L236.389 293.011C236.389 290.189 234.83 287.608 232.36 286.342L192.265 265.804L175.975 257.456L161.343 249.961Z" fill="white"/>
        <path fill-rule="evenodd" clip-rule="evenodd" d="M158.102 69.4829C159.131 70.0103 160.344 70.0103 161.374 69.4829L176.027 61.9807L232.36 33.131C234.83 31.8666 236.389 29.2848 236.389 26.4621V3.73534C236.389 0.961075 233.53 -0.841942 231.102 0.401588L159.737 36.9609L88.3432 0.400101C85.9147 -0.842682 83.0562 0.960327 83.0562 3.73459V26.433C83.0562 29.2557 84.615 31.836 87.0852 33.102L127.18 53.6408L143.469 61.9882L158.102 69.4829Z" fill="white"/>
        <path fill-rule="evenodd" clip-rule="evenodd" d="M159.723 209.635C133.26 209.635 111.806 187.288 111.806 159.722C111.806 132.156 133.26 109.809 159.723 109.809C186.186 109.809 207.64 132.156 207.64 159.722C207.64 187.288 186.186 209.635 159.723 209.635ZM159.723 79.8611C117.381 79.8611 83.0562 115.616 83.0562 159.722C83.0562 203.828 117.381 239.583 159.723 239.583C202.065 239.583 236.389 203.828 236.389 159.722C236.389 115.616 202.065 79.8611 159.723 79.8611Z" fill="white"/>
    </g>
</svg>
