<svg width="228" height="460" viewBox="0 0 228 460" fill="none" xmlns="http://www.w3.org/2000/svg">
<path opacity="0.2" d="M111.528 1.24762L113.915 3.12684e-06L138.217 12.2052L162.41 24.3561L227.83 57.2288C227.83 57.2288 227.83 59.724 227.83 63.7382L227.83 105.507C227.83 105.507 223.599 103.446 220.019 101.71L114.024 48.5495L7.81132 101.71C4.23113 103.446 0 105.507 0 105.507L-2.11031e-06 57.2288C-2.11031e-06 57.2288 2.2783 56.0354 5.96698 54.191L65.5283 24.3561L89.7217 12.2052L111.528 1.24762Z" fill="#15283B"/>
<path opacity="0.2" d="M116.302 458.752L113.915 460L89.6131 447.795L65.4197 435.644L-0.000105107 402.771C-0.000105107 402.771 -0.000104998 400.276 -0.000104823 396.262L-0.000102997 354.493C-0.000102997 354.493 4.23103 356.554 7.81121 358.29L113.806 411.45L220.019 358.29C223.599 356.554 227.83 354.493 227.83 354.493L227.83 402.771C227.83 402.771 225.552 403.965 221.863 405.809L162.302 435.644L138.108 447.795L116.302 458.752Z" fill="#15283B"/>
<path opacity="0.2" d="M113.915 116.085C50.9906 116.085 0 167.076 0 230C0 292.925 50.9906 343.915 113.915 343.915C176.84 343.915 227.83 292.925 227.83 230C227.83 167.076 176.84 116.085 113.915 116.085ZM113.915 300.519C74.967 300.519 43.3962 268.948 43.3962 230C43.3962 191.052 74.967 159.481 113.915 159.481C152.863 159.481 184.434 191.052 184.434 230C184.434 268.948 152.863 300.519 113.915 300.519Z" fill="#15283B"/>
</svg>
