<?xml version="1.0" encoding="utf-8"?>
<svg version="1.1" id="Layer_1" xmlns="http://www.w3.org/2000/svg" x="0px" y="0px"
	 width="79.3px" height="320px" viewBox="0 0 79.3 320" style="enable-background:new 0 0 79.3 320;" xml:space="preserve">
<style type="text/css">
	.st0{opacity:0.2;fill:#ffffff;enable-background:new    ;}
</style>
<path class="st0" d="M79.3,33.8l-73.9,37C2.9,72,0,73.4,0,73.4l0-33.6c0,0,1.6-0.8,4.2-2.1l41.4-20.8l16.8-8.5l15.2-7.6L79.2,0
	L79.3,33.8z"/>
<path class="st0" d="M79.2,320l-16.9-8.5l-16.8-8.5L0,280.2c0,0,0-1.7,0-4.5l0-29.1c0,0,2.9,1.4,5.4,2.6l73.7,37L79.2,320z"/>
<path class="st0" d="M79.2,80.8C35.5,80.8,0,116.2,0,160c0,43.8,35.5,79.2,79.2,79.2v-30.2c-27.1,0-49.1-22-49.1-49.1
	s22-49.1,49.1-49.1V80.8z"/>
</svg>
