<svg width="461" height="460" viewBox="0 0 461 460" fill="none" xmlns="http://www.w3.org/2000/svg">
    <g opacity="0.1">
        <path fill-rule="evenodd" clip-rule="evenodd" d="M100.712 232.053C101.471 230.574 101.471 228.828 100.712 227.348L89.9222 206.272L48.4288 125.251C46.6103 121.698 42.897 119.455 38.8371 119.455L6.15014 119.455C2.16002 119.455 -0.43318 123.568 1.35534 127.059L53.9371 229.701L1.35319 332.384C-0.434257 335.877 2.15894 339.989 6.14906 339.989L38.7953 339.989C42.8551 339.989 46.5663 337.746 48.387 334.194L77.9271 276.528L89.9329 253.098L100.712 232.053Z" fill="white"/>
        <path fill-rule="evenodd" clip-rule="evenodd" d="M232.831 359.51C231.352 358.751 229.606 358.751 228.126 359.51L207.05 370.3L126.029 411.793C122.476 413.612 120.233 417.325 120.233 421.385L120.233 454.072C120.233 458.062 124.346 460.655 127.837 458.867L230.479 406.285L333.162 458.869C336.655 460.656 340.767 458.063 340.767 454.073L340.767 421.427C340.767 417.367 338.525 413.656 334.972 411.835L277.306 382.295L253.876 370.289L232.831 359.51Z" fill="white"/>
        <path fill-rule="evenodd" clip-rule="evenodd" d="M360.288 232.054C359.529 230.574 359.529 228.829 360.288 227.348L371.078 206.272L412.571 125.252C414.39 121.699 418.103 119.456 422.163 119.456L454.85 119.456C458.84 119.456 461.433 123.568 459.645 127.06L407.063 229.701L459.647 332.385C461.434 335.878 458.841 339.989 454.851 339.989L422.205 339.989C418.145 339.989 414.434 337.747 412.613 334.194L383.073 276.528L371.067 253.099L360.288 232.054Z" fill="white"/>
        <path fill-rule="evenodd" clip-rule="evenodd" d="M228.169 99.9346C229.649 100.693 231.394 100.693 232.875 99.9346L253.951 89.1444L334.971 47.6511C338.524 45.8325 340.767 42.1192 340.767 38.0593V5.37238C340.767 1.38226 336.655 -1.21095 333.163 0.577583L230.522 53.1593L127.838 0.575439C124.345 -1.21201 120.234 1.38118 120.234 5.3713V38.0175C120.234 42.0774 122.476 45.7885 126.029 47.6092L183.695 77.1494L207.124 89.1551L228.169 99.9346Z" fill="white"/>
        <path fill-rule="evenodd" clip-rule="evenodd" d="M230.501 301.51C192.44 301.51 161.584 269.369 161.584 229.722C161.584 190.075 192.44 157.934 230.501 157.934C268.562 157.934 299.417 190.075 299.417 229.722C299.417 269.369 268.562 301.51 230.501 301.51ZM230.501 114.861C169.602 114.861 120.234 166.286 120.234 229.722C120.234 293.158 169.602 344.583 230.501 344.583C291.399 344.583 340.767 293.158 340.767 229.722C340.767 166.286 291.399 114.861 230.501 114.861Z" fill="white"/>
    </g>
</svg>
