<svg xmlns="http://www.w3.org/2000/svg" width="130" height="130" viewBox="0 0 130 130" fill="none"><style>
@keyframes a_t { 0% { transform: translate(65px,65px) rotate(0deg) translate(-61.5px,-61.5px); animation-timing-function: cubic-bezier(.42,0,.58,1); } 13.333% { transform: translate(65px,65px) rotate(180deg) translate(-61.5px,-61.5px); } 14.267% { transform: translate(65px,65px) rotate(180deg) translate(-61.5px,-61.5px); animation-timing-function: cubic-bezier(.42,0,.58,1); } 27.619% { transform: translate(65px,65px) rotate(360deg) translate(-61.5px,-61.5px); } 28.552% { transform: translate(65px,65px) rotate(360deg) translate(-61.5px,-61.5px); animation-timing-function: cubic-bezier(.42,0,.58,1); } 41.905% { transform: translate(65px,65px) rotate(540deg) translate(-61.5px,-61.5px); } 42.848% { transform: translate(65px,65px) rotate(540deg) translate(-61.5px,-61.5px); animation-timing-function: cubic-bezier(.42,0,.58,1); } 56.19% { transform: translate(65px,65px) rotate(720deg) translate(-61.5px,-61.5px); } 57.124% { transform: translate(65px,65px) rotate(720deg) translate(-61.5px,-61.5px); animation-timing-function: cubic-bezier(.42,0,.58,1); } 70.476% { transform: translate(65px,65px) rotate(900deg) translate(-61.5px,-61.5px); } 71.409% { transform: translate(65px,65px) rotate(900deg) translate(-61.5px,-61.5px); animation-timing-function: cubic-bezier(.42,0,.58,1); } 84.762% { transform: translate(65px,65px) rotate(1080deg) translate(-61.5px,-61.5px); } 85.705% { transform: translate(65px,65px) rotate(1080deg) translate(-61.5px,-61.5px); animation-timing-function: cubic-bezier(.42,0,.58,1); } 99.048% { transform: translate(65px,65px) rotate(1260deg) translate(-61.5px,-61.5px); } 100% { transform: translate(65px,65px) rotate(1260deg) translate(-61.5px,-61.5px); } }
@keyframes b_f { 0% { fill: #fff; } 100% { fill: #fff; } }
@keyframes c_f { 0% { fill: #fff; } 100% { fill: #fff; } }
@keyframes d_o { 0% { opacity: 0; } .933% { opacity: 1; } 12.362% { opacity: 1; } 13.324% { opacity: 0; } 100% { opacity: 0; } }
@keyframes e_o { 0% { opacity: 0; } 14.267% { opacity: 0; } 15.219% { opacity: 1; } 26.648% { opacity: 1; } 27.6% { opacity: 0; } 100% { opacity: 0; } }
@keyframes f_o { 0% { opacity: 0; } 28.562% { opacity: 0; } 29.495% { opacity: 1; } 40.933% { opacity: 1; } 41.895% { opacity: 0; } 100% { opacity: 0; } }
@keyframes g_o { 0% { opacity: 0; } 42.838% { opacity: 0; } 43.8% { opacity: 1; } 55.229% { opacity: 1; } 56.162% { opacity: 0; } 100% { opacity: 0; } }
@keyframes h_o { 0% { opacity: 0; } 57.133% { opacity: 0; } 58.086% { opacity: 1; } 69.514% { opacity: 1; } 70.467% { opacity: 0; } 100% { opacity: 0; } }
@keyframes i_o { 0% { opacity: 0; } 71.429% { opacity: 0; } 72.381% { opacity: 1; } 83.8% { opacity: 1; } 84.752% { opacity: 0; } 100% { opacity: 0; } }
@keyframes j_o { 0% { opacity: 0; } 85.714% { opacity: 0; } 86.667% { opacity: 1; } 98.086% { opacity: 1; } 99.048% { opacity: 0; } 100% { opacity: 0; } }
</style><g transform="translate(65,65) translate(-61.5,-61.5)" style="animation: 10.5s linear infinite both a_t;"><path d="M4.07 67.87l-0.5 .03l.5-0.03Zm13.93-41.75l-0.39-0.32l.39 .32Zm38.4-21.51l-0.07-0.5l.07 .5Zm42.98 10.43c.27-0.05 .45-0.31 .4-0.59l-0.85-4.42c-0.05-0.27-0.31-0.44-0.58-0.39c-0.27 .05-0.45 .31-0.4 .58l.75 3.93l-3.93 .75c-0.27 .05-0.45 .31-0.39 .59c.05 .27 .31 .44 .58 .39l4.42-0.84Zm-77.16 92.74c-10.65-10.65-16.94-24.89-17.65-39.93l-1 .05c.72 15.29 7.12 29.76 17.94 40.59l.71-0.71Zm-17.65-39.93c-0.71-15.04 4.21-29.81 13.81-41.41l-0.77-0.64c-9.75 11.79-14.76 26.81-14.04 42.1l1-0.05Zm13.81-41.41c9.6-11.61 23.19-19.21 38.1-21.34l-0.15-0.99c-15.15 2.16-28.96 9.89-38.72 21.69l.77 .64Zm38.1-21.34c14.9-2.12 30.07 1.4 42.53 9.86l.56-0.83c-12.66-8.6-28.08-12.17-43.24-10.02l.15 .99Z" fill="#fff" transform="translate(-3.5,-3.5)" style="animation: 10.5s linear infinite both b_f;"/><path d="M125.93 62.13l.5-0.03l-0.5 .03Zm-13.93 41.75l.39 .32l-0.39-0.32Zm-38.41 21.51l.08 .5l-0.08-0.5Zm-42.97-10.43c-0.27 .05-0.45 .31-0.4 .59l.84 4.42c.06 .27 .32 .44 .59 .39c.27-0.05 .45-0.31 .4-0.58l-0.75-3.93l3.93-0.75c.27-0.05 .45-0.31 .39-0.59c-0.05-0.27-0.31-0.44-0.58-0.39l-4.42 .84Zm77.16-92.74c10.65 10.65 16.94 24.89 17.65 39.93l1-0.05c-0.72-15.29-7.12-29.76-17.94-40.59l-0.71 .71Zm17.65 39.93c.71 15.04-4.22 29.81-13.81 41.41l.77 .64c9.75-11.79 14.76-26.81 14.04-42.1l-1 .05Zm-13.81 41.41c-9.6 11.61-23.19 19.21-38.1 21.34l.15 .99c15.15-2.16 28.96-9.89 38.72-21.69l-0.77-0.64Zm-38.1 21.34c-14.91 2.12-30.07-1.4-42.53-9.86l-0.56 .82c12.66 8.61 28.08 12.18 43.24 10.03l-0.15-0.99Z" fill="#fff" transform="translate(-3.5,-3.5)" style="animation: 10.5s linear infinite both c_f;"/></g><g transform="translate(33.04,53.3)"><path fill="#fb8200" opacity="0" d="M-12.62-4.27v-1.44l7.56-4.48v1.51l-6.21 3.62v.15l6.21 3.61v1.52Zm9.34 6.99l4.69-16.04h1.3l-4.7 16.04Zm8.35-4.02l6.21-3.61v-0.15l-6.21-3.62v-1.51l7.56 4.48v1.44l-7.56 4.49Z" transform="translate(31.96,18.45)" style="animation: 10.5s linear infinite both d_o;"/><path fill="#fb8200" opacity="0" d="M13.71 14.18v-1.44l7.55-4.48v1.51l-6.2 3.62v.15l6.2 3.61v1.52Zm11.62 4.49c-0.38 0-0.66-0.1-0.84-0.29c-0.17-0.19-0.26-0.45-0.26-0.76v-0.23c0-0.31 .09-0.57 .26-0.76c.18-0.19 .46-0.29 .84-0.29c.38 0 .66 .1 .84 .29c.17 .19 .26 .45 .26 .76v.23c0 .31-0.09 .57-0.26 .76c-0.18 .19-0.46 .29-0.84 .29Zm3.97-9.51h1.44v10.73c0 .65-0.16 1.17-0.48 1.57c-0.33 .39-0.84 .59-1.53 .59h-0.94v-1.26h1.51Zm.72-2.18c-0.31 0-0.53-0.07-0.67-0.22c-0.14-0.15-0.21-0.35-0.21-0.59v-0.23c0-0.24 .07-0.44 .21-0.59c.14-0.15 .36-0.22 .67-0.22c.31 0 .54 .07 .68 .22c.14 .15 .2 .35 .2 .59v.23c0 .24-0.06 .44-0.2 .59c-0.14 .15-0.37 .22-0.68 .22Zm6.57 11.69c-0.86 0-1.58-0.17-2.17-0.5c-0.58-0.33-1.08-0.77-1.5-1.32l1.03-0.83c.36 .46 .76 .81 1.2 1.05c.45 .25 .96 .37 1.55 .37c.61 0 1.09-0.13 1.43-0.39c.34-0.27 .51-0.64 .51-1.12c0-0.36-0.11-0.67-0.35-0.93c-0.23-0.26-0.65-0.43-1.27-0.53l-0.73-0.11c-0.44-0.06-0.83-0.15-1.19-0.28c-0.36-0.12-0.68-0.29-0.95-0.5c-0.27-0.21-0.48-0.47-0.63-0.78c-0.15-0.31-0.22-0.69-0.22-1.12c0-0.45 .08-0.85 .25-1.2c.17-0.34 .4-0.62 .69-0.85c.3-0.23 .65-0.4 1.06-0.51c.4-0.12 .84-0.17 1.31-0.17c.76 0 1.39 .13 1.9 .39c.51 .27 .96 .63 1.34 1.1l-0.95 .86c-0.21-0.28-0.51-0.55-0.9-0.78c-0.4-0.23-0.9-0.35-1.5-0.35c-0.6 0-1.05 .13-1.36 .39c-0.3 .25-0.46 .61-0.46 1.05c0 .46 .16 .79 .46 .99c.31 .2 .75 .35 1.33 .45l.72 .11c1.03 .15 1.76 .45 2.19 .89c.43 .44 .65 1.01 .65 1.72c0 .9-0.31 1.61-0.92 2.12c-0.61 .52-1.45 .78-2.52 .78Zm6.07-1.52l6.21-3.61v-0.15l-6.21-3.62v-1.51l7.56 4.48v1.44l-7.56 4.49Z"/><path fill="#fb8200" opacity="0" d="M-21.29-4.27v-1.44l7.56-4.48v1.51l-6.21 3.62v.15l6.21 3.61v1.52Zm11.63 4.49c-0.39 0-0.66-0.1-0.84-0.29c-0.17-0.19-0.26-0.45-0.26-0.76v-0.23c0-0.31 .09-0.57 .26-0.76c.18-0.19 .45-0.29 .84-0.29c.38 0 .66 .1 .84 .29c.17 .19 .26 .45 .26 .76v.23c0 .31-0.09 .57-0.26 .76c-0.18 .19-0.46 .29-0.84 .29Zm3.97-9.51h1.44v1.51h.07c.24-0.58 .59-1.02 1.06-1.3c.46-0.28 1.01-0.42 1.66-0.42c.58 0 1.1 .11 1.57 .34c.47 .23 .86 .55 1.19 .97c.33 .42 .59 .93 .76 1.53c.17 .6 .26 1.27 .26 2.02c0 .74-0.09 1.41-0.26 2.01c-0.17 .6-0.43 1.11-0.76 1.53c-0.33 .42-0.72 .75-1.19 .97c-0.47 .23-0.99 .35-1.57 .35c-1.26 0-2.16-0.58-2.72-1.73h-0.07v5.11h-1.44Zm3.84 8.21c.81 0 1.45-0.25 1.92-0.76c.47-0.51 .7-1.18 .7-2.01v-1.59c0-0.82-0.23-1.49-0.7-2c-0.47-0.51-1.11-0.77-1.92-0.77c-0.33 0-0.64 .05-0.93 .14c-0.3 .09-0.55 .21-0.77 .37c-0.21 .15-0.38 .34-0.51 .56c-0.13 .22-0.19 .46-0.19 .71v3.46c0 .3 .06 .57 .19 .8c.13 .23 .3 .43 .51 .59c.22 .17 .47 .29 .77 .37c.29 .09 .6 .13 .93 .13Zm12.23-8.21h1.42l-4.16 11.45c-0.1 .28-0.21 .51-0.32 .69c-0.11 .19-0.24 .34-0.4 .44c-0.15 .11-0.35 .19-0.58 .24c-0.24 .05-0.52 .07-0.86 .07h-0.73v-1.26h1.45l.71-1.98l-3.48-9.65h1.44l2.23 6.32l.44 1.51h.09l.5-1.51Zm3.35 7.99l6.21-3.61v-0.15l-6.21-3.62v-1.51l7.56 4.48v1.44l-7.56 4.49Z" transform="translate(31.96,18.45)" style="animation: 10.5s linear infinite both e_o;"/><path fill="#fb8200" opacity="0" d="M-21.31-4.27v-1.44l7.56-4.48v1.51l-6.21 3.62v.15l6.21 3.61v1.52Zm11.63 4.49c-0.39 0-0.67-0.1-0.84-0.29c-0.18-0.19-0.26-0.45-0.26-0.76v-0.23c0-0.31 .08-0.57 .26-0.76c.17-0.19 .45-0.29 .84-0.29c.38 0 .66 .1 .83 .29c.18 .19 .26 .45 .26 .76v.23c0 .31-0.08 .57-0.26 .76c-0.17 .19-0.45 .29-0.83 .29Zm11.7 .81c0 .96-0.37 1.66-1.12 2.11c-0.75 .45-1.88 .68-3.38 .68c-1.45 0-2.49-0.2-3.13-0.6c-0.63-0.39-0.95-0.96-0.95-1.69c0-0.5 .13-0.9 .39-1.18c.27-0.28 .63-0.49 1.08-0.62v-0.2c-0.55-0.26-0.82-0.69-0.82-1.29c0-0.47 .15-0.83 .45-1.07c.3-0.25 .68-0.43 1.15-0.55v-0.08c-0.55-0.26-0.98-0.64-1.29-1.13c-0.3-0.49-0.46-1.06-0.46-1.71c0-0.47 .09-0.9 .25-1.3c.17-0.39 .41-0.73 .72-1.01c.3-0.29 .67-0.5 1.09-0.66c.43-0.16 .91-0.23 1.43-0.23c.66 0 1.25 .12 1.77 .36v-0.17c0-0.36 .08-0.65 .25-0.89c.17-0.23 .44-0.35 .83-0.35h1.38v1.26h-1.76v.6c.34 .28 .6 .63 .78 1.03c.19 .4 .28 .86 .28 1.36c0 .47-0.08 .9-0.25 1.3c-0.17 .39-0.4 .73-0.71 1.01c-0.31 .29-0.68 .5-1.11 .66c-0.43 .16-0.91 .23-1.44 .23c-0.3 0-0.6-0.03-0.9-0.09c-0.31 .09-0.59 .21-0.84 .37c-0.26 .17-0.38 .39-0.38 .68c0 .27 .13 .46 .39 .56c.27 .09 .61 .14 1.03 .14h1.98c1.15 0 1.99 .22 2.51 .66c.52 .44 .78 1.04 .78 1.81Zm-1.35 .1c0-0.37-0.14-0.66-0.42-0.89c-0.28-0.22-0.78-0.33-1.5-0.33h-3.1c-0.57 .26-0.86 .68-0.86 1.26c0 .41 .15 .76 .46 1.04c.3 .29 .82 .44 1.55 .44h1.34c.8 0 1.42-0.13 1.87-0.38c.44-0.25 .66-0.63 .66-1.14Zm-3.22-5.38c.61 0 1.1-0.14 1.46-0.44c.36-0.29 .54-0.75 .54-1.36v-0.5c0-0.61-0.18-1.07-0.54-1.36c-0.36-0.29-0.85-0.44-1.46-0.44c-0.61 0-1.1 .15-1.46 .44c-0.36 .29-0.54 .75-0.54 1.36v.5c0 .61 .18 1.07 .54 1.36c.36 .3 .85 .44 1.46 .44Zm9.64 4.47c-0.62 0-1.19-0.12-1.71-0.35c-0.51-0.22-0.95-0.55-1.32-0.98c-0.36-0.42-0.65-0.93-0.85-1.53c-0.21-0.59-0.31-1.26-0.31-2c0-0.74 .1-1.4 .31-2c.2-0.6 .49-1.12 .85-1.54c.37-0.43 .81-0.75 1.32-0.98c.52-0.23 1.09-0.34 1.71-0.34c.63 0 1.2 .11 1.71 .34c.51 .23 .95 .55 1.32 .98c.37 .42 .66 .94 .86 1.54c.21 .6 .31 1.26 .31 2c0 .74-0.1 1.41-0.31 2c-0.2 .6-0.49 1.11-0.86 1.53c-0.37 .43-0.81 .76-1.32 .98c-0.51 .23-1.08 .35-1.71 .35Zm0-1.28c.78 0 1.42-0.24 1.91-0.72c.49-0.48 .74-1.21 .74-2.2v-1.33c0-0.98-0.25-1.72-0.74-2.2c-0.49-0.48-1.13-0.72-1.91-0.72c-0.78 0-1.41 .24-1.9 .72c-0.5 .48-0.74 1.22-0.74 2.2v1.33c0 .99 .24 1.72 .74 2.2c.49 .48 1.12 .72 1.9 .72Zm6.66-0.24l6.21-3.61v-0.15l-6.21-3.62v-1.51l7.56 4.48v1.44l-7.56 4.49Z" transform="translate(31.96,18.45)" style="animation: 10.5s linear infinite both f_o;"/><path fill="#fb8200" opacity="0" d="M-27.17-4.27v-1.44l7.56-4.48v1.51l-6.21 3.62v.15l6.21 3.61v1.52Zm11.63 4.49c-0.39 0-0.67-0.1-0.84-0.29c-0.18-0.19-0.26-0.45-0.26-0.76v-0.23c0-0.31 .08-0.57 .26-0.76c.17-0.19 .45-0.29 .84-0.29c.38 0 .66 .1 .83 .29c.18 .19 .26 .45 .26 .76v.23c0 .31-0.08 .57-0.26 .76c-0.17 .19-0.45 .29-0.83 .29Zm3.97-9.51h1.44v1.51h.07c.24-0.58 .59-1.02 1.05-1.3c.47-0.28 1.02-0.42 1.67-0.42c.57 0 1.1 .11 1.56 .34c.47 .23 .87 .55 1.2 .97c.33 .42 .58 .93 .76 1.53c.17 .6 .26 1.27 .26 2.02c0 .74-0.09 1.41-0.26 2.01c-0.18 .6-0.43 1.11-0.76 1.53c-0.33 .42-0.73 .75-1.2 .97c-0.46 .23-0.99 .35-1.56 .35c-1.26 0-2.17-0.58-2.72-1.73h-0.07v5.11h-1.44Zm3.83 8.21c.82 0 1.46-0.25 1.93-0.76c.47-0.51 .7-1.18 .7-2.01v-1.59c0-0.82-0.23-1.49-0.7-2c-0.47-0.51-1.11-0.77-1.93-0.77c-0.32 0-0.63 .05-0.92 .14c-0.3 .09-0.55 .21-0.77 .37c-0.22 .15-0.39 .34-0.51 .56c-0.13 .22-0.19 .46-0.19 .71v3.46c0 .3 .06 .57 .19 .8c.12 .23 .29 .43 .51 .59c.22 .17 .47 .29 .77 .37c.29 .09 .6 .13 .92 .13Zm6.61-12.24h1.44v5.54h.07c.23-0.52 .55-0.94 .96-1.26c.41-0.31 .97-0.46 1.67-0.46c.96 0 1.71 .3 2.27 .92c.56 .62 .84 1.49 .84 2.62v5.96h-1.44v-5.71c0-1.66-0.7-2.5-2.11-2.5c-0.28 0-0.56 .04-0.83 .11c-0.27 .07-0.52 .18-0.73 .32c-0.22 .15-0.39 .33-0.52 .55c-0.12 .23-0.18 .49-0.18 .79v6.44h-1.44Zm10.21 4.03h1.44v1.51h.08c.24-0.58 .59-1.02 1.05-1.3c.46-0.28 1.02-0.42 1.66-0.42c.58 0 1.1 .11 1.57 .34c.47 .23 .87 .55 1.2 .97c.33 .42 .58 .93 .75 1.53c.18 .6 .26 1.27 .26 2.02c0 .74-0.08 1.41-0.26 2.01c-0.17 .6-0.42 1.11-0.75 1.53c-0.33 .42-0.73 .75-1.2 .97c-0.47 .23-0.99 .35-1.57 .35c-1.26 0-2.16-0.58-2.71-1.73h-0.08v5.11h-1.44Zm3.84 8.21c.81 0 1.46-0.25 1.92-0.76c.47-0.51 .71-1.18 .71-2.01v-1.59c0-0.82-0.24-1.49-0.71-2c-0.46-0.51-1.11-0.77-1.92-0.77c-0.33 0-0.63 .05-0.93 .14c-0.29 .09-0.55 .21-0.76 .37c-0.22 .15-0.39 .34-0.52 .56c-0.12 .22-0.19 .46-0.19 .71v3.46c0 .3 .07 .57 .19 .8c.13 .23 .3 .43 .52 .59c.21 .17 .47 .29 .76 .37c.3 .09 .6 .13 .93 .13Zm6.69-0.22l6.21-3.61v-0.15l-6.21-3.62v-1.51l7.56 4.48v1.44l-7.56 4.49Z" transform="translate(31.96,18.45)" style="animation: 10.5s linear infinite both g_o;"/><path fill="#fb8200" opacity="0" d="M-27.76-4.27v-1.44l7.56-4.48v1.51l-6.21 3.62v.15l6.21 3.61v1.52Zm11.62 4.49c-0.38 0-0.66-0.1-0.83-0.29c-0.18-0.19-0.27-0.45-0.27-0.76v-0.23c0-0.31 .09-0.57 .27-0.76c.17-0.19 .45-0.29 .83-0.29c.39 0 .67 .1 .84 .29c.17 .19 .26 .45 .26 .76v.23c0 .31-0.09 .57-0.26 .76c-0.17 .19-0.45 .29-0.84 .29Zm3.97-9.51h1.44v10.73c0 .65-0.16 1.17-0.48 1.57c-0.33 .39-0.84 .59-1.53 .59h-0.94v-1.26h1.51Zm.72-2.18c-0.31 0-0.53-0.07-0.67-0.22c-0.14-0.15-0.21-0.35-0.21-0.59v-0.23c0-0.24 .07-0.44 .21-0.59c.14-0.14 .36-0.22 .67-0.22c.32 0 .54 .08 .68 .22c.14 .15 .21 .35 .21 .59v.23c0 .24-0.07 .44-0.21 .59c-0.14 .15-0.36 .22-0.68 .22Zm10.53 11.47c-0.54 0-0.92-0.14-1.16-0.43c-0.23-0.29-0.38-0.65-0.44-1.08h-0.09c-0.2 .57-0.54 1.01-1.01 1.29c-0.46 .29-1.02 .44-1.67 .44c-0.98 0-1.75-0.26-2.29-0.76c-0.55-0.5-0.82-1.19-0.82-2.05c0-0.88 .32-1.55 .96-2.02c.64-0.47 1.64-0.7 3-0.7h1.83v-0.92c0-0.66-0.18-1.16-0.54-1.51c-0.36-0.35-0.91-0.52-1.65-0.52c-0.57 0-1.04 .12-1.42 .38c-0.37 .25-0.69 .58-0.94 1l-0.87-0.81c.26-0.5 .66-0.93 1.21-1.28c.55-0.36 1.25-0.53 2.09-0.53c1.13 0 2 .27 2.63 .82c.62 .56 .93 1.32 .93 2.31v5.11h1.06v1.26Zm-4.14-1.01c.36 0 .69-0.04 .99-0.12c.3-0.09 .56-0.21 .78-0.36c.21-0.16 .38-0.34 .5-0.54c.12-0.21 .18-0.43 .18-0.67v-1.53h-1.91c-0.82 0-1.43 .12-1.8 .36c-0.38 .24-0.57 .59-0.57 1.04v.38c0 .46 .16 .81 .49 1.06c.33 .26 .78 .38 1.34 .38Zm8.92 1.01l-3.26-9.29h1.44l1.62 4.61l1.01 3.17h.09l1-3.17l1.66-4.61h1.39l-3.28 9.29Zm13.4 0c-0.54 0-0.93-0.14-1.16-0.43c-0.24-0.29-0.39-0.65-0.45-1.08h-0.09c-0.2 .57-0.54 1.01-1 1.29c-0.47 .29-1.03 .44-1.68 .44c-0.98 0-1.75-0.26-2.29-0.76c-0.55-0.5-0.82-1.19-0.82-2.05c0-0.88 .32-1.55 .96-2.02c.64-0.47 1.64-0.7 3-0.7h1.83v-0.92c0-0.66-0.18-1.16-0.54-1.51c-0.36-0.35-0.91-0.52-1.65-0.52c-0.57 0-1.04 .12-1.41 .38c-0.38 .25-0.7 .58-0.95 1l-0.86-0.81c.25-0.5 .65-0.93 1.2-1.28c.55-0.36 1.25-0.53 2.09-0.53c1.13 0 2 .27 2.63 .82c.62 .56 .93 1.32 .93 2.31v5.11h1.07v1.26Zm-4.14-1.01c.36 0 .69-0.04 .99-0.12c.3-0.09 .55-0.21 .77-0.36c.22-0.16 .38-0.34 .5-0.54c.12-0.21 .18-0.43 .18-0.67v-1.53h-1.9c-0.83 0-1.43 .12-1.81 .36c-0.38 .24-0.57 .59-0.57 1.04v.38c0 .46 .17 .81 .5 1.06c.33 .26 .77 .38 1.34 .38Zm7.09-0.29l6.21-3.61v-0.15l-6.21-3.62v-1.51l7.56 4.48v1.44l-7.56 4.49Z" transform="translate(31.96,18.45)" style="animation: 10.5s linear infinite both h_o;"/><path fill="#fb8200" opacity="0" d="M-19.03-4.27v-1.44l7.56-4.48v1.51l-6.21 3.62v.15l6.21 3.61v1.52Zm11.63 4.49c-0.39 0-0.67-0.1-0.84-0.29c-0.17-0.19-0.26-0.45-0.26-0.76v-0.23c0-0.31 .09-0.57 .26-0.76c.17-0.19 .45-0.29 .84-0.29c.38 0 .66 .1 .83 .29c.18 .19 .26 .45 .26 .76v.23c0 .31-0.08 .57-0.26 .76c-0.17 .19-0.45 .29-0.83 .29Zm5.76-0.22c-0.51 0-0.89-0.14-1.15-0.42c-0.26-0.28-0.38-0.65-0.38-1.11v-6.5h-1.53v-1.26h.86c.31 0 .52-0.06 .64-0.19c.11-0.12 .17-0.34 .17-0.65v-1.73h1.3v2.57h2.03v1.26h-2.03v6.77h1.89v1.26Zm7.05 .22c-0.87 0-1.59-0.17-2.17-0.5c-0.59-0.33-1.09-0.77-1.51-1.32l1.03-0.83c.36 .46 .76 .81 1.21 1.05c.44 .25 .96 .37 1.54 .37c.62 0 1.09-0.13 1.43-0.39c.35-0.27 .52-0.64 .52-1.12c0-0.36-0.12-0.67-0.35-0.93c-0.24-0.25-0.66-0.43-1.27-0.53l-0.74-0.11c-0.43-0.06-0.83-0.15-1.19-0.27c-0.36-0.13-0.67-0.3-0.94-0.51c-0.27-0.21-0.48-0.47-0.63-0.78c-0.15-0.31-0.23-0.69-0.23-1.12c0-0.45 .09-0.85 .25-1.19c.17-0.35 .4-0.63 .7-0.86c.29-0.23 .64-0.4 1.05-0.51c.41-0.12 .85-0.17 1.31-0.17c.76 0 1.39 .13 1.9 .39c.51 .27 .96 .63 1.34 1.1l-0.95 .86c-0.2-0.28-0.5-0.54-0.9-0.78c-0.4-0.23-0.89-0.35-1.49-0.35c-0.6 0-1.06 .13-1.36 .39c-0.31 .26-0.46 .61-0.46 1.05c0 .46 .15 .79 .46 .99c.3 .2 .74 .35 1.32 .45l.72 .11c1.03 .15 1.76 .45 2.2 .89c.43 .44 .64 1.01 .64 1.72c0 .9-0.3 1.61-0.91 2.12c-0.62 .52-1.46 .78-2.52 .78Zm6.06-1.52l6.21-3.61v-0.15l-6.21-3.62v-1.51l7.56 4.48v1.44l-7.56 4.49Z" transform="translate(31.96,18.45)" style="animation: 10.5s linear infinite both i_o;"/><path fill="#fb8200" opacity="0" d="M-29.7-4.27v-1.44l7.56-4.48v1.51l-6.21 3.62v.15l6.21 3.61v1.52Zm11.62 4.49c-0.38 0-0.66-0.1-0.83-0.29c-0.18-0.19-0.26-0.45-0.26-0.76v-0.23c0-0.31 .08-0.57 .26-0.76c.17-0.19 .45-0.29 .83-0.29c.39 0 .67 .1 .84 .29c.18 .19 .26 .45 .26 .76v.23c0 .31-0.08 .57-0.26 .76c-0.17 .19-0.45 .29-0.84 .29Zm3.98-0.22v-9.29h1.44v1.71h.09c.17-0.44 .47-0.84 .9-1.19c.43-0.34 1.02-0.52 1.78-0.52h.56v1.44h-0.85c-0.78 0-1.39 .15-1.83 .44c-0.43 .3-0.65 .67-0.65 1.11v6.3Zm12.33-1.51h-0.07c-0.1 .21-0.21 .43-0.35 .64c-0.14 .21-0.31 .39-0.52 .56c-0.2 .16-0.45 .29-0.73 .38c-0.29 .1-0.63 .15-1.01 .15c-0.96 0-1.72-0.31-2.29-0.93c-0.56-0.62-0.84-1.49-0.84-2.62v-5.96h1.44v5.71c0 1.67 .7 2.5 2.12 2.5c.29 0 .57-0.04 .84-0.11c.27-0.07 .51-0.18 .72-0.32c.21-0.15 .38-0.33 .5-0.55c.13-0.22 .19-0.49 .19-0.8v-6.43h1.44v9.29h-1.44Zm4.5-11.81h1.44v5.54h.07c.24-0.58 .59-1.02 1.05-1.3c.46-0.28 1.02-0.42 1.67-0.42c.57 0 1.09 .11 1.56 .34c.47 .23 .87 .55 1.2 .97c.33 .42 .58 .93 .75 1.53c.18 .6 .27 1.27 .27 2.02c0 .74-0.09 1.41-0.27 2.01c-0.17 .6-0.42 1.11-0.75 1.53c-0.33 .42-0.73 .75-1.2 .97c-0.47 .23-0.99 .35-1.56 .35c-1.26 0-2.17-0.58-2.72-1.73h-0.07v1.51h-1.44Zm3.83 12.24c.82 0 1.46-0.25 1.93-0.76c.46-0.51 .7-1.18 .7-2.01v-1.59c0-0.82-0.24-1.49-0.7-2c-0.47-0.51-1.11-0.77-1.93-0.77c-0.32 0-0.63 .05-0.93 .14c-0.29 .09-0.55 .21-0.76 .37c-0.22 .15-0.39 .34-0.52 .56c-0.12 .23-0.18 .46-0.18 .71v3.46c0 .3 .06 .57 .18 .8c.13 .24 .3 .43 .52 .6c.21 .16 .47 .28 .76 .36c.3 .09 .61 .13 .93 .13Zm12.23-8.21h1.43l-4.16 11.45c-0.11 .28-0.22 .51-0.33 .69c-0.1 .19-0.24 .34-0.39 .44c-0.16 .11-0.35 .19-0.59 .24c-0.23 .05-0.52 .07-0.85 .07h-0.74v-1.26h1.46l.7-1.98l-3.47-9.65h1.44l2.23 6.32l.43 1.51h.09l.5-1.51Zm3.35 7.99l6.21-3.61v-0.15l-6.21-3.62v-1.51l7.56 4.48v1.44l-7.56 4.49Z" transform="translate(31.96,18.45)" style="animation: 10.5s linear infinite both j_o;"/></g></svg>