<svg width="530" height="444" viewBox="0 0 530 444" fill="none" xmlns="http://www.w3.org/2000/svg">
<rect width="530" height="444" fill="white"/>
<path d="M20 10H80V434H20" stroke="#99999E" stroke-linecap="round"/>
<path d="M509 434L90 434L90.0001 9.99999L509 10" stroke="#99999E" stroke-linecap="round"/>
<rect x="76" y="209" width="18" height="8" fill="white"/>
<path d="M509 404L160 404L160 40L509 40" stroke="#99999E" stroke-linecap="round"/>
<rect x="152" y="209" width="18" height="8" fill="white"/>
<rect x="152" y="102" width="18" height="8" fill="white"/>
<path d="M198.819 428L197.163 422.416H197.875L198.667 425.208L199.267 427.32H199.307L199.907 425.208L200.699 422.416H201.387L199.731 428H198.819ZM202.392 428V422.416H204.424C204.941 422.416 205.336 422.557 205.608 422.84C205.88 423.123 206.016 423.517 206.016 424.024C206.016 424.531 205.88 424.925 205.608 425.208C205.336 425.491 204.941 425.632 204.424 425.632H203.064V428H202.392ZM203.064 425.048H204.408C204.691 425.048 204.909 424.979 205.064 424.84C205.224 424.696 205.304 424.493 205.304 424.232V423.816C205.304 423.555 205.224 423.355 205.064 423.216C204.909 423.072 204.691 423 204.408 423H203.064V425.048ZM207.773 423.272H207.717V428H207.109V422.416H208.061L209.965 427.096H210.021V422.416H210.629V428H209.677L207.773 423.272ZM211.986 429.104L214.77 421.92H215.346L212.562 429.104H211.986ZM218.647 428.096C217.964 428.096 217.455 427.848 217.118 427.352C216.788 426.856 216.623 426.141 216.623 425.208C216.623 424.275 216.788 423.56 217.118 423.064C217.455 422.568 217.964 422.32 218.647 422.32C218.903 422.32 219.124 422.355 219.311 422.424C219.497 422.493 219.657 422.587 219.791 422.704C219.924 422.821 220.036 422.955 220.127 423.104C220.217 423.248 220.297 423.395 220.367 423.544L219.791 423.808C219.743 423.685 219.687 423.571 219.623 423.464C219.559 423.352 219.481 423.256 219.391 423.176C219.305 423.091 219.201 423.024 219.079 422.976C218.961 422.928 218.817 422.904 218.647 422.904C218.204 422.904 217.873 423.072 217.655 423.408C217.441 423.744 217.335 424.192 217.335 424.752V425.664C217.335 426.224 217.441 426.672 217.655 427.008C217.873 427.344 218.204 427.512 218.647 427.512C218.817 427.512 218.961 427.488 219.079 427.44C219.201 427.392 219.305 427.328 219.391 427.248C219.481 427.163 219.559 427.067 219.623 426.96C219.687 426.848 219.743 426.731 219.791 426.608L220.367 426.872C220.297 427.027 220.217 427.176 220.127 427.32C220.036 427.464 219.924 427.595 219.791 427.712C219.657 427.829 219.497 427.923 219.311 427.992C219.124 428.061 218.903 428.096 218.647 428.096ZM221.819 428V422.416H222.491V427.416H225.139V428H221.819ZM228.056 428.096C227.715 428.096 227.422 428.032 227.176 427.904C226.931 427.771 226.728 427.581 226.568 427.336C226.408 427.091 226.291 426.789 226.216 426.432C226.142 426.075 226.104 425.667 226.104 425.208C226.104 424.755 226.142 424.349 226.216 423.992C226.291 423.629 226.408 423.325 226.568 423.08C226.728 422.835 226.931 422.648 227.176 422.52C227.422 422.387 227.715 422.32 228.056 422.32C228.398 422.32 228.691 422.387 228.936 422.52C229.182 422.648 229.384 422.835 229.544 423.08C229.704 423.325 229.822 423.629 229.896 423.992C229.971 424.349 230.008 424.755 230.008 425.208C230.008 425.667 229.971 426.075 229.896 426.432C229.822 426.789 229.704 427.091 229.544 427.336C229.384 427.581 229.182 427.771 228.936 427.904C228.691 428.032 228.398 428.096 228.056 428.096ZM228.056 427.512C228.28 427.512 228.47 427.469 228.624 427.384C228.779 427.293 228.907 427.168 229.008 427.008C229.11 426.848 229.182 426.656 229.224 426.432C229.272 426.203 229.296 425.947 229.296 425.664V424.752C229.296 424.475 229.272 424.221 229.224 423.992C229.182 423.763 229.11 423.568 229.008 423.408C228.907 423.248 228.779 423.125 228.624 423.04C228.47 422.949 228.28 422.904 228.056 422.904C227.832 422.904 227.643 422.949 227.488 423.04C227.334 423.125 227.206 423.248 227.104 423.408C227.003 423.568 226.928 423.763 226.88 423.992C226.838 424.221 226.816 424.475 226.816 424.752V425.664C226.816 425.947 226.838 426.203 226.88 426.432C226.928 426.656 227.003 426.848 227.104 427.008C227.206 427.168 227.334 427.293 227.488 427.384C227.643 427.469 227.832 427.512 228.056 427.512ZM231.765 422.416V425.768C231.765 426.04 231.773 426.283 231.789 426.496C231.805 426.709 231.848 426.893 231.917 427.048C231.986 427.197 232.093 427.312 232.237 427.392C232.386 427.472 232.592 427.512 232.853 427.512C233.114 427.512 233.317 427.472 233.461 427.392C233.61 427.312 233.72 427.197 233.789 427.048C233.858 426.893 233.901 426.709 233.917 426.496C233.933 426.283 233.941 426.04 233.941 425.768V422.416H234.613V425.608C234.613 426.024 234.592 426.387 234.549 426.696C234.512 427.005 234.429 427.264 234.301 427.472C234.178 427.68 234 427.837 233.765 427.944C233.536 428.045 233.232 428.096 232.853 428.096C232.474 428.096 232.168 428.045 231.933 427.944C231.704 427.837 231.525 427.68 231.397 427.472C231.274 427.264 231.192 427.005 231.149 426.696C231.112 426.387 231.093 426.024 231.093 425.608V422.416H231.765ZM236.01 422.416H237.57C238.253 422.416 238.762 422.651 239.098 423.12C239.434 423.589 239.602 424.285 239.602 425.208C239.602 426.131 239.434 426.827 239.098 427.296C238.762 427.765 238.253 428 237.57 428H236.01V422.416ZM237.538 427.416C237.986 427.416 238.322 427.261 238.546 426.952C238.775 426.643 238.89 426.205 238.89 425.64V424.776C238.89 424.211 238.775 423.773 238.546 423.464C238.322 423.155 237.986 423 237.538 423H236.682V427.416H237.538ZM240.767 429.104L243.551 421.92H244.127L241.343 429.104H240.767ZM245.604 422.416H247.164C247.846 422.416 248.356 422.651 248.692 423.12C249.028 423.589 249.196 424.285 249.196 425.208C249.196 426.131 249.028 426.827 248.692 427.296C248.356 427.765 247.846 428 247.164 428H245.604V422.416ZM247.132 427.416C247.58 427.416 247.916 427.261 248.14 426.952C248.369 426.643 248.484 426.205 248.484 425.64V424.776C248.484 424.211 248.369 423.773 248.14 423.464C247.916 423.155 247.58 423 247.132 423H246.276V427.416H247.132ZM252.041 428.096C251.699 428.096 251.406 428.032 251.161 427.904C250.915 427.771 250.713 427.581 250.553 427.336C250.393 427.091 250.275 426.789 250.201 426.432C250.126 426.075 250.089 425.667 250.089 425.208C250.089 424.755 250.126 424.349 250.201 423.992C250.275 423.629 250.393 423.325 250.553 423.08C250.713 422.835 250.915 422.648 251.161 422.52C251.406 422.387 251.699 422.32 252.041 422.32C252.382 422.32 252.675 422.387 252.921 422.52C253.166 422.648 253.369 422.835 253.529 423.08C253.689 423.325 253.806 423.629 253.881 423.992C253.955 424.349 253.993 424.755 253.993 425.208C253.993 425.667 253.955 426.075 253.881 426.432C253.806 426.789 253.689 427.091 253.529 427.336C253.369 427.581 253.166 427.771 252.921 427.904C252.675 428.032 252.382 428.096 252.041 428.096ZM252.041 427.512C252.265 427.512 252.454 427.469 252.609 427.384C252.763 427.293 252.891 427.168 252.993 427.008C253.094 426.848 253.166 426.656 253.209 426.432C253.257 426.203 253.281 425.947 253.281 425.664V424.752C253.281 424.475 253.257 424.221 253.209 423.992C253.166 423.763 253.094 423.568 252.993 423.408C252.891 423.248 252.763 423.125 252.609 423.04C252.454 422.949 252.265 422.904 252.041 422.904C251.817 422.904 251.627 422.949 251.473 423.04C251.318 423.125 251.19 423.248 251.089 423.408C250.987 423.568 250.913 423.763 250.865 423.992C250.822 424.221 250.801 424.475 250.801 424.752V425.664C250.801 425.947 250.822 426.203 250.865 426.432C250.913 426.656 250.987 426.848 251.089 427.008C251.19 427.168 251.318 427.293 251.473 427.384C251.627 427.469 251.817 427.512 252.041 427.512ZM257.022 428.096C256.339 428.096 255.83 427.848 255.493 427.352C255.163 426.856 254.998 426.141 254.998 425.208C254.998 424.275 255.163 423.56 255.493 423.064C255.83 422.568 256.339 422.32 257.022 422.32C257.278 422.32 257.499 422.355 257.686 422.424C257.872 422.493 258.032 422.587 258.166 422.704C258.299 422.821 258.411 422.955 258.502 423.104C258.592 423.248 258.672 423.395 258.742 423.544L258.166 423.808C258.118 423.685 258.062 423.571 257.998 423.464C257.934 423.352 257.856 423.256 257.766 423.176C257.68 423.091 257.576 423.024 257.454 422.976C257.336 422.928 257.192 422.904 257.022 422.904C256.579 422.904 256.248 423.072 256.03 423.408C255.816 423.744 255.71 424.192 255.71 424.752V425.664C255.71 426.224 255.816 426.672 256.03 427.008C256.248 427.344 256.579 427.512 257.022 427.512C257.192 427.512 257.336 427.488 257.454 427.44C257.576 427.392 257.68 427.328 257.766 427.248C257.856 427.163 257.934 427.067 257.998 426.96C258.062 426.848 258.118 426.731 258.166 426.608L258.742 426.872C258.672 427.027 258.592 427.176 258.502 427.32C258.411 427.464 258.299 427.595 258.166 427.712C258.032 427.829 257.872 427.923 257.686 427.992C257.499 428.061 257.278 428.096 257.022 428.096ZM261.386 425.264L260.586 426.208V428H259.914V422.416H260.586V425.328H260.61L261.346 424.4L262.994 422.416H263.802L261.842 424.768L263.858 428H263.074L261.386 425.264ZM264.751 428V422.416H268.191V423H265.423V424.88H268.095V425.464H265.423V427.416H268.191V428H264.751ZM270.22 428H269.548V422.416H271.58C272.097 422.416 272.492 422.557 272.764 422.84C273.036 423.123 273.172 423.517 273.172 424.024C273.172 424.477 273.055 424.84 272.82 425.112C272.585 425.384 272.244 425.541 271.796 425.584L273.22 428H272.468L271.108 425.616H270.22V428ZM271.564 425.048C271.847 425.048 272.065 424.979 272.22 424.84C272.38 424.696 272.46 424.493 272.46 424.232V423.816C272.46 423.555 272.38 423.355 272.22 423.216C272.065 423.072 271.847 423 271.564 423H270.22V425.048H271.564ZM279.726 423.272H279.67V428H279.062V422.416H280.014L281.918 427.096H281.974V422.416H282.582V428H281.63L279.726 423.272ZM283.939 428V422.416H287.379V423H284.611V424.88H287.283V425.464H284.611V427.416H287.379V428H283.939ZM290.752 423V428H290.08V423H288.216V422.416H292.616V423H290.752ZM293.533 428L293.093 422.416H293.693L293.925 425.616L294.045 427.304H294.109L294.845 423.872H295.597L296.333 427.304H296.397L296.517 425.616L296.749 422.416H297.332L296.893 428H295.925L295.245 424.664H295.181L294.501 428H293.533ZM300.009 428.096C299.668 428.096 299.375 428.032 299.129 427.904C298.884 427.771 298.681 427.581 298.521 427.336C298.361 427.091 298.244 426.789 298.169 426.432C298.095 426.075 298.057 425.667 298.057 425.208C298.057 424.755 298.095 424.349 298.169 423.992C298.244 423.629 298.361 423.325 298.521 423.08C298.681 422.835 298.884 422.648 299.129 422.52C299.375 422.387 299.668 422.32 300.009 422.32C300.351 422.32 300.644 422.387 300.889 422.52C301.135 422.648 301.337 422.835 301.497 423.08C301.657 423.325 301.775 423.629 301.849 423.992C301.924 424.349 301.961 424.755 301.961 425.208C301.961 425.667 301.924 426.075 301.849 426.432C301.775 426.789 301.657 427.091 301.497 427.336C301.337 427.581 301.135 427.771 300.889 427.904C300.644 428.032 300.351 428.096 300.009 428.096ZM300.009 427.512C300.233 427.512 300.423 427.469 300.577 427.384C300.732 427.293 300.86 427.168 300.961 427.008C301.063 426.848 301.135 426.656 301.177 426.432C301.225 426.203 301.249 425.947 301.249 425.664V424.752C301.249 424.475 301.225 424.221 301.177 423.992C301.135 423.763 301.063 423.568 300.961 423.408C300.86 423.248 300.732 423.125 300.577 423.04C300.423 422.949 300.233 422.904 300.009 422.904C299.785 422.904 299.596 422.949 299.441 423.04C299.287 423.125 299.159 423.248 299.057 423.408C298.956 423.568 298.881 423.763 298.833 423.992C298.791 424.221 298.769 424.475 298.769 424.752V425.664C298.769 425.947 298.791 426.203 298.833 426.432C298.881 426.656 298.956 426.848 299.057 427.008C299.159 427.168 299.287 427.293 299.441 427.384C299.596 427.469 299.785 427.512 300.009 427.512ZM303.798 428H303.126V422.416H305.158C305.676 422.416 306.07 422.557 306.342 422.84C306.614 423.123 306.75 423.517 306.75 424.024C306.75 424.477 306.633 424.84 306.398 425.112C306.164 425.384 305.822 425.541 305.374 425.584L306.798 428H306.046L304.686 425.616H303.798V428ZM305.142 425.048C305.425 425.048 305.644 424.979 305.798 424.84C305.958 424.696 306.038 424.493 306.038 424.232V423.816C306.038 423.555 305.958 423.355 305.798 423.216C305.644 423.072 305.425 423 305.142 423H303.798V425.048H305.142ZM309.355 425.264L308.555 426.208V428H307.883V422.416H308.555V425.328H308.579L309.315 424.4L310.963 422.416H311.771L309.811 424.768L311.827 428H311.043L309.355 425.264Z" fill="#5A5B6A"/>
<path d="M32.297 428V427.464H33.689V422.952H32.297V422.416H35.753V422.952H34.361V427.464H35.753V428H32.297ZM37.7259 423.272H37.6699V428H37.0619V422.416H38.0139L39.9179 427.096H39.9739V422.416H40.5819V428H39.6299L37.7259 423.272ZM43.9548 423V428H43.2828V423H41.4188V422.416H45.8188V423H43.9548ZM46.7356 428V422.416H50.1756V423H47.4076V424.88H50.0796V425.464H47.4076V427.416H50.1756V428H46.7356ZM52.2045 428H51.5325V422.416H53.5645C54.0818 422.416 54.4765 422.557 54.7485 422.84C55.0205 423.123 55.1565 423.517 55.1565 424.024C55.1565 424.477 55.0392 424.84 54.8045 425.112C54.5698 425.384 54.2285 425.541 53.7805 425.584L55.2045 428H54.4525L53.0925 425.616H52.2045V428ZM53.5485 425.048C53.8312 425.048 54.0498 424.979 54.2045 424.84C54.3645 424.696 54.4445 424.493 54.4445 424.232V423.816C54.4445 423.555 54.3645 423.355 54.2045 423.216C54.0498 423.072 53.8312 423 53.5485 423H52.2045V425.048H53.5485ZM56.9134 423.272H56.8574V428H56.2494V422.416H57.2014L59.1054 427.096H59.1614V422.416H59.7694V428H58.8174L56.9134 423.272ZM61.1263 428V422.416H64.5663V423H61.7983V424.88H64.4703V425.464H61.7983V427.416H64.5663V428H61.1263ZM67.9391 423V428H67.2671V423H65.4031V422.416H69.8031V423H67.9391Z" fill="#5A5B6A"/>
<path d="M197.392 398V392.416H199.424C199.941 392.416 200.336 392.557 200.608 392.84C200.88 393.123 201.016 393.517 201.016 394.024C201.016 394.531 200.88 394.925 200.608 395.208C200.336 395.491 199.941 395.632 199.424 395.632H198.064V398H197.392ZM198.064 395.048H199.408C199.691 395.048 199.909 394.979 200.064 394.84C200.224 394.696 200.304 394.493 200.304 394.232V393.816C200.304 393.555 200.224 393.355 200.064 393.216C199.909 393.072 199.691 393 199.408 393H198.064V395.048ZM202.861 398H202.189V392.416H204.221C204.738 392.416 205.133 392.557 205.405 392.84C205.677 393.123 205.813 393.517 205.813 394.024C205.813 394.477 205.695 394.84 205.461 395.112C205.226 395.384 204.885 395.541 204.437 395.584L205.861 398H205.109L203.749 395.616H202.861V398ZM204.205 395.048C204.487 395.048 204.706 394.979 204.861 394.84C205.021 394.696 205.101 394.493 205.101 394.232V393.816C205.101 393.555 205.021 393.355 204.861 393.216C204.706 393.072 204.487 393 204.205 393H202.861V395.048H204.205ZM206.938 398V397.464H208.33V392.952H206.938V392.416H210.394V392.952H209.002V397.464H210.394V398H206.938ZM213.007 398L211.351 392.416H212.062L212.855 395.208L213.455 397.32H213.495L214.095 395.208L214.887 392.416H215.575L213.919 398H213.007ZM219.707 398L219.235 396.408H217.275L216.803 398H216.107L217.819 392.416H218.707L220.419 398H219.707ZM218.291 393.128H218.219L217.435 395.824H219.075L218.291 393.128ZM223.392 393V398H222.72V393H220.856V392.416H225.256V393H223.392ZM226.173 398V392.416H229.613V393H226.845V394.88H229.517V395.464H226.845V397.416H229.613V398H226.173ZM237.431 398.096C236.93 398.096 236.519 398.005 236.199 397.824C235.879 397.637 235.615 397.4 235.407 397.112L235.895 396.712C236.114 396.984 236.343 397.187 236.583 397.32C236.828 397.453 237.119 397.52 237.455 397.52C237.86 397.52 238.17 397.427 238.383 397.24C238.596 397.053 238.703 396.792 238.703 396.456C238.703 396.184 238.626 395.973 238.471 395.824C238.316 395.669 238.047 395.56 237.663 395.496L237.039 395.392C236.767 395.344 236.538 395.272 236.351 395.176C236.17 395.08 236.023 394.965 235.911 394.832C235.799 394.693 235.719 394.544 235.671 394.384C235.623 394.219 235.599 394.048 235.599 393.872C235.599 393.36 235.767 392.973 236.103 392.712C236.439 392.451 236.892 392.32 237.463 392.32C237.911 392.32 238.287 392.395 238.591 392.544C238.9 392.693 239.148 392.904 239.335 393.176L238.863 393.584C238.708 393.381 238.522 393.216 238.303 393.088C238.084 392.96 237.802 392.896 237.455 392.896C237.076 392.896 236.786 392.976 236.583 393.136C236.38 393.296 236.279 393.536 236.279 393.856C236.279 394.107 236.354 394.312 236.503 394.472C236.658 394.627 236.932 394.739 237.327 394.808L237.927 394.912C238.199 394.96 238.428 395.032 238.615 395.128C238.802 395.224 238.951 395.339 239.063 395.472C239.18 395.605 239.263 395.755 239.311 395.92C239.359 396.085 239.383 396.259 239.383 396.44C239.383 396.957 239.212 397.363 238.871 397.656C238.535 397.949 238.055 398.096 237.431 398.096ZM241.156 392.416V395.768C241.156 396.04 241.164 396.283 241.18 396.496C241.196 396.709 241.238 396.893 241.308 397.048C241.377 397.197 241.484 397.312 241.628 397.392C241.777 397.472 241.982 397.512 242.244 397.512C242.505 397.512 242.708 397.472 242.852 397.392C243.001 397.312 243.11 397.197 243.18 397.048C243.249 396.893 243.292 396.709 243.308 396.496C243.324 396.283 243.332 396.04 243.332 395.768V392.416H244.004V395.608C244.004 396.024 243.982 396.387 243.94 396.696C243.902 397.005 243.82 397.264 243.692 397.472C243.569 397.68 243.39 397.837 243.156 397.944C242.926 398.045 242.622 398.096 242.244 398.096C241.865 398.096 241.558 398.045 241.324 397.944C241.094 397.837 240.916 397.68 240.788 397.472C240.665 397.264 240.582 397.005 240.54 396.696C240.502 396.387 240.484 396.024 240.484 395.608V392.416H241.156ZM245.345 392.416H247.241C247.721 392.416 248.097 392.547 248.369 392.808C248.641 393.069 248.777 393.419 248.777 393.856C248.777 394.192 248.694 394.456 248.529 394.648C248.369 394.84 248.161 394.976 247.905 395.056V395.08C248.219 395.155 248.478 395.296 248.681 395.504C248.883 395.707 248.985 396.003 248.985 396.392C248.985 396.616 248.947 396.827 248.873 397.024C248.798 397.221 248.691 397.392 248.553 397.536C248.419 397.68 248.259 397.795 248.073 397.88C247.891 397.96 247.694 398 247.481 398H245.345V392.416ZM247.281 397.416C247.59 397.416 247.833 397.347 248.009 397.208C248.185 397.069 248.273 396.856 248.273 396.568V396.24C248.273 395.957 248.185 395.747 248.009 395.608C247.833 395.464 247.59 395.392 247.281 395.392H246.017V397.416H247.281ZM247.169 394.84C247.451 394.84 247.673 394.779 247.833 394.656C247.993 394.528 248.073 394.336 248.073 394.08V393.768C248.073 393.512 247.993 393.32 247.833 393.192C247.673 393.064 247.451 393 247.169 393H246.017V394.84H247.169ZM250.742 393.272H250.686V398H250.078V392.416H251.03L252.934 397.096H252.99V392.416H253.598V398H252.646L250.742 393.272ZM254.954 398V392.416H258.394V393H255.626V394.88H258.298V395.464H255.626V397.416H258.394V398H254.954ZM261.767 393V398H261.095V393H259.231V392.416H263.631V393H261.767ZM264.548 399.104L267.332 391.92H267.908L265.124 399.104H264.548ZM269.297 398V397.464H270.689V392.952H269.297V392.416H272.753V392.952H271.361V397.464H272.753V398H269.297ZM274.726 393.272H274.67V398H274.062V392.416H275.014L276.918 397.096H276.974V392.416H277.582V398H276.63L274.726 393.272ZM280.955 393V398H280.283V393H278.419V392.416H282.819V393H280.955ZM284.408 398H283.736V392.416H285.768C286.285 392.416 286.68 392.557 286.952 392.84C287.224 393.123 287.36 393.517 287.36 394.024C287.36 394.477 287.242 394.84 287.008 395.112C286.773 395.384 286.432 395.541 285.984 395.584L287.408 398H286.656L285.296 395.616H284.408V398ZM285.752 395.048C286.034 395.048 286.253 394.979 286.408 394.84C286.568 394.696 286.648 394.493 286.648 394.232V393.816C286.648 393.555 286.568 393.355 286.408 393.216C286.253 393.072 286.034 393 285.752 393H284.408V395.048H285.752ZM291.661 398L291.189 396.408H289.229L288.757 398H288.061L289.773 392.416H290.661L292.373 398H291.661ZM290.245 393.128H290.173L289.389 395.824H291.029L290.245 393.128ZM293.913 393.272H293.857V398H293.249V392.416H294.201L296.105 397.096H296.161V392.416H296.769V398H295.817L293.913 393.272ZM298.126 398V392.416H301.566V393H298.798V394.88H301.47V395.464H298.798V397.416H301.566V398H298.126ZM304.939 393V398H304.267V393H302.403V392.416H306.803V393H304.939Z" fill="#5A5B6A"/>
<path d="M200.082 171L199.61 169.408H197.65L197.178 171H196.482L198.194 165.416H199.082L200.794 171H200.082ZM198.666 166.128H198.594L197.81 168.824H199.45L198.666 166.128ZM201.751 171V165.416H203.783C204.301 165.416 204.695 165.557 204.967 165.84C205.239 166.123 205.375 166.517 205.375 167.024C205.375 167.531 205.239 167.925 204.967 168.208C204.695 168.491 204.301 168.632 203.783 168.632H202.423V171H201.751ZM202.423 168.048H203.767C204.05 168.048 204.269 167.979 204.423 167.84C204.583 167.696 204.663 167.493 204.663 167.232V166.816C204.663 166.555 204.583 166.355 204.423 166.216C204.269 166.072 204.05 166 203.767 166H202.423V168.048ZM206.548 171V165.416H208.58C209.097 165.416 209.492 165.557 209.764 165.84C210.036 166.123 210.172 166.517 210.172 167.024C210.172 167.531 210.036 167.925 209.764 168.208C209.492 168.491 209.097 168.632 208.58 168.632H207.22V171H206.548ZM207.22 168.048H208.564C208.847 168.048 209.065 167.979 209.22 167.84C209.38 167.696 209.46 167.493 209.46 167.232V166.816C209.46 166.555 209.38 166.355 209.22 166.216C209.065 166.072 208.847 166 208.564 166H207.22V168.048ZM211.585 171V165.416H212.257V170.416H214.905V171H211.585ZM216.094 171V170.464H217.486V165.952H216.094V165.416H219.55V165.952H218.158V170.464H219.55V171H216.094ZM222.803 171.096C222.12 171.096 221.611 170.848 221.275 170.352C220.944 169.856 220.779 169.141 220.779 168.208C220.779 167.275 220.944 166.56 221.275 166.064C221.611 165.568 222.12 165.32 222.803 165.32C223.059 165.32 223.28 165.355 223.467 165.424C223.653 165.493 223.813 165.587 223.947 165.704C224.08 165.821 224.192 165.955 224.283 166.104C224.373 166.248 224.453 166.395 224.523 166.544L223.947 166.808C223.899 166.685 223.843 166.571 223.779 166.464C223.715 166.352 223.637 166.256 223.547 166.176C223.461 166.091 223.357 166.024 223.235 165.976C223.117 165.928 222.973 165.904 222.803 165.904C222.36 165.904 222.029 166.072 221.811 166.408C221.597 166.744 221.491 167.192 221.491 167.752V168.664C221.491 169.224 221.597 169.672 221.811 170.008C222.029 170.344 222.36 170.512 222.803 170.512C222.973 170.512 223.117 170.488 223.235 170.44C223.357 170.392 223.461 170.328 223.547 170.248C223.637 170.163 223.715 170.067 223.779 169.96C223.843 169.848 223.899 169.731 223.947 169.608L224.523 169.872C224.453 170.027 224.373 170.176 224.283 170.32C224.192 170.464 224.08 170.595 223.947 170.712C223.813 170.829 223.653 170.923 223.467 170.992C223.28 171.061 223.059 171.096 222.803 171.096ZM228.864 171L228.392 169.408H226.432L225.96 171H225.264L226.976 165.416H227.864L229.576 171H228.864ZM227.448 166.128H227.376L226.592 168.824H228.232L227.448 166.128ZM232.549 166V171H231.877V166H230.013V165.416H234.413V166H232.549ZM235.281 171V170.464H236.673V165.952H235.281V165.416H238.737V165.952H237.345V170.464H238.737V171H235.281ZM241.806 171.096C241.465 171.096 241.172 171.032 240.926 170.904C240.681 170.771 240.478 170.581 240.318 170.336C240.158 170.091 240.041 169.789 239.966 169.432C239.892 169.075 239.854 168.667 239.854 168.208C239.854 167.755 239.892 167.349 239.966 166.992C240.041 166.629 240.158 166.325 240.318 166.08C240.478 165.835 240.681 165.648 240.926 165.52C241.172 165.387 241.465 165.32 241.806 165.32C242.148 165.32 242.441 165.387 242.686 165.52C242.932 165.648 243.134 165.835 243.294 166.08C243.454 166.325 243.572 166.629 243.646 166.992C243.721 167.349 243.758 167.755 243.758 168.208C243.758 168.667 243.721 169.075 243.646 169.432C243.572 169.789 243.454 170.091 243.294 170.336C243.134 170.581 242.932 170.771 242.686 170.904C242.441 171.032 242.148 171.096 241.806 171.096ZM241.806 170.512C242.03 170.512 242.22 170.469 242.374 170.384C242.529 170.293 242.657 170.168 242.758 170.008C242.86 169.848 242.932 169.656 242.974 169.432C243.022 169.203 243.046 168.947 243.046 168.664V167.752C243.046 167.475 243.022 167.221 242.974 166.992C242.932 166.763 242.86 166.568 242.758 166.408C242.657 166.248 242.529 166.125 242.374 166.04C242.22 165.949 242.03 165.904 241.806 165.904C241.582 165.904 241.393 165.949 241.238 166.04C241.084 166.125 240.956 166.248 240.854 166.408C240.753 166.568 240.678 166.763 240.63 166.992C240.588 167.221 240.566 167.475 240.566 167.752V168.664C240.566 168.947 240.588 169.203 240.63 169.432C240.678 169.656 240.753 169.848 240.854 170.008C240.956 170.168 241.084 170.293 241.238 170.384C241.393 170.469 241.582 170.512 241.806 170.512ZM245.507 166.272H245.451V171H244.843V165.416H245.795L247.699 170.096H247.755V165.416H248.363V171H247.411L245.507 166.272Z" fill="#99999E"/>
<line x1="16.5" y1="434" x2="0.5" y2="434" stroke="#5A5B6A" stroke-linecap="round" stroke-dasharray="0.01 3"/>
<line x1="529.5" y1="434" x2="513.5" y2="434" stroke="#99999E" stroke-linecap="round" stroke-dasharray="0.01 3"/>
<line x1="529.5" y1="404" x2="513.5" y2="404" stroke="#99999E" stroke-linecap="round" stroke-dasharray="0.01 3"/>
<line x1="16.5" y1="10" x2="0.5" y2="10" stroke="#5A5B6A" stroke-linecap="round" stroke-dasharray="0.01 3"/>
<line x1="529.5" y1="10" x2="513.5" y2="10" stroke="#99999E" stroke-linecap="round" stroke-dasharray="0.01 3"/>
<line x1="529.5" y1="40" x2="513.5" y2="40" stroke="#99999E" stroke-linecap="round" stroke-dasharray="0.01 3"/>
<path d="M29.1259 246.416H31.0219C31.5019 246.416 31.8779 246.547 32.1499 246.808C32.4219 247.069 32.5579 247.419 32.5579 247.856C32.5579 248.192 32.4752 248.456 32.3099 248.648C32.1499 248.84 31.9419 248.976 31.6859 249.056V249.08C32.0005 249.155 32.2592 249.296 32.4619 249.504C32.6645 249.707 32.7659 250.003 32.7659 250.392C32.7659 250.616 32.7285 250.827 32.6539 251.024C32.5792 251.221 32.4725 251.392 32.3339 251.536C32.2005 251.68 32.0405 251.795 31.8539 251.88C31.6725 251.96 31.4752 252 31.2619 252H29.1259V246.416ZM31.0619 251.416C31.3712 251.416 31.6139 251.347 31.7899 251.208C31.9659 251.069 32.0539 250.856 32.0539 250.568V250.24C32.0539 249.957 31.9659 249.747 31.7899 249.608C31.6139 249.464 31.3712 249.392 31.0619 249.392H29.7979V251.416H31.0619ZM30.9499 248.84C31.2325 248.84 31.4539 248.779 31.6139 248.656C31.7739 248.528 31.8539 248.336 31.8539 248.08V247.768C31.8539 247.512 31.7739 247.32 31.6139 247.192C31.4539 247.064 31.2325 247 30.9499 247H29.7979V248.84H30.9499ZM34.6108 252H33.9388V246.416H35.9708C36.4881 246.416 36.8828 246.557 37.1548 246.84C37.4268 247.123 37.5628 247.517 37.5628 248.024C37.5628 248.477 37.4454 248.84 37.2108 249.112C36.9761 249.384 36.6348 249.541 36.1868 249.584L37.6108 252H36.8588L35.4988 249.616H34.6108V252ZM35.9548 249.048C36.2374 249.048 36.4561 248.979 36.6108 248.84C36.7708 248.696 36.8508 248.493 36.8508 248.232V247.816C36.8508 247.555 36.7708 247.355 36.6108 247.216C36.4561 247.072 36.2374 247 35.9548 247H34.6108V249.048H35.9548ZM40.4156 252.096C40.0743 252.096 39.781 252.032 39.5356 251.904C39.2903 251.771 39.0876 251.581 38.9276 251.336C38.7676 251.091 38.6503 250.789 38.5756 250.432C38.501 250.075 38.4636 249.667 38.4636 249.208C38.4636 248.755 38.501 248.349 38.5756 247.992C38.6503 247.629 38.7676 247.325 38.9276 247.08C39.0876 246.835 39.2903 246.648 39.5356 246.52C39.781 246.387 40.0743 246.32 40.4156 246.32C40.757 246.32 41.0503 246.387 41.2956 246.52C41.541 246.648 41.7436 246.835 41.9036 247.08C42.0636 247.325 42.181 247.629 42.2556 247.992C42.3303 248.349 42.3676 248.755 42.3676 249.208C42.3676 249.667 42.3303 250.075 42.2556 250.432C42.181 250.789 42.0636 251.091 41.9036 251.336C41.7436 251.581 41.541 251.771 41.2956 251.904C41.0503 252.032 40.757 252.096 40.4156 252.096ZM40.4156 251.512C40.6396 251.512 40.829 251.469 40.9836 251.384C41.1383 251.293 41.2663 251.168 41.3676 251.008C41.469 250.848 41.541 250.656 41.5836 250.432C41.6316 250.203 41.6556 249.947 41.6556 249.664V248.752C41.6556 248.475 41.6316 248.221 41.5836 247.992C41.541 247.763 41.469 247.568 41.3676 247.408C41.2663 247.248 41.1383 247.125 40.9836 247.04C40.829 246.949 40.6396 246.904 40.4156 246.904C40.1916 246.904 40.0023 246.949 39.8476 247.04C39.693 247.125 39.565 247.248 39.4636 247.408C39.3623 247.568 39.2876 247.763 39.2396 247.992C39.197 248.221 39.1756 248.475 39.1756 248.752V249.664C39.1756 249.947 39.197 250.203 39.2396 250.432C39.2876 250.656 39.3623 250.848 39.4636 251.008C39.565 251.168 39.693 251.293 39.8476 251.384C40.0023 251.469 40.1916 251.512 40.4156 251.512ZM43.5325 252L43.0925 246.416H43.6925L43.9245 249.616L44.0445 251.304H44.1085L44.8445 247.872H45.5965L46.3325 251.304H46.3965L46.5165 249.616L46.7485 246.416H47.3325L46.8925 252H45.9245L45.2445 248.664H45.1805L44.5005 252H43.5325ZM49.9934 252.096C49.492 252.096 49.0814 252.005 48.7614 251.824C48.4414 251.637 48.1774 251.4 47.9694 251.112L48.4574 250.712C48.676 250.984 48.9054 251.187 49.1454 251.32C49.3907 251.453 49.6814 251.52 50.0174 251.52C50.4227 251.52 50.732 251.427 50.9454 251.24C51.1587 251.053 51.2654 250.792 51.2654 250.456C51.2654 250.184 51.188 249.973 51.0334 249.824C50.8787 249.669 50.6094 249.56 50.2254 249.496L49.6014 249.392C49.3294 249.344 49.1 249.272 48.9134 249.176C48.732 249.08 48.5854 248.965 48.4734 248.832C48.3614 248.693 48.2814 248.544 48.2334 248.384C48.1854 248.219 48.1614 248.048 48.1614 247.872C48.1614 247.36 48.3294 246.973 48.6654 246.712C49.0014 246.451 49.4547 246.32 50.0254 246.32C50.4734 246.32 50.8494 246.395 51.1534 246.544C51.4627 246.693 51.7107 246.904 51.8974 247.176L51.4254 247.584C51.2707 247.381 51.084 247.216 50.8654 247.088C50.6467 246.96 50.364 246.896 50.0174 246.896C49.6387 246.896 49.348 246.976 49.1454 247.136C48.9427 247.296 48.8414 247.536 48.8414 247.856C48.8414 248.107 48.916 248.312 49.0654 248.472C49.22 248.627 49.4947 248.739 49.8894 248.808L50.4894 248.912C50.7614 248.96 50.9907 249.032 51.1774 249.128C51.364 249.224 51.5134 249.339 51.6254 249.472C51.7427 249.605 51.8254 249.755 51.8734 249.92C51.9214 250.085 51.9454 250.259 51.9454 250.44C51.9454 250.957 51.7747 251.363 51.4334 251.656C51.0974 251.949 50.6174 252.096 49.9934 252.096ZM53.1263 252V246.416H56.5663V247H53.7983V248.88H56.4703V249.464H53.7983V251.416H56.5663V252H53.1263ZM58.5951 252H57.9231V246.416H59.9551C60.4725 246.416 60.8671 246.557 61.1391 246.84C61.4111 247.123 61.5471 247.517 61.5471 248.024C61.5471 248.477 61.4298 248.84 61.1951 249.112C60.9605 249.384 60.6191 249.541 60.1711 249.584L61.5951 252H60.8431L59.4831 249.616H58.5951V252ZM59.9391 249.048C60.2218 249.048 60.4405 248.979 60.5951 248.84C60.7551 248.696 60.8351 248.493 60.8351 248.232V247.816C60.8351 247.555 60.7551 247.355 60.5951 247.216C60.4405 247.072 60.2218 247 59.9391 247H58.5951V249.048H59.9391Z" fill="#15283B"/>
<rect x="20" y="188" width="50" height="50" rx="25" fill="#15283B"/>
<path d="M406.431 217.096C406.09 217.096 405.797 217.032 405.551 216.904C405.306 216.771 405.103 216.581 404.943 216.336C404.783 216.091 404.666 215.789 404.591 215.432C404.517 215.075 404.479 214.667 404.479 214.208C404.479 213.755 404.517 213.349 404.591 212.992C404.666 212.629 404.783 212.325 404.943 212.08C405.103 211.835 405.306 211.648 405.551 211.52C405.797 211.387 406.09 211.32 406.431 211.32C406.773 211.32 407.066 211.387 407.311 211.52C407.557 211.648 407.759 211.835 407.919 212.08C408.079 212.325 408.197 212.629 408.271 212.992C408.346 213.349 408.383 213.755 408.383 214.208C408.383 214.667 408.346 215.075 408.271 215.432C408.197 215.789 408.079 216.091 407.919 216.336C407.759 216.581 407.557 216.771 407.311 216.904C407.066 217.032 406.773 217.096 406.431 217.096ZM406.431 216.512C406.655 216.512 406.845 216.469 406.999 216.384C407.154 216.293 407.282 216.168 407.383 216.008C407.485 215.848 407.557 215.656 407.599 215.432C407.647 215.203 407.671 214.947 407.671 214.664V213.752C407.671 213.475 407.647 213.221 407.599 212.992C407.557 212.763 407.485 212.568 407.383 212.408C407.282 212.248 407.154 212.125 406.999 212.04C406.845 211.949 406.655 211.904 406.431 211.904C406.207 211.904 406.018 211.949 405.863 212.04C405.709 212.125 405.581 212.248 405.479 212.408C405.378 212.568 405.303 212.763 405.255 212.992C405.213 213.221 405.191 213.475 405.191 213.752V214.664C405.191 214.947 405.213 215.203 405.255 215.432C405.303 215.656 405.378 215.848 405.479 216.008C405.581 216.168 405.709 216.293 405.863 216.384C406.018 216.469 406.207 216.512 406.431 216.512ZM410.22 217H409.548V211.416H411.58C412.097 211.416 412.492 211.557 412.764 211.84C413.036 212.123 413.172 212.517 413.172 213.024C413.172 213.477 413.055 213.84 412.82 214.112C412.585 214.384 412.244 214.541 411.796 214.584L413.22 217H412.468L411.108 214.616H410.22V217ZM411.564 214.048C411.847 214.048 412.065 213.979 412.22 213.84C412.38 213.696 412.46 213.493 412.46 213.232V212.816C412.46 212.555 412.38 212.355 412.22 212.216C412.065 212.072 411.847 212 411.564 212H410.22V214.048H411.564ZM415.689 217V214.808L413.761 211.416H414.529L415.329 212.872L416.009 214.144H416.041L416.737 212.872L417.537 211.416H418.289L416.361 214.808V217H415.689ZM425.371 214.264L424.571 215.208V217H423.899V211.416H424.571V214.328H424.595L425.331 213.4L426.979 211.416H427.787L425.827 213.768L427.843 217H427.059L425.371 214.264ZM429.408 217H428.736V211.416H430.768C431.285 211.416 431.68 211.557 431.952 211.84C432.224 212.123 432.36 212.517 432.36 213.024C432.36 213.477 432.242 213.84 432.008 214.112C431.773 214.384 431.432 214.541 430.984 214.584L432.408 217H431.656L430.296 214.616H429.408V217ZM430.752 214.048C431.034 214.048 431.253 213.979 431.408 213.84C431.568 213.696 431.648 213.493 431.648 213.232V212.816C431.648 212.555 431.568 212.355 431.408 212.216C431.253 212.072 431.034 212 430.752 212H429.408V214.048H430.752ZM436.661 217L436.189 215.408H434.229L433.757 217H433.061L434.773 211.416H435.661L437.373 217H436.661ZM435.245 212.128H435.173L434.389 214.824H436.029L435.245 212.128ZM440.345 212V217H439.673V212H437.809V211.416H442.209V212H440.345ZM444.806 217.096C444.465 217.096 444.172 217.032 443.926 216.904C443.681 216.771 443.478 216.581 443.318 216.336C443.158 216.091 443.041 215.789 442.966 215.432C442.892 215.075 442.854 214.667 442.854 214.208C442.854 213.755 442.892 213.349 442.966 212.992C443.041 212.629 443.158 212.325 443.318 212.08C443.478 211.835 443.681 211.648 443.926 211.52C444.172 211.387 444.465 211.32 444.806 211.32C445.148 211.32 445.441 211.387 445.686 211.52C445.932 211.648 446.134 211.835 446.294 212.08C446.454 212.325 446.572 212.629 446.646 212.992C446.721 213.349 446.758 213.755 446.758 214.208C446.758 214.667 446.721 215.075 446.646 215.432C446.572 215.789 446.454 216.091 446.294 216.336C446.134 216.581 445.932 216.771 445.686 216.904C445.441 217.032 445.148 217.096 444.806 217.096ZM444.806 216.512C445.03 216.512 445.22 216.469 445.374 216.384C445.529 216.293 445.657 216.168 445.758 216.008C445.86 215.848 445.932 215.656 445.974 215.432C446.022 215.203 446.046 214.947 446.046 214.664V213.752C446.046 213.475 446.022 213.221 445.974 212.992C445.932 212.763 445.86 212.568 445.758 212.408C445.657 212.248 445.529 212.125 445.374 212.04C445.22 211.949 445.03 211.904 444.806 211.904C444.582 211.904 444.393 211.949 444.238 212.04C444.084 212.125 443.956 212.248 443.854 212.408C443.753 212.568 443.678 212.763 443.63 212.992C443.588 213.221 443.566 213.475 443.566 213.752V214.664C443.566 214.947 443.588 215.203 443.63 215.432C443.678 215.656 443.753 215.848 443.854 216.008C443.956 216.168 444.084 216.293 444.238 216.384C444.393 216.469 444.582 216.512 444.806 216.512ZM449.587 217.096C449.086 217.096 448.675 217.005 448.355 216.824C448.035 216.637 447.771 216.4 447.563 216.112L448.051 215.712C448.27 215.984 448.499 216.187 448.739 216.32C448.984 216.453 449.275 216.52 449.611 216.52C450.016 216.52 450.326 216.427 450.539 216.24C450.752 216.053 450.859 215.792 450.859 215.456C450.859 215.184 450.782 214.973 450.627 214.824C450.472 214.669 450.203 214.56 449.819 214.496L449.195 214.392C448.923 214.344 448.694 214.272 448.507 214.176C448.326 214.08 448.179 213.965 448.067 213.832C447.955 213.693 447.875 213.544 447.827 213.384C447.779 213.219 447.755 213.048 447.755 212.872C447.755 212.36 447.923 211.973 448.259 211.712C448.595 211.451 449.048 211.32 449.619 211.32C450.067 211.32 450.443 211.395 450.747 211.544C451.056 211.693 451.304 211.904 451.491 212.176L451.019 212.584C450.864 212.381 450.678 212.216 450.459 212.088C450.24 211.96 449.958 211.896 449.611 211.896C449.232 211.896 448.942 211.976 448.739 212.136C448.536 212.296 448.435 212.536 448.435 212.856C448.435 213.107 448.51 213.312 448.659 213.472C448.814 213.627 449.088 213.739 449.483 213.808L450.083 213.912C450.355 213.96 450.584 214.032 450.771 214.128C450.958 214.224 451.107 214.339 451.219 214.472C451.336 214.605 451.419 214.755 451.467 214.92C451.515 215.085 451.539 215.259 451.539 215.44C451.539 215.957 451.368 216.363 451.027 216.656C450.691 216.949 450.211 217.096 449.587 217.096Z" fill="#15283B"/>
<rect x="460" y="188" width="50" height="50" rx="25" fill="#FB8200"/>
<path d="M485.343 198.081L485.5 198L487.1 198.796L488.693 199.588L493 201.732C493 201.732 493 201.895 493 202.157L493 204.881C493 204.881 492.721 204.746 492.486 204.633L485.507 201.166L478.514 204.633C478.279 204.746 478 204.881 478 204.881L478 201.732C478 201.732 478.15 201.654 478.393 201.534L482.314 199.588L483.907 198.796L485.343 198.081Z" fill="#470B25"/>
<path d="M485.657 227.919L485.5 228L483.9 227.204L482.307 226.412L478 224.268C478 224.268 478 224.105 478 223.843L478 221.119C478 221.119 478.279 221.254 478.514 221.367L485.493 224.834L492.486 221.367C492.721 221.254 493 221.119 493 221.119L493 224.268C493 224.268 492.85 224.346 492.607 224.466L488.686 226.412L487.093 227.204L485.657 227.919Z" fill="#470B25"/>
<path d="M485.5 205.571C481.357 205.571 478 208.896 478 213C478 217.104 481.357 220.429 485.5 220.429C489.643 220.429 493 217.104 493 213C493 208.896 489.643 205.571 485.5 205.571ZM485.5 217.599C482.936 217.599 480.857 215.54 480.857 213C480.857 210.46 482.936 208.401 485.5 208.401C488.064 208.401 490.143 210.46 490.143 213C490.143 215.54 488.064 217.599 485.5 217.599Z" fill="#470B25"/>
<path d="M485 106H485.5V105.5H485V106ZM484.646 178.354C484.842 178.549 485.158 178.549 485.354 178.354L488.536 175.172C488.731 174.976 488.731 174.66 488.536 174.464C488.34 174.269 488.024 174.269 487.828 174.464L485 177.293L482.172 174.464C481.976 174.269 481.66 174.269 481.464 174.464C481.269 174.66 481.269 174.976 481.464 175.172L484.646 178.354ZM485 298V298.5H485.5V298H485ZM485.354 248.146C485.158 247.951 484.842 247.951 484.646 248.146L481.464 251.328C481.269 251.524 481.269 251.84 481.464 252.036C481.66 252.231 481.976 252.231 482.172 252.036L485 249.207L487.828 252.036C488.024 252.231 488.34 252.231 488.536 252.036C488.731 251.84 488.731 251.524 488.536 251.328L485.354 248.146ZM378 106.5H485V105.5H378V106.5ZM484.5 106V178H485.5V106H484.5ZM378 298.5H485V297.5H378V298.5ZM485.5 298V248.5H484.5V298H485.5Z" fill="#15283B"/>
<path d="M331.416 145.096C331.074 145.096 330.781 145.032 330.536 144.904C330.29 144.771 330.088 144.581 329.928 144.336C329.768 144.091 329.65 143.789 329.576 143.432C329.501 143.075 329.464 142.667 329.464 142.208C329.464 141.755 329.501 141.349 329.576 140.992C329.65 140.629 329.768 140.325 329.928 140.08C330.088 139.835 330.29 139.648 330.536 139.52C330.781 139.387 331.074 139.32 331.416 139.32C331.757 139.32 332.05 139.387 332.296 139.52C332.541 139.648 332.744 139.835 332.904 140.08C333.064 140.325 333.181 140.629 333.256 140.992C333.33 141.349 333.368 141.755 333.368 142.208C333.368 142.667 333.33 143.075 333.256 143.432C333.181 143.789 333.064 144.091 332.904 144.336C332.744 144.581 332.541 144.771 332.296 144.904C332.05 145.032 331.757 145.096 331.416 145.096ZM331.416 144.512C331.64 144.512 331.829 144.469 331.984 144.384C332.138 144.293 332.266 144.168 332.368 144.008C332.469 143.848 332.541 143.656 332.584 143.432C332.632 143.203 332.656 142.947 332.656 142.664V141.752C332.656 141.475 332.632 141.221 332.584 140.992C332.541 140.763 332.469 140.568 332.368 140.408C332.266 140.248 332.138 140.125 331.984 140.04C331.829 139.949 331.64 139.904 331.416 139.904C331.192 139.904 331.002 139.949 330.848 140.04C330.693 140.125 330.565 140.248 330.464 140.408C330.362 140.568 330.288 140.763 330.24 140.992C330.197 141.221 330.176 141.475 330.176 141.752V142.664C330.176 142.947 330.197 143.203 330.24 143.432C330.288 143.656 330.362 143.848 330.464 144.008C330.565 144.168 330.693 144.293 330.848 144.384C331.002 144.469 331.192 144.512 331.416 144.512ZM335.205 145H334.533V139.416H336.565C337.082 139.416 337.477 139.557 337.749 139.84C338.021 140.123 338.157 140.517 338.157 141.024C338.157 141.477 338.039 141.84 337.805 142.112C337.57 142.384 337.229 142.541 336.781 142.584L338.205 145H337.453L336.093 142.616H335.205V145ZM336.549 142.048C336.831 142.048 337.05 141.979 337.205 141.84C337.365 141.696 337.445 141.493 337.445 141.232V140.816C337.445 140.555 337.365 140.355 337.205 140.216C337.05 140.072 336.831 140 336.549 140H335.205V142.048H336.549ZM340.673 145V142.808L338.745 139.416H339.513L340.313 140.872L340.993 142.144H341.025L341.721 140.872L342.521 139.416H343.273L341.345 142.808V145H340.673ZM350.355 142.264L349.555 143.208V145H348.883V139.416H349.555V142.328H349.579L350.315 141.4L351.963 139.416H352.771L350.811 141.768L352.827 145H352.043L350.355 142.264ZM354.392 145H353.72V139.416H355.752C356.269 139.416 356.664 139.557 356.936 139.84C357.208 140.123 357.344 140.517 357.344 141.024C357.344 141.477 357.227 141.84 356.992 142.112C356.757 142.384 356.416 142.541 355.968 142.584L357.392 145H356.64L355.28 142.616H354.392V145ZM355.736 142.048C356.019 142.048 356.237 141.979 356.392 141.84C356.552 141.696 356.632 141.493 356.632 141.232V140.816C356.632 140.555 356.552 140.355 356.392 140.216C356.237 140.072 356.019 140 355.736 140H354.392V142.048H355.736ZM361.645 145L361.173 143.408H359.213L358.741 145H358.045L359.757 139.416H360.645L362.357 145H361.645ZM360.229 140.128H360.157L359.373 142.824H361.013L360.229 140.128ZM365.33 140V145H364.658V140H362.794V139.416H367.194V140H365.33ZM369.791 145.096C369.449 145.096 369.156 145.032 368.911 144.904C368.665 144.771 368.463 144.581 368.303 144.336C368.143 144.091 368.025 143.789 367.951 143.432C367.876 143.075 367.839 142.667 367.839 142.208C367.839 141.755 367.876 141.349 367.951 140.992C368.025 140.629 368.143 140.325 368.303 140.08C368.463 139.835 368.665 139.648 368.911 139.52C369.156 139.387 369.449 139.32 369.791 139.32C370.132 139.32 370.425 139.387 370.671 139.52C370.916 139.648 371.119 139.835 371.279 140.08C371.439 140.325 371.556 140.629 371.631 140.992C371.705 141.349 371.743 141.755 371.743 142.208C371.743 142.667 371.705 143.075 371.631 143.432C371.556 143.789 371.439 144.091 371.279 144.336C371.119 144.581 370.916 144.771 370.671 144.904C370.425 145.032 370.132 145.096 369.791 145.096ZM369.791 144.512C370.015 144.512 370.204 144.469 370.359 144.384C370.513 144.293 370.641 144.168 370.743 144.008C370.844 143.848 370.916 143.656 370.959 143.432C371.007 143.203 371.031 142.947 371.031 142.664V141.752C371.031 141.475 371.007 141.221 370.959 140.992C370.916 140.763 370.844 140.568 370.743 140.408C370.641 140.248 370.513 140.125 370.359 140.04C370.204 139.949 370.015 139.904 369.791 139.904C369.567 139.904 369.377 139.949 369.223 140.04C369.068 140.125 368.94 140.248 368.839 140.408C368.737 140.568 368.663 140.763 368.615 140.992C368.572 141.221 368.551 141.475 368.551 141.752V142.664C368.551 142.947 368.572 143.203 368.615 143.432C368.663 143.656 368.737 143.848 368.839 144.008C368.94 144.168 369.068 144.293 369.223 144.384C369.377 144.469 369.567 144.512 369.791 144.512ZM374.572 145.096C374.07 145.096 373.66 145.005 373.34 144.824C373.02 144.637 372.756 144.4 372.548 144.112L373.036 143.712C373.254 143.984 373.484 144.187 373.724 144.32C373.969 144.453 374.26 144.52 374.596 144.52C375.001 144.52 375.31 144.427 375.524 144.24C375.737 144.053 375.844 143.792 375.844 143.456C375.844 143.184 375.766 142.973 375.612 142.824C375.457 142.669 375.188 142.56 374.804 142.496L374.18 142.392C373.908 142.344 373.678 142.272 373.492 142.176C373.31 142.08 373.164 141.965 373.052 141.832C372.94 141.693 372.86 141.544 372.812 141.384C372.764 141.219 372.74 141.048 372.74 140.872C372.74 140.36 372.908 139.973 373.243 139.712C373.58 139.451 374.033 139.32 374.604 139.32C375.052 139.32 375.428 139.395 375.732 139.544C376.041 139.693 376.289 139.904 376.476 140.176L376.004 140.584C375.849 140.381 375.662 140.216 375.444 140.088C375.225 139.96 374.942 139.896 374.596 139.896C374.217 139.896 373.926 139.976 373.724 140.136C373.521 140.296 373.42 140.536 373.42 140.856C373.42 141.107 373.494 141.312 373.644 141.472C373.798 141.627 374.073 141.739 374.468 141.808L375.068 141.912C375.34 141.96 375.569 142.032 375.756 142.128C375.942 142.224 376.092 142.339 376.204 142.472C376.321 142.605 376.404 142.755 376.452 142.92C376.5 143.085 376.524 143.259 376.524 143.44C376.524 143.957 376.353 144.363 376.012 144.656C375.676 144.949 375.196 145.096 374.572 145.096ZM329.736 158V152.416H331.768C332.285 152.416 332.68 152.557 332.952 152.84C333.224 153.123 333.36 153.517 333.36 154.024C333.36 154.531 333.224 154.925 332.952 155.208C332.68 155.491 332.285 155.632 331.768 155.632H330.408V158H329.736ZM330.408 155.048H331.752C332.034 155.048 332.253 154.979 332.408 154.84C332.568 154.696 332.648 154.493 332.648 154.232V153.816C332.648 153.555 332.568 153.355 332.408 153.216C332.253 153.072 332.034 153 331.752 153H330.408V155.048ZM335.125 152.416V155.768C335.125 156.04 335.133 156.283 335.149 156.496C335.165 156.709 335.207 156.893 335.277 157.048C335.346 157.197 335.453 157.312 335.597 157.392C335.746 157.472 335.951 157.512 336.213 157.512C336.474 157.512 336.677 157.472 336.821 157.392C336.97 157.312 337.079 157.197 337.149 157.048C337.218 156.893 337.261 156.709 337.277 156.496C337.293 156.283 337.301 156.04 337.301 155.768V152.416H337.973V155.608C337.973 156.024 337.951 156.387 337.909 156.696C337.871 157.005 337.789 157.264 337.661 157.472C337.538 157.68 337.359 157.837 337.125 157.944C336.895 158.045 336.591 158.096 336.213 158.096C335.834 158.096 335.527 158.045 335.293 157.944C335.063 157.837 334.885 157.68 334.757 157.472C334.634 157.264 334.551 157.005 334.509 156.696C334.471 156.387 334.453 156.024 334.453 155.608V152.416H335.125ZM339.313 152.416H341.209C341.689 152.416 342.065 152.547 342.337 152.808C342.609 153.069 342.745 153.419 342.745 153.856C342.745 154.192 342.663 154.456 342.497 154.648C342.337 154.84 342.129 154.976 341.873 155.056V155.08C342.188 155.155 342.447 155.296 342.649 155.504C342.852 155.707 342.953 156.003 342.953 156.392C342.953 156.616 342.916 156.827 342.841 157.024C342.767 157.221 342.66 157.392 342.521 157.536C342.388 157.68 342.228 157.795 342.041 157.88C341.86 157.96 341.663 158 341.449 158H339.313V152.416ZM341.249 157.416C341.559 157.416 341.801 157.347 341.977 157.208C342.153 157.069 342.241 156.856 342.241 156.568V156.24C342.241 155.957 342.153 155.747 341.977 155.608C341.801 155.464 341.559 155.392 341.249 155.392H339.985V157.416H341.249ZM341.137 154.84C341.42 154.84 341.641 154.779 341.801 154.656C341.961 154.528 342.041 154.336 342.041 154.08V153.768C342.041 153.512 341.961 153.32 341.801 153.192C341.641 153.064 341.42 153 341.137 153H339.985V154.84H341.137ZM344.366 158V152.416H345.038V157.416H347.686V158H344.366ZM348.875 158V157.464H350.267V152.952H348.875V152.416H352.331V152.952H350.939V157.464H352.331V158H348.875ZM355.584 158.096C354.901 158.096 354.392 157.848 354.056 157.352C353.725 156.856 353.56 156.141 353.56 155.208C353.56 154.275 353.725 153.56 354.056 153.064C354.392 152.568 354.901 152.32 355.584 152.32C355.84 152.32 356.061 152.355 356.248 152.424C356.435 152.493 356.595 152.587 356.728 152.704C356.861 152.821 356.973 152.955 357.064 153.104C357.155 153.248 357.235 153.395 357.304 153.544L356.728 153.808C356.68 153.685 356.624 153.571 356.56 153.464C356.496 153.352 356.419 153.256 356.328 153.176C356.243 153.091 356.139 153.024 356.016 152.976C355.899 152.928 355.755 152.904 355.584 152.904C355.141 152.904 354.811 153.072 354.592 153.408C354.379 153.744 354.272 154.192 354.272 154.752V155.664C354.272 156.224 354.379 156.672 354.592 157.008C354.811 157.344 355.141 157.512 355.584 157.512C355.755 157.512 355.899 157.488 356.016 157.44C356.139 157.392 356.243 157.328 356.328 157.248C356.419 157.163 356.496 157.067 356.56 156.96C356.624 156.848 356.68 156.731 356.728 156.608L357.304 156.872C357.235 157.027 357.155 157.176 357.064 157.32C356.973 157.464 356.861 157.595 356.728 157.712C356.595 157.829 356.435 157.923 356.248 157.992C356.061 158.061 355.84 158.096 355.584 158.096ZM366.442 158L365.97 156.408H364.01L363.538 158H362.842L364.554 152.416H365.442L367.154 158H366.442ZM365.026 153.128H364.954L364.17 155.824H365.81L365.026 153.128ZM368.111 158V152.416H370.143C370.66 152.416 371.055 152.557 371.327 152.84C371.599 153.123 371.735 153.517 371.735 154.024C371.735 154.531 371.599 154.925 371.327 155.208C371.055 155.491 370.66 155.632 370.143 155.632H368.783V158H368.111ZM368.783 155.048H370.127C370.409 155.048 370.628 154.979 370.783 154.84C370.943 154.696 371.023 154.493 371.023 154.232V153.816C371.023 153.555 370.943 153.355 370.783 153.216C370.628 153.072 370.409 153 370.127 153H368.783V155.048ZM372.86 158V157.464H374.252V152.952H372.86V152.416H376.316V152.952H374.924V157.464H376.316V158H372.86Z" fill="#15283B"/>
<rect x="328" y="81" width="50" height="50" rx="25" fill="#15283B"/>
<path d="M124.5 106V105.5H124V106H124.5ZM318.354 106.354C318.549 106.158 318.549 105.842 318.354 105.646L315.172 102.464C314.976 102.269 314.66 102.269 314.464 102.464C314.269 102.66 314.269 102.976 314.464 103.172L317.293 106L314.464 108.828C314.269 109.024 314.269 109.34 314.464 109.536C314.66 109.731 314.976 109.731 315.172 109.536L318.354 106.354ZM125 189L125 106H124L124 189H125ZM124.5 106.5L318 106.5V105.5L124.5 105.5V106.5Z" fill="#15283B"/>
<path d="M331.416 337.096C331.074 337.096 330.781 337.032 330.536 336.904C330.29 336.771 330.088 336.581 329.928 336.336C329.768 336.091 329.65 335.789 329.576 335.432C329.501 335.075 329.464 334.667 329.464 334.208C329.464 333.755 329.501 333.349 329.576 332.992C329.65 332.629 329.768 332.325 329.928 332.08C330.088 331.835 330.29 331.648 330.536 331.52C330.781 331.387 331.074 331.32 331.416 331.32C331.757 331.32 332.05 331.387 332.296 331.52C332.541 331.648 332.744 331.835 332.904 332.08C333.064 332.325 333.181 332.629 333.256 332.992C333.33 333.349 333.368 333.755 333.368 334.208C333.368 334.667 333.33 335.075 333.256 335.432C333.181 335.789 333.064 336.091 332.904 336.336C332.744 336.581 332.541 336.771 332.296 336.904C332.05 337.032 331.757 337.096 331.416 337.096ZM331.416 336.512C331.64 336.512 331.829 336.469 331.984 336.384C332.138 336.293 332.266 336.168 332.368 336.008C332.469 335.848 332.541 335.656 332.584 335.432C332.632 335.203 332.656 334.947 332.656 334.664V333.752C332.656 333.475 332.632 333.221 332.584 332.992C332.541 332.763 332.469 332.568 332.368 332.408C332.266 332.248 332.138 332.125 331.984 332.04C331.829 331.949 331.64 331.904 331.416 331.904C331.192 331.904 331.002 331.949 330.848 332.04C330.693 332.125 330.565 332.248 330.464 332.408C330.362 332.568 330.288 332.763 330.24 332.992C330.197 333.221 330.176 333.475 330.176 333.752V334.664C330.176 334.947 330.197 335.203 330.24 335.432C330.288 335.656 330.362 335.848 330.464 336.008C330.565 336.168 330.693 336.293 330.848 336.384C331.002 336.469 331.192 336.512 331.416 336.512ZM335.205 337H334.533V331.416H336.565C337.082 331.416 337.477 331.557 337.749 331.84C338.021 332.123 338.157 332.517 338.157 333.024C338.157 333.477 338.039 333.84 337.805 334.112C337.57 334.384 337.229 334.541 336.781 334.584L338.205 337H337.453L336.093 334.616H335.205V337ZM336.549 334.048C336.831 334.048 337.05 333.979 337.205 333.84C337.365 333.696 337.445 333.493 337.445 333.232V332.816C337.445 332.555 337.365 332.355 337.205 332.216C337.05 332.072 336.831 332 336.549 332H335.205V334.048H336.549ZM340.673 337V334.808L338.745 331.416H339.513L340.313 332.872L340.993 334.144H341.025L341.721 332.872L342.521 331.416H343.273L341.345 334.808V337H340.673ZM350.355 334.264L349.555 335.208V337H348.883V331.416H349.555V334.328H349.579L350.315 333.4L351.963 331.416H352.771L350.811 333.768L352.827 337H352.043L350.355 334.264ZM354.392 337H353.72V331.416H355.752C356.269 331.416 356.664 331.557 356.936 331.84C357.208 332.123 357.344 332.517 357.344 333.024C357.344 333.477 357.227 333.84 356.992 334.112C356.757 334.384 356.416 334.541 355.968 334.584L357.392 337H356.64L355.28 334.616H354.392V337ZM355.736 334.048C356.019 334.048 356.237 333.979 356.392 333.84C356.552 333.696 356.632 333.493 356.632 333.232V332.816C356.632 332.555 356.552 332.355 356.392 332.216C356.237 332.072 356.019 332 355.736 332H354.392V334.048H355.736ZM361.645 337L361.173 335.408H359.213L358.741 337H358.045L359.757 331.416H360.645L362.357 337H361.645ZM360.229 332.128H360.157L359.373 334.824H361.013L360.229 332.128ZM365.33 332V337H364.658V332H362.794V331.416H367.194V332H365.33ZM369.791 337.096C369.449 337.096 369.156 337.032 368.911 336.904C368.665 336.771 368.463 336.581 368.303 336.336C368.143 336.091 368.025 335.789 367.951 335.432C367.876 335.075 367.839 334.667 367.839 334.208C367.839 333.755 367.876 333.349 367.951 332.992C368.025 332.629 368.143 332.325 368.303 332.08C368.463 331.835 368.665 331.648 368.911 331.52C369.156 331.387 369.449 331.32 369.791 331.32C370.132 331.32 370.425 331.387 370.671 331.52C370.916 331.648 371.119 331.835 371.279 332.08C371.439 332.325 371.556 332.629 371.631 332.992C371.705 333.349 371.743 333.755 371.743 334.208C371.743 334.667 371.705 335.075 371.631 335.432C371.556 335.789 371.439 336.091 371.279 336.336C371.119 336.581 370.916 336.771 370.671 336.904C370.425 337.032 370.132 337.096 369.791 337.096ZM369.791 336.512C370.015 336.512 370.204 336.469 370.359 336.384C370.513 336.293 370.641 336.168 370.743 336.008C370.844 335.848 370.916 335.656 370.959 335.432C371.007 335.203 371.031 334.947 371.031 334.664V333.752C371.031 333.475 371.007 333.221 370.959 332.992C370.916 332.763 370.844 332.568 370.743 332.408C370.641 332.248 370.513 332.125 370.359 332.04C370.204 331.949 370.015 331.904 369.791 331.904C369.567 331.904 369.377 331.949 369.223 332.04C369.068 332.125 368.94 332.248 368.839 332.408C368.737 332.568 368.663 332.763 368.615 332.992C368.572 333.221 368.551 333.475 368.551 333.752V334.664C368.551 334.947 368.572 335.203 368.615 335.432C368.663 335.656 368.737 335.848 368.839 336.008C368.94 336.168 369.068 336.293 369.223 336.384C369.377 336.469 369.567 336.512 369.791 336.512ZM374.572 337.096C374.07 337.096 373.66 337.005 373.34 336.824C373.02 336.637 372.756 336.4 372.548 336.112L373.036 335.712C373.254 335.984 373.484 336.187 373.724 336.32C373.969 336.453 374.26 336.52 374.596 336.52C375.001 336.52 375.31 336.427 375.524 336.24C375.737 336.053 375.844 335.792 375.844 335.456C375.844 335.184 375.766 334.973 375.612 334.824C375.457 334.669 375.188 334.56 374.804 334.496L374.18 334.392C373.908 334.344 373.678 334.272 373.492 334.176C373.31 334.08 373.164 333.965 373.052 333.832C372.94 333.693 372.86 333.544 372.812 333.384C372.764 333.219 372.74 333.048 372.74 332.872C372.74 332.36 372.908 331.973 373.243 331.712C373.58 331.451 374.033 331.32 374.604 331.32C375.052 331.32 375.428 331.395 375.732 331.544C376.041 331.693 376.289 331.904 376.476 332.176L376.004 332.584C375.849 332.381 375.662 332.216 375.444 332.088C375.225 331.96 374.942 331.896 374.596 331.896C374.217 331.896 373.926 331.976 373.724 332.136C373.521 332.296 373.42 332.536 373.42 332.856C373.42 333.107 373.494 333.312 373.644 333.472C373.798 333.627 374.073 333.739 374.468 333.808L375.068 333.912C375.34 333.96 375.569 334.032 375.756 334.128C375.942 334.224 376.092 334.339 376.204 334.472C376.321 334.605 376.404 334.755 376.452 334.92C376.5 335.085 376.524 335.259 376.524 335.44C376.524 335.957 376.353 336.363 376.012 336.656C375.676 336.949 375.196 337.096 374.572 337.096ZM335.262 350L334.79 348.408H332.83L332.358 350H331.662L333.374 344.416H334.262L335.974 350H335.262ZM333.846 345.128H333.774L332.99 347.824H334.63L333.846 345.128ZM336.971 344.416H338.531C339.214 344.416 339.723 344.651 340.059 345.12C340.395 345.589 340.563 346.285 340.563 347.208C340.563 348.131 340.395 348.827 340.059 349.296C339.723 349.765 339.214 350 338.531 350H336.971V344.416ZM338.499 349.416C338.947 349.416 339.283 349.261 339.507 348.952C339.736 348.643 339.851 348.205 339.851 347.64V346.776C339.851 346.211 339.736 345.773 339.507 345.464C339.283 345.155 338.947 345 338.499 345H337.643V349.416H338.499ZM344.648 347.2V345.432H344.584L343.408 348.304L342.232 345.432H342.168V347.2V350H341.552V344.416H342.416L343.4 346.88H343.448L344.432 344.416H345.264V350H344.648V347.2ZM346.477 350V349.464H347.869V344.952H346.477V344.416H349.933V344.952H348.541V349.464H349.933V350H346.477ZM351.906 345.272H351.85V350H351.242V344.416H352.194L354.098 349.096H354.154V344.416H354.762V350H353.81L351.906 345.272ZM364.043 350L363.571 348.408H361.611L361.139 350H360.443L362.155 344.416H363.043L364.755 350H364.043ZM362.627 345.128H362.555L361.771 347.824H363.411L362.627 345.128ZM365.712 350V344.416H367.744C368.262 344.416 368.656 344.557 368.928 344.84C369.2 345.123 369.336 345.517 369.336 346.024C369.336 346.531 369.2 346.925 368.928 347.208C368.656 347.491 368.262 347.632 367.744 347.632H366.384V350H365.712ZM366.384 347.048H367.728C368.011 347.048 368.23 346.979 368.384 346.84C368.544 346.696 368.624 346.493 368.624 346.232V345.816C368.624 345.555 368.544 345.355 368.384 345.216C368.23 345.072 368.011 345 367.728 345H366.384V347.048ZM370.461 350V349.464H371.853V344.952H370.461V344.416H373.917V344.952H372.525V349.464H373.917V350H370.461Z" fill="#15283B"/>
<rect x="328" y="273" width="50" height="50" rx="25" fill="#15283B"/>
<path d="M118.369 246.416H119.929C120.612 246.416 121.121 246.651 121.457 247.12C121.793 247.589 121.961 248.285 121.961 249.208C121.961 250.131 121.793 250.827 121.457 251.296C121.121 251.765 120.612 252 119.929 252H118.369V246.416ZM119.897 251.416C120.345 251.416 120.681 251.261 120.905 250.952C121.135 250.643 121.249 250.205 121.249 249.64V248.776C121.249 248.211 121.135 247.773 120.905 247.464C120.681 247.155 120.345 247 119.897 247H119.041V251.416H119.897ZM126.046 249.2V247.432H125.982L124.806 250.304L123.63 247.432H123.566V249.2V252H122.95V246.416H123.814L124.798 248.88H124.846L125.83 246.416H126.662V252H126.046V249.2ZM131.619 252H127.587V251.4L130.747 247H127.723V246.416H131.483V247.016L128.315 251.416H131.619V252Z" fill="#15283B"/>
<rect x="100.5" y="188.5" width="49" height="49" rx="24.5" stroke="#15283B"/>
<path d="M216.754 204L216.282 202.408H214.322L213.85 204H213.154L214.866 198.416H215.754L217.466 204H216.754ZM215.338 199.128H215.266L214.482 201.824H216.122L215.338 199.128ZM219.015 198.416V201.768C219.015 202.04 219.023 202.283 219.039 202.496C219.055 202.709 219.098 202.893 219.167 203.048C219.236 203.197 219.343 203.312 219.487 203.392C219.636 203.472 219.842 203.512 220.103 203.512C220.364 203.512 220.567 203.472 220.711 203.392C220.86 203.312 220.97 203.197 221.039 203.048C221.108 202.893 221.151 202.709 221.167 202.496C221.183 202.283 221.191 202.04 221.191 201.768V198.416H221.863V201.608C221.863 202.024 221.842 202.387 221.799 202.696C221.762 203.005 221.679 203.264 221.551 203.472C221.428 203.68 221.25 203.837 221.015 203.944C220.786 204.045 220.482 204.096 220.103 204.096C219.724 204.096 219.418 204.045 219.183 203.944C218.954 203.837 218.775 203.68 218.647 203.472C218.524 203.264 218.442 203.005 218.399 202.696C218.362 202.387 218.343 202.024 218.343 201.608V198.416H219.015ZM225.236 199V204H224.564V199H222.7V198.416H227.1V199H225.236ZM230.785 201.464H228.609V204H227.937V198.416H228.609V200.88H230.785V198.416H231.457V204H230.785V201.464ZM211.468 217V211.416H212.14V216.416H214.788V217H211.468ZM217.705 217.096C217.363 217.096 217.07 217.032 216.825 216.904C216.579 216.771 216.377 216.581 216.217 216.336C216.057 216.091 215.939 215.789 215.865 215.432C215.79 215.075 215.753 214.667 215.753 214.208C215.753 213.755 215.79 213.349 215.865 212.992C215.939 212.629 216.057 212.325 216.217 212.08C216.377 211.835 216.579 211.648 216.825 211.52C217.07 211.387 217.363 211.32 217.705 211.32C218.046 211.32 218.339 211.387 218.585 211.52C218.83 211.648 219.033 211.835 219.193 212.08C219.353 212.325 219.47 212.629 219.545 212.992C219.619 213.349 219.657 213.755 219.657 214.208C219.657 214.667 219.619 215.075 219.545 215.432C219.47 215.789 219.353 216.091 219.193 216.336C219.033 216.581 218.83 216.771 218.585 216.904C218.339 217.032 218.046 217.096 217.705 217.096ZM217.705 216.512C217.929 216.512 218.118 216.469 218.273 216.384C218.427 216.293 218.555 216.168 218.657 216.008C218.758 215.848 218.83 215.656 218.873 215.432C218.921 215.203 218.945 214.947 218.945 214.664V213.752C218.945 213.475 218.921 213.221 218.873 212.992C218.83 212.763 218.758 212.568 218.657 212.408C218.555 212.248 218.427 212.125 218.273 212.04C218.118 211.949 217.929 211.904 217.705 211.904C217.481 211.904 217.291 211.949 217.137 212.04C216.982 212.125 216.854 212.248 216.753 212.408C216.651 212.568 216.577 212.763 216.529 212.992C216.486 213.221 216.465 213.475 216.465 213.752V214.664C216.465 214.947 216.486 215.203 216.529 215.432C216.577 215.656 216.651 215.848 216.753 216.008C216.854 216.168 216.982 216.293 217.137 216.384C217.291 216.469 217.481 216.512 217.705 216.512ZM223.654 216.256H223.614C223.566 216.363 223.51 216.467 223.446 216.568C223.382 216.669 223.299 216.76 223.198 216.84C223.102 216.915 222.984 216.976 222.846 217.024C222.707 217.072 222.542 217.096 222.35 217.096C221.742 217.096 221.288 216.851 220.99 216.36C220.696 215.869 220.55 215.165 220.55 214.248C220.55 213.288 220.712 212.56 221.038 212.064C221.363 211.568 221.864 211.32 222.542 211.32C222.803 211.32 223.03 211.355 223.222 211.424C223.414 211.493 223.576 211.587 223.71 211.704C223.848 211.821 223.963 211.955 224.054 212.104C224.144 212.248 224.219 212.395 224.278 212.544L223.702 212.808C223.654 212.685 223.598 212.571 223.534 212.464C223.475 212.352 223.4 212.256 223.31 212.176C223.224 212.091 223.12 212.024 222.998 211.976C222.875 211.928 222.731 211.904 222.566 211.904C222.118 211.904 221.787 212.072 221.574 212.408C221.366 212.744 221.262 213.192 221.262 213.752V214.616C221.262 214.899 221.283 215.157 221.326 215.392C221.368 215.621 221.438 215.821 221.534 215.992C221.635 216.163 221.763 216.296 221.918 216.392C222.078 216.483 222.272 216.528 222.502 216.528C222.864 216.528 223.147 216.419 223.35 216.2C223.552 215.981 223.654 215.699 223.654 215.352V214.776H222.478V214.24H224.278V217H223.654V216.256ZM225.57 217V216.464H226.962V211.952H225.57V211.416H229.026V211.952H227.634V216.464H229.026V217H225.57ZM230.999 212.272H230.943V217H230.335V211.416H231.287L233.191 216.096H233.247V211.416H233.855V217H232.903L230.999 212.272ZM212.452 230L210.796 224.416H211.508L212.3 227.208L212.9 229.32H212.94L213.54 227.208L214.332 224.416H215.02L213.364 230H212.452ZM215.977 230V229.464H217.369V224.952H215.977V224.416H219.433V224.952H218.041V229.464H219.433V230H215.977ZM220.822 230V224.416H224.262V225H221.494V226.88H224.166V227.464H221.494V229.416H224.262V230H220.822ZM225.618 230L225.178 224.416H225.778L226.01 227.616L226.13 229.304H226.194L226.93 225.872H227.682L228.418 229.304H228.482L228.602 227.616L228.834 224.416H229.418L228.978 230H228.01L227.33 226.664H227.266L226.586 230H225.618ZM232.079 230.096C231.578 230.096 231.167 230.005 230.847 229.824C230.527 229.637 230.263 229.4 230.055 229.112L230.543 228.712C230.762 228.984 230.991 229.187 231.231 229.32C231.477 229.453 231.767 229.52 232.103 229.52C232.509 229.52 232.818 229.427 233.031 229.24C233.245 229.053 233.351 228.792 233.351 228.456C233.351 228.184 233.274 227.973 233.119 227.824C232.965 227.669 232.695 227.56 232.311 227.496L231.687 227.392C231.415 227.344 231.186 227.272 230.999 227.176C230.818 227.08 230.671 226.965 230.559 226.832C230.447 226.693 230.367 226.544 230.319 226.384C230.271 226.219 230.247 226.048 230.247 225.872C230.247 225.36 230.415 224.973 230.751 224.712C231.087 224.451 231.541 224.32 232.111 224.32C232.559 224.32 232.935 224.395 233.239 224.544C233.549 224.693 233.797 224.904 233.983 225.176L233.511 225.584C233.357 225.381 233.17 225.216 232.951 225.088C232.733 224.96 232.45 224.896 232.103 224.896C231.725 224.896 231.434 224.976 231.231 225.136C231.029 225.296 230.927 225.536 230.927 225.856C230.927 226.107 231.002 226.312 231.151 226.472C231.306 226.627 231.581 226.739 231.975 226.808L232.575 226.912C232.847 226.96 233.077 227.032 233.263 227.128C233.45 227.224 233.599 227.339 233.711 227.472C233.829 227.605 233.911 227.755 233.959 227.92C234.007 228.085 234.031 228.259 234.031 228.44C234.031 228.957 233.861 229.363 233.519 229.656C233.183 229.949 232.703 230.096 232.079 230.096Z" fill="#15283B"/>
<rect x="198.5" y="188.5" width="49" height="49" stroke="#15283B"/>
<path d="M198.618 337.096C198.117 337.096 197.706 337.005 197.386 336.824C197.066 336.637 196.802 336.4 196.594 336.112L197.082 335.712C197.301 335.984 197.53 336.187 197.77 336.32C198.016 336.453 198.306 336.52 198.642 336.52C199.048 336.52 199.357 336.427 199.57 336.24C199.784 336.053 199.89 335.792 199.89 335.456C199.89 335.184 199.813 334.973 199.658 334.824C199.504 334.669 199.234 334.56 198.85 334.496L198.226 334.392C197.954 334.344 197.725 334.272 197.538 334.176C197.357 334.08 197.21 333.965 197.098 333.832C196.986 333.693 196.906 333.544 196.858 333.384C196.81 333.219 196.786 333.048 196.786 332.872C196.786 332.36 196.954 331.973 197.29 331.712C197.626 331.451 198.08 331.32 198.65 331.32C199.098 331.32 199.474 331.395 199.778 331.544C200.088 331.693 200.336 331.904 200.522 332.176L200.05 332.584C199.896 332.381 199.709 332.216 199.49 332.088C199.272 331.96 198.989 331.896 198.642 331.896C198.264 331.896 197.973 331.976 197.77 332.136C197.568 332.296 197.466 332.536 197.466 332.856C197.466 333.107 197.541 333.312 197.69 333.472C197.845 333.627 198.12 333.739 198.514 333.808L199.114 333.912C199.386 333.96 199.616 334.032 199.802 334.128C199.989 334.224 200.138 334.339 200.25 334.472C200.368 334.605 200.45 334.755 200.498 334.92C200.546 335.085 200.57 335.259 200.57 335.44C200.57 335.957 200.4 336.363 200.058 336.656C199.722 336.949 199.242 337.096 198.618 337.096ZM201.751 337V331.416H205.191V332H202.423V333.88H205.095V334.464H202.423V336.416H205.191V337H201.751ZM207.22 337H206.548V331.416H208.58C209.097 331.416 209.492 331.557 209.764 331.84C210.036 332.123 210.172 332.517 210.172 333.024C210.172 333.477 210.055 333.84 209.82 334.112C209.585 334.384 209.244 334.541 208.796 334.584L210.22 337H209.468L208.108 334.616H207.22V337ZM208.564 334.048C208.847 334.048 209.065 333.979 209.22 333.84C209.38 333.696 209.46 333.493 209.46 333.232V332.816C209.46 332.555 209.38 332.355 209.22 332.216C209.065 332.072 208.847 332 208.564 332H207.22V334.048H208.564ZM212.569 337L210.913 331.416H211.625L212.417 334.208L213.017 336.32H213.057L213.657 334.208L214.449 331.416H215.137L213.481 337H212.569ZM216.142 337V331.416H219.582V332H216.814V333.88H219.486V334.464H216.814V336.416H219.582V337H216.142ZM221.611 337H220.939V331.416H222.971C223.488 331.416 223.883 331.557 224.155 331.84C224.427 332.123 224.563 332.517 224.563 333.024C224.563 333.477 224.445 333.84 224.211 334.112C223.976 334.384 223.635 334.541 223.187 334.584L224.611 337H223.859L222.499 334.616H221.611V337ZM222.955 334.048C223.237 334.048 223.456 333.979 223.611 333.84C223.771 333.696 223.851 333.493 223.851 333.232V332.816C223.851 332.555 223.771 332.355 223.611 332.216C223.456 332.072 223.237 332 222.955 332H221.611V334.048H222.955ZM226.256 334.904V334.232H228.576V334.904H226.256ZM232.197 337.096C231.695 337.096 231.285 337.005 230.965 336.824C230.645 336.637 230.381 336.4 230.173 336.112L230.661 335.712C230.879 335.984 231.109 336.187 231.349 336.32C231.594 336.453 231.885 336.52 232.221 336.52C232.626 336.52 232.935 336.427 233.149 336.24C233.362 336.053 233.469 335.792 233.469 335.456C233.469 335.184 233.391 334.973 233.237 334.824C233.082 334.669 232.813 334.56 232.429 334.496L231.805 334.392C231.533 334.344 231.303 334.272 231.117 334.176C230.935 334.08 230.789 333.965 230.677 333.832C230.565 333.693 230.485 333.544 230.437 333.384C230.389 333.219 230.365 333.048 230.365 332.872C230.365 332.36 230.533 331.973 230.868 331.712C231.205 331.451 231.658 331.32 232.229 331.32C232.677 331.32 233.053 331.395 233.357 331.544C233.666 331.693 233.914 331.904 234.101 332.176L233.629 332.584C233.474 332.381 233.287 332.216 233.069 332.088C232.85 331.96 232.567 331.896 232.221 331.896C231.842 331.896 231.551 331.976 231.349 332.136C231.146 332.296 231.045 332.536 231.045 332.856C231.045 333.107 231.119 333.312 231.269 333.472C231.423 333.627 231.698 333.739 232.093 333.808L232.693 333.912C232.965 333.96 233.194 334.032 233.381 334.128C233.567 334.224 233.717 334.339 233.829 334.472C233.946 334.605 234.029 334.755 234.077 334.92C234.125 335.085 234.149 335.259 234.149 335.44C234.149 335.957 233.978 336.363 233.637 336.656C233.301 336.949 232.821 337.096 232.197 337.096ZM235.281 337V336.464H236.673V331.952H235.281V331.416H238.737V331.952H237.345V336.464H238.737V337H235.281ZM240.166 331.416H241.726C242.409 331.416 242.918 331.651 243.254 332.12C243.59 332.589 243.758 333.285 243.758 334.208C243.758 335.131 243.59 335.827 243.254 336.296C242.918 336.765 242.409 337 241.726 337H240.166V331.416ZM241.694 336.416C242.142 336.416 242.478 336.261 242.702 335.952C242.932 335.643 243.046 335.205 243.046 334.64V333.776C243.046 333.211 242.932 332.773 242.702 332.464C242.478 332.155 242.142 332 241.694 332H240.838V336.416H241.694ZM244.923 337V331.416H248.363V332H245.595V333.88H248.267V334.464H245.595V336.416H248.363V337H244.923ZM200.082 350L199.61 348.408H197.65L197.178 350H196.482L198.194 344.416H199.082L200.794 350H200.082ZM198.666 345.128H198.594L197.81 347.824H199.45L198.666 345.128ZM201.751 350V344.416H203.783C204.301 344.416 204.695 344.557 204.967 344.84C205.239 345.123 205.375 345.517 205.375 346.024C205.375 346.531 205.239 346.925 204.967 347.208C204.695 347.491 204.301 347.632 203.783 347.632H202.423V350H201.751ZM202.423 347.048H203.767C204.05 347.048 204.269 346.979 204.423 346.84C204.583 346.696 204.663 346.493 204.663 346.232V345.816C204.663 345.555 204.583 345.355 204.423 345.216C204.269 345.072 204.05 345 203.767 345H202.423V347.048ZM206.548 350V344.416H208.58C209.097 344.416 209.492 344.557 209.764 344.84C210.036 345.123 210.172 345.517 210.172 346.024C210.172 346.531 210.036 346.925 209.764 347.208C209.492 347.491 209.097 347.632 208.58 347.632H207.22V350H206.548ZM207.22 347.048H208.564C208.847 347.048 209.065 346.979 209.22 346.84C209.38 346.696 209.46 346.493 209.46 346.232V345.816C209.46 345.555 209.38 345.355 209.22 345.216C209.065 345.072 208.847 345 208.564 345H207.22V347.048ZM211.585 350V344.416H212.257V349.416H214.905V350H211.585ZM216.094 350V349.464H217.486V344.952H216.094V344.416H219.55V344.952H218.158V349.464H219.55V350H216.094ZM222.803 350.096C222.12 350.096 221.611 349.848 221.275 349.352C220.944 348.856 220.779 348.141 220.779 347.208C220.779 346.275 220.944 345.56 221.275 345.064C221.611 344.568 222.12 344.32 222.803 344.32C223.059 344.32 223.28 344.355 223.467 344.424C223.653 344.493 223.813 344.587 223.947 344.704C224.08 344.821 224.192 344.955 224.283 345.104C224.373 345.248 224.453 345.395 224.523 345.544L223.947 345.808C223.899 345.685 223.843 345.571 223.779 345.464C223.715 345.352 223.637 345.256 223.547 345.176C223.461 345.091 223.357 345.024 223.235 344.976C223.117 344.928 222.973 344.904 222.803 344.904C222.36 344.904 222.029 345.072 221.811 345.408C221.597 345.744 221.491 346.192 221.491 346.752V347.664C221.491 348.224 221.597 348.672 221.811 349.008C222.029 349.344 222.36 349.512 222.803 349.512C222.973 349.512 223.117 349.488 223.235 349.44C223.357 349.392 223.461 349.328 223.547 349.248C223.637 349.163 223.715 349.067 223.779 348.96C223.843 348.848 223.899 348.731 223.947 348.608L224.523 348.872C224.453 349.027 224.373 349.176 224.283 349.32C224.192 349.464 224.08 349.595 223.947 349.712C223.813 349.829 223.653 349.923 223.467 349.992C223.28 350.061 223.059 350.096 222.803 350.096ZM228.864 350L228.392 348.408H226.432L225.96 350H225.264L226.976 344.416H227.864L229.576 350H228.864ZM227.448 345.128H227.376L226.592 347.824H228.232L227.448 345.128ZM232.549 345V350H231.877V345H230.013V344.416H234.413V345H232.549ZM235.281 350V349.464H236.673V344.952H235.281V344.416H238.737V344.952H237.345V349.464H238.737V350H235.281ZM241.806 350.096C241.465 350.096 241.172 350.032 240.926 349.904C240.681 349.771 240.478 349.581 240.318 349.336C240.158 349.091 240.041 348.789 239.966 348.432C239.892 348.075 239.854 347.667 239.854 347.208C239.854 346.755 239.892 346.349 239.966 345.992C240.041 345.629 240.158 345.325 240.318 345.08C240.478 344.835 240.681 344.648 240.926 344.52C241.172 344.387 241.465 344.32 241.806 344.32C242.148 344.32 242.441 344.387 242.686 344.52C242.932 344.648 243.134 344.835 243.294 345.08C243.454 345.325 243.572 345.629 243.646 345.992C243.721 346.349 243.758 346.755 243.758 347.208C243.758 347.667 243.721 348.075 243.646 348.432C243.572 348.789 243.454 349.091 243.294 349.336C243.134 349.581 242.932 349.771 242.686 349.904C242.441 350.032 242.148 350.096 241.806 350.096ZM241.806 349.512C242.03 349.512 242.22 349.469 242.374 349.384C242.529 349.293 242.657 349.168 242.758 349.008C242.86 348.848 242.932 348.656 242.974 348.432C243.022 348.203 243.046 347.947 243.046 347.664V346.752C243.046 346.475 243.022 346.221 242.974 345.992C242.932 345.763 242.86 345.568 242.758 345.408C242.657 345.248 242.529 345.125 242.374 345.04C242.22 344.949 242.03 344.904 241.806 344.904C241.582 344.904 241.393 344.949 241.238 345.04C241.084 345.125 240.956 345.248 240.854 345.408C240.753 345.568 240.678 345.763 240.63 345.992C240.588 346.221 240.566 346.475 240.566 346.752V347.664C240.566 347.947 240.588 348.203 240.63 348.432C240.678 348.656 240.753 348.848 240.854 349.008C240.956 349.168 241.084 349.293 241.238 349.384C241.393 349.469 241.582 349.512 241.806 349.512ZM245.507 345.272H245.451V350H244.843V344.416H245.795L247.699 349.096H247.755V344.416H248.363V350H247.411L245.507 345.272Z" fill="#15283B"/>
<rect x="198.5" y="273.5" width="49" height="49" rx="24.5" stroke="#15283B"/>
<rect x="186.5" y="157.5" width="73" height="203" stroke="#15283B"/>
<path d="M95.3536 213.354C95.5488 213.158 95.5488 212.842 95.3536 212.646L92.1716 209.464C91.9763 209.269 91.6597 209.269 91.4645 209.464C91.2692 209.66 91.2692 209.976 91.4645 210.172L94.2929 213L91.4645 215.828C91.2692 216.024 91.2692 216.34 91.4645 216.536C91.6597 216.731 91.9763 216.731 92.1716 216.536L95.3536 213.354ZM69 213.5H95V212.5H69V213.5Z" fill="#15283B"/>
<path d="M181.354 213.354C181.549 213.158 181.549 212.842 181.354 212.646L178.172 209.464C177.976 209.269 177.66 209.269 177.464 209.464C177.269 209.66 177.269 209.976 177.464 210.172L180.293 213L177.464 215.828C177.269 216.024 177.269 216.34 177.464 216.536C177.66 216.731 177.976 216.731 178.172 216.536L181.354 213.354ZM150 213.5H181V212.5H150V213.5Z" fill="#15283B"/>
<rect x="251" y="294" width="18" height="8" fill="white"/>
<path d="M318.354 298.354C318.549 298.158 318.549 297.842 318.354 297.646L315.172 294.464C314.976 294.269 314.66 294.269 314.464 294.464C314.269 294.66 314.269 294.976 314.464 295.172L317.293 298L314.464 300.828C314.269 301.024 314.269 301.34 314.464 301.536C314.66 301.731 314.976 301.731 315.172 301.536L318.354 298.354ZM248 298.5L318 298.5L318 297.5L248 297.5L248 298.5Z" fill="#15283B"/>
</svg>
