<svg width="12" height="24" viewBox="0 0 12 24" fill="none" xmlns="http://www.w3.org/2000/svg">
    <path fill-rule="evenodd" clip-rule="evenodd" d="M5.78803 0.0297179C5.86737 -0.00990597 5.96097 -0.00990597 6.04037 0.0297179L7.17055 0.593363L11.5153 2.76085C11.7058 2.85585 11.8261 3.04982 11.8261 3.26189V4.96936C11.8261 5.1778 11.6056 5.31326 11.4183 5.21983L5.91417 2.47312L0.407775 5.21994C0.220472 5.31331 0 5.17785 0 4.96942V3.26408C0 3.05201 0.120232 2.85815 0.310745 2.76304L3.4031 1.21995L4.65948 0.592803L5.78803 0.0297179Z" fill="white"/>
    <path fill-rule="evenodd" clip-rule="evenodd" d="M6.03808 23.9703C5.95874 24.0099 5.86514 24.0099 5.78574 23.9703L4.65556 23.4066L0.310823 21.2391C0.12031 21.1442 2.21973e-05 20.9502 2.22155e-05 20.7381L2.23626e-05 19.0306C2.23806e-05 18.8222 0.220551 18.6867 0.407797 18.7802L5.91194 21.5269L11.4183 18.7801C11.6056 18.6867 11.8261 18.8221 11.8261 19.0306L11.8261 20.7359C11.8261 20.948 11.7059 21.1419 11.5154 21.237L8.42301 22.7801L7.16663 23.4072L6.03808 23.9703Z" fill="white"/>
    <path fill-rule="evenodd" clip-rule="evenodd" d="M5.91304 15.75C3.87202 15.75 2.21739 14.071 2.21739 12C2.21739 9.92896 3.87202 8.25 5.91304 8.25C7.95407 8.25 9.6087 9.92896 9.6087 12C9.6087 14.071 7.95407 15.75 5.91304 15.75ZM5.91304 6C2.64735 6 0 8.68629 0 12C0 15.3137 2.64735 18 5.91304 18C9.17873 18 11.8261 15.3137 11.8261 12C11.8261 8.68629 9.17873 6 5.91304 6Z" fill="white"/>
</svg>
