<svg width="12" height="24" viewBox="0 0 12 24" fill="none" xmlns="http://www.w3.org/2000/svg">
<path d="M6 6.27274C2.68572 6.27274 0 8.83637 0 12C0 15.1636 2.68572 17.7273 6 17.7273C9.31429 17.7273 12 15.1636 12 12C12 8.83637 9.31429 6.27274 6 6.27274Z" fill="black"/>
<path d="M6 -1.79567e-07L12 2.83636L12 5.29091L6 2.45455L0 5.29091L-1.12401e-07 2.83636L6 -1.79567e-07Z" fill="black"/>
<path d="M6 24L-1.79456e-07 21.1636L-6.70552e-08 18.7091L6 21.5454L12 18.7091L12 21.1636L6 24Z" fill="black"/>
</svg>
