<svg width="93" height="48" viewBox="0 0 93 48" fill="none" xmlns="http://www.w3.org/2000/svg">
<path d="M11.3811 12.5455C5.09441 12.5455 0 17.6727 0 24C0 30.3273 5.09441 35.4546 11.3811 35.4546C17.6678 35.4546 22.7622 30.3273 22.7622 24C22.7622 17.6727 17.6678 12.5455 11.3811 12.5455Z" fill="white"/>
<path d="M11.3811 -3.59133e-07L22.7622 5.67273L22.7622 10.5818L11.3811 4.90909L0 10.5818L-2.13208e-07 5.67273L11.3811 -3.59133e-07Z" fill="white"/>
<path d="M11.3811 48L2.18926e-07 42.3273L4.32134e-07 37.4182L11.3811 43.0909L22.7622 37.4182L22.7622 42.3273L11.3811 48Z" fill="white"/>
</svg>
