<svg width="52" height="24" viewBox="0 0 52 24" fill="none" xmlns="http://www.w3.org/2000/svg">
    <path fill-rule="evenodd" clip-rule="evenodd" d="M5.78803 0.0297179C5.86737 -0.00990597 5.96097 -0.00990597 6.04037 0.0297179L7.17055 0.593363L11.5153 2.76085C11.7058 2.85585 11.8261 3.04982 11.8261 3.26189V4.96936C11.8261 5.1778 11.6056 5.31326 11.4183 5.21983L5.91417 2.47312L0.407775 5.21994C0.220472 5.31331 0 5.17785 0 4.96942V3.26408C0 3.05201 0.120232 2.85815 0.310745 2.76304L3.4031 1.21995L4.65948 0.592803L5.78803 0.0297179Z" fill="white"/>
    <path fill-rule="evenodd" clip-rule="evenodd" d="M6.03808 23.9703C5.95874 24.0099 5.86514 24.0099 5.78574 23.9703L4.65556 23.4066L0.310823 21.2391C0.12031 21.1442 2.21973e-05 20.9502 2.22155e-05 20.7381L2.23626e-05 19.0306C2.23806e-05 18.8222 0.220551 18.6867 0.407797 18.7802L5.91194 21.5269L11.4183 18.7801C11.6056 18.6867 11.8261 18.8221 11.8261 19.0306L11.8261 20.7359C11.8261 20.948 11.7059 21.1419 11.5154 21.237L8.42301 22.7801L7.16663 23.4072L6.03808 23.9703Z" fill="white"/>
    <path fill-rule="evenodd" clip-rule="evenodd" d="M5.91304 15.75C3.87202 15.75 2.21739 14.071 2.21739 12C2.21739 9.92896 3.87202 8.25 5.91304 8.25C7.95407 8.25 9.6087 9.92896 9.6087 12C9.6087 14.071 7.95407 15.75 5.91304 15.75ZM5.91304 6C2.64735 6 0 8.68629 0 12C0 15.3137 2.64735 18 5.91304 18C9.17873 18 11.8261 15.3137 11.8261 12C11.8261 8.68629 9.17873 6 5.91304 6Z" fill="white"/>
    <path fill-rule="evenodd" clip-rule="evenodd" d="M23.6987 15.7142C21.7345 15.7142 20.1422 14.0513 20.1422 11.9999C20.1422 9.94863 21.7345 8.28566 23.6987 8.28566C25.6629 8.28566 27.2553 9.94863 27.2553 11.9999C27.2553 14.0513 25.6629 15.7142 23.6987 15.7142ZM23.6987 6C20.5257 6 17.9535 8.68629 17.9535 12C17.9535 15.3137 20.5257 18 23.6987 18C26.8717 18 29.4439 15.3137 29.4439 12C29.4439 8.68629 26.8717 6 23.6987 6Z" fill="white"/>
    <path fill-rule="evenodd" clip-rule="evenodd" d="M36.8853 11.1428H36.5625L36.534 11.0948L34.8723 8.28566H36.8853C37.641 8.28566 38.2532 8.92508 38.2532 9.71423C38.2532 10.5034 37.641 11.1428 36.8853 11.1428ZM37.8346 13.2943C39.3295 12.8634 40.4293 11.4389 40.4413 9.74343C40.4419 9.73371 40.4419 9.724 40.4419 9.71429C40.4419 9.70457 40.4419 9.69486 40.4413 9.68514C40.4266 7.64686 38.8403 6 36.8853 6H32.508C32.3569 6 32.2344 6.12794 32.2344 6.28571V8.09314C32.2344 8.14623 32.2486 8.19817 32.2753 8.24331L33.9903 11.1429H32.508C32.3569 11.1429 32.2344 11.2707 32.2344 11.4286V17.7143C32.2344 17.8721 32.3569 18 32.508 18H34.1495C34.3006 18 34.4231 17.8721 34.4231 17.7143V13.4286H35.3418L37.885 17.7289C37.9846 17.8974 38.1608 18 38.3505 18H40.127C40.3412 18 40.4723 17.7545 40.3597 17.5642L37.8346 13.2943Z" fill="white"/>
    <path fill-rule="evenodd" clip-rule="evenodd" d="M50.9732 6.41377L45.6319 17.6846C45.5403 17.8779 45.3534 18 45.1489 18H43.5029C43.302 18 43.1714 17.7762 43.2615 17.5862L45.9092 12.0011L43.2613 6.41377C43.1714 6.22377 43.3019 6 43.5029 6H45.1468C45.3512 6 45.5381 6.12206 45.6297 6.31531L47.1173 9.45314L48.6048 6.31531C48.6964 6.12206 48.8833 6 49.0877 6H50.7316C50.9326 6 51.0631 6.22377 50.9732 6.41377Z" fill="white"/>
</svg>
