<svg width="93" height="48" viewBox="0 0 93 48" fill="none" xmlns="http://www.w3.org/2000/svg">
<path d="M43.0315 12.5455C36.7447 12.5455 31.6503 17.6727 31.6503 24C31.6503 30.3273 36.7447 35.4545 43.0315 35.4545C49.3182 35.4545 54.4126 30.3273 54.4126 24C54.4126 17.6727 49.3182 12.5455 43.0315 12.5455ZM43.0315 31.0909C39.1402 31.0909 35.986 27.9164 35.986 24C35.986 20.0836 39.1402 16.9091 43.0315 16.9091C46.9227 16.9091 50.0769 20.0836 50.0769 24C50.0769 27.9164 46.9227 31.0909 43.0315 31.0909Z" fill="white"/>
<path d="M68.7564 26.4655C71.7135 25.6473 73.8908 22.92 73.9125 19.6909C73.9125 19.6691 73.9125 19.6582 73.9125 19.6364C73.9125 19.6146 73.9125 19.6036 73.9125 19.5818C73.88 15.6873 70.7387 12.5455 66.8716 12.5455H57.6643V16.6691L61.1306 22.3527H57.6752V35.4545H62.008V26.7164H63.8278L69.1538 35.4545H74.2482L68.7564 26.4655ZM66.8824 22.3636H66.2433L62.8962 16.9091H66.8824C68.3773 16.9091 69.5905 18.1309 69.5905 19.6364C69.5905 21.1418 68.3773 22.3636 66.8824 22.3636Z" fill="white"/>
<path d="M81.6189 35.4545H76.7412L82.4643 24.0109L76.7412 12.5455H81.6189L84.8815 19.1346L88.2308 12.5455H93L81.6189 35.4545Z" fill="white"/>
<path d="M11.3811 12.5455C5.09441 12.5455 0 17.6727 0 24C0 30.3273 5.09441 35.4546 11.3811 35.4546C17.6678 35.4546 22.7622 30.3273 22.7622 24C22.7622 17.6727 17.6678 12.5455 11.3811 12.5455Z" fill="white"/>
<path d="M11.3811 5.94541e-07L22.7622 5.67273L22.7622 10.5818L11.3811 4.90909L0 10.5818L-2.13208e-07 5.67273L11.3811 5.94541e-07Z" fill="white"/>
<path d="M11.3811 48L2.18926e-07 42.3273L4.32134e-07 37.4182L11.3811 43.0909L22.7622 37.4182L22.7622 42.3273L11.3811 48Z" fill="white"/>
</svg>
