<svg width="103" height="48" viewBox="0 0 103 48" fill="none" xmlns="http://www.w3.org/2000/svg">
    <path fill-rule="evenodd" clip-rule="evenodd"
          d="M11.5761 0.0594358C11.7347 -0.0198119 11.9219 -0.0198119 12.0807 0.0594358L14.3411 1.18673L23.0306 5.5217C23.4116 5.7117 23.6522 6.09964 23.6522 6.52379V9.93873C23.6522 10.3556 23.2111 10.6265 22.8366 10.4397L11.8283 4.94623L0.81555 10.4399C0.440944 10.6266 0 10.3557 0 9.93884V6.52816C0 6.10401 0.240464 5.71629 0.621489 5.52607L6.80619 2.4399L9.31896 1.18561L11.5761 0.0594358Z"
          fill="white"/>
    <path fill-rule="evenodd" clip-rule="evenodd"
          d="M12.0762 47.9406C11.9175 48.0198 11.7303 48.0198 11.5715 47.9406L9.31112 46.8133L0.621644 42.4783C0.240618 42.2883 4.24872e-05 41.9004 4.25237e-05 41.4762L4.28179e-05 38.0613C4.28539e-05 37.6444 0.4411 37.3735 0.815593 37.5603L11.8239 43.0538L22.8367 37.5601C23.2113 37.3734 23.6522 37.6443 23.6522 38.0612L23.6522 41.4718C23.6522 41.896 23.4118 42.2837 23.0307 42.4739L16.846 45.5601L14.3333 46.8144L12.0762 47.9406Z"
          fill="white"/>
    <path fill-rule="evenodd" clip-rule="evenodd"
          d="M11.8261 31.5C7.74406 31.5 4.4348 28.1421 4.4348 24C4.4348 19.8579 7.74406 16.5 11.8261 16.5C15.9081 16.5 19.2174 19.8579 19.2174 24C19.2174 28.1421 15.9081 31.5 11.8261 31.5ZM11.8261 12C5.29471 12 0 17.3726 0 24C0 30.6274 5.29471 36 11.8261 36C18.3575 36 23.6522 30.6274 23.6522 24C23.6522 17.3726 18.3575 12 11.8261 12Z"
          fill="white"/>
</svg>
