<svg width="103" height="48" viewBox="0 0 103 48" fill="none" xmlns="http://www.w3.org/2000/svg">
    <path fill-rule="evenodd" clip-rule="evenodd" d="M11.5761 0.0594358C11.7347 -0.0198119 11.9219 -0.0198119 12.0807 0.0594358L14.3411 1.18673L23.0306 5.5217C23.4116 5.7117 23.6522 6.09964 23.6522 6.52379V9.93873C23.6522 10.3556 23.2111 10.6265 22.8366 10.4397L11.8283 4.94623L0.81555 10.4399C0.440944 10.6266 0 10.3557 0 9.93884V6.52816C0 6.10401 0.240464 5.71629 0.621489 5.52607L6.80619 2.4399L9.31896 1.18561L11.5761 0.0594358Z" fill="white"/>
    <path fill-rule="evenodd" clip-rule="evenodd" d="M12.0762 47.9406C11.9175 48.0198 11.7303 48.0198 11.5715 47.9406L9.31112 46.8133L0.621644 42.4783C0.240618 42.2883 4.24872e-05 41.9004 4.25237e-05 41.4762L4.28179e-05 38.0613C4.28539e-05 37.6444 0.4411 37.3735 0.815593 37.5603L11.8239 43.0538L22.8367 37.5601C23.2113 37.3734 23.6522 37.6443 23.6522 38.0612L23.6522 41.4718C23.6522 41.896 23.4118 42.2837 23.0307 42.4739L16.846 45.5601L14.3333 46.8144L12.0762 47.9406Z" fill="white"/>
    <path fill-rule="evenodd" clip-rule="evenodd" d="M11.8261 31.5C7.74406 31.5 4.4348 28.1421 4.4348 24C4.4348 19.8579 7.74406 16.5 11.8261 16.5C15.9081 16.5 19.2174 19.8579 19.2174 24C19.2174 28.1421 15.9081 31.5 11.8261 31.5ZM11.8261 12C5.29471 12 0 17.3726 0 24C0 30.6274 5.29471 36 11.8261 36C18.3575 36 23.6522 30.6274 23.6522 24C23.6522 17.3726 18.3575 12 11.8261 12Z" fill="white"/>
    <path fill-rule="evenodd" clip-rule="evenodd" d="M47.3974 31.4285C43.469 31.4285 40.2843 28.1025 40.2843 23.9999C40.2843 19.8973 43.469 16.5713 47.3974 16.5713C51.3258 16.5713 54.5105 19.8973 54.5105 23.9999C54.5105 28.1025 51.3258 31.4285 47.3974 31.4285ZM47.3974 12C41.0514 12 35.907 17.3726 35.907 24C35.907 30.6274 41.0514 36 47.3974 36C53.7434 36 58.8878 30.6274 58.8878 24C58.8878 17.3726 53.7434 12 47.3974 12Z" fill="white"/>
    <path fill-rule="evenodd" clip-rule="evenodd" d="M73.7706 22.2856H73.125L73.0681 22.1896L69.7446 16.5713H73.7706C75.2819 16.5713 76.5064 17.8502 76.5064 19.4285C76.5064 21.0067 75.2819 22.2856 73.7706 22.2856ZM75.6693 26.5886C78.6589 25.7269 80.8585 22.8777 80.8826 19.4869C80.8837 19.4674 80.8837 19.448 80.8837 19.4286C80.8837 19.4091 80.8837 19.3897 80.8826 19.3703C80.8531 15.2937 77.6806 12 73.7706 12H65.016C64.7138 12 64.4688 12.2559 64.4688 12.5714V16.1863C64.4688 16.2925 64.4971 16.3963 64.5505 16.4866L67.9805 22.2857H65.016C64.7138 22.2857 64.4688 22.5415 64.4688 22.8571V35.4286C64.4688 35.7442 64.7138 36 65.016 36H68.299C68.6012 36 68.8461 35.7442 68.8461 35.4286V26.8571H70.6835L75.7699 35.4577C75.9692 35.7947 76.3216 36 76.7009 36H80.2539C80.6824 36 80.9447 35.509 80.7195 35.1283L75.6693 26.5886Z" fill="white"/>
    <path fill-rule="evenodd" clip-rule="evenodd" d="M101.946 12.8275L91.2638 35.3693C91.0805 35.7559 90.7067 36 90.2977 36H87.0058C86.604 36 86.3429 35.5525 86.5229 35.1725L91.8184 24.0023L86.5227 12.8275C86.3427 12.4475 86.6039 12 87.0057 12H90.2935C90.7024 12 91.0763 12.2441 91.2594 12.6306L94.2345 18.9063L97.2095 12.6306C97.3927 12.2441 97.7665 12 98.1755 12H101.463C101.865 12 102.126 12.4475 101.946 12.8275Z" fill="white"/>
</svg>
