<svg width="90" height="90" viewBox="0 0 90 90" fill="none" xmlns="http://www.w3.org/2000/svg">
    <circle cx="45" cy="45" r="45" fill="#6274F3"/>
    <path fill-rule="evenodd" clip-rule="evenodd" d="M35.3549 55.3297C35.2994 55.1575 35.1651 55.0232 34.9928 54.9676L32.5406 54.1761L23.1129 51.1344C22.6995 51.0009 22.2412 51.114 21.9288 51.4265L19.4134 53.9418C19.1064 54.2488 19.2233 54.7649 19.6296 54.8959L31.5744 58.7481L35.4297 70.6963C35.5609 71.1027 36.0768 71.2195 36.3839 70.9124L38.8961 68.4002C39.2085 68.0878 39.3216 67.6297 39.1883 67.2162L37.0239 60.5055L36.1449 57.7787L35.3549 55.3297Z" fill="white"/>
    <path fill-rule="evenodd" clip-rule="evenodd" d="M55.3298 54.9712C55.1576 55.0267 55.0233 55.161 54.9677 55.3334L54.1762 57.7855L51.1345 67.2133C51.001 67.6266 51.1142 68.085 51.4266 68.3974L53.9419 70.9127C54.249 71.2198 54.765 71.1029 54.8961 70.6965L58.7483 58.7517L70.6965 54.8964C71.1028 54.7652 71.2196 54.2493 70.9126 53.9422L68.4004 51.43C68.0879 51.1176 67.6298 51.0046 67.2163 51.1378L60.5056 53.3022L57.7788 54.1813L55.3298 54.9712Z" fill="white"/>
    <path fill-rule="evenodd" clip-rule="evenodd" d="M55.3298 35.3549C55.1576 35.2994 55.0233 35.1651 54.9677 34.9928L54.1762 32.5407L51.1345 23.1129C51.001 22.6996 51.1142 22.2412 51.4266 21.9288L53.9419 19.4135C54.249 19.1064 54.765 19.2233 54.8961 19.6296L58.7483 31.5744L70.6965 35.4297C71.1028 35.561 71.2196 36.0769 70.9126 36.3839L68.4004 38.8961C68.0879 39.2086 67.6298 39.3216 67.2163 39.1883L60.5056 37.024L57.7788 36.1449L55.3298 35.3549Z" fill="white"/>
    <path fill-rule="evenodd" clip-rule="evenodd" d="M34.9961 35.3549C35.1684 35.2994 35.3027 35.1651 35.3582 34.9928L36.1497 32.5407L39.1915 23.1129C39.3249 22.6996 39.2118 22.2412 38.8994 21.9288L36.384 19.4135C36.077 19.1064 35.561 19.2233 35.4299 19.6297L31.5777 31.5744L19.6295 35.4297C19.2232 35.561 19.1063 36.0769 19.4134 36.3839L21.9256 38.8961C22.238 39.2086 22.6961 39.3216 23.1096 39.1883L29.8204 37.024L32.5471 36.1449L34.9961 35.3549Z" fill="white"/>
    <path fill-rule="evenodd" clip-rule="evenodd" d="M45.163 52.9756C41.0209 52.9756 37.663 49.4777 37.663 45.1631C37.663 40.8484 41.0209 37.3506 45.163 37.3506C49.3051 37.3506 52.663 40.8484 52.663 45.1631C52.663 49.4777 49.3051 52.9756 45.163 52.9756ZM45.163 32.6631C38.5356 32.6631 33.163 38.2595 33.163 45.1631C33.163 52.0667 38.5356 57.6631 45.163 57.6631C51.7904 57.6631 57.163 52.0667 57.163 45.1631C57.163 38.2595 51.7904 32.6631 45.163 32.6631Z" fill="white"/>
</svg>
