<svg width="90" height="90" viewBox="0 0 90 90" fill="none" xmlns="http://www.w3.org/2000/svg">
    <circle cx="45" cy="45" r="45" fill="#6274F3"/>
    <path fill-rule="evenodd" clip-rule="evenodd" d="M30.8756 45.2537C30.9581 45.0927 30.9581 44.9027 30.8756 44.7416L29.7013 42.448L25.1857 33.6307C24.9878 33.2441 24.5837 33 24.1419 33L20.5847 33C20.1504 33 19.8682 33.4475 20.0629 33.8275L25.7852 44.9977L20.0626 56.1725C19.8681 56.5526 20.1503 57 20.5845 57L24.1373 57C24.5792 57 24.983 56.756 25.1812 56.3694L28.3959 50.0937L29.7025 47.544L30.8756 45.2537Z" fill="white"/>
    <path fill-rule="evenodd" clip-rule="evenodd" d="M45.2537 59.1244C45.0927 59.0419 44.9027 59.0419 44.7416 59.1244L42.448 60.2987L33.6307 64.8143C33.2441 65.0122 33 65.4163 33 65.8581L33 69.4153C33 69.8496 33.4475 70.1318 33.8275 69.9371L44.9977 64.2148L56.1725 69.9374C56.5526 70.1319 57 69.8497 57 69.4155L57 65.8627C57 65.4208 56.756 65.017 56.3694 64.8188L50.0937 61.6041L47.544 60.2975L45.2537 59.1244Z" fill="white"/>
    <path fill-rule="evenodd" clip-rule="evenodd" d="M59.1244 45.2537C59.0419 45.0927 59.0419 44.9027 59.1244 44.7416L60.2987 42.448L64.8143 33.6307C65.0122 33.2441 65.4163 33 65.8581 33L69.4153 33C69.8496 33 70.1318 33.4475 69.9371 33.8275L64.2148 44.9977L69.9374 56.1725C70.1319 56.5526 69.8497 57 69.4155 57L65.8627 57C65.4208 57 65.017 56.756 64.8188 56.3694L61.6041 50.0937L60.2975 47.544L59.1244 45.2537Z" fill="white"/>
    <path fill-rule="evenodd" clip-rule="evenodd" d="M44.7463 30.8756C44.9074 30.9581 45.0973 30.9581 45.2585 30.8756L47.5521 29.7013L56.3693 25.1857C56.7559 24.9878 57.0001 24.5837 57.0001 24.1419V20.5847C57.0001 20.1504 56.5525 19.8682 56.1725 20.0629L45.0023 25.7852L33.8276 20.0626C33.4475 19.8681 33.0001 20.1503 33.0001 20.5845V24.1373C33.0001 24.5792 33.2441 24.983 33.6307 25.1812L39.9063 28.3959L42.4561 29.7025L44.7463 30.8756Z" fill="white"/>
    <path fill-rule="evenodd" clip-rule="evenodd" d="M45.0001 52.8125C40.858 52.8125 37.5001 49.3147 37.5001 45C37.5001 40.6853 40.858 37.1875 45.0001 37.1875C49.1421 37.1875 52.5001 40.6853 52.5001 45C52.5001 49.3147 49.1421 52.8125 45.0001 52.8125ZM45 32.5C38.3726 32.5 33 38.0964 33 45C33 51.9036 38.3726 57.5 45 57.5C51.6275 57.5 57 51.9036 57 45C57 38.0964 51.6275 32.5 45 32.5Z" fill="white"/>
</svg>
