<svg width="51" height="50" viewBox="0 0 51 50" fill="none" xmlns="http://www.w3.org/2000/svg">
    <path fill-rule="evenodd" clip-rule="evenodd" d="M0.414771 25.2537C0.332222 25.0927 0.332222 24.9027 0.414771 24.7416L1.58903 22.448L6.10463 13.6307C6.30254 13.2441 6.70665 13 7.14847 13L10.7057 13C11.1399 13 11.4221 13.4475 11.2275 13.8275L5.50518 24.9977L11.2277 36.1725C11.4223 36.5526 11.1401 37 10.7058 37L7.15303 37C6.7112 37 6.30733 36.756 6.10919 36.3694L2.89442 30.0937L1.58787 27.544L0.414771 25.2537Z" fill="#63BEFF"/>
    <path fill-rule="evenodd" clip-rule="evenodd" d="M25.6066 49.9381C25.4455 50.0206 25.2556 50.0206 25.0945 49.9381L22.8009 48.7638L13.9836 44.2482C13.597 44.0503 13.3529 43.6462 13.3529 43.2044L13.3529 39.6472C13.3529 39.2129 13.8004 38.9307 14.1804 39.1254L25.3506 44.8477L36.5253 39.1251C36.9054 38.9306 37.3529 39.2128 37.3529 39.647L37.3529 43.1998C37.3529 43.6417 37.1089 44.0455 36.7222 44.2437L30.4466 47.4584L27.8969 48.765L25.6066 49.9381Z" fill="#63BEFF"/>
    <path fill-rule="evenodd" clip-rule="evenodd" d="M50.2909 24.7463C50.3735 24.9073 50.3735 25.0973 50.2909 25.2584L49.1167 27.552L44.6011 36.3693C44.4032 36.7559 43.9991 37 43.5572 37L40 37C39.5658 37 39.2836 36.5525 39.4782 36.1725L45.2005 25.0023L39.478 13.8275C39.2835 13.4474 39.5657 13 39.9999 13L43.5527 13C43.9945 13 44.3984 13.244 44.5965 13.6306L47.8113 19.9063L49.1179 22.456L50.2909 24.7463Z" fill="#63BEFF"/>
    <path fill-rule="evenodd" clip-rule="evenodd" d="M25.0992 0.0619123C25.2602 -0.0206374 25.4502 -0.0206374 25.6113 0.0619123L27.9049 1.23617L36.7222 5.75177C37.1088 5.94968 37.3529 6.35379 37.3529 6.79561V10.3528C37.3529 10.7871 36.9054 11.0693 36.5254 10.8746L25.3552 5.15232L14.1805 10.8749C13.8003 11.0694 13.3529 10.7872 13.3529 10.353V6.80017C13.3529 6.35834 13.5969 5.95447 13.9835 5.75633L20.2592 2.54156L22.8089 1.23501L25.0992 0.0619123Z" fill="#63BEFF"/>
    <path fill-rule="evenodd" clip-rule="evenodd" d="M25.3529 32.8125C21.2108 32.8125 17.8529 29.3147 17.8529 25C17.8529 20.6853 21.2108 17.1875 25.3529 17.1875C29.495 17.1875 32.8529 20.6853 32.8529 25C32.8529 29.3147 29.495 32.8125 25.3529 32.8125ZM25.3529 12.5C18.7255 12.5 13.3529 18.0964 13.3529 25C13.3529 31.9036 18.7255 37.5 25.3529 37.5C31.9803 37.5 37.3529 31.9036 37.3529 25C37.3529 18.0964 31.9803 12.5 25.3529 12.5Z" fill="#63BEFF"/>
</svg>
