<svg width="250" height="416" viewBox="0 0 250 416" fill="none" xmlns="http://www.w3.org/2000/svg">
    <path fill-rule="evenodd" clip-rule="evenodd" d="M249.009 332.217C249.046 331.813 248.949 331.41 248.687 331.013L230.469 303.775L225.731 296.691C225.395 296.19 224.618 295.802 223.624 295.637L209.47 293.268L193.71 290.638L154.926 284.159C152.535 283.763 149.912 284.069 148.133 284.959L133.868 292.095C133.106 292.476 132.814 292.977 132.919 293.448C132.896 293.567 132.889 293.687 132.919 293.806C132.896 293.926 132.889 294.046 132.919 294.165C132.896 294.285 132.889 294.404 132.919 294.524C132.896 294.643 132.889 294.763 132.919 294.883C132.896 295.002 132.889 295.122 132.919 295.241C132.896 295.361 132.889 295.48 132.919 295.6C132.896 295.719 132.889 295.839 132.919 295.959C132.896 296.078 132.889 296.198 132.919 296.317C132.896 296.437 132.889 296.556 132.919 296.676C132.896 296.796 132.889 296.915 132.919 297.035C132.896 297.154 132.889 297.274 132.919 297.393C132.896 297.513 132.889 297.632 132.919 297.752C132.896 297.872 132.889 297.991 132.919 298.111C132.896 298.23 132.889 298.35 132.919 298.469C132.896 298.589 132.889 298.709 132.919 298.828C132.896 298.948 132.889 299.067 132.919 299.187C132.896 299.306 132.889 299.426 132.919 299.546C132.896 299.665 132.889 299.785 132.919 299.904C132.896 300.024 132.889 300.143 132.919 300.263C132.896 300.382 132.889 300.502 132.919 300.622C132.769 301.354 133.606 302.116 135.183 302.378L204.232 313.923L227.3 348.44C228.085 349.613 231.067 349.972 232.808 349.098L247.096 341.954C248.456 341.274 249.128 340.34 249.009 339.405C249.016 339.286 249.024 339.166 249.009 339.047C249.016 338.927 249.024 338.808 249.009 338.688C249.016 338.568 249.024 338.449 249.009 338.329C249.016 338.21 249.024 338.09 249.009 337.971C249.016 337.851 249.024 337.732 249.009 337.612C249.016 337.492 249.024 337.373 249.009 337.253C249.016 337.134 249.024 337.014 249.009 336.895C249.016 336.775 249.024 336.655 249.009 336.536C249.016 336.416 249.024 336.297 249.009 336.177C249.016 336.058 249.024 335.938 249.009 335.819C249.016 335.699 249.024 335.579 249.009 335.46C249.016 335.34 249.024 335.221 249.009 335.101C249.016 334.982 249.024 334.862 249.009 334.742C249.016 334.623 249.024 334.503 249.009 334.384C249.016 334.264 249.024 334.145 249.009 334.025C249.016 333.905 249.024 333.786 249.009 333.666C249.016 333.547 249.024 333.427 249.009 333.308C249.016 333.188 249.024 333.069 249.009 332.949C249.016 332.829 249.024 332.71 249.009 332.59C249.016 332.456 249.024 332.336 249.009 332.217Z" fill="#EBEEFD"/>
    <path fill-rule="evenodd" clip-rule="evenodd" d="M156.331 377.188L138.113 349.95L109.955 307.855C109.073 306.54 105.733 306.144 103.768 307.131L90.3837 313.826C88.8518 314.596 88.0896 315.642 88.2166 316.696C88.2092 316.815 88.2017 316.935 88.2166 317.054C88.2092 317.174 88.2017 317.294 88.2166 317.413C88.2092 317.533 88.2017 317.652 88.2166 317.772C88.2092 317.891 88.2017 318.011 88.2166 318.13C88.2092 318.25 88.2017 318.37 88.2166 318.489C88.2092 318.609 88.2017 318.728 88.2166 318.848C88.2092 318.967 88.2017 319.087 88.2166 319.207C88.2092 319.326 88.2017 319.446 88.2166 319.565C88.2092 319.685 88.2017 319.804 88.2166 319.924C88.2092 320.044 88.2017 320.163 88.2166 320.283C88.2092 320.402 88.2017 320.522 88.2166 320.641C88.2092 320.761 88.2017 320.88 88.2166 321C88.2092 321.12 88.2017 321.239 88.2166 321.359C88.2092 321.478 88.2017 321.598 88.2166 321.717C88.2092 321.837 88.2017 321.957 88.2166 322.076C88.2092 322.196 88.2017 322.315 88.2166 322.435C88.2092 322.554 88.2017 322.674 88.2166 322.793C88.2092 322.913 88.2017 323.033 88.2166 323.152C88.2092 323.272 88.2017 323.391 88.2166 323.511C88.2092 323.63 88.2017 323.75 88.2166 323.87C88.1867 324.31 88.2914 324.751 88.5828 325.185L134.944 394.607C135.729 395.78 138.71 396.139 140.451 395.265L154.739 388.121C156.1 387.441 156.772 386.507 156.653 385.572C156.66 385.453 156.667 385.333 156.653 385.214C156.66 385.094 156.667 384.975 156.653 384.855C156.66 384.736 156.667 384.616 156.653 384.496C156.66 384.377 156.667 384.257 156.653 384.138C156.66 384.018 156.667 383.899 156.653 383.779C156.66 383.659 156.667 383.54 156.653 383.42C156.66 383.301 156.667 383.181 156.653 383.062C156.66 382.942 156.667 382.822 156.653 382.703C156.66 382.583 156.667 382.464 156.653 382.344C156.66 382.225 156.667 382.105 156.653 381.986C156.66 381.866 156.667 381.746 156.653 381.627C156.66 381.507 156.667 381.388 156.653 381.268C156.66 381.149 156.667 381.029 156.653 380.909C156.66 380.79 156.667 380.67 156.653 380.551C156.66 380.431 156.667 380.312 156.653 380.192C156.66 380.072 156.667 379.953 156.653 379.833C156.66 379.714 156.667 379.594 156.653 379.475C156.66 379.355 156.667 379.236 156.653 379.116C156.66 378.996 156.667 378.877 156.653 378.757C156.66 378.638 156.667 378.518 156.653 378.399C156.69 377.988 156.593 377.584 156.331 377.188Z" fill="#EBEEFD"/>
    <path fill-rule="evenodd" clip-rule="evenodd" d="M113.848 397.619L44.7997 386.073L21.7311 351.556C20.9465 350.383 17.9648 350.024 16.2237 350.899L1.93568 358.043C0.575632 358.723 -0.0969201 359.657 0.0226447 360.591C0.0151719 360.71 0.00769907 360.83 0.0226447 360.95C0.0151719 361.069 0.00769907 361.189 0.0226447 361.308C0.0151719 361.428 0.00769907 361.547 0.0226447 361.667C0.0151719 361.787 0.00769907 361.906 0.0226447 362.026C0.0151719 362.145 0.00769907 362.265 0.0226447 362.384C0.0151719 362.504 0.00769907 362.623 0.0226447 362.743C0.0151719 362.863 0.00769907 362.982 0.0226447 363.102C0.0151719 363.221 0.00769907 363.341 0.0226447 363.46C0.0151719 363.58 0.00769907 363.7 0.0226447 363.819C0.0151719 363.939 0.00769907 364.058 0.0226447 364.178C0.0151719 364.297 0.00769907 364.417 0.0226447 364.536C0.0151719 364.656 0.00769907 364.776 0.0226447 364.895C0.0151719 365.015 0.00769907 365.134 0.0226447 365.254C0.0151719 365.373 0.00769907 365.493 0.0226447 365.613C0.0151719 365.732 0.00769907 365.852 0.0226447 365.971C0.0151719 366.091 0.00769907 366.21 0.0226447 366.33C0.0151719 366.45 0.00769907 366.569 0.0226447 366.689C0.0151719 366.808 0.00769907 366.928 0.0226447 367.047C0.0151719 367.167 0.00769907 367.287 0.0226447 367.406C0.0151719 367.526 0.00769907 367.645 0.0226447 367.765C-0.0147193 368.168 0.0824271 368.572 0.343975 368.968L18.5627 396.214L23.3004 403.298C23.6292 403.799 24.4139 404.187 25.4077 404.352L39.5612 406.72L55.3214 409.351L94.1052 415.83C96.4965 416.226 99.1194 415.919 100.898 415.03L115.164 407.894C115.926 407.513 116.217 407.012 116.113 406.541C116.135 406.422 116.142 406.302 116.113 406.182C116.135 406.063 116.142 405.943 116.113 405.824C116.135 405.704 116.142 405.585 116.113 405.465C116.135 405.345 116.142 405.226 116.113 405.106C116.135 404.987 116.142 404.867 116.113 404.748C116.135 404.628 116.142 404.509 116.113 404.389C116.135 404.269 116.142 404.15 116.113 404.03C116.135 403.911 116.142 403.791 116.113 403.672C116.135 403.552 116.142 403.432 116.113 403.313C116.135 403.193 116.142 403.074 116.113 402.954C116.135 402.835 116.142 402.715 116.113 402.595C116.135 402.476 116.142 402.356 116.113 402.237C116.135 402.117 116.142 401.998 116.113 401.878C116.135 401.759 116.142 401.639 116.113 401.519C116.135 401.4 116.142 401.28 116.113 401.161C116.135 401.041 116.142 400.922 116.113 400.802C116.135 400.682 116.142 400.563 116.113 400.443C116.135 400.324 116.142 400.204 116.113 400.085C116.135 399.965 116.142 399.845 116.113 399.726C116.135 399.606 116.142 399.487 116.113 399.367C116.262 398.642 115.425 397.888 113.848 397.619Z" fill="#EBEEFD"/>
    <path fill-rule="evenodd" clip-rule="evenodd" d="M223.616 295.63C224.61 295.794 225.395 296.19 225.724 296.683L230.461 303.768L248.68 331.006C249.48 332.202 248.859 333.517 247.088 334.399L232.8 341.543C231.059 342.417 228.078 342.058 227.293 340.885L204.224 306.368L135.176 294.823C132.829 294.427 132.119 292.94 133.86 292.065L148.126 284.929C149.897 284.039 152.528 283.733 154.919 284.129L193.703 290.608L209.463 293.238L223.616 295.63Z" fill="#D8DCFC"/>
    <path fill-rule="evenodd" clip-rule="evenodd" d="M103.775 307.13C105.74 306.151 109.081 306.54 109.962 307.855L138.12 349.95L156.339 377.188C157.138 378.384 156.518 379.699 154.747 380.581L140.459 387.725C138.718 388.599 135.736 388.24 134.951 387.067L88.5903 317.645C87.6935 316.3 88.3885 314.82 90.3912 313.819L103.775 307.13Z" fill="#D8DCFC"/>
    <path fill-rule="evenodd" clip-rule="evenodd" d="M25.4152 396.826C24.4213 396.662 23.6367 396.266 23.3079 395.773L18.5701 388.689L0.343981 361.443C-0.455608 360.247 0.164634 358.932 1.93569 358.05L16.2237 350.906C17.9648 350.032 20.9465 350.39 21.7311 351.564L44.7997 386.081L113.848 397.626C116.195 398.022 116.905 399.509 115.164 400.383L100.898 407.52C99.1269 408.409 96.4965 408.716 94.1052 408.32L55.3214 401.841L39.5612 399.21L25.4152 396.826Z" fill="#D8DCFC"/>
    <path d="M122.808 207.152H122.061V207.525H122.808V207.152Z" fill="#4BD6CE" stroke="#4BD6CE" stroke-width="0.5"/>
    <path d="M122.808 203.355H122.061V202.593H122.808V203.355ZM122.808 198.789H122.061V198.027H122.808V198.789ZM122.808 194.231H122.061V193.468H122.808V194.231ZM122.808 189.672H122.061V188.91H122.808V189.672ZM122.808 185.114H122.061V184.352H122.808V185.114ZM122.808 180.555H122.061V179.793H122.808V180.555ZM122.808 175.99H122.061V175.227H122.808V175.99ZM122.808 171.431H122.061V170.669H122.808V171.431ZM122.808 166.873H122.061V166.111H122.808V166.873ZM122.808 162.314H122.061V161.552H122.808V162.314ZM122.808 157.748H122.061V156.986H122.808V157.748ZM122.808 153.19H122.061V152.428H122.808V153.19ZM122.808 148.632H122.061V147.869H122.808V148.632ZM122.808 144.073H122.061V143.311H122.808V144.073ZM122.808 139.515H122.061V138.753H122.808V139.515ZM122.808 134.949H122.061V134.187H122.808V134.949ZM122.808 130.391H122.061V129.628H122.808V130.391ZM122.808 125.832H122.061V125.07H122.808V125.832ZM122.808 121.274H122.061V120.512H122.808V121.274ZM122.808 116.708H122.061V115.946H122.808V116.708ZM122.808 112.149H122.061V111.387H122.808V112.149ZM122.808 107.591H122.061V106.829H122.808V107.591ZM122.808 103.033H122.061V102.27H122.808V103.033ZM122.808 98.4742H122.061V97.712H122.808V98.4742ZM122.808 93.9083H122.061V93.1461H122.808V93.9083ZM122.808 89.3499H122.061V88.5877H122.808V89.3499ZM122.808 84.7915H122.061V84.0293H122.808V84.7915Z" fill="#4BD6CE" stroke="#4BD6CE" stroke-width="0.5"/>
    <path d="M122.808 79.8599H122.061V80.2335H122.808V79.8599Z" fill="#4BD6CE" stroke="#4BD6CE" stroke-width="0.5"/>
    <path d="M122.434 208.93C123.21 208.93 123.839 208.301 123.839 207.525C123.839 206.749 123.21 206.12 122.434 206.12C121.659 206.12 121.03 206.749 121.03 207.525C121.03 208.301 121.659 208.93 122.434 208.93Z" fill="#4BD6CE" stroke="#4BD6CE" stroke-width="0.5"/>
    <path d="M122.434 81.2648C123.21 81.2648 123.839 80.6359 123.839 79.8601C123.839 79.0842 123.21 78.4553 122.434 78.4553C121.659 78.4553 121.03 79.0842 121.03 79.8601C121.03 80.6359 121.659 81.2648 122.434 81.2648Z" fill="#4BD6CE" stroke="#4BD6CE" stroke-width="0.5"/>
    <path d="M122.808 347.02H122.061V347.394H122.808V347.02Z" fill="#4BD6CE" stroke="#4BD6CE" stroke-width="0.5"/>
    <path d="M122.808 343.261H122.061V342.506H122.808V343.261ZM122.808 338.747H122.061V337.993H122.808V338.747ZM122.808 334.241H122.061V333.487H122.808V334.241ZM122.808 329.728H122.061V328.973H122.808V329.728ZM122.808 325.214H122.061V324.459H122.808V325.214ZM122.808 320.701H122.061V319.946H122.808V320.701ZM122.808 316.187H122.061V315.432H122.808V316.187ZM122.808 311.681H122.061V310.926H122.808V311.681ZM122.808 307.167H122.061V306.413H122.808V307.167ZM122.808 302.654H122.061V301.899H122.808V302.654ZM122.808 298.14H122.061V297.385H122.808V298.14ZM122.808 293.627H122.061V292.872H122.808V293.627ZM122.808 289.121H122.061V288.366H122.808V289.121ZM122.808 284.607H122.061V283.852H122.808V284.607ZM122.808 280.093H122.061V279.339H122.808V280.093ZM122.808 275.58H122.061V274.825H122.808V275.58ZM122.808 271.066H122.061V270.311H122.808V271.066ZM122.808 266.56H122.061V265.805H122.808V266.56ZM122.808 262.047H122.061V261.292H122.808V262.047ZM122.808 257.533H122.061V256.778H122.808V257.533ZM122.808 253.019H122.061V252.265H122.808V253.019ZM122.808 248.506H122.061V247.751H122.808V248.506ZM122.808 244H122.061V243.245H122.808V244ZM122.808 239.486H122.061V238.731H122.808V239.486ZM122.808 234.973H122.061V234.218H122.808V234.973ZM122.808 230.459H122.061V229.704H122.808V230.459ZM122.808 225.945H122.061V225.191H122.808V225.945ZM122.808 221.439H122.061V220.685H122.808V221.439ZM122.808 216.926H122.061V216.171H122.808V216.926ZM122.808 212.412H122.061V211.657H122.808V212.412Z" fill="#4BD6CE" stroke="#4BD6CE" stroke-width="0.5"/>
    <path d="M122.808 207.525H122.061V207.899H122.808V207.525Z" fill="#4BD6CE" stroke="#4BD6CE" stroke-width="0.5"/>
    <path d="M122.434 348.798C123.21 348.798 123.839 348.17 123.839 347.394C123.839 346.618 123.21 345.989 122.434 345.989C121.659 345.989 121.03 346.618 121.03 347.394C121.03 348.17 121.659 348.798 122.434 348.798Z" fill="#4BD6CE" stroke="#4BD6CE" stroke-width="0.5"/>
    <path d="M123.839 207.525C123.839 206.748 123.212 206.121 122.434 206.121C121.657 206.121 121.03 206.748 121.03 207.525C121.03 208.302 121.657 208.93 122.434 208.93C123.212 208.93 123.839 208.302 123.839 207.525Z" fill="#4BD6CE" stroke="#4BD6CE" stroke-width="0.5"/>
    <path fill-rule="evenodd" clip-rule="evenodd" d="M249.009 190.233C249.046 189.83 248.949 189.426 248.687 189.03L230.469 161.792L225.731 154.708C225.395 154.207 224.618 153.818 223.624 153.654L209.47 151.285L193.71 148.655L154.926 142.176C152.535 141.78 149.912 142.086 148.133 142.975L133.868 150.112C133.106 150.493 132.814 150.994 132.919 151.465C132.896 151.584 132.889 151.704 132.919 151.823C132.896 151.943 132.889 152.062 132.919 152.182C132.896 152.302 132.889 152.421 132.919 152.541C132.896 152.66 132.889 152.78 132.919 152.899C132.896 153.019 132.889 153.138 132.919 153.258C132.896 153.378 132.889 153.497 132.919 153.617C132.896 153.736 132.889 153.856 132.919 153.975C132.896 154.095 132.889 154.215 132.919 154.334C132.896 154.454 132.889 154.573 132.919 154.693C132.896 154.812 132.889 154.932 132.919 155.052C132.896 155.171 132.889 155.291 132.919 155.41C132.896 155.53 132.889 155.649 132.919 155.769C132.896 155.888 132.889 156.008 132.919 156.128C132.896 156.247 132.889 156.367 132.919 156.486C132.896 156.606 132.889 156.725 132.919 156.845C132.896 156.965 132.889 157.084 132.919 157.204C132.896 157.323 132.889 157.443 132.919 157.562C132.896 157.682 132.889 157.801 132.919 157.921C132.896 158.041 132.889 158.16 132.919 158.28C132.896 158.399 132.889 158.519 132.919 158.638C132.769 159.371 133.606 160.133 135.183 160.395L204.232 171.94L227.3 206.457C228.085 207.63 231.067 207.989 232.808 207.115L247.096 199.97C248.456 199.29 249.128 198.356 249.009 197.422C249.016 197.303 249.024 197.183 249.009 197.064C249.016 196.944 249.024 196.824 249.009 196.705C249.016 196.585 249.024 196.466 249.009 196.346C249.016 196.227 249.024 196.107 249.009 195.987C249.016 195.868 249.024 195.748 249.009 195.629C249.016 195.509 249.024 195.39 249.009 195.27C249.016 195.151 249.024 195.031 249.009 194.911C249.016 194.792 249.024 194.672 249.009 194.553C249.016 194.433 249.024 194.314 249.009 194.194C249.016 194.074 249.024 193.955 249.009 193.835C249.016 193.716 249.024 193.596 249.009 193.477C249.016 193.357 249.024 193.238 249.009 193.118C249.016 192.998 249.024 192.879 249.009 192.759C249.016 192.64 249.024 192.52 249.009 192.401C249.016 192.281 249.024 192.161 249.009 192.042C249.016 191.922 249.024 191.803 249.009 191.683C249.016 191.564 249.024 191.444 249.009 191.324C249.016 191.205 249.024 191.085 249.009 190.966C249.016 190.846 249.024 190.727 249.009 190.607C249.016 190.473 249.024 190.353 249.009 190.233Z" fill="#B0B9F9"/>
    <path fill-rule="evenodd" clip-rule="evenodd" d="M113.848 255.635L44.7997 244.09L21.7311 209.573C20.9465 208.4 17.9648 208.041 16.2237 208.915L1.93568 216.059C0.575632 216.739 -0.0969201 217.674 0.0226447 218.608C0.0151719 218.727 0.00769907 218.847 0.0226447 218.966C0.0151719 219.086 0.00769907 219.206 0.0226447 219.325C0.0151719 219.445 0.00769907 219.564 0.0226447 219.684C0.0151719 219.803 0.00769907 219.923 0.0226447 220.042C0.0151719 220.162 0.00769907 220.282 0.0226447 220.401C0.0151719 220.521 0.00769907 220.64 0.0226447 220.76C0.0151719 220.879 0.00769907 220.999 0.0226447 221.119C0.0151719 221.238 0.00769907 221.358 0.0226447 221.477C0.0151719 221.597 0.00769907 221.716 0.0226447 221.836C0.0151719 221.956 0.00769907 222.075 0.0226447 222.195C0.0151719 222.314 0.00769907 222.434 0.0226447 222.553C0.0151719 222.673 0.00769907 222.792 0.0226447 222.912C0.0151719 223.032 0.00769907 223.151 0.0226447 223.271C0.0151719 223.39 0.00769907 223.51 0.0226447 223.629C0.0151719 223.749 0.00769907 223.869 0.0226447 223.988C0.0151719 224.108 0.00769907 224.227 0.0226447 224.347C0.0151719 224.466 0.00769907 224.586 0.0226447 224.706C0.0151719 224.825 0.00769907 224.945 0.0226447 225.064C0.0151719 225.184 0.00769907 225.303 0.0226447 225.423C0.0151719 225.542 0.00769907 225.662 0.0226447 225.782C-0.0147193 226.185 0.0824271 226.589 0.343975 226.985L18.5627 254.231L23.3004 261.315C23.6292 261.815 24.4139 262.204 25.4077 262.368L39.5612 264.737L55.3214 267.368L94.1052 273.847C96.4965 274.243 99.1194 273.936 100.898 273.047L115.164 265.911C115.926 265.529 116.217 265.029 116.113 264.558C116.135 264.438 116.142 264.319 116.113 264.199C116.135 264.08 116.142 263.96 116.113 263.841C116.135 263.721 116.142 263.601 116.113 263.482C116.135 263.362 116.142 263.243 116.113 263.123C116.135 263.004 116.142 262.884 116.113 262.764C116.135 262.645 116.142 262.525 116.113 262.406C116.135 262.286 116.142 262.167 116.113 262.047C116.135 261.928 116.142 261.808 116.113 261.688C116.135 261.569 116.142 261.449 116.113 261.33C116.135 261.21 116.142 261.091 116.113 260.971C116.135 260.851 116.142 260.732 116.113 260.612C116.135 260.493 116.142 260.373 116.113 260.254C116.135 260.134 116.142 260.014 116.113 259.895C116.135 259.775 116.142 259.656 116.113 259.536C116.135 259.417 116.142 259.297 116.113 259.178C116.135 259.058 116.142 258.938 116.113 258.819C116.135 258.699 116.142 258.58 116.113 258.46C116.135 258.341 116.142 258.221 116.113 258.101C116.135 257.982 116.142 257.862 116.113 257.743C116.135 257.623 116.142 257.504 116.113 257.384C116.262 256.659 115.425 255.904 113.848 255.635Z" fill="#B0B9F9"/>
    <path fill-rule="evenodd" clip-rule="evenodd" d="M174.714 179.144C147.394 165.484 102.766 165.648 75.0421 179.51C61.0605 186.497 54.0585 195.636 54.0435 204.738C54.0435 204.858 54.0435 204.977 54.0435 205.097C54.0435 205.216 54.0435 205.336 54.0435 205.456C54.0435 205.575 54.0435 205.695 54.0435 205.814C54.0435 205.934 54.0435 206.053 54.0435 206.173C54.0435 206.293 54.0435 206.412 54.0435 206.532C54.0435 206.651 54.0435 206.771 54.0435 206.89C54.0435 207.01 54.0435 207.13 54.0435 207.249C54.0435 207.369 54.0435 207.488 54.0435 207.608C54.0435 207.727 54.0435 207.847 54.0435 207.966C54.0435 208.086 54.0435 208.206 54.0435 208.325C54.0435 208.445 54.0435 208.564 54.0435 208.684C54.0435 208.803 54.0435 208.923 54.0435 209.043C54.0435 209.162 54.0435 209.282 54.0435 209.401C54.0435 209.521 54.0435 209.64 54.0435 209.76C54.0435 209.879 54.0435 209.999 54.0435 210.119C54.0435 210.238 54.0435 210.358 54.0435 210.477C54.0435 210.597 54.0435 210.716 54.0435 210.836C54.0435 210.956 54.0435 211.075 54.0435 211.195C54.0435 211.314 54.0435 211.434 54.0435 211.553C54.0435 211.673 54.0435 211.793 54.0435 211.912C53.8492 220.969 60.5897 230.019 74.3172 236.879C101.638 250.539 146.265 250.375 173.989 236.513C187.971 229.525 194.973 220.386 194.988 211.284C194.988 211.165 194.988 211.045 194.988 210.926C194.988 210.806 194.988 210.687 194.988 210.567C194.988 210.447 194.988 210.328 194.988 210.208C194.988 210.089 194.988 209.969 194.988 209.85C194.988 209.73 194.988 209.61 194.988 209.491C194.988 209.371 194.988 209.252 194.988 209.132C194.988 209.013 194.988 208.893 194.988 208.774C194.988 208.654 194.988 208.534 194.988 208.415C194.988 208.295 194.988 208.176 194.988 208.056C194.988 207.937 194.988 207.817 194.988 207.697C194.988 207.578 194.988 207.458 194.988 207.339C194.988 207.219 194.988 207.1 194.988 206.98C194.988 206.86 194.988 206.741 194.988 206.621C194.988 206.502 194.988 206.382 194.988 206.263C194.988 206.143 194.988 206.024 194.988 205.904C194.988 205.784 194.988 205.665 194.988 205.545C194.988 205.426 194.988 205.306 194.988 205.187C194.988 205.067 194.988 204.947 194.988 204.828C194.988 204.708 194.988 204.589 194.988 204.469C194.988 204.35 194.988 204.23 194.988 204.11C195.182 195.053 188.434 186.004 174.714 179.144ZM155.434 219.706C138.105 228.367 110.217 228.472 93.1412 219.93C86.5801 216.65 82.5821 212.57 81.11 208.303C82.612 203.901 86.7669 199.672 93.597 196.257C110.926 187.596 138.815 187.491 155.89 196.032C162.451 199.313 166.449 203.393 167.921 207.66C166.412 212.062 162.257 216.291 155.434 219.706Z" fill="#B0B9F9"/>
    <path fill-rule="evenodd" clip-rule="evenodd" d="M223.616 153.647C224.61 153.811 225.395 154.207 225.724 154.7L230.461 161.785L248.68 189.023C249.48 190.219 248.859 191.534 247.088 192.416L232.8 199.56C231.059 200.434 228.078 200.075 227.293 198.902L204.224 164.385L135.176 152.84C132.829 152.444 132.119 150.957 133.86 150.082L148.126 142.946C149.897 142.056 152.528 141.75 154.919 142.146L193.703 148.625L209.463 151.255L223.616 153.647Z" fill="#6274F3"/>
    <path fill-rule="evenodd" clip-rule="evenodd" d="M25.4152 254.843C24.4213 254.679 23.6367 254.283 23.3079 253.79L18.5701 246.706L0.343981 219.46C-0.455608 218.264 0.164634 216.949 1.93569 216.067L16.2237 208.923C17.9648 208.049 20.9465 208.407 21.7311 209.581L44.7997 244.098L113.848 255.643C116.195 256.039 116.905 257.526 115.164 258.4L100.898 265.537C99.1269 266.426 96.4965 266.733 94.1052 266.337L55.3214 259.858L39.5612 257.227L25.4152 254.843Z" fill="#6274F3"/>
    <path fill-rule="evenodd" clip-rule="evenodd" d="M93.1412 219.93C76.0659 211.389 76.2676 197.445 93.597 188.784C110.926 180.123 138.815 180.018 155.89 188.56C172.966 197.101 172.764 211.045 155.434 219.706C138.105 228.367 110.217 228.472 93.1412 219.93ZM174.714 179.144C147.394 165.484 102.766 165.648 75.0421 179.51C47.318 193.372 46.9892 215.686 74.3172 229.346C101.645 243.006 146.265 242.842 173.989 228.98C201.706 215.118 202.035 192.804 174.714 179.144Z" fill="#6274F3"/>
    <path fill-rule="evenodd" clip-rule="evenodd" d="M249.009 48.2502C249.046 47.8467 248.949 47.4431 248.688 47.0471L230.469 19.8087L225.731 12.717C225.395 12.2164 224.618 11.8278 223.624 11.6634L209.47 9.2945L193.703 6.66407L154.919 0.185155C152.528 -0.210903 149.905 0.0954812 148.126 0.984744L133.86 8.12127C133.098 8.50238 132.807 9.00306 132.911 9.47384C132.889 9.59341 132.882 9.71297 132.911 9.83254C132.889 9.9521 132.882 10.0717 132.911 10.1912C132.889 10.3108 132.882 10.4304 132.911 10.5499C132.889 10.6695 132.882 10.7891 132.911 10.9086C132.889 11.0282 132.882 11.1478 132.911 11.2673C132.889 11.3869 132.882 11.5064 132.911 11.626C132.889 11.7456 132.882 11.8651 132.911 11.9847C132.889 12.1043 132.882 12.2238 132.911 12.3434C132.889 12.463 132.882 12.5825 132.911 12.7021C132.889 12.8217 132.882 12.9412 132.911 13.0608C132.889 13.1804 132.882 13.2999 132.911 13.4195C132.889 13.539 132.882 13.6586 132.911 13.7782C132.889 13.8977 132.882 14.0173 132.911 14.1369C132.889 14.2564 132.882 14.376 132.911 14.4956C132.889 14.6151 132.882 14.7347 132.911 14.8543C132.889 14.9738 132.882 15.0934 132.911 15.213C132.889 15.3325 132.882 15.4521 132.911 15.5716C132.889 15.6912 132.882 15.8108 132.911 15.9303C132.889 16.0499 132.882 16.1695 132.911 16.289C132.889 16.4086 132.882 16.5282 132.911 16.6477C132.762 17.3801 133.599 18.1423 135.176 18.4038L204.224 29.9493L227.293 64.4662C228.078 65.6394 231.059 65.9981 232.8 65.1238L247.088 57.9798C248.448 57.2998 249.121 56.3657 249.001 55.4316C249.009 55.312 249.016 55.1924 249.001 55.0729C249.009 54.9533 249.016 54.8337 249.001 54.7142C249.009 54.5946 249.016 54.475 249.001 54.3555C249.009 54.2359 249.016 54.1163 249.001 53.9968C249.009 53.8772 249.016 53.7576 249.001 53.6381C249.009 53.5185 249.016 53.399 249.001 53.2794C249.009 53.1598 249.016 53.0403 249.001 52.9207C249.009 52.8011 249.016 52.6816 249.001 52.562C249.009 52.4424 249.016 52.3229 249.001 52.2033C249.009 52.0837 249.016 51.9642 249.001 51.8446C249.009 51.725 249.016 51.6055 249.001 51.4859C249.009 51.3664 249.016 51.2468 249.001 51.1272C249.009 51.0077 249.016 50.8881 249.001 50.7685C249.009 50.649 249.016 50.5294 249.001 50.4098C249.009 50.2903 249.016 50.1707 249.001 50.0511C249.009 49.9316 249.016 49.812 249.001 49.6924C249.009 49.5729 249.016 49.4533 249.001 49.3338C249.009 49.2142 249.016 49.0946 249.001 48.9751C249.009 48.8555 249.016 48.7359 249.001 48.6164C249.016 48.4893 249.024 48.3698 249.009 48.2502Z" fill="#EBEEFD"/>
    <path fill-rule="evenodd" clip-rule="evenodd" d="M192.089 43.4078C182.03 38.3786 166.487 37.7584 155.083 41.5396C154.015 40.3365 152.483 39.2006 150.502 38.2068C141.894 33.9024 127.92 33.9024 119.311 38.2068C116.113 39.8059 114.095 41.7862 113.288 43.8487C100.988 42.1972 87.3647 43.7815 77.7323 48.6014C70.4612 52.2332 66.8818 57.0158 66.9715 61.776C66.9715 61.8955 66.9715 62.0151 66.9715 62.1347C66.9715 62.2542 66.9715 62.3738 66.9715 62.4934C66.9715 62.6129 66.9715 62.7325 66.9715 62.8521C66.9715 62.9716 66.9715 63.0912 66.9715 63.2107C66.9715 63.3303 66.9715 63.4499 66.9715 63.5694C66.9715 63.689 66.9715 63.8086 66.9715 63.9281C66.9715 64.0477 66.9715 64.1673 66.9715 64.2868C66.9715 64.4064 66.9715 64.526 66.9715 64.6455C66.9715 64.7651 66.9715 64.8847 66.9715 65.0042C66.9715 65.1238 66.9715 65.2433 66.9715 65.3629C66.9715 65.4825 66.9715 65.602 66.9715 65.7216C66.9715 65.8412 66.9715 65.9607 66.9715 66.0803C66.9715 66.1999 66.9715 66.3194 66.9715 66.439C66.9715 66.5586 66.9715 66.6781 66.9715 66.7977C66.9715 66.9173 66.9715 67.0368 66.9715 67.1564C66.9715 67.276 66.9715 67.3955 66.9715 67.5151C66.9715 67.6346 66.9715 67.7542 66.9715 67.8738C66.9715 67.9933 66.9715 68.1129 66.9715 68.2325C66.9715 68.352 66.9715 68.4716 66.9715 68.5912C66.9715 68.7107 66.9715 68.8303 66.9715 68.9499C66.8893 73.299 69.8784 77.6631 75.9463 81.1529C75.8641 81.6686 75.8342 82.1767 75.8491 82.6923C75.8491 82.8119 75.8491 82.9315 75.8491 83.051C75.8491 83.1706 75.8491 83.2902 75.8491 83.4097C75.8491 83.5293 75.8491 83.6489 75.8491 83.7684C75.8491 83.888 75.8491 84.0075 75.8491 84.1271C75.8491 84.2467 75.8491 84.3662 75.8491 84.4858C75.8491 84.6054 75.8491 84.7249 75.8491 84.8445C75.8491 84.9641 75.8491 85.0836 75.8491 85.2032C75.8491 85.3228 75.8491 85.4423 75.8491 85.5619C75.8491 85.6815 75.8491 85.801 75.8491 85.9206C75.8491 86.0401 75.8491 86.1597 75.8491 86.2793C75.8491 86.3988 75.8491 86.5184 75.8491 86.638C75.8491 86.7575 75.8491 86.8771 75.8491 86.9967C75.8491 87.1162 75.8491 87.2358 75.8491 87.3554C75.8491 87.4749 75.8491 87.5945 75.8491 87.7141C75.8491 87.8336 75.8491 87.9532 75.8491 88.0727C75.8491 88.1923 75.8491 88.3119 75.8491 88.4314C75.8491 88.551 75.8491 88.6706 75.8491 88.7901C75.8491 88.9097 75.8491 89.0293 75.8491 89.1488C75.8491 89.2684 75.8491 89.388 75.8491 89.5075C75.8491 89.6271 75.8491 89.7467 75.8491 89.8662C75.7968 94.1332 79.0176 98.4151 85.5339 101.673C98.4469 108.13 119.401 108.13 132.314 101.673L192.089 71.7821C197.925 68.8677 200.787 65.0266 200.697 61.208C200.697 61.0885 200.697 60.9689 200.697 60.8493C200.697 60.7298 200.697 60.6102 200.697 60.4907C200.697 60.3711 200.697 60.2515 200.697 60.132C200.697 60.0124 200.697 59.8928 200.697 59.7733C200.697 59.6537 200.697 59.5341 200.697 59.4146C200.697 59.295 200.697 59.1754 200.697 59.0559C200.697 58.9363 200.697 58.8167 200.697 58.6972C200.697 58.5776 200.697 58.4581 200.697 58.3385C200.697 58.2189 200.697 58.0994 200.697 57.9798C200.697 57.8602 200.697 57.7407 200.697 57.6211C200.697 57.5015 200.697 57.382 200.697 57.2624C200.697 57.1428 200.697 57.0233 200.697 56.9037C200.697 56.7841 200.697 56.6646 200.697 56.545C200.697 56.4254 200.697 56.3059 200.697 56.1863C200.697 56.0668 200.697 55.9472 200.697 55.8276C200.697 55.7081 200.697 55.5885 200.697 55.4689C200.697 55.3494 200.697 55.2298 200.697 55.1102C200.697 54.9907 200.697 54.8711 200.697 54.7515C200.697 54.632 200.697 54.5124 200.697 54.3928C200.697 54.2733 200.697 54.1537 200.697 54.0342C200.787 50.1558 197.925 46.3222 192.089 43.4078Z" fill="#EBEEFD"/>
    <path fill-rule="evenodd" clip-rule="evenodd" d="M113.848 113.652L44.7997 102.107L21.7311 67.5975C20.9465 66.4243 17.9648 66.0656 16.2237 66.9399L1.93568 74.0764C0.575632 74.7564 -0.0969201 75.6905 0.0226447 76.6246C0.0151719 76.7442 0.00769907 76.8638 0.0226447 76.9833C0.0151719 77.1029 0.00769907 77.2225 0.0226447 77.342C0.0151719 77.4616 0.00769907 77.5812 0.0226447 77.7007C0.0151719 77.8203 0.00769907 77.9399 0.0226447 78.0594C0.0151719 78.179 0.00769907 78.2985 0.0226447 78.4181C0.0151719 78.5377 0.00769907 78.6572 0.0226447 78.7768C0.0151719 78.8964 0.00769907 79.0159 0.0226447 79.1355C0.0151719 79.2551 0.00769907 79.3746 0.0226447 79.4942C0.0151719 79.6138 0.00769907 79.7333 0.0226447 79.8529C0.0151719 79.9725 0.00769907 80.092 0.0226447 80.2116C0.0151719 80.3311 0.00769907 80.4507 0.0226447 80.5703C0.0151719 80.6898 0.00769907 80.8094 0.0226447 80.929C0.0151719 81.0485 0.00769907 81.1681 0.0226447 81.2877C0.0151719 81.4072 0.00769907 81.5268 0.0226447 81.6464C0.0151719 81.7659 0.00769907 81.8855 0.0226447 82.0051C0.0151719 82.1246 0.00769907 82.2442 0.0226447 82.3637C0.0151719 82.4833 0.00769907 82.6029 0.0226447 82.7224C0.0151719 82.842 0.00769907 82.9616 0.0226447 83.0811C0.0151719 83.2007 0.00769907 83.3203 0.0226447 83.4398C0.0151719 83.5594 0.00769907 83.679 0.0226447 83.7985C-0.0147193 84.2021 0.0824271 84.6056 0.343975 85.0017L18.5627 112.247L23.3004 119.332C23.6292 119.832 24.4139 120.221 25.4077 120.385L39.5612 122.754L55.3214 125.385L94.1052 131.864C96.4965 132.26 99.1194 131.953 100.898 131.064L115.164 123.927C115.926 123.546 116.217 123.046 116.113 122.575C116.135 122.455 116.142 122.336 116.113 122.216C116.135 122.097 116.142 121.977 116.113 121.857C116.135 121.738 116.142 121.618 116.113 121.499C116.135 121.379 116.142 121.26 116.113 121.14C116.135 121.021 116.142 120.901 116.113 120.781C116.135 120.662 116.142 120.542 116.113 120.423C116.135 120.303 116.142 120.184 116.113 120.064C116.135 119.944 116.142 119.825 116.113 119.705C116.135 119.586 116.142 119.466 116.113 119.347C116.135 119.227 116.142 119.108 116.113 118.988C116.135 118.868 116.142 118.749 116.113 118.629C116.135 118.51 116.142 118.39 116.113 118.271C116.135 118.151 116.142 118.031 116.113 117.912C116.135 117.792 116.142 117.673 116.113 117.553C116.135 117.434 116.142 117.314 116.113 117.194C116.135 117.075 116.142 116.955 116.113 116.836C116.135 116.716 116.142 116.597 116.113 116.477C116.135 116.358 116.142 116.238 116.113 116.118C116.135 115.999 116.142 115.879 116.113 115.76C116.135 115.64 116.142 115.521 116.113 115.401C116.262 114.676 115.425 113.921 113.848 113.652Z" fill="#EBEEFD"/>
    <path d="M155.083 41.5396C154.015 40.3365 152.483 39.2006 150.502 38.2068C141.894 33.9024 127.92 33.9024 119.311 38.2068C116.113 39.8059 114.095 41.7862 113.288 43.8487C100.988 42.1972 87.3647 43.7815 77.7323 48.6014C63.3696 55.7828 63.3696 67.4105 77.7323 74.5918C78.1732 74.8085 78.629 75.0252 79.0774 75.2345C73.1814 81.3846 75.326 88.9844 85.5264 94.0884C98.4394 100.545 119.393 100.545 132.306 94.0884L192.081 64.1972C203.567 58.458 203.567 49.1469 192.081 43.4078C182.038 38.3786 166.487 37.7509 155.083 41.5396Z" fill="#D8DCFC"/>
    <path fill-rule="evenodd" clip-rule="evenodd" d="M223.616 11.6634C224.61 11.8278 225.395 12.2239 225.724 12.7171L230.461 19.8013L248.68 47.0397C249.48 48.2353 248.859 49.5505 247.088 50.4323L232.8 57.5763C231.059 58.4506 228.078 58.0919 227.293 56.9187L204.232 22.4093L135.183 10.8638C132.837 10.4678 132.127 8.98069 133.868 8.10637L148.134 0.969852C149.905 0.0805887 152.535 -0.225796 154.926 0.170262L193.71 6.64918L209.47 9.2796L223.616 11.6634Z" fill="#D8DCFC"/>
    <path fill-rule="evenodd" clip-rule="evenodd" d="M25.4152 112.86C24.4213 112.696 23.6367 112.3 23.3079 111.806L18.5701 104.722L0.343981 77.4763C-0.455608 76.2807 0.164634 74.9654 1.93569 74.0836L16.2237 66.9396C17.9648 66.0653 20.9465 66.424 21.7311 67.5973L44.7997 102.114L113.848 113.66C116.195 114.056 116.905 115.543 115.164 116.417L100.898 123.554C99.1269 124.443 96.4965 124.749 94.1052 124.353L55.3214 117.874L39.5612 115.244L25.4152 112.86Z" fill="#D8DCFC"/>
</svg>
