<svg width="90" height="90" viewBox="0 0 90 90" fill="none" xmlns="http://www.w3.org/2000/svg">
    <circle cx="45" cy="45" r="45" fill="#6274F3"/>
    <path fill-rule="evenodd" clip-rule="evenodd" d="M20.4148 45.2537C20.3322 45.0927 20.3322 44.9027 20.4148 44.7416L21.589 42.448L26.1046 33.6307C26.3025 33.2441 26.7066 33 27.1485 33L30.7057 33C31.1399 33 31.4221 33.4475 31.2275 33.8275L25.5052 44.9977L31.2277 56.1725C31.4223 56.5526 31.1401 57 30.7058 57L27.153 57C26.7112 57 26.3073 56.756 26.1092 56.3694L22.8944 50.0937L21.5879 47.544L20.4148 45.2537Z" fill="white"/>
    <path fill-rule="evenodd" clip-rule="evenodd" d="M45.6066 69.9381C45.4455 70.0206 45.2556 70.0206 45.0945 69.9381L42.8009 68.7638L33.9836 64.2482C33.597 64.0503 33.3529 63.6462 33.3529 63.2044L33.3529 59.6472C33.3529 59.2129 33.8004 58.9307 34.1804 59.1254L45.3506 64.8477L56.5253 59.1251C56.9054 58.9306 57.3529 59.2128 57.3529 59.647L57.3529 63.1998C57.3529 63.6417 57.1089 64.0455 56.7222 64.2437L50.4466 67.4584L47.8969 68.765L45.6066 69.9381Z" fill="white"/>
    <path fill-rule="evenodd" clip-rule="evenodd" d="M70.2909 44.7463C70.3735 44.9073 70.3735 45.0973 70.2909 45.2584L69.1167 47.552L64.6011 56.3693C64.4032 56.7559 63.9991 57 63.5572 57L60 57C59.5658 57 59.2836 56.5525 59.4782 56.1725L65.2005 45.0023L59.478 33.8275C59.2835 33.4474 59.5657 33 59.9999 33L63.5527 33C63.9945 33 64.3984 33.244 64.5965 33.6306L67.8113 39.9063L69.1179 42.456L70.2909 44.7463Z" fill="white"/>
    <path fill-rule="evenodd" clip-rule="evenodd" d="M45.0992 20.0619C45.2602 19.9794 45.4502 19.9794 45.6113 20.0619L47.9049 21.2362L56.7222 25.7518C57.1088 25.9497 57.3529 26.3538 57.3529 26.7956V30.3528C57.3529 30.7871 56.9054 31.0693 56.5254 30.8746L45.3552 25.1523L34.1805 30.8749C33.8003 31.0694 33.3529 30.7872 33.3529 30.353V26.8002C33.3529 26.3583 33.5969 25.9545 33.9835 25.7563L40.2592 22.5416L42.8089 21.235L45.0992 20.0619Z" fill="white"/>
    <path fill-rule="evenodd" clip-rule="evenodd" d="M45.3529 52.8125C41.2108 52.8125 37.8529 49.3147 37.8529 45C37.8529 40.6853 41.2108 37.1875 45.3529 37.1875C49.495 37.1875 52.8529 40.6853 52.8529 45C52.8529 49.3147 49.495 52.8125 45.3529 52.8125ZM45.3529 32.5C38.7255 32.5 33.3529 38.0964 33.3529 45C33.3529 51.9036 38.7255 57.5 45.3529 57.5C51.9803 57.5 57.3529 51.9036 57.3529 45C57.3529 38.0964 51.9803 32.5 45.3529 32.5Z" fill="white"/>
</svg>
