<svg width="50" height="50" viewBox="0 0 50 50" fill="none" xmlns="http://www.w3.org/2000/svg">
    <path fill-rule="evenodd" clip-rule="evenodd" d="M10.8756 25.2537C10.9581 25.0927 10.9581 24.9027 10.8756 24.7416L9.70133 22.448L5.18573 13.6307C4.98782 13.2441 4.58371 13 4.14189 13L0.58466 13C0.150427 13 -0.131784 13.4475 0.0628558 13.8275L5.78518 24.9977L0.0626212 36.1725C-0.131902 36.5526 0.150309 37 0.584541 37L4.13733 37C4.57916 37 4.98303 36.756 5.18117 36.3694L8.39594 30.0937L9.70249 27.544L10.8756 25.2537Z" fill="#F0486F"/>
    <path fill-rule="evenodd" clip-rule="evenodd" d="M25.2537 39.1244C25.0927 39.0419 24.9027 39.0419 24.7416 39.1244L22.448 40.2987L13.6307 44.8143C13.2441 45.0122 13 45.4163 13 45.8581L13 49.4153C13 49.8496 13.4475 50.1318 13.8275 49.9371L24.9977 44.2148L36.1725 49.9374C36.5526 50.1319 37 49.8497 37 49.4155L37 45.8627C37 45.4208 36.756 45.017 36.3694 44.8188L30.0937 41.6041L27.544 40.2975L25.2537 39.1244Z" fill="#F0486F"/>
    <path fill-rule="evenodd" clip-rule="evenodd" d="M39.1244 25.2537C39.0419 25.0927 39.0419 24.9027 39.1244 24.7416L40.2987 22.448L44.8143 13.6307C45.0122 13.2441 45.4163 13 45.8581 13L49.4153 13C49.8496 13 50.1318 13.4475 49.9371 13.8275L44.2148 24.9977L49.9374 36.1725C50.1319 36.5526 49.8497 37 49.4155 37L45.8627 37C45.4208 37 45.017 36.756 44.8188 36.3694L41.6041 30.0937L40.2975 27.544L39.1244 25.2537Z" fill="#F0486F"/>
    <path fill-rule="evenodd" clip-rule="evenodd" d="M24.7463 10.8756C24.9074 10.9581 25.0973 10.9581 25.2585 10.8756L27.5521 9.70133L36.3693 5.18573C36.7559 4.98782 37.0001 4.58371 37.0001 4.14189V0.584659C37.0001 0.150426 36.5525 -0.131785 36.1725 0.0628548L25.0023 5.78518L13.8276 0.0626211C13.4475 -0.131902 13.0001 0.150309 13.0001 0.584541V4.13733C13.0001 4.57916 13.2441 4.98303 13.6307 5.18117L19.9063 8.39594L22.4561 9.70249L24.7463 10.8756Z" fill="#F0486F"/>
    <path fill-rule="evenodd" clip-rule="evenodd" d="M25.0001 32.8125C20.858 32.8125 17.5001 29.3147 17.5001 25C17.5001 20.6853 20.858 17.1875 25.0001 17.1875C29.1421 17.1875 32.5001 20.6853 32.5001 25C32.5001 29.3147 29.1421 32.8125 25.0001 32.8125ZM25 12.5C18.3726 12.5 13 18.0964 13 25C13 31.9036 18.3726 37.5 25 37.5C31.6275 37.5 37 31.9036 37 25C37 18.0964 31.6275 12.5 25 12.5Z" fill="#F0486F"/>
</svg>
