<svg width="53" height="53" viewBox="0 0 53 53" fill="none" xmlns="http://www.w3.org/2000/svg">
    <path fill-rule="evenodd" clip-rule="evenodd" d="M16.3549 36.3298C16.2994 36.1576 16.1651 36.0233 15.9928 35.9677L13.5406 35.1762L4.11287 32.1345C3.69954 32.001 3.24117 32.1142 2.92876 32.4266L0.413419 34.9419C0.10637 35.249 0.223276 35.765 0.629608 35.8961L12.5744 39.7483L16.4297 51.6965C16.5609 52.1028 17.0768 52.2196 17.3839 51.9126L19.8961 49.4004C20.2085 49.0879 20.3216 48.6298 20.1883 48.2163L18.0239 41.5056L17.1449 38.7788L16.3549 36.3298Z" fill="#54CCA4"/>
    <path fill-rule="evenodd" clip-rule="evenodd" d="M36.3298 35.971C36.1576 36.0265 36.0233 36.1608 35.9677 36.3331L35.1762 38.7853L32.1345 48.213C32.001 48.6264 32.1142 49.0847 32.4266 49.3971L34.9419 51.9125C35.249 52.2195 35.765 52.1026 35.8961 51.6963L39.7483 39.7515L51.6965 35.8962C52.1028 35.765 52.2196 35.249 51.9126 34.942L49.4004 32.4298C49.0879 32.1174 48.6298 32.0043 48.2163 32.1376L41.5056 34.302L38.7788 35.181L36.3298 35.971Z" fill="#54CCA4"/>
    <path fill-rule="evenodd" clip-rule="evenodd" d="M36.3298 16.3549C36.1576 16.2994 36.0233 16.1651 35.9677 15.9928L35.1762 13.5407L32.1345 4.11291C32.001 3.69958 32.1142 3.24122 32.4266 2.9288L34.9419 0.413459C35.249 0.10641 35.765 0.223317 35.8961 0.629648L39.7483 12.5744L51.6965 16.4297C52.1028 16.561 52.2196 17.0769 51.9126 17.3839L49.4004 19.8961C49.0879 20.2086 48.6298 20.3216 48.2163 20.1883L41.5056 18.024L38.7788 17.1449L36.3298 16.3549Z" fill="#54CCA4"/>
    <path fill-rule="evenodd" clip-rule="evenodd" d="M15.9961 16.3549C16.1684 16.2994 16.3027 16.1651 16.3582 15.9928L17.1497 13.5407L20.1915 4.11291C20.3249 3.69958 20.2118 3.24122 19.8994 2.9288L17.384 0.413465C17.077 0.106416 16.561 0.223322 16.4299 0.629654L12.5777 12.5744L0.629485 16.4297C0.223155 16.561 0.106328 17.0769 0.413377 17.3839L2.92558 19.8961C3.238 20.2086 3.69611 20.3216 4.10961 20.1883L10.8204 18.024L13.5471 17.1449L15.9961 16.3549Z" fill="#54CCA4"/>
    <path fill-rule="evenodd" clip-rule="evenodd" d="M26.163 33.9756C22.0209 33.9756 18.663 30.4777 18.663 26.1631C18.663 21.8484 22.0209 18.3506 26.163 18.3506C30.3051 18.3506 33.663 21.8484 33.663 26.1631C33.663 30.4777 30.3051 33.9756 26.163 33.9756ZM26.163 13.6631C19.5356 13.6631 14.163 19.2595 14.163 26.1631C14.163 33.0667 19.5356 38.6631 26.163 38.6631C32.7904 38.6631 38.163 33.0667 38.163 26.1631C38.163 19.2595 32.7904 13.6631 26.163 13.6631Z" fill="#54CCA4"/>
</svg>
