<?xml version="1.0" encoding="utf-8"?>
<svg version="1.1" id="Layer_1" xmlns="http://www.w3.org/2000/svg" xmlns:xlink="http://www.w3.org/1999/xlink" x="0px" y="0px"
     width="825.4px" height="596.2px" viewBox="0 0 825.4 596.2" enable-background="new 0 0 825.4 596.2" xml:space="preserve">
<g>
	<g>
		<polyline fill="none" stroke="#6274F3" stroke-miterlimit="10" points="102.9,172.9 103.3,172.7 105.5,171.5 108.2,172.9 		"/>
        <polyline fill="none" stroke="#6274F3" stroke-miterlimit="10" stroke-dasharray="5.8687,5.8687" points="113.5,175.5
			127.9,182.8 150.2,194 205.2,221.6 		"/>
        <path fill="none" stroke="#6274F3" stroke-miterlimit="10" d="M207.8,222.9l2.7,1.3c0,0,0,1.1,0,3"/>

        <line fill="none" stroke="#6274F3" stroke-miterlimit="10" stroke-dasharray="5.5,5.5" x1="210.5" y1="232.8" x2="210.5" y2="263"/>
        <path fill="none" stroke="#6274F3" stroke-miterlimit="10" d="M210.5,265.8v3c0,0-1.1-0.6-2.7-1.3"/>

        <line fill="none" stroke="#6274F3" stroke-miterlimit="10" stroke-dasharray="5.8581,5.8581" x1="202.6" y1="264.9" x2="110.9" y2="218.9"/>
        <polyline fill="none" stroke="#6274F3" stroke-miterlimit="10" points="108.3,217.6 105.6,216.3 102.9,217.6 		"/>
        <path fill="none" stroke="#6274F3" stroke-miterlimit="10" stroke-dasharray="5.8676,5.8676" d="M97.7,220.3l-90,45
			c-0.6,0.3-1.2,0.6-1.9,0.9"/>
        <path fill="none" stroke="#6274F3" stroke-miterlimit="10" d="M3.2,267.5c-1.6,0.8-2.7,1.3-2.7,1.3v-3"/>
        <line fill="none" stroke="#6274F3" stroke-miterlimit="10" stroke-dasharray="5.5,5.5" x1="0.5" y1="260.3" x2="0.5" y2="230"/>
        <path fill="none" stroke="#6274F3" stroke-miterlimit="10" d="M0.5,227.3v-3c0,0,1-0.5,2.7-1.4"/>
        <polyline fill="none" stroke="#6274F3" stroke-miterlimit="10" stroke-dasharray="5.8687,5.8687" points="8.4,220.3 60.9,194
			83.2,182.8 100.2,174.2 		"/>
	</g>
</g>
    <path fill="none" stroke="#6274F3" stroke-miterlimit="10" d="M107.7,594.4l-2.2,1.2l-22.4-11.2l-22.3-11.2L0.5,542.9c0,0,0-2.3,0-6
	v-38.5c0,0,3.9,1.9,7.2,3.5l97.7,49l97.9-49c3.3-1.6,7.2-3.5,7.2-3.5v44.5c0,0-2.1,1.1-5.5,2.8l-54.9,27.5l-22.3,11.2L107.7,594.4z"
    />
    <path fill="none" stroke="#6274F3" stroke-miterlimit="10" d="M105.5,278.5c-58,0-105,47-105,105c0,58,47,105,105,105
	s105-47,105-105C210.5,325.5,163.5,278.5,105.5,278.5z M105.5,448.5c-35.9,0-65-29.1-65-65s29.1-65,65-65s65,29.1,65,65
	S141.4,448.5,105.5,448.5z"/>
    <g>
	<path fill="none" stroke="#6274F3" stroke-miterlimit="10" d="M137.9,232.5c-6.2,8.7-11.6,18.1-16,27.9"/>
        <path fill="none" stroke="#6274F3" stroke-miterlimit="10" d="M675,188.4c-0.2,0-0.3,0-0.4,0C668,83.5,580.8,0.5,474.2,0.5
		c-98.3,0-180.1,70.7-197.4,163.9c-2.2-0.1-4.6-0.2-6.8-0.2c-39.6,0-75.8,14.2-103.9,37.7"/>
        <g>
		<g>
			<path fill="none" stroke="#6274F3" stroke-linecap="round" stroke-miterlimit="10" d="M185.5,488.5c1,0,2,0,3,0"/>
            <path fill="none" stroke="#6274F3" stroke-linecap="round" stroke-miterlimit="10" stroke-dasharray="6.005,6.005" d="
				M194.5,488.5c144.5,0,480.4,0,480.4,0c82.9,0,150-67.2,150-150c0-80.8-63.8-146.8-143.9-150"/>
            <path fill="none" stroke="#6274F3" stroke-linecap="round" stroke-miterlimit="10" d="M678,188.4c-1,0-2,0-3,0"/>
            <g>
				<path fill="#6274F3" d="M185.7,492.3c-2.1,0-3.8-1.7-3.8-3.8s1.7-3.8,3.8-3.8s3.8,1.7,3.8,3.8S187.7,492.3,185.7,492.3z"/>
			</g>
		</g>
	</g>
</g>
    <g>
	<g>
		<g>
			<path fill="none" stroke="#6274F3" stroke-linecap="round" stroke-miterlimit="10" d="M544.7,67.5c-0.9-0.5-1.7-1-2.6-1.5"/>
            <path fill="none" stroke="#6274F3" stroke-linecap="round" stroke-miterlimit="10" stroke-dasharray="5.9787,5.9787" d="
				M536.8,63.3c-19-9.4-40.4-14.8-63.1-14.8c-78.4,0-142,63.6-142,142c0,36.2,13.5,69.2,35.8,94.3"/>
            <path fill="none" stroke="#6274F3" stroke-linecap="round" stroke-miterlimit="10" d="M369.5,287.1c0.7,0.7,1.4,1.5,2.1,2.2"/>
            <g>
				<path fill="#6274F3" d="M355.2,285.9c0.1-0.5,0.7-0.9,1.2-0.7l14.9,3.7l-3-15c-0.1-0.5,0.2-1.1,0.8-1.2c0.5-0.1,1.1,0.3,1.2,0.8
					l3.3,16.6c0.1,0.3,0,0.7-0.3,0.9c-0.2,0.2-0.6,0.3-0.9,0.2l-16.4-4c-0.2,0-0.4-0.1-0.5-0.3C355.2,286.6,355.1,286.3,355.2,285.9
					z"/>
			</g>
		</g>
	</g>
        <g>
		<g>
			<path fill="none" stroke="#6274F3" stroke-linecap="round" stroke-miterlimit="10" d="M402.6,313.5c20.9,12.1,45.1,19,71,19
				c78.4,0,142-63.6,142-142c0-38.4-15.2-73.2-39.9-98.7"/>
            <g>
				<path fill="#6274F3" d="M592.1,95.1c-0.1,0.5-0.7,0.9-1.2,0.7L576,92.1l3,15c0.1,0.5-0.2,1.1-0.8,1.2s-1.1-0.3-1.2-0.8
					l-3.3-16.6c-0.1-0.3,0-0.7,0.3-0.9c0.2-0.2,0.6-0.3,0.9-0.2l16.4,4c0.2,0,0.4,0.1,0.5,0.3C592.1,94.4,592.2,94.8,592.1,95.1z"/>
			</g>
		</g>
	</g>
</g>
    <g>
	<polyline fill="none" stroke="#6274F3" stroke-linecap="round" stroke-miterlimit="10" points="454.9,169.5 433.8,190.5
		454.9,211.6 	"/>
        <polyline fill="none" stroke="#6274F3" stroke-linecap="round" stroke-miterlimit="10" points="492.4,211.6 513.5,190.5
		492.4,169.5 	"/>
        <line fill="none" stroke="#6274F3" stroke-linecap="round" stroke-miterlimit="10" x1="463.7" y1="215.9" x2="483.8" y2="165.2"/>
</g>
</svg>
