<svg width="112" height="32" viewBox="0 0 112 32" fill="none" xmlns="http://www.w3.org/2000/svg">
<path d="M55.126 21.718L60.112 5.68H61.804L56.818 21.718H55.126ZM71.7759 13.528H66.0879V19H64.0539V6.436H66.0879V11.728H71.7759V6.436H73.8099V19H71.7759V13.528ZM82.5015 9.64H84.3915L80.4495 20.854C80.3415 21.166 80.2155 21.43 80.0715 21.646C79.9395 21.874 79.7775 22.054 79.5855 22.186C79.4055 22.33 79.1835 22.432 78.9195 22.492C78.6555 22.564 78.3435 22.6 77.9835 22.6H76.8495V20.998H78.4335L78.9735 19.414L75.5715 9.64H77.5335L79.4055 15.148L79.9455 17.182H80.0355L80.6295 15.148L82.5015 9.64ZM91.7861 17.452H91.6961C91.4921 18.004 91.1561 18.436 90.6881 18.748C90.2321 19.06 89.6921 19.216 89.0681 19.216C87.8801 19.216 86.9621 18.79 86.3141 17.938C85.6661 17.074 85.3421 15.868 85.3421 14.32C85.3421 12.772 85.6661 11.572 86.3141 10.72C86.9621 9.856 87.8801 9.424 89.0681 9.424C89.6921 9.424 90.2321 9.58 90.6881 9.892C91.1561 10.192 91.4921 10.624 91.6961 11.188H91.7861V5.68H93.7481V19H91.7861V17.452ZM89.6621 17.524C90.2621 17.524 90.7661 17.38 91.1741 17.092C91.5821 16.792 91.7861 16.402 91.7861 15.922V12.718C91.7861 12.238 91.5821 11.854 91.1741 11.566C90.7661 11.266 90.2621 11.116 89.6621 11.116C88.9781 11.116 88.4321 11.338 88.0241 11.782C87.6161 12.214 87.4121 12.79 87.4121 13.51V15.13C87.4121 15.85 87.6161 16.432 88.0241 16.876C88.4321 17.308 88.9781 17.524 89.6621 17.524ZM96.5524 19V9.64H98.5144V11.44H98.6044C98.7364 10.96 99.0124 10.54 99.4324 10.18C99.8524 9.82 100.434 9.64 101.178 9.64H101.7V11.53H100.926C100.146 11.53 99.5464 11.656 99.1264 11.908C98.7184 12.16 98.5144 12.532 98.5144 13.024V19H96.5524ZM110.16 19C109.644 19 109.248 18.856 108.972 18.568C108.696 18.268 108.528 17.89 108.468 17.434H108.378C108.198 18.022 107.868 18.466 107.388 18.766C106.908 19.066 106.326 19.216 105.642 19.216C104.67 19.216 103.92 18.964 103.392 18.46C102.876 17.956 102.618 17.278 102.618 16.426C102.618 15.49 102.954 14.788 103.626 14.32C104.31 13.852 105.306 13.618 106.614 13.618H108.306V12.826C108.306 12.25 108.15 11.806 107.838 11.494C107.526 11.182 107.04 11.026 106.38 11.026C105.828 11.026 105.378 11.146 105.03 11.386C104.682 11.626 104.388 11.932 104.148 12.304L102.978 11.242C103.29 10.714 103.728 10.282 104.292 9.946C104.856 9.598 105.594 9.424 106.506 9.424C107.718 9.424 108.648 9.706 109.296 10.27C109.944 10.834 110.268 11.644 110.268 12.7V17.398H111.258V19H110.16ZM106.2 17.722C106.812 17.722 107.316 17.59 107.712 17.326C108.108 17.05 108.306 16.684 108.306 16.228V14.878H106.65C105.294 14.878 104.616 15.298 104.616 16.138V16.462C104.616 16.882 104.754 17.2 105.03 17.416C105.318 17.62 105.708 17.722 106.2 17.722Z" fill="#DB2B56"/>
<path d="M54.7918 7.01817L48.7345 19.1167C48.6304 19.3252 48.5691 19.454 48.5691 19.454H45.813C45.813 19.454 45.9477 19.2149 46.0457 19.0125L49.0468 13.0215L45.813 6.57666C45.813 6.57666 46.0947 6.57666 46.3213 6.57666H48.5691C48.5691 6.57666 48.6242 6.70543 48.7284 6.91392L50.4127 10.2804L52.1031 6.91392C52.2072 6.70543 52.26 6.57666 52.26 6.57666H55.0001C55.0001 6.57666 54.8898 6.81581 54.7918 7.01817Z" fill="#DB2B56"/>
<path d="M39.6516 14.4012C41.3236 13.9413 42.5547 12.4083 42.567 10.5932C42.567 10.5809 42.567 10.5748 42.567 10.5625C42.567 10.5502 42.567 10.5441 42.567 10.5318C42.5486 8.3427 40.7724 6.57666 38.5859 6.57666L33.3799 6.57666V8.89635C33.3799 8.89635 33.3983 8.93137 33.4228 8.98043L34.6171 10.9182L35.3398 12.0894H33.6922H33.386V19.1413C33.386 19.313 33.386 19.454 33.386 19.454H35.8359C35.8359 19.454 35.8359 19.313 35.8359 19.1413V14.5422H36.8648L39.7128 19.1597L39.8782 19.4479H42.7568C42.7568 19.4479 42.6098 19.1842 42.4873 18.9818L39.6516 14.4012ZM38.592 12.0955H38.2307L38.2 12.0465L37.0915 10.2498L36.3381 9.02949H38.592C39.4372 9.02949 40.1232 9.71628 40.1232 10.5625C40.1232 11.4087 39.4372 12.0955 38.592 12.0955Z" fill="#DB2B56"/>
<path d="M23.8865 6.57666C20.3342 6.57666 17.4556 9.45873 17.4556 13.0153C17.4556 16.5719 20.3342 19.454 23.8865 19.454C27.4389 19.454 30.3175 16.5719 30.3175 13.0153C30.3175 9.45873 27.4389 6.57666 23.8865 6.57666ZM23.8865 17.0012C21.6877 17.0012 19.9055 15.2167 19.9055 13.0153C19.9055 10.8139 21.6877 9.02949 23.8865 9.02949C26.0853 9.02949 27.8676 10.8139 27.8676 13.0153C27.8676 15.2167 26.0853 17.0012 23.8865 17.0012Z" fill="#DB2B56"/>
<path d="M6.29621 0.0705134L6.43096 -4.18741e-06L7.8029 0.689853L9.16871 1.37665L12.8619 3.23467C12.8619 3.23467 12.8619 3.3757 12.8619 3.60259L12.8619 5.96344C12.8619 5.96344 12.6231 5.84693 12.4209 5.74882L6.43708 2.7441L0.44098 5.74882C0.238864 5.84693 0 5.96344 0 5.96344L-1.19135e-07 3.23467C-1.19135e-07 3.23467 0.128619 3.16721 0.33686 3.06297L3.69933 1.37665L5.06514 0.689853L6.29621 0.0705134Z" fill="#DB2B56"/>
<path d="M6.5656 25.9295L6.43086 26L5.05892 25.3102L3.69311 24.6234L-9.95769e-05 22.7653C-9.95769e-05 22.7653 -9.95708e-05 22.6243 -9.95609e-05 22.3974L-9.94578e-05 20.0366C-9.94578e-05 20.0366 0.238765 20.1531 0.44088 20.2512L6.42473 23.2559L12.4208 20.2512C12.623 20.1531 12.8618 20.0366 12.8618 20.0366L12.8618 22.7653C12.8618 22.7653 12.7332 22.8328 12.525 22.937L9.16248 24.6234L7.79667 25.3102L6.5656 25.9295Z" fill="#DB2B56"/>
<path d="M6.43096 6.56131C2.87862 6.56131 0 9.44338 0 13C0 16.5566 2.87862 19.4387 6.43096 19.4387C9.9833 19.4387 12.8619 16.5566 12.8619 13C12.8619 9.44338 9.9833 6.56131 6.43096 6.56131ZM6.43096 16.9858C4.23218 16.9858 2.44989 15.2014 2.44989 13C2.44989 10.7986 4.23218 9.01414 6.43096 9.01414C8.62973 9.01414 10.412 10.7986 10.412 13C10.412 15.2014 8.62973 16.9858 6.43096 16.9858Z" fill="#DB2B56"/>
</svg>
