<svg width="101" height="32" viewBox="0 0 101 32" fill="none" xmlns="http://www.w3.org/2000/svg">
<path d="M55.126 21.718L60.112 5.68H61.804L56.818 21.718H55.126ZM67.8159 13.132L66.0879 15.112V19H64.0539V6.436H66.0879V12.808H66.1599L67.9599 10.522L71.3439 6.436H73.7199L69.2379 11.728L74.0799 19H71.6319L67.8159 13.132ZM79.0076 19.216C78.3356 19.216 77.7356 19.102 77.2076 18.874C76.6796 18.646 76.2296 18.322 75.8576 17.902C75.4856 17.47 75.1976 16.954 74.9936 16.354C74.8016 15.742 74.7056 15.064 74.7056 14.32C74.7056 13.576 74.8016 12.904 74.9936 12.304C75.1976 11.692 75.4856 11.176 75.8576 10.756C76.2296 10.324 76.6796 9.994 77.2076 9.766C77.7356 9.538 78.3356 9.424 79.0076 9.424C79.6916 9.424 80.2916 9.544 80.8076 9.784C81.3356 10.024 81.7736 10.36 82.1216 10.792C82.4696 11.212 82.7276 11.704 82.8956 12.268C83.0756 12.832 83.1656 13.438 83.1656 14.086V14.824H76.7396V15.13C76.7396 15.85 76.9496 16.444 77.3696 16.912C77.8016 17.368 78.4136 17.596 79.2056 17.596C79.7816 17.596 80.2676 17.47 80.6636 17.218C81.0596 16.966 81.3956 16.624 81.6716 16.192L82.8236 17.326C82.4756 17.902 81.9716 18.364 81.3116 18.712C80.6516 19.048 79.8836 19.216 79.0076 19.216ZM79.0076 10.954C78.6716 10.954 78.3596 11.014 78.0716 11.134C77.7956 11.254 77.5556 11.422 77.3516 11.638C77.1596 11.854 77.0096 12.112 76.9016 12.412C76.7936 12.712 76.7396 13.042 76.7396 13.402V13.528H81.0956V13.348C81.0956 12.628 80.9096 12.052 80.5376 11.62C80.1656 11.176 79.6556 10.954 79.0076 10.954ZM87.9296 19C87.2456 19 86.7296 18.826 86.3816 18.478C86.0336 18.118 85.8596 17.614 85.8596 16.966V11.242H84.4016V9.64H85.1936C85.5176 9.64 85.7396 9.568 85.8596 9.424C85.9916 9.28 86.0576 9.046 86.0576 8.722V7.084H87.8216V9.64H89.7836V11.242H87.8216V17.398H89.6396V19H87.9296ZM95.5135 19.216C94.8655 19.216 94.2715 19.102 93.7315 18.874C93.2035 18.646 92.7535 18.322 92.3815 17.902C92.0095 17.47 91.7215 16.954 91.5175 16.354C91.3135 15.742 91.2115 15.064 91.2115 14.32C91.2115 13.576 91.3135 12.904 91.5175 12.304C91.7215 11.692 92.0095 11.176 92.3815 10.756C92.7535 10.324 93.2035 9.994 93.7315 9.766C94.2715 9.538 94.8655 9.424 95.5135 9.424C96.1615 9.424 96.7495 9.538 97.2775 9.766C97.8175 9.994 98.2735 10.324 98.6455 10.756C99.0175 11.176 99.3055 11.692 99.5095 12.304C99.7135 12.904 99.8155 13.576 99.8155 14.32C99.8155 15.064 99.7135 15.742 99.5095 16.354C99.3055 16.954 99.0175 17.47 98.6455 17.902C98.2735 18.322 97.8175 18.646 97.2775 18.874C96.7495 19.102 96.1615 19.216 95.5135 19.216ZM95.5135 17.596C96.1855 17.596 96.7255 17.392 97.1335 16.984C97.5415 16.564 97.7455 15.94 97.7455 15.112V13.528C97.7455 12.7 97.5415 12.082 97.1335 11.674C96.7255 11.254 96.1855 11.044 95.5135 11.044C94.8415 11.044 94.3015 11.254 93.8935 11.674C93.4855 12.082 93.2815 12.7 93.2815 13.528V15.112C93.2815 15.94 93.4855 16.564 93.8935 16.984C94.3015 17.392 94.8415 17.596 95.5135 17.596Z" fill="#00A571"/>
<path d="M54.7918 7.01816L48.7345 19.1167C48.6304 19.3252 48.5691 19.454 48.5691 19.454H45.813C45.813 19.454 45.9477 19.2148 46.0457 19.0125L49.0468 13.0215L45.813 6.57665C45.813 6.57665 46.0947 6.57665 46.3213 6.57665H48.5691C48.5691 6.57665 48.6242 6.70543 48.7284 6.91392L50.4127 10.2804L52.1031 6.91392C52.2072 6.70543 52.26 6.57665 52.26 6.57665H55.0001C55.0001 6.57665 54.8898 6.8158 54.7918 7.01816Z" fill="#00A571"/>
<path d="M39.6516 14.4012C41.3236 13.9413 42.5547 12.4082 42.567 10.5932C42.567 10.5809 42.567 10.5748 42.567 10.5625C42.567 10.5502 42.567 10.5441 42.567 10.5318C42.5486 8.34269 40.7724 6.57665 38.5859 6.57665L33.3799 6.57665V8.89634C33.3799 8.89634 33.3983 8.93137 33.4228 8.98042L34.6171 10.9182L35.3398 12.0894H33.6922H33.386V19.1413C33.386 19.313 33.386 19.454 33.386 19.454H35.8359C35.8359 19.454 35.8359 19.313 35.8359 19.1413V14.5422H36.8648L39.7128 19.1597L39.8782 19.4479H42.7568C42.7568 19.4479 42.6098 19.1842 42.4873 18.9818L39.6516 14.4012ZM38.592 12.0955H38.2307L38.2 12.0465L37.0915 10.2498L36.3381 9.02948H38.592C39.4372 9.02948 40.1232 9.71627 40.1232 10.5625C40.1232 11.4087 39.4372 12.0955 38.592 12.0955Z" fill="#00A571"/>
<path d="M23.8865 6.57665C20.3342 6.57665 17.4556 9.45872 17.4556 13.0153C17.4556 16.5719 20.3342 19.454 23.8865 19.454C27.4389 19.454 30.3175 16.5719 30.3175 13.0153C30.3175 9.45872 27.4389 6.57665 23.8865 6.57665ZM23.8865 17.0012C21.6877 17.0012 19.9055 15.2167 19.9055 13.0153C19.9055 10.8139 21.6877 9.02948 23.8865 9.02948C26.0853 9.02948 27.8676 10.8139 27.8676 13.0153C27.8676 15.2167 26.0853 17.0012 23.8865 17.0012Z" fill="#00A571"/>
<path d="M6.29621 0.0705286L6.43096 1.10714e-05L7.8029 0.689868L9.16871 1.37666L12.8619 3.23468C12.8619 3.23468 12.8619 3.37572 12.8619 3.60261L12.8619 5.96345C12.8619 5.96345 12.6231 5.84694 12.4209 5.74883L6.43708 2.74411L0.44098 5.74883C0.238864 5.84695 0 5.96346 0 5.96346L-1.19135e-07 3.23468C-1.19135e-07 3.23468 0.128619 3.16723 0.33686 3.06298L3.69933 1.37666L5.06514 0.689868L6.29621 0.0705286Z" fill="#00A571"/>
<path d="M6.5656 25.9295L6.43086 26L5.05892 25.3101L3.69311 24.6233L-9.95769e-05 22.7653C-9.95769e-05 22.7653 -9.95708e-05 22.6243 -9.95609e-05 22.3974L-9.94578e-05 20.0365C-9.94578e-05 20.0365 0.238765 20.1531 0.44088 20.2512L6.42473 23.2559L12.4208 20.2512C12.623 20.1531 12.8618 20.0365 12.8618 20.0365L12.8618 22.7653C12.8618 22.7653 12.7332 22.8328 12.525 22.937L9.16248 24.6233L7.79667 25.3101L6.5656 25.9295Z" fill="#00A571"/>
<path d="M6.43096 6.56132C2.87862 6.56132 0 9.44339 0 13C0 16.5566 2.87862 19.4387 6.43096 19.4387C9.9833 19.4387 12.8619 16.5566 12.8619 13C12.8619 9.44339 9.9833 6.56132 6.43096 6.56132ZM6.43096 16.9858C4.23218 16.9858 2.44989 15.2014 2.44989 13C2.44989 10.7986 4.23218 9.01415 6.43096 9.01415C8.62973 9.01415 10.412 10.7986 10.412 13C10.412 15.2014 8.62973 16.9858 6.43096 16.9858Z" fill="#00A571"/>
</svg>
