<svg width="159" height="32" viewBox="0 0 159 32" fill="none" xmlns="http://www.w3.org/2000/svg">
<path d="M55.126 21.718L60.112 5.68H61.804L56.818 21.718H55.126ZM68.5975 19.216C67.7815 19.216 67.0375 19.078 66.3655 18.802C65.7055 18.514 65.1355 18.1 64.6555 17.56C64.1875 17.008 63.8215 16.33 63.5575 15.526C63.3055 14.71 63.1795 13.774 63.1795 12.718C63.1795 11.662 63.3055 10.732 63.5575 9.928C63.8215 9.112 64.1875 8.434 64.6555 7.894C65.1355 7.342 65.7055 6.928 66.3655 6.652C67.0375 6.364 67.7815 6.22 68.5975 6.22C69.4135 6.22 70.1515 6.364 70.8115 6.652C71.4835 6.928 72.0535 7.342 72.5215 7.894C73.0015 8.434 73.3675 9.112 73.6195 9.928C73.8835 10.732 74.0155 11.662 74.0155 12.718C74.0155 13.774 73.8835 14.71 73.6195 15.526C73.3675 16.33 73.0015 17.008 72.5215 17.56C72.0535 18.1 71.4835 18.514 70.8115 18.802C70.1515 19.078 69.4135 19.216 68.5975 19.216ZM68.5975 17.398C69.0775 17.398 69.5155 17.314 69.9115 17.146C70.3195 16.978 70.6615 16.738 70.9375 16.426C71.2255 16.102 71.4475 15.712 71.6035 15.256C71.7595 14.8 71.8375 14.284 71.8375 13.708V11.728C71.8375 11.152 71.7595 10.636 71.6035 10.18C71.4475 9.724 71.2255 9.34 70.9375 9.028C70.6615 8.704 70.3195 8.458 69.9115 8.29C69.5155 8.122 69.0775 8.038 68.5975 8.038C68.1055 8.038 67.6615 8.122 67.2655 8.29C66.8695 8.458 66.5275 8.704 66.2395 9.028C65.9635 9.34 65.7475 9.724 65.5915 10.18C65.4355 10.636 65.3575 11.152 65.3575 11.728V13.708C65.3575 14.284 65.4355 14.8 65.5915 15.256C65.7475 15.712 65.9635 16.102 66.2395 16.426C66.5275 16.738 66.8695 16.978 67.2655 17.146C67.6615 17.314 68.1055 17.398 68.5975 17.398ZM83.2659 19C82.7499 19 82.3539 18.856 82.0779 18.568C81.8019 18.268 81.6339 17.89 81.5739 17.434H81.4839C81.3039 18.022 80.9739 18.466 80.4939 18.766C80.0139 19.066 79.4319 19.216 78.7479 19.216C77.7759 19.216 77.0259 18.964 76.4979 18.46C75.9819 17.956 75.7239 17.278 75.7239 16.426C75.7239 15.49 76.0599 14.788 76.7319 14.32C77.4159 13.852 78.4119 13.618 79.7199 13.618H81.4119V12.826C81.4119 12.25 81.2559 11.806 80.9439 11.494C80.6319 11.182 80.1459 11.026 79.4859 11.026C78.9339 11.026 78.4839 11.146 78.1359 11.386C77.7879 11.626 77.4939 11.932 77.2539 12.304L76.0839 11.242C76.3959 10.714 76.8339 10.282 77.3979 9.946C77.9619 9.598 78.6999 9.424 79.6119 9.424C80.8239 9.424 81.7539 9.706 82.4019 10.27C83.0499 10.834 83.3739 11.644 83.3739 12.7V17.398H84.3639V19H83.2659ZM79.3059 17.722C79.9179 17.722 80.4219 17.59 80.8179 17.326C81.2139 17.05 81.4119 16.684 81.4119 16.228V14.878H79.7559C78.3999 14.878 77.7219 15.298 77.7219 16.138V16.462C77.7219 16.882 77.8599 17.2 78.1359 17.416C78.4239 17.62 78.8139 17.722 79.3059 17.722ZM88.8261 19C88.1421 19 87.6261 18.826 87.2781 18.478C86.9301 18.118 86.7561 17.614 86.7561 16.966V11.242H85.2981V9.64H86.0901C86.4141 9.64 86.6361 9.568 86.7561 9.424C86.8881 9.28 86.9541 9.046 86.9541 8.722V7.084H88.7181V9.64H90.6801V11.242H88.7181V17.398H90.5361V19H88.8261ZM92.8083 5.68H94.7703V11.188H94.8603C95.0643 10.684 95.3703 10.264 95.7783 9.928C96.1983 9.592 96.7683 9.424 97.4883 9.424C98.4483 9.424 99.1923 9.742 99.7203 10.378C100.26 11.002 100.53 11.896 100.53 13.06V19H98.5683V13.294C98.5683 11.842 97.9803 11.116 96.8043 11.116C96.5523 11.116 96.3003 11.152 96.0483 11.224C95.8083 11.284 95.5923 11.38 95.4003 11.512C95.2083 11.644 95.0523 11.812 94.9323 12.016C94.8243 12.22 94.7703 12.454 94.7703 12.718V19H92.8083V5.68ZM103.25 5.68H105.212V13.852H105.302L106.598 12.178L108.848 9.64H111.134L107.858 13.258L111.53 19H109.19L106.508 14.536L105.212 15.94V19H103.25V5.68ZM116.379 19.216C115.707 19.216 115.107 19.102 114.579 18.874C114.051 18.646 113.601 18.322 113.229 17.902C112.857 17.47 112.569 16.954 112.365 16.354C112.173 15.742 112.077 15.064 112.077 14.32C112.077 13.576 112.173 12.904 112.365 12.304C112.569 11.692 112.857 11.176 113.229 10.756C113.601 10.324 114.051 9.994 114.579 9.766C115.107 9.538 115.707 9.424 116.379 9.424C117.063 9.424 117.663 9.544 118.179 9.784C118.707 10.024 119.145 10.36 119.493 10.792C119.841 11.212 120.099 11.704 120.267 12.268C120.447 12.832 120.537 13.438 120.537 14.086V14.824H114.111V15.13C114.111 15.85 114.321 16.444 114.741 16.912C115.173 17.368 115.785 17.596 116.577 17.596C117.153 17.596 117.639 17.47 118.035 17.218C118.431 16.966 118.767 16.624 119.043 16.192L120.195 17.326C119.847 17.902 119.343 18.364 118.683 18.712C118.023 19.048 117.255 19.216 116.379 19.216ZM116.379 10.954C116.043 10.954 115.731 11.014 115.443 11.134C115.167 11.254 114.927 11.422 114.723 11.638C114.531 11.854 114.381 12.112 114.273 12.412C114.165 12.712 114.111 13.042 114.111 13.402V13.528H118.467V13.348C118.467 12.628 118.281 12.052 117.909 11.62C117.537 11.176 117.027 10.954 116.379 10.954ZM126.381 19.216C125.709 19.216 125.109 19.102 124.581 18.874C124.053 18.646 123.603 18.322 123.231 17.902C122.859 17.47 122.571 16.954 122.367 16.354C122.175 15.742 122.079 15.064 122.079 14.32C122.079 13.576 122.175 12.904 122.367 12.304C122.571 11.692 122.859 11.176 123.231 10.756C123.603 10.324 124.053 9.994 124.581 9.766C125.109 9.538 125.709 9.424 126.381 9.424C127.065 9.424 127.665 9.544 128.181 9.784C128.709 10.024 129.147 10.36 129.495 10.792C129.843 11.212 130.101 11.704 130.269 12.268C130.449 12.832 130.539 13.438 130.539 14.086V14.824H124.113V15.13C124.113 15.85 124.323 16.444 124.743 16.912C125.175 17.368 125.787 17.596 126.579 17.596C127.155 17.596 127.641 17.47 128.037 17.218C128.433 16.966 128.769 16.624 129.045 16.192L130.197 17.326C129.849 17.902 129.345 18.364 128.685 18.712C128.025 19.048 127.257 19.216 126.381 19.216ZM126.381 10.954C126.045 10.954 125.733 11.014 125.445 11.134C125.169 11.254 124.929 11.422 124.725 11.638C124.533 11.854 124.383 12.112 124.275 12.412C124.167 12.712 124.113 13.042 124.113 13.402V13.528H128.469V13.348C128.469 12.628 128.283 12.052 127.911 11.62C127.539 11.176 127.029 10.954 126.381 10.954ZM132.711 9.64H134.673V11.188H134.763C134.967 10.624 135.297 10.192 135.753 9.892C136.221 9.58 136.767 9.424 137.391 9.424C138.579 9.424 139.497 9.856 140.145 10.72C140.793 11.572 141.117 12.772 141.117 14.32C141.117 15.868 140.793 17.074 140.145 17.938C139.497 18.79 138.579 19.216 137.391 19.216C136.767 19.216 136.221 19.06 135.753 18.748C135.297 18.436 134.967 18.004 134.763 17.452H134.673V22.6H132.711V9.64ZM136.797 17.524C137.481 17.524 138.027 17.308 138.435 16.876C138.843 16.432 139.047 15.85 139.047 15.13V13.51C139.047 12.79 138.843 12.214 138.435 11.782C138.027 11.338 137.481 11.116 136.797 11.116C136.197 11.116 135.693 11.266 135.285 11.566C134.877 11.854 134.673 12.238 134.673 12.718V15.922C134.673 16.402 134.877 16.792 135.285 17.092C135.693 17.38 136.197 17.524 136.797 17.524ZM147.035 19.216C146.363 19.216 145.763 19.102 145.235 18.874C144.707 18.646 144.257 18.322 143.885 17.902C143.513 17.47 143.225 16.954 143.021 16.354C142.829 15.742 142.733 15.064 142.733 14.32C142.733 13.576 142.829 12.904 143.021 12.304C143.225 11.692 143.513 11.176 143.885 10.756C144.257 10.324 144.707 9.994 145.235 9.766C145.763 9.538 146.363 9.424 147.035 9.424C147.719 9.424 148.319 9.544 148.835 9.784C149.363 10.024 149.801 10.36 150.149 10.792C150.497 11.212 150.755 11.704 150.923 12.268C151.103 12.832 151.193 13.438 151.193 14.086V14.824H144.767V15.13C144.767 15.85 144.977 16.444 145.397 16.912C145.829 17.368 146.441 17.596 147.233 17.596C147.809 17.596 148.295 17.47 148.691 17.218C149.087 16.966 149.423 16.624 149.699 16.192L150.851 17.326C150.503 17.902 149.999 18.364 149.339 18.712C148.679 19.048 147.911 19.216 147.035 19.216ZM147.035 10.954C146.699 10.954 146.387 11.014 146.099 11.134C145.823 11.254 145.583 11.422 145.379 11.638C145.187 11.854 145.037 12.112 144.929 12.412C144.821 12.712 144.767 13.042 144.767 13.402V13.528H149.123V13.348C149.123 12.628 148.937 12.052 148.565 11.62C148.193 11.176 147.683 10.954 147.035 10.954ZM153.365 19V9.64H155.327V11.44H155.417C155.549 10.96 155.825 10.54 156.245 10.18C156.665 9.82 157.247 9.64 157.991 9.64H158.513V11.53H157.739C156.959 11.53 156.359 11.656 155.939 11.908C155.531 12.16 155.327 12.532 155.327 13.024V19H153.365Z" fill="#2979FF"/>
<path d="M54.7918 7.01815L48.7345 19.1167C48.6304 19.3252 48.5691 19.454 48.5691 19.454H45.813C45.813 19.454 45.9477 19.2148 46.0457 19.0125L49.0468 13.0214L45.813 6.57664C45.813 6.57664 46.0947 6.57665 46.3213 6.57665H48.5691C48.5691 6.57665 48.6242 6.70542 48.7284 6.91391L50.4127 10.2804L52.1031 6.91391C52.2072 6.70542 52.26 6.57665 52.26 6.57665H55.0001C55.0001 6.57665 54.8898 6.8158 54.7918 7.01815Z" fill="#2979FF"/>
<path d="M39.6516 14.4012C41.3236 13.9413 42.5547 12.4082 42.567 10.5931C42.567 10.5809 42.567 10.5748 42.567 10.5625C42.567 10.5502 42.567 10.5441 42.567 10.5318C42.5486 8.34268 40.7724 6.57664 38.5859 6.57664L33.3799 6.57665V8.89633C33.3799 8.89633 33.3983 8.93136 33.4228 8.98042L34.6171 10.9181L35.3398 12.0894H33.6922H33.386V19.1413C33.386 19.3129 33.386 19.454 33.386 19.454H35.8359C35.8359 19.454 35.8359 19.3129 35.8359 19.1413V14.5422H36.8648L39.7128 19.1596L39.8782 19.4479H42.7568C42.7568 19.4479 42.6098 19.1842 42.4873 18.9818L39.6516 14.4012ZM38.592 12.0955H38.2307L38.2 12.0464L37.0915 10.2498L36.3381 9.02947H38.592C39.4372 9.02947 40.1232 9.71626 40.1232 10.5625C40.1232 11.4087 39.4372 12.0955 38.592 12.0955Z" fill="#2979FF"/>
<path d="M23.8865 6.57664C20.3342 6.57664 17.4556 9.45872 17.4556 13.0153C17.4556 16.5719 20.3342 19.454 23.8865 19.454C27.4389 19.454 30.3175 16.5719 30.3175 13.0153C30.3175 9.45872 27.4389 6.57664 23.8865 6.57664ZM23.8865 17.0012C21.6877 17.0012 19.9055 15.2167 19.9055 13.0153C19.9055 10.8139 21.6877 9.02947 23.8865 9.02947C26.0853 9.02947 27.8676 10.8139 27.8676 13.0153C27.8676 15.2167 26.0853 17.0012 23.8865 17.0012Z" fill="#2979FF"/>
<path d="M6.29621 0.0705286L6.43096 1.10714e-05L7.8029 0.689868L9.16871 1.37666L12.8619 3.23468C12.8619 3.23468 12.8619 3.37572 12.8619 3.60261L12.8619 5.96345C12.8619 5.96345 12.6231 5.84694 12.4209 5.74883L6.43708 2.74411L0.44098 5.74883C0.238864 5.84695 0 5.96346 0 5.96346L-1.19135e-07 3.23468C-1.19135e-07 3.23468 0.128619 3.16723 0.33686 3.06298L3.69933 1.37666L5.06514 0.689868L6.29621 0.0705286Z" fill="#2979FF"/>
<path d="M6.5656 25.9295L6.43086 26L5.05892 25.3101L3.69311 24.6233L-9.95769e-05 22.7653C-9.95769e-05 22.7653 -9.95708e-05 22.6243 -9.95609e-05 22.3974L-9.94578e-05 20.0365C-9.94578e-05 20.0365 0.238765 20.1531 0.44088 20.2512L6.42473 23.2559L12.4208 20.2512C12.623 20.1531 12.8618 20.0365 12.8618 20.0365L12.8618 22.7653C12.8618 22.7653 12.7332 22.8328 12.525 22.937L9.16248 24.6233L7.79667 25.3101L6.5656 25.9295Z" fill="#2979FF"/>
<path d="M6.43096 6.56133C2.87862 6.56133 0 9.4434 0 13C0 16.5566 2.87862 19.4387 6.43096 19.4387C9.9833 19.4387 12.8619 16.5566 12.8619 13C12.8619 9.4434 9.9833 6.56133 6.43096 6.56133ZM6.43096 16.9859C4.23218 16.9859 2.44989 15.2014 2.44989 13C2.44989 10.7986 4.23218 9.01416 6.43096 9.01416C8.62973 9.01416 10.412 10.7986 10.412 13C10.412 15.2014 8.62973 16.9859 6.43096 16.9859Z" fill="#2979FF"/>
</svg>
