<svg width="117" height="32" viewBox="0 0 117 32" fill="none" xmlns="http://www.w3.org/2000/svg">
<path d="M55.126 21.718L60.112 5.68H61.804L56.818 21.718H55.126ZM67.8159 13.132L66.0879 15.112V19H64.0539V6.436H66.0879V12.808H66.1599L67.9599 10.522L71.3439 6.436H73.7199L69.2379 11.728L74.0799 19H71.6319L67.8159 13.132ZM75.6169 19V9.64H77.5789V11.44H77.6689C77.8009 10.96 78.0769 10.54 78.4969 10.18C78.9169 9.82 79.4989 9.64 80.2429 9.64H80.7649V11.53H79.9909C79.2109 11.53 78.6109 11.656 78.1909 11.908C77.7829 12.16 77.5789 12.532 77.5789 13.024V19H75.6169ZM89.2249 19C88.7089 19 88.3129 18.856 88.0369 18.568C87.7609 18.268 87.5929 17.89 87.5329 17.434H87.4429C87.2629 18.022 86.9329 18.466 86.4529 18.766C85.9729 19.066 85.3909 19.216 84.7069 19.216C83.7349 19.216 82.9849 18.964 82.4569 18.46C81.9409 17.956 81.6829 17.278 81.6829 16.426C81.6829 15.49 82.0189 14.788 82.6909 14.32C83.3749 13.852 84.3709 13.618 85.6789 13.618H87.3709V12.826C87.3709 12.25 87.2149 11.806 86.9029 11.494C86.5909 11.182 86.1049 11.026 85.4449 11.026C84.8929 11.026 84.4429 11.146 84.0949 11.386C83.7469 11.626 83.4529 11.932 83.2129 12.304L82.0429 11.242C82.3549 10.714 82.7929 10.282 83.3569 9.946C83.9209 9.598 84.6589 9.424 85.5709 9.424C86.7829 9.424 87.7129 9.706 88.3609 10.27C89.0089 10.834 89.3329 11.644 89.3329 12.7V17.398H90.3229V19H89.2249ZM85.2649 17.722C85.8769 17.722 86.3809 17.59 86.7769 17.326C87.1729 17.05 87.3709 16.684 87.3709 16.228V14.878H85.7149C84.3589 14.878 83.6809 15.298 83.6809 16.138V16.462C83.6809 16.882 83.8189 17.2 84.0949 17.416C84.3829 17.62 84.7729 17.722 85.2649 17.722ZM94.7851 19C94.1011 19 93.5851 18.826 93.2371 18.478C92.8891 18.118 92.7151 17.614 92.7151 16.966V11.242H91.2571V9.64H92.0491C92.3731 9.64 92.5951 9.568 92.7151 9.424C92.8471 9.28 92.9131 9.046 92.9131 8.722V7.084H94.6771V9.64H96.6391V11.242H94.6771V17.398H96.4951V19H94.7851ZM102.369 19.216C101.721 19.216 101.127 19.102 100.587 18.874C100.059 18.646 99.609 18.322 99.237 17.902C98.865 17.47 98.577 16.954 98.373 16.354C98.169 15.742 98.067 15.064 98.067 14.32C98.067 13.576 98.169 12.904 98.373 12.304C98.577 11.692 98.865 11.176 99.237 10.756C99.609 10.324 100.059 9.994 100.587 9.766C101.127 9.538 101.721 9.424 102.369 9.424C103.017 9.424 103.605 9.538 104.133 9.766C104.673 9.994 105.129 10.324 105.501 10.756C105.873 11.176 106.161 11.692 106.365 12.304C106.569 12.904 106.671 13.576 106.671 14.32C106.671 15.064 106.569 15.742 106.365 16.354C106.161 16.954 105.873 17.47 105.501 17.902C105.129 18.322 104.673 18.646 104.133 18.874C103.605 19.102 103.017 19.216 102.369 19.216ZM102.369 17.596C103.041 17.596 103.581 17.392 103.989 16.984C104.397 16.564 104.601 15.94 104.601 15.112V13.528C104.601 12.7 104.397 12.082 103.989 11.674C103.581 11.254 103.041 11.044 102.369 11.044C101.697 11.044 101.157 11.254 100.749 11.674C100.341 12.082 100.137 12.7 100.137 13.528V15.112C100.137 15.94 100.341 16.564 100.749 16.984C101.157 17.392 101.697 17.596 102.369 17.596ZM111.827 19.216C110.939 19.216 110.195 19.06 109.595 18.748C108.995 18.436 108.473 18.004 108.029 17.452L109.289 16.3C109.637 16.72 110.021 17.05 110.441 17.29C110.873 17.518 111.371 17.632 111.935 17.632C112.511 17.632 112.937 17.524 113.213 17.308C113.501 17.08 113.645 16.768 113.645 16.372C113.645 16.072 113.543 15.82 113.339 15.616C113.147 15.4 112.805 15.262 112.313 15.202L111.449 15.094C110.489 14.974 109.733 14.698 109.181 14.266C108.641 13.822 108.371 13.168 108.371 12.304C108.371 11.848 108.455 11.446 108.623 11.098C108.791 10.738 109.025 10.438 109.325 10.198C109.637 9.946 110.003 9.754 110.423 9.622C110.855 9.49 111.329 9.424 111.845 9.424C112.685 9.424 113.369 9.556 113.897 9.82C114.437 10.084 114.917 10.45 115.337 10.918L114.131 12.07C113.891 11.782 113.573 11.536 113.177 11.332C112.793 11.116 112.349 11.008 111.845 11.008C111.305 11.008 110.903 11.116 110.639 11.332C110.387 11.548 110.261 11.83 110.261 12.178C110.261 12.538 110.375 12.808 110.603 12.988C110.831 13.168 111.197 13.3 111.701 13.384L112.565 13.492C113.597 13.648 114.347 13.954 114.815 14.41C115.295 14.854 115.535 15.454 115.535 16.21C115.535 16.666 115.445 17.08 115.265 17.452C115.097 17.812 114.851 18.124 114.527 18.388C114.203 18.652 113.813 18.856 113.357 19C112.901 19.144 112.391 19.216 111.827 19.216Z" fill="#FB8200"/>
<path d="M54.7918 7.01817L48.7345 19.1167C48.6304 19.3252 48.5691 19.454 48.5691 19.454H45.813C45.813 19.454 45.9477 19.2149 46.0457 19.0125L49.0468 13.0215L45.813 6.57666C45.813 6.57666 46.0947 6.57666 46.3213 6.57666H48.5691C48.5691 6.57666 48.6242 6.70543 48.7284 6.91392L50.4127 10.2804L52.1031 6.91392C52.2072 6.70543 52.26 6.57666 52.26 6.57666H55.0001C55.0001 6.57666 54.8898 6.81581 54.7918 7.01817Z" fill="#FB8200"/>
<path d="M39.6516 14.4012C41.3236 13.9413 42.5547 12.4083 42.567 10.5932C42.567 10.5809 42.567 10.5748 42.567 10.5625C42.567 10.5502 42.567 10.5441 42.567 10.5318C42.5486 8.3427 40.7724 6.57666 38.5859 6.57666L33.3799 6.57666V8.89635C33.3799 8.89635 33.3983 8.93137 33.4228 8.98043L34.6171 10.9182L35.3398 12.0894H33.6922H33.386V19.1413C33.386 19.313 33.386 19.454 33.386 19.454H35.8359C35.8359 19.454 35.8359 19.313 35.8359 19.1413V14.5422H36.8648L39.7128 19.1597L39.8782 19.4479H42.7568C42.7568 19.4479 42.6098 19.1842 42.4873 18.9818L39.6516 14.4012ZM38.592 12.0955H38.2307L38.2 12.0465L37.0915 10.2498L36.3381 9.02949H38.592C39.4372 9.02949 40.1232 9.71628 40.1232 10.5625C40.1232 11.4087 39.4372 12.0955 38.592 12.0955Z" fill="#FB8200"/>
<path d="M23.8865 6.57666C20.3342 6.57666 17.4556 9.45873 17.4556 13.0153C17.4556 16.5719 20.3342 19.454 23.8865 19.454C27.4389 19.454 30.3175 16.5719 30.3175 13.0153C30.3175 9.45873 27.4389 6.57666 23.8865 6.57666ZM23.8865 17.0012C21.6877 17.0012 19.9055 15.2167 19.9055 13.0153C19.9055 10.8139 21.6877 9.02949 23.8865 9.02949C26.0853 9.02949 27.8676 10.8139 27.8676 13.0153C27.8676 15.2167 26.0853 17.0012 23.8865 17.0012Z" fill="#FB8200"/>
<path d="M6.29621 0.0705134L6.43096 -4.18741e-06L7.8029 0.689853L9.16871 1.37665L12.8619 3.23467C12.8619 3.23467 12.8619 3.3757 12.8619 3.60259L12.8619 5.96344C12.8619 5.96344 12.6231 5.84693 12.4209 5.74882L6.43708 2.7441L0.44098 5.74882C0.238864 5.84693 0 5.96344 0 5.96344L-1.19135e-07 3.23467C-1.19135e-07 3.23467 0.128619 3.16721 0.33686 3.06297L3.69933 1.37665L5.06514 0.689853L6.29621 0.0705134Z" fill="#FB8200"/>
<path d="M6.5656 25.9295L6.43086 26L5.05892 25.3102L3.69311 24.6234L-9.95769e-05 22.7653C-9.95769e-05 22.7653 -9.95708e-05 22.6243 -9.95609e-05 22.3974L-9.94578e-05 20.0366C-9.94578e-05 20.0366 0.238765 20.1531 0.44088 20.2512L6.42473 23.2559L12.4208 20.2512C12.623 20.1531 12.8618 20.0366 12.8618 20.0366L12.8618 22.7653C12.8618 22.7653 12.7332 22.8328 12.525 22.937L9.16248 24.6234L7.79667 25.3102L6.5656 25.9295Z" fill="#FB8200"/>
<path d="M6.43096 6.56131C2.87862 6.56131 0 9.44338 0 13C0 16.5566 2.87862 19.4387 6.43096 19.4387C9.9833 19.4387 12.8619 16.5566 12.8619 13C12.8619 9.44338 9.9833 6.56131 6.43096 6.56131ZM6.43096 16.9858C4.23218 16.9858 2.44989 15.2014 2.44989 13C2.44989 10.7986 4.23218 9.01414 6.43096 9.01414C8.62973 9.01414 10.412 10.7986 10.412 13C10.412 15.2014 8.62973 16.9858 6.43096 16.9858Z" fill="#FB8200"/>
</svg>
