<svg width="420" height="376" viewBox="0 0 420 376" fill="none" xmlns="http://www.w3.org/2000/svg">
    <circle cx="45" cy="125" r="45" fill="#6274F3"/>
    <circle cx="210" cy="125" r="45" fill="#6274F3"/>
    <circle cx="210" cy="331" r="45" fill="#6274F3"/>
    <circle cx="375" cy="125" r="45" fill="#F04870"/>
    <path d="M46 337H45V338H46V337ZM140.707 337.707C141.098 337.317 141.098 336.683 140.707 336.293L134.343 329.929C133.953 329.538 133.319 329.538 132.929 329.929C132.538 330.319 132.538 330.953 132.929 331.343L138.586 337L132.929 342.657C132.538 343.047 132.538 343.681 132.929 344.071C133.319 344.462 133.953 344.462 134.343 344.071L140.707 337.707ZM45 206V337H47V206H45ZM46 338H140V336H46V338Z" fill="#6274F3"/>
    <path d="M375.293 205.293C375.683 204.902 376.317 204.902 376.707 205.293L383.071 211.657C383.462 212.047 383.462 212.681 383.071 213.071C382.681 213.462 382.047 213.462 381.657 213.071L376 207.414L370.343 213.071C369.953 213.462 369.319 213.462 368.929 213.071C368.538 212.681 368.538 212.047 368.929 211.657L375.293 205.293ZM376 337H377V338H376V337ZM377 206V208.047H375V206H377ZM377 212.141V216.234H375V212.141H377ZM377 220.328V224.422H375V220.328H377ZM377 228.516V232.609H375V228.516H377ZM377 236.703V240.797H375V236.703H377ZM377 244.891V248.984H375V244.891H377ZM377 253.078V257.172H375V253.078H377ZM377 261.266V265.359H375V261.266H377ZM377 269.453V273.547H375V269.453H377ZM377 277.641V281.734H375V277.641H377ZM377 285.828V289.922H375V285.828H377ZM377 294.016V298.109H375V294.016H377ZM377 302.203V306.297H375V302.203H377ZM377 310.391V314.484H375V310.391H377ZM377 318.578V322.672H375V318.578H377ZM377 326.766V330.859H375V326.766H377ZM377 334.953V337H375V334.953H377ZM376 338H374.021V336H376V338ZM370.062 338H366.104V336H370.062V338ZM362.146 338H358.188V336H362.146V338ZM354.229 338H350.271V336H354.229V338ZM346.312 338H342.354V336H346.312V338ZM338.396 338H334.438V336H338.396V338ZM330.479 338H326.521V336H330.479V338ZM322.563 338H318.604V336H322.563V338ZM314.646 338H310.688V336H314.646V338ZM306.729 338H302.771V336H306.729V338ZM298.812 338H294.854V336H298.812V338ZM290.896 338H286.937V336H290.896V338ZM282.979 338H281V336H282.979V338Z" fill="#F04870"/>
    <path d="M189.293 250.707C189.683 251.098 190.317 251.098 190.707 250.707L197.071 244.343C197.462 243.953 197.462 243.319 197.071 242.929C196.681 242.538 196.047 242.538 195.657 242.929L190 248.586L184.343 242.929C183.953 242.538 183.319 242.538 182.929 242.929C182.538 243.319 182.538 243.953 182.929 244.343L189.293 250.707ZM189 206V250H191V206H189Z" fill="#6274F3"/>
    <path d="M210.707 205.293C210.317 204.902 209.683 204.902 209.293 205.293L202.929 211.657C202.538 212.047 202.538 212.681 202.929 213.071C203.319 213.462 203.953 213.462 204.343 213.071L210 207.414L215.657 213.071C216.047 213.462 216.681 213.462 217.071 213.071C217.462 212.681 217.462 212.047 217.071 211.657L210.707 205.293ZM209.293 250.707C209.683 251.098 210.317 251.098 210.707 250.707L217.071 244.343C217.462 243.953 217.462 243.319 217.071 242.929C216.681 242.538 216.047 242.538 215.657 242.929L210 248.586L204.343 242.929C203.953 242.538 203.319 242.538 202.929 242.929C202.538 243.319 202.538 243.953 202.929 244.343L209.293 250.707ZM209 206V250H211V206H209Z" fill="#F04870"/>
    <path d="M230.707 205.293C230.317 204.902 229.683 204.902 229.293 205.293L222.929 211.657C222.538 212.047 222.538 212.681 222.929 213.071C223.319 213.462 223.953 213.462 224.343 213.071L230 207.414L235.657 213.071C236.047 213.462 236.681 213.462 237.071 213.071C237.462 212.681 237.462 212.047 237.071 211.657L230.707 205.293ZM229 206V250H231V206H229Z" fill="#6274F3"/>
    <path d="M45.5 1V0H44.5V1H45.5ZM210.793 36.7071C211.183 37.0976 211.817 37.0976 212.207 36.7071L218.571 30.3431C218.962 29.9526 218.962 29.3195 218.571 28.9289C218.181 28.5384 217.547 28.5384 217.157 28.9289L211.5 34.5858L205.843 28.9289C205.453 28.5384 204.819 28.5384 204.429 28.9289C204.038 29.3195 204.038 29.9526 204.429 30.3431L210.793 36.7071ZM376 1H377V0H376V1ZM375.293 36.7071C375.683 37.0976 376.317 37.0976 376.707 36.7071L383.071 30.3431C383.462 29.9526 383.462 29.3195 383.071 28.9289C382.681 28.5384 382.047 28.5384 381.657 28.9289L376 34.5858L370.343 28.9289C369.953 28.5384 369.319 28.5384 368.929 28.9289C368.538 29.3195 368.538 29.9526 368.929 30.3431L375.293 36.7071ZM46.5 36V1H44.5V36H46.5ZM45.5 2H211.5V0H45.5V2ZM210.5 1V36H212.5V1H210.5ZM211.5 2H376V0H211.5V2ZM375 1V36H377V1H375Z" fill="#6274F3"/>
</svg>
