<svg xmlns="http://www.w3.org/2000/svg" xmlns:xlink="http://www.w3.org/1999/xlink" width="405" height="333" viewBox="0 0 405 333" fill="none"><rect width="203.5" height="137.5" fill="#19191d" stroke="#f0f0f1" stroke-width=".5" transform="translate(0,0) translate(129.2,60.2)"/><g id="allcode" transform="translate(172.5,102.8) translate(-33.5,-24.8)"><g id="Group-54" opacity="0" transform="translate(-149,-78) translate(0,0) translate(0,0)"><rect width="12" height=".5" fill="#f0f0f1" transform="translate(0,0) translate(139,127)"/><rect width="19" height=".5" fill="#f0f0f1" transform="translate(0,0) translate(155,127)"/></g><g id="Group-53" opacity="0" transform="translate(-149,-78) translate(0,0) translate(0,0)"><rect width="14" height=".5" fill="#f0f0f1" transform="translate(0,0) translate(150,122)"/><rect id="Rectangle-72" width="16" height=".5" fill="#f0f0f1" transform="translate(0,0) translate(168,122)"/></g><g id="Group-52" opacity="0" transform="translate(-149,-78) translate(0,0) translate(0,0)"><rect width="24" height=".5" fill="#f0f0f1" transform="translate(0,0) translate(150,116.5)"/><rect width="8" height=".5" fill="#f0f0f1" transform="translate(0,0) translate(178,116.5)"/></g><g id="Group-51" opacity="0" transform="translate(-149,-78) translate(0,0) translate(0,0)"><rect width="24" height=".5" fill="#f0f0f1" transform="translate(0,0) translate(146,111)"/><rect width="16" height=".5" fill="#f0f0f1" transform="translate(0,0) translate(174,111)"/></g><g id="Group-50" opacity="0" transform="translate(-149,-78) translate(0,0) translate(0,0)"><rect width="14" height=".5" fill="#f0f0f1" transform="translate(0,0) translate(150,105.5)"/><rect width="8" height=".5" fill="#f0f0f1" transform="translate(0,0) translate(168,105.5)"/><rect width="7" height=".5" fill="#fb8200" transform="translate(0,0) translate(180,105.5)"/></g><g id="Group-49" opacity="0" transform="translate(-149,-78) translate(0,0) translate(0,0)"><rect width="24" height=".5" fill="#fb8200" transform="translate(0,0) translate(150,100)"/><rect id="Rectangle-66" width="16" height=".5" fill="#fb8200" transform="translate(0,0) translate(178,100)"/></g><g id="Group-48" opacity="0" transform="translate(-149,-78) translate(0,0) translate(0,0)"><rect width="16" height=".5" fill="#f0f0f1" transform="translate(0,0) translate(162,94.5)"/><rect width="4.2" height=".5" fill="#f0f0f1" transform="translate(0,0) translate(182,94.5)"/><rect width="12" height=".5" fill="#f0f0f1" transform="translate(0,0) translate(146,94.5)"/></g><g id="Group-47" opacity="0" transform="translate(-149,-78) translate(0,0) translate(0,0)"><rect width="7.7" height=".5" fill="#f0f0f1" transform="translate(0,0) translate(150,89)"/><rect width="11.7" height=".5" fill="#f0f0f1" transform="translate(0,0) translate(162,89)"/></g><g id="Group-46" opacity="0" transform="translate(-149,-78) translate(0,0) translate(0,0)"><rect width="8" height=".5" fill="#f0f0f1" transform="translate(0,0) translate(146,83.5)"/><rect id="Rectangle-43" width="38" height=".5" fill="#f0f0f1" transform="translate(0,0) translate(158,83.5)"/></g><g id="Group-45" opacity="0" transform="translate(-149,-78) translate(0,0) translate(0,0)"><rect width="12" height=".5" fill="#f0f0f1" transform="translate(0,0) translate(139,78)"/><rect width="19" height=".5" fill="#f0f0f1" transform="translate(0,0) translate(155,78)"/></g></g><g><path stroke="#f0f0f1" stroke-width=".5" d="M129 67.8h204"/><rect width="4" height="4" rx="2" fill="#fb8200" transform="translate(0,0) translate(131,62)"/></g><rect id="login_bg" width="203.5" height="137.5" fill="#f0f0f1" stroke="#19191d" stroke-width=".5" transform="translate(0,0) translate(73.2,136.2)"/><rect width="4" height="4" rx="2" fill="#19191d" transform="translate(0,0) translate(75,138)"/><path id="login_header" stroke="#19191d" stroke-width=".5" d="M73 143.8l204-0.1"/><g id="regular" opacity="0" transform="translate(-10,0) translate(0,0) translate(0,0)"><g><rect width="60" height="8" fill="#fff" transform="translate(0,0) translate(145,194)"/><rect width="60" height="8" fill="#fff" transform="translate(0,0) translate(145,206)"/><rect width="60" height="8" fill="#19191d" transform="translate(0,0) translate(145,244)"/></g><rect width="10" height="10" fill="#19191d" transform="translate(0,0) translate(170,164)"/><g id="step-2" opacity="0" transform="translate(0,-10) translate(0,0) translate(0,0)"><rect width="60" height="8" fill="#fff" transform="translate(0,0) translate(145,218)"/><rect width="3.5" height="3.5" fill="#fff" stroke="#15283b" stroke-width=".5" transform="translate(0,0) translate(145.2,233.2)"/><path stroke="#15283b" stroke-width=".5" d="M152 235h20"/><path stroke="#15283b" stroke-width=".5" d="M174 235h7"/></g></g><script xlink:href="keyshapejs-1.1.0.min.js"/><script><![CDATA[if(KeyshapeJS.version.indexOf('1.')!=0)throw Error('Expected KeyshapeJS v1.*.*');window.ks=document.ks=KeyshapeJS;(function(ks){
ks.animate("#allcode",[{p:'opacity',t:[7800,8000],v:[1,0],e:[[0],[0]]}],
"#Group-54",[{p:'mpath',t:[1400,1600],v:['0%','100%'],e:[[1,.4,0,1,1],[0]],mp:"M-149,-78L-139,-78"},{p:'opacity',t:[1400,1500],v:[0,1],e:[[1,.4,0,1,1],[0]]}],
"#Group-53",[{p:'mpath',t:[1300,1500],v:['0%','100%'],e:[[1,.4,0,1,1],[0]],mp:"M-149,-78L-139,-78"},{p:'opacity',t:[1300,1400],v:[0,1],e:[[1,.4,0,1,1],[0]]}],
"#Rectangle-72",[{p:'fill',t:[4000,4200],v:['#f0f0f1','#fb8200'],e:[[0],[0]]},{p:'width',t:[3200,3600,6000,6400],v:[16,30,30,16],e:[[1,.4,0,1,1],[0],[1,0,0,.6,1],[0]]}],
"#Group-52",[{p:'mpath',t:[1200,1400],v:['0%','100%'],e:[[1,.4,0,1,1],[0]],mp:"M-149,-78L-139,-78"},{p:'opacity',t:[1200,1300],v:[0,1],e:[[1,.4,0,1,1],[0]]}],
"#Group-51",[{p:'mpath',t:[1100,1300],v:['0%','100%'],e:[[1,.4,0,1,1],[0]],mp:"M-149,-78L-139,-78"},{p:'opacity',t:[1100,1200],v:[0,1],e:[[1,.4,0,1,1],[0]]}],
"#Group-50",[{p:'mpath',t:[1000,1200],v:['0%','100%'],e:[[1,.4,0,1,1],[0]],mp:"M-149,-78L-139,-78"},{p:'opacity',t:[1000,1100],v:[0,1],e:[[1,.4,0,1,1],[0]]}],
"#Group-49",[{p:'mpath',t:[900,1100],v:['0%','100%'],e:[[1,.4,0,1,1],[0]],mp:"M-149,-78L-139,-78"},{p:'opacity',t:[900,1000],v:[0,1],e:[[1,.4,0,1,1],[0]]}],
"#Rectangle-66",[{p:'width',t:[3000,3400,6000,6400],v:[16,30,30,16],e:[[1,.4,0,1,1],[0],[1,0,0,.6,1],[0]]}],
"#Group-48",[{p:'mpath',t:[800,1000],v:['0%','100%'],e:[[1,.4,0,1,1],[0]],mp:"M-149,-78L-139,-78"},{p:'opacity',t:[800,900],v:[0,1],e:[[1,.4,0,1,1],[0]]}],
"#Group-47",[{p:'mpath',t:[700,900],v:['0%','100%'],e:[[1,.4,0,1,1],[0]],mp:"M-149,-78L-139,-78"},{p:'opacity',t:[700,800],v:[0,1],e:[[1,.4,0,1,1],[0]]}],
"#Group-46",[{p:'mpath',t:[600,800],v:['0%','100%'],e:[[1,.4,0,1,1],[0]],mp:"M-149,-78L-139,-78"},{p:'opacity',t:[600,700],v:[0,1],e:[[1,.4,0,1,1],[0]]}],
"#Rectangle-43",[{p:'width',t:[6200,6600],v:[38,48],e:[[0],[0]]}],
"#Group-45",[{p:'mpath',t:[500,700],v:['0%','100%'],e:[[1,.4,0,1,1],[0]],mp:"M-149,-78L-139,-78"},{p:'opacity',t:[500,600],v:[0,1],e:[[1,.4,0,1,1],[0]]}],
"#login_bg",[{p:'stroke',t:[3500,3700,6000,6200],v:['#19191d','#f0f0f1','#f0f0f1','#19191d'],e:[[0],[0],[0],[0]]},{p:'fill',t:[3500,3700,6000,6200],v:['#f0f0f1','#fb8200','#fb8200','#f0f0f1'],e:[[0],[0],[0],[0]]}],
"#login_header",[{p:'stroke',t:[3500,3700,6000,6200],v:['#19191d','#f0f0f1','#f0f0f1','#19191d'],e:[[0],[0],[0],[0]]}],
"#regular",[{p:'mpath',t:[1000,1200],v:['0%','100%'],e:[[0],[0]],mp:"M-10,0L0,0"},{p:'opacity',t:[1100,1200,7800,8000],v:[0,1,1,0],e:[[0],[0],[0],[0]]}],
"#step-2",[{p:'mpath',t:[3500,3700],v:['0%','100%'],e:[[0],[0]],mp:"M0,-10L0,0"},{p:'opacity',t:[3500,3600],v:[0,1],e:[[0],[0]]}],
{autoremove:false}).range(0,8000).loop(true);
if(document.location.search.substr(1).split('&').indexOf('global=paused')>=0)ks.globalPause()})(KeyshapeJS);
]]></script></svg>