<?xml version="1.0" encoding="UTF-8"?>
<!-- Generator: Adobe Illustrator 21.0.2, SVG Export Plug-In . SVG Version: 6.00 Build 0)  -->
<svg version="1.1" id="Layer_1" xmlns="http://www.w3.org/2000/svg" xmlns:xlink="http://www.w3.org/1999/xlink" x="0px" y="0px" viewBox="0 0 751 110.6" style="enable-background:new 0 0 751 110.6;" xml:space="preserve">
<style type="text/css">
	.st0{fill:#BBBDBF;}
	.st1{fill:#A6A8AB;}
	.st2{fill:#929497;}
	.st3{fill:#6D6E70;}
	.st4{fill:#EC297B;}
	.st5{fill:#9E1F63;}
	.st6{fill:#D91C5C;}
	.st7{fill:#EE5BA0;}
	.st8{fill:#CC007A;}
	.st9{fill:#90278E;}
	.st10{fill:#891555;}
	.st11{fill:#FFCA05;}
	.st12{fill:#FAAF40;}
	.st13{fill:#F05A28;}
	.st14{fill:#D04E22;}
	.st15{fill:#E39F3A;}
	.st16{fill:#FFDD15;}
	.st17{fill:#D0D2D3;}
	.st18{fill:#37B34A;}
	.st19{fill:#8BC53F;}
	.st20{fill:#00A69C;}
	.st21{fill:#29B473;}
	.st22{fill:#2E9D41;}
	.st23{fill:#009345;}
	.st24{fill:#229E64;}
	.st25{fill:#808184;}
	.st26{fill:#1B75BB;}
	.st27{fill:#652D90;}
	.st28{fill:#155D95;}
	.st29{fill:#25A9E0;}
	.st30{fill:#00B8F1;}
	.st31{fill:#2394C5;}
</style>
<g>
	<g>
		<rect x="287.4" y="0" class="st0" width="25.5" height="110.6"/>
		<rect x="312.9" y="44.6" class="st1" width="34" height="25.5"/>
		<polygon class="st2" points="312.9,44.6 312.9,70.1 321,70.1   "/>
		<rect x="346.9" y="0" class="st2" width="25.5" height="110.6"/>
		<polygon class="st3" points="346.9,44.6 346.9,70.1 355.1,70.1   "/>
	</g>
	<g>
		<rect x="578.4" y="25.5" class="st4" width="25.5" height="59.5"/>
		<rect x="603.9" y="0" class="st4" width="34" height="25.5"/>
		<rect x="637.9" y="69.5" class="st5" width="25.5" height="15.6"/>
		<polygon class="st6" points="663.4,25.5 637.9,25.5 637.9,0   "/>
		<polygon class="st6" points="578.4,85 603.9,85 603.9,110.6   "/>
		<polygon class="st7" points="578.4,25.5 603.9,25.5 603.9,0   "/>
		<polygon class="st8" points="603.9,0 603.9,25.5 612,25.5   "/>
		<rect x="603.9" y="85" class="st5" width="34" height="25.5"/>
		<polygon class="st9" points="663.4,85 637.9,85 637.9,110.6   "/>
		<polygon class="st10" points="603.9,85 603.9,110.6 612,110.6   "/>
		<polygon class="st8" points="578.4,25.5 603.9,25.5 603.9,33.7   "/>
	</g>
	<g>
		<rect x="490.2" y="25.5" class="st11" width="25.5" height="59.5"/>
		<polygon class="st12" points="490.2,85 515.7,85 515.7,110.6   "/>
		<rect x="515.7" y="85" class="st13" width="48.3" height="25.5"/>
		<polygon class="st14" points="515.7,85 515.7,110.6 523.8,110.6   "/>
		<rect x="515.7" y="44.6" class="st12" width="48.3" height="25.5"/>
		<polygon class="st15" points="515.7,44.6 515.7,70.1 523.8,70.1   "/>
		<rect x="515.7" y="0" class="st16" width="48.3" height="25.5"/>
	</g>
	<g>
		<rect x="0" y="25.5" class="st17" width="25.5" height="59.5"/>
		<rect x="25.5" y="0" class="st17" width="34" height="25.5"/>
		<rect x="59.5" y="69.5" class="st1" width="25.5" height="15.6"/>
		<polygon class="st1" points="85,25.5 59.5,25.5 59.5,0   "/>
		<polygon class="st0" points="0,85 25.5,85 25.5,110.6   "/>
		<polygon class="st17" points="0,25.5 25.5,25.5 25.5,0   "/>
		<polygon class="st0" points="25.5,0 25.5,25.5 33.6,25.5   "/>
		<rect x="25.5" y="85" class="st0" width="34" height="25.5"/>
		<polygon class="st2" points="85,85 59.5,85 59.5,110.6   "/>
		<polygon class="st2" points="25.5,85 25.5,110.6 33.6,110.6   "/>
		<polygon class="st0" points="0,25.5 25.5,25.5 25.5,33.7   "/>
	</g>
	<g>
		<rect x="389.3" y="25.5" class="st18" width="25.5" height="59.5"/>
		<rect x="414.8" y="0" class="st18" width="38.3" height="25.5"/>
		<rect x="389.3" y="0" class="st19" width="25.5" height="25.5"/>
		<rect x="389.3" y="85" class="st20" width="25.5" height="25.5"/>
		<rect x="453.1" y="25.5" class="st21" width="25.5" height="59.5"/>
		<polygon class="st20" points="478.6,25.5 453.1,25.5 453.1,0   "/>
		<polygon class="st22" points="414.8,0 414.8,25.5 422.9,25.5   "/>
		<rect x="414.8" y="85" class="st21" width="38.3" height="25.5"/>
		<polygon class="st23" points="414.8,85 414.8,110.6 422.9,110.6   "/>
		<polygon class="st22" points="389.3,25.5 414.8,25.5 414.8,33.7   "/>
		<polygon class="st24" points="453.1,25.5 478.6,25.5 478.6,33.7   "/>
	</g>
	<g>
		<rect x="119.6" y="52.3" class="st17" width="32.5" height="24.8"/>
		<polygon class="st0" points="119.6,52.5 119.6,76.8 127.7,76.8   "/>
		<rect x="93.2" y="25.5" class="st17" width="25.5" height="85.1"/>
		<rect x="152.7" y="25.5" class="st1" width="25.5" height="85.1"/>
		<rect x="118.7" y="51.9" class="st1" width="34" height="25.5"/>
		<rect x="118.7" y="0" class="st17" width="34" height="25.5"/>
		<polygon class="st1" points="178.2,25.5 152.7,25.5 152.7,0   "/>
		<polygon class="st2" points="118.7,51.9 118.7,77.4 126.8,77.4   "/>
		<polygon class="st2" points="152.7,25.5 178.2,25.5 178.2,33.7   "/>
	</g>
	<g>
		<polygon class="st17" points="214.9,66.9 189.6,42.3 189.6,25.5 214.9,25.5   "/>
		<rect x="248.9" y="66.9" class="st2" width="25.5" height="18.2"/>
		<polygon class="st1" points="189.6,85 215.1,85 215.1,110.6   "/>
		<rect x="215.1" y="85" class="st2" width="33.8" height="25.5"/>
		<polygon class="st25" points="215.1,85 215.1,110.6 223.2,110.6   "/>
		<polygon class="st25" points="248.9,66.8 274.4,66.8 274.4,75   "/>
		<rect x="214.9" y="0" class="st17" width="34" height="25.5"/>
		<polygon class="st2" points="274.4,25.5 248.9,25.5 248.9,0   "/>
		<polygon class="st17" points="189.4,25.5 214.9,25.5 214.9,0   "/>
		<polygon class="st1" points="214.9,0 214.9,25.5 223.1,25.5   "/>
		<rect x="214.9" y="41.3" class="st1" width="34" height="25.5"/>
		<polygon class="st17" points="274.4,66.8 248.9,66.8 248.9,41.3   "/>
		<polygon class="st2" points="214.9,41.3 214.9,66.9 223.1,66.9   "/>
		<polygon class="st2" points="189.4,25.5 214.9,25.5 214.9,33.7   "/>
	</g>
	<g>
		<rect x="701.9" y="44.6" class="st26" width="23.5" height="25.5"/>
		<rect x="676.4" y="0" class="st27" width="25.5" height="110.6"/>
		<polygon class="st28" points="701.9,44.6 701.9,70.1 710.1,70.1   "/>
		<polygon class="st29" points="751,70.5 738.3,57.1 751,44.6 751,25.5 725.5,25.5 725.5,110.6 751,110.6   "/>
		<polygon class="st30" points="738.3,57.1 725.5,44.6 725.5,70.1   "/>
		<polygon class="st31" points="725.5,70.1 738.3,57.1 744,63.1   "/>
	</g>
</g>
</svg>