<svg xmlns="http://www.w3.org/2000/svg" width="125" height="48" viewBox="0 0 125 48"><defs><style>.a{fill:#f05f77;}</style></defs><title>logo</title><path class="a" d="M58.19,37.78H55V8.85H44.31V6H68.84V8.85H58.19Z"/><path class="a" d="M78.93,37.78c-.06-.57-.1-1.2-.13-1.89s0-1.26,0-1.71h-.08a7,7,0,0,1-2.93,3,8.52,8.52,0,0,1-4.27,1.15,7.37,7.37,0,0,1-6-2.39,9.44,9.44,0,0,1-2-6.28V16.76h3.06V28.39a16,16,0,0,0,.26,3,6.44,6.44,0,0,0,.92,2.31,4.41,4.41,0,0,0,1.75,1.51,6.15,6.15,0,0,0,2.76.53,5.72,5.72,0,0,0,2.37-.49,5.81,5.81,0,0,0,2-1.5,7.62,7.62,0,0,0,1.44-2.56,11.36,11.36,0,0,0,.54-3.66V16.76h3V33.14c0,.57,0,1.31,0,2.21s.07,1.71.13,2.42Z"/><path class="a" d="M89.53,37.78h-3V6h3Z"/><path class="a" d="M98.06,8.14a2,2,0,0,1-.67,1.55,2.14,2.14,0,0,1-3.07-3l.11-.1a2.09,2.09,0,0,1,3,0A2,2,0,0,1,98.06,8.14Zm-.62,29.65H94.38v-21h3.06Z"/><path class="a" d="M105.25,48h-3.06V16.75h3.06v3.64h.13a8.29,8.29,0,0,1,3.49-3.12,10,10,0,0,1,4.42-1.06,11.43,11.43,0,0,1,4.47.85,10,10,0,0,1,3.41,2.34,10.6,10.6,0,0,1,2.21,3.5,12.55,12.55,0,0,1,0,8.71,10.65,10.65,0,0,1-2.21,3.51,10.15,10.15,0,0,1-3.41,2.33,11.08,11.08,0,0,1-4.47.85,10.08,10.08,0,0,1-4.42-1,8.6,8.6,0,0,1-3.49-3h-.13Zm15.67-20.74a10.12,10.12,0,0,0-.54-3.31,8,8,0,0,0-1.55-2.69,7.22,7.22,0,0,0-2.49-1.82,8.07,8.07,0,0,0-9.17,1.77,8.23,8.23,0,0,0-1.68,2.7,9.51,9.51,0,0,0,0,6.69,8.1,8.1,0,0,0,1.68,2.67,8,8,0,0,0,5.8,2.45,8.51,8.51,0,0,0,3.38-.65,7.17,7.17,0,0,0,2.49-1.8,8.06,8.06,0,0,0,1.54-2.7A9.82,9.82,0,0,0,120.92,27.26Z"/><path class="a" d="M38.48,27.42a31,31,0,0,0-6.14-4.67c.38-.66.75-1.34,1.12-2.06,1-1.85,3.95-8.09,2.4-10.31-.72-1-2.64-1.56-5.73-1.56a38.73,38.73,0,0,0-7.36.79C21.89,4.69,20.36.76,18.62.12A2.34,2.34,0,0,0,17.88,0C13.33,0,2,12.05.24,21.92c-.67,3.77-.2,8.63,5.05,11.83a10.31,10.31,0,0,0,2,2.93C9.54,39,13,40.24,17.54,40.24h0c9.22,0,22.58-5.69,22.7-9.65C40.26,29.71,39.67,28.68,38.48,27.42ZM30.13,10.31c3.07,0,4.29.58,4.53.92.48.69,0,3.87-2.5,8.78-.34.66-.71,1.33-1.09,2a49.09,49.09,0,0,0-7.47-3.46A53.17,53.17,0,0,0,23,11.09a36.94,36.94,0,0,1,7.11-.78Zm-17,24.33c-.32,0-.64,0-1,0a12.12,12.12,0,0,1-4.62-4.16,14.56,14.56,0,0,1-1.86-3.56c.37-5.75,3.36-8.66,8.87-8.66a25.1,25.1,0,0,1,7.57,1.38,35.32,35.32,0,0,1-.47,5.13C20.9,29.24,18.78,34.64,13.16,34.64Zm1.42-17.91c-3.18,0-6.8.9-8.82,4.42a6.42,6.42,0,0,1,.3-.66c2-3.83,6.79-6.25,10.47-7.61a44.67,44.67,0,0,1,5.07-1.5,50,50,0,0,1,.55,6.69,25.52,25.52,0,0,0-7.57-1.34ZM6.37,31.29a17.68,17.68,0,0,0,1.93,2.3,15.46,15.46,0,0,1-1.84-.87,11,11,0,0,1-.58-2.17c.16.24.32.49.49.73ZM23.13,25a34.72,34.72,0,0,0,.45-4.88,47.55,47.55,0,0,1,6.74,3.16c-3.41,5.47-8.07,10.38-12.68,11.69C20.4,33.29,22.27,29.92,23.13,25ZM1.69,22.18C3.45,12.24,14.76,1.48,17.9,1.48a.62.62,0,0,1,.23,0c1.07.39,2.41,3.82,3.24,8.4C14.46,11.52,7.3,14.87,4.76,19.8a9.36,9.36,0,0,0-1,3.05s-.07.62-.07,1.08a23.56,23.56,0,0,0,.76,7.16c0,.1,0,.2.07.3C2,29.17,1,26.09,1.69,22.18ZM17.53,38.75c-4.12,0-7.23-1-9.23-3.11-.12-.12-.24-.25-.35-.38a25,25,0,0,0,6.2,1.43c.27,0,1,.08,1.16.08h0c4.1,0,10.58-3.42,16.29-12.76a30.18,30.18,0,0,1,5.82,4.44c1,1.05,1.35,1.77,1.34,2.09-.06,2.05-11.15,8.21-21.23,8.21Z"/></svg>