<svg xmlns="http://www.w3.org/2000/svg" viewBox="0 0 405 333" fill="none"><style>
@keyframes a0_t { 0% { transform: translate(132px,76.3px); } 22.5% { transform: translate(132px,76.3px); animation-timing-function: cubic-bezier(.6,0,.4,1); } 25% { transform: translate(132px,81.8px); animation-timing-function: cubic-bezier(.6,0,.4,1); } 27.5% { transform: translate(132px,87.3px); animation-timing-function: cubic-bezier(.6,0,.4,1); } 30% { transform: translate(132px,92.8px); animation-timing-function: cubic-bezier(.6,0,.4,1); } 32.5% { transform: translate(132px,98.3px); } 51% { transform: translate(132px,98.3px); } 52% { transform: translate(132px,76.3px); animation-timing-function: cubic-bezier(.6,0,.4,1); } 64.5% { transform: translate(132px,76.3px); animation-timing-function: cubic-bezier(.6,0,.4,1); } 67% { transform: translate(132px,81.8px); animation-timing-function: cubic-bezier(.6,0,.4,1); } 69.5% { transform: translate(132px,87.3px); animation-timing-function: cubic-bezier(.6,0,.4,1); } 72% { transform: translate(132px,92.8px); } 100% { transform: translate(132px,92.8px); } }
@keyframes a0_o { 0% { opacity: 0; } 20% { opacity: 0; animation-timing-function: cubic-bezier(.4,0,1,1); } 22.5% { opacity: .5; } 32.5% { opacity: .5; } 35% { opacity: 1; } 50% { opacity: 1; } 51% { opacity: 0; } 62% { opacity: 0; animation-timing-function: cubic-bezier(.4,0,1,1); } 64.5% { opacity: .5; } 72% { opacity: .5; } 74.5% { opacity: 1; } 89.5% { opacity: 1; } 90.5% { opacity: 0; } 100% { opacity: 0; } }
@keyframes a0_f { 0% { fill: #2979ff; } 32.5% { fill: #2979ff; animation-timing-function: cubic-bezier(0,0,.6,1); } 35% { fill: #43a047; } 51% { fill: #43a047; } 52% { fill: #2979ff; } 72% { fill: #2979ff; } 74.5% { fill: #f44336; } 100% { fill: #f44336; } }
@keyframes a1_o { 0% { opacity: 1; } 97.5% { opacity: 1; } 100% { opacity: 0; } }
@keyframes a2_t { 0% { transform: translate(-148px,-78px); } 7% { transform: translate(-148px,-78px); animation-timing-function: cubic-bezier(.4,0,1,1); } 8% { transform: translate(-138px,-78px); } 100% { transform: translate(-138px,-78px); } }
@keyframes a2_o { 0% { opacity: 0; } 7.5% { opacity: 0; } 8% { opacity: 1; } 100% { opacity: 1; } }
@keyframes a3_t { 0% { transform: translate(-148px,-78px); } 6.5% { transform: translate(-148px,-78px); animation-timing-function: cubic-bezier(.4,0,1,1); } 7.5% { transform: translate(-138px,-78px); } 100% { transform: translate(-138px,-78px); } }
@keyframes a3_o { 0% { opacity: 0; } 7% { opacity: 0; } 7.5% { opacity: 1; } 100% { opacity: 1; } }
@keyframes a4_t { 0% { transform: translate(-148px,-78px); } 6% { transform: translate(-148px,-78px); animation-timing-function: cubic-bezier(.4,0,1,1); } 7% { transform: translate(-138px,-78px); } 100% { transform: translate(-138px,-78px); } }
@keyframes a4_o { 0% { opacity: 0; } 6.5% { opacity: 0; } 7% { opacity: 1; } 100% { opacity: 1; } }
@keyframes a5_t { 0% { transform: translate(-148px,-78px); } 5.5% { transform: translate(-148px,-78px); animation-timing-function: cubic-bezier(.4,0,1,1); } 6.5% { transform: translate(-138px,-78px); } 100% { transform: translate(-138px,-78px); } }
@keyframes a5_o { 0% { opacity: 0; } 6% { opacity: 0; } 6.5% { opacity: 1; } 100% { opacity: 1; } }
@keyframes a6_t { 0% { transform: translate(-148px,-78px); } 5% { transform: translate(-148px,-78px); animation-timing-function: cubic-bezier(.4,0,1,1); } 6% { transform: translate(-138px,-78px); } 100% { transform: translate(-138px,-78px); } }
@keyframes a6_o { 0% { opacity: 0; } 5.5% { opacity: 0; } 6% { opacity: 1; } 100% { opacity: 1; } }
@keyframes a7_t { 0% { transform: translate(-148px,-78px); } 4.5% { transform: translate(-148px,-78px); animation-timing-function: cubic-bezier(.4,0,1,1); } 5.5% { transform: translate(-138px,-78px); } 100% { transform: translate(-138px,-78px); } }
@keyframes a7_o { 0% { opacity: 0; } 5% { opacity: 0; } 5.5% { opacity: 1; } 100% { opacity: 1; } }
@keyframes a8_t { 0% { transform: translate(-148px,-78px); } 4% { transform: translate(-148px,-78px); animation-timing-function: cubic-bezier(.4,0,1,1); } 5% { transform: translate(-138px,-78px); } 100% { transform: translate(-138px,-78px); } }
@keyframes a8_o { 0% { opacity: 0; } 4.5% { opacity: 0; } 5% { opacity: 1; } 100% { opacity: 1; } }
@keyframes a9_t { 0% { transform: translate(147px,89px); } 3.5% { transform: translate(147px,89px); animation-timing-function: cubic-bezier(.4,0,1,1); } 4.5% { transform: translate(157px,89px); } 100% { transform: translate(157px,89px); } }
@keyframes a9_o { 0% { opacity: 0; } 4% { opacity: 0; } 4.5% { opacity: 1; } 100% { opacity: 1; } }
@keyframes a10_t { 0% { transform: translate(-148px,-78px); } 3% { transform: translate(-148px,-78px); animation-timing-function: cubic-bezier(.4,0,1,1); } 4% { transform: translate(-138px,-78px); } 100% { transform: translate(-138px,-78px); } }
@keyframes a10_o { 0% { opacity: 0; } 3.5% { opacity: 0; } 4% { opacity: 1; } 100% { opacity: 1; } }
@keyframes a11_t { 0% { transform: translate(-148px,-78px); } 2.5% { transform: translate(-148px,-78px); animation-timing-function: cubic-bezier(.4,0,1,1); } 3.5% { transform: translate(-138px,-78px); } 100% { transform: translate(-138px,-78px); } }
@keyframes a11_o { 0% { opacity: 0; } 3% { opacity: 0; } 3.5% { opacity: 1; } 100% { opacity: 1; } }
@keyframes a12_t { 0% { transform: translate(-10px,0px); } 10% { transform: translate(-10px,0px); animation-timing-function: cubic-bezier(.4,0,1,1); } 11% { transform: translate(0px,0px); } 35% { transform: translate(0px,0px); animation-timing-function: cubic-bezier(.4,0,1,1); } 36% { transform: translate(29.8px,0px); } 50% { transform: translate(29.8px,0px); animation-timing-function: cubic-bezier(0,0,.6,1); } 51% { transform: translate(0px,0px); } 100% { transform: translate(0px,0px); } }
@keyframes a12_o { 0% { opacity: 0; } 10.5% { opacity: 0; } 11% { opacity: 1; } 97.5% { opacity: 1; } 100% { opacity: 0; } }
@keyframes a13_f { 0% { fill: #f0f0f1; } 18% { fill: #f0f0f1; animation-timing-function: cubic-bezier(.4,0,1,1); } 19% { fill: #2979ff; animation-timing-function: cubic-bezier(0,0,.6,1); } 32.5% { fill: #2979ff; animation-timing-function: cubic-bezier(0,0,.6,1); } 35% { fill: #f0f0f1; animation-timing-function: cubic-bezier(.4,0,1,1); } 60% { fill: #f0f0f1; animation-timing-function: cubic-bezier(.4,0,1,1); } 61% { fill: #2979ff; animation-timing-function: cubic-bezier(0,0,.6,1); } 72% { fill: #2979ff; animation-timing-function: cubic-bezier(0,0,.6,1); } 74.5% { fill: #f0f0f1; } 100% { fill: #f0f0f1; } }
@keyframes a14_f { 0% { fill: #2979ff; } 18% { fill: #2979ff; animation-timing-function: cubic-bezier(.4,0,1,1); } 19% { fill: #fff; animation-timing-function: cubic-bezier(0,0,.6,1); } 32.5% { fill: #fff; animation-timing-function: cubic-bezier(0,0,.6,1); } 35% { fill: #2979ff; animation-timing-function: cubic-bezier(.4,0,1,1); } 60% { fill: #2979ff; animation-timing-function: cubic-bezier(.4,0,1,1); } 61% { fill: #fff; animation-timing-function: cubic-bezier(0,0,.6,1); } 72% { fill: #fff; animation-timing-function: cubic-bezier(0,0,.6,1); } 74.5% { fill: #2979ff; } 100% { fill: #2979ff; } }
@keyframes a15_t { 0% { transform: translate(0px,10px); } 74.5% { transform: translate(0px,10px); animation-timing-function: cubic-bezier(.4,0,1,1); } 75.5% { transform: translate(0px,0px); } 90% { transform: translate(0px,0px); animation-timing-function: cubic-bezier(0,0,.6,1); } 91% { transform: translate(0px,10px); } 100% { transform: translate(0px,10px); } }
@keyframes a15_o { 0% { opacity: 0; } 75% { opacity: 0; animation-timing-function: cubic-bezier(.4,0,1,1); } 75.5% { opacity: 1; } 90% { opacity: 1; animation-timing-function: cubic-bezier(0,0,.6,1); } 90.5% { opacity: 0; } 100% { opacity: 0; } }
@keyframes a16_t { 0% { transform: translate(-10px,0px); } 35% { transform: translate(-10px,0px); animation-timing-function: cubic-bezier(.4,0,1,1); } 36% { transform: translate(0px,0px); } 49.5% { transform: translate(0px,0px); animation-timing-function: cubic-bezier(0,0,.6,1); } 50.5% { transform: translate(-10px,0px); } 100% { transform: translate(-10px,0px); } }
@keyframes a16_o { 0% { opacity: 0; } 35.5% { opacity: 0; } 36% { opacity: 1; } 49.5% { opacity: 1; } 50% { opacity: 0; } 100% { opacity: 0; } }
@keyframes a17_t { 0% { transform: translate(0px,10px); } 34.5% { transform: translate(0px,10px); animation-timing-function: cubic-bezier(.4,0,1,1); } 35.5% { transform: translate(0px,0px); } 50% { transform: translate(0px,0px); animation-timing-function: cubic-bezier(0,0,.6,1); } 51% { transform: translate(0px,10px); } 100% { transform: translate(0px,10px); } }
@keyframes a17_o { 0% { opacity: 0; } 35% { opacity: 0; animation-timing-function: cubic-bezier(.4,0,1,1); } 35.5% { opacity: 1; } 50% { opacity: 1; animation-timing-function: cubic-bezier(0,0,.6,1); } 50.5% { opacity: 0; } 100% { opacity: 0; } }
</style><rect x="128.2" y="60.2" width="203.5" height="137.5" fill="#19191d" stroke="#f0f0f1" stroke-width=".5"/><rect width="67" height="4" fill="#2979ff" opacity="0" transform="translate(158.6,77.8) translate(-26.6,-1.6)" style="animation: 20s linear infinite both a0_t, 20s linear infinite both a0_o, 20s linear infinite both a0_f;"/><g transform="translate(138,78)" style="animation: 20s linear infinite both a1_o;"><g opacity="0" transform="translate(-148,-78)" style="animation: 20s linear infinite both a2_t, 20s linear infinite both a2_o;"><rect x="138" y="127" width="12" height=".5" fill="#f0f0f1"/><rect x="154" y="127" width="19" height=".5" fill="#2979ff"/></g><g opacity="0" transform="translate(-148,-78)" style="animation: 20s linear infinite both a3_t, 20s linear infinite both a3_o;"><rect x="149" y="122" width="14" height=".5" fill="#f0f0f1"/><rect x="167" y="122" width="24" height=".5" fill="#f0f0f1"/></g><g opacity="0" transform="translate(-148,-78)" style="animation: 20s linear infinite both a4_t, 20s linear infinite both a4_o;"><rect x="145" y="116.5" width="24" height=".5" fill="#f0f0f1"/><rect x="173" y="116.5" width="8" height=".5" fill="#f0f0f1"/></g><g opacity="0" transform="translate(-148,-78)" style="animation: 20s linear infinite both a5_t, 20s linear infinite both a5_o;"><rect x="145" y="111" width="24" height=".5" fill="#f0f0f1"/><rect x="173" y="111" width="16" height=".5" fill="#f0f0f1"/></g><g opacity="0" transform="translate(-148,-78)" style="animation: 20s linear infinite both a6_t, 20s linear infinite both a6_o;"><rect x="145" y="105.5" width="14" height=".5" fill="#f0f0f1"/><rect x="163" y="105.5" width="8" height=".5" fill="#f0f0f1"/><rect x="175" y="105.5" width="7" height=".5" fill="#f0f0f1"/></g><g opacity="0" transform="translate(-148,-78)" style="animation: 20s linear infinite both a7_t, 20s linear infinite both a7_o;"><rect x="145" y="100" width="24" height=".5" fill="#f0f0f1"/><rect x="173" y="100" width="16" height=".5" fill="#f0f0f1"/></g><g opacity="0" transform="translate(-148,-78)" style="animation: 20s linear infinite both a8_t, 20s linear infinite both a8_o;"><rect x="161" y="94.5" width="16" height=".5" fill="#f0f0f1"/><rect x="181" y="94.5" width="4.2" height=".5" fill="#f0f0f1"/><rect x="145" y="94.5" width="12" height=".5" fill="#f0f0f1"/></g><g transform="translate(-138,-78)"><rect width="11.7" height=".5" fill="#f0f0f1" opacity="0" transform="translate(-10,0) translate(157,89)" style="animation: 20s linear infinite both a9_t, 20s linear infinite both a9_o;"/></g><g opacity="0" transform="translate(-148,-78)" style="animation: 20s linear infinite both a10_t, 20s linear infinite both a10_o;"><rect x="145" y="83.5" width="8" height=".5" fill="#f0f0f1"/><rect x="157" y="83.5" width="38" height=".5" fill="#f0f0f1"/></g><g opacity="0" transform="translate(-148,-78)" style="animation: 20s linear infinite both a11_t, 20s linear infinite both a11_o;"><rect x="138" y="78" width="12" height=".5" fill="#2979ff"/><rect x="154" y="78" width="19" height=".5" fill="#f0f0f1"/></g></g><g><path stroke="#f0f0f1" stroke-width=".5" d="M128 67.8h204"/><rect x="130" y="62" width="4" height="4" rx="2" fill="#2979ff"/></g><rect x="72.2" y="136.2" width="203.5" height="137.5" fill="#f0f0f1" stroke="#19191d" stroke-width=".5"/><rect x="74" y="138" width="4" height="4" rx="2" fill="#19191d"/><path stroke="#19191d" stroke-width=".5" d="M72 143.8l204-0.1"/><g transform="translate(80,154)"><g transform="translate(-80,-154)"><ellipse cx="85" cy="159" fill="#99999e" rx="5" ry="5"/><rect x="92" y="159" width="4" height=".5" fill="#99999e"/><rect x="97" y="159" width="9" height=".5" fill="#99999e"/></g><g transform="translate(-80,-154)"><rect x="80" y="173" width="23" height=".5" fill="#99999e"/><rect x="80" y="195.5" width="18" height=".5" fill="#99999e"/><rect x="80" y="180.5" width="20" height=".5" fill="#99999e"/><rect x="80" y="203" width="20" height=".5" fill="#99999e"/><rect x="80" y="188" width="22" height=".5" fill="#99999e"/><rect x="80" y="210.5" width="15" height=".5" fill="#99999e"/></g><path stroke="#99999e" stroke-width=".5" d="M32.2 0v110"/></g><g><g><rect x="118" y="160" opacity=".2" width="24" height="20" fill="#99999e"/><path opacity=".4" fill-rule="evenodd" clip-rule="evenodd" d="M132.8 166.4h-5.6c-0.4 0-0.8 .4-0.8 .8v5.6c0 .4 .4 .8 .8 .8h5.6c.4 0 .8-0.4 .8-0.8v-5.6c0-0.4-0.4-0.8-0.8-0.8Zm0 .8v5.6h-5.6v-5.6h5.6Zm-3.1 4.3l1.2-1.6l1.5 2.1h-4.8l1.2-1.5l.9 1Z" fill="#99999e"/></g><g><rect x="148" y="160" opacity=".2" width="24" height="20" fill="#99999e"/><path opacity=".4" fill-rule="evenodd" clip-rule="evenodd" d="M162.8 166.4h-5.6c-0.4 0-0.8 .4-0.8 .8v5.6c0 .4 .4 .8 .8 .8h5.6c.4 0 .8-0.4 .8-0.8v-5.6c0-0.4-0.4-0.8-0.8-0.8Zm0 .8v5.6h-5.6v-5.6h5.6Zm-3.1 4.3l1.2-1.6l1.5 2.1h-4.8l1.2-1.5l.9 1Z" fill="#99999e"/></g><g><rect x="178" y="160" opacity=".2" width="24" height="20" fill="#99999e"/><path opacity=".4" fill-rule="evenodd" clip-rule="evenodd" d="M192.8 166.4h-5.6c-0.4 0-0.8 .4-0.8 .8v5.6c0 .4 .4 .8 .8 .8h5.6c.4 0 .8-0.4 .8-0.8v-5.6c0-0.4-0.4-0.8-0.8-0.8Zm0 .8v5.6h-5.6v-5.6h5.6Zm-3.1 4.3l1.2-1.6l1.5 2.1h-4.8l1.2-1.5l.9 1Z" fill="#99999e"/></g><g><rect x="208" y="160" opacity=".2" width="24" height="20" fill="#99999e"/><path opacity=".4" fill-rule="evenodd" clip-rule="evenodd" d="M222.8 166.4h-5.6c-0.4 0-0.8 .4-0.8 .8v5.6c0 .4 .4 .8 .8 .8h5.6c.4 0 .8-0.4 .8-0.8v-5.6c0-0.4-0.4-0.8-0.8-0.8Zm0 .8v5.6h-5.6v-5.6h5.6Zm-3.1 4.3l1.2-1.6l1.5 2.1h-4.8l1.2-1.5l.9 1Z" fill="#99999e"/></g><g><rect x="238" y="160" opacity=".2" width="24" height="20" fill="#99999e"/><path opacity=".4" fill-rule="evenodd" clip-rule="evenodd" d="M252.8 166.4h-5.6c-0.4 0-0.8 .4-0.8 .8v5.6c0 .4 .4 .8 .8 .8h5.6c.4 0 .8-0.4 .8-0.8v-5.6c0-0.4-0.4-0.8-0.8-0.8Zm0 .8v5.6h-5.6v-5.6h5.6Zm-3.1 4.3l1.2-1.6l1.5 2.1h-4.8l1.2-1.5l.9 1Z" fill="#99999e"/></g><g><rect x="118" y="188" opacity=".2" width="24" height="20" fill="#99999e"/><path opacity=".4" fill-rule="evenodd" clip-rule="evenodd" d="M132.8 194.4h-5.6c-0.4 0-0.8 .4-0.8 .8v5.6c0 .4 .4 .8 .8 .8h5.6c.4 0 .8-0.4 .8-0.8v-5.6c0-0.4-0.4-0.8-0.8-0.8Zm0 .8v5.6h-5.6v-5.6h5.6Zm-3.1 4.3l1.2-1.6l1.5 2.1h-4.8l1.2-1.5l.9 1Z" fill="#99999e"/></g><g><rect x="148" y="188" opacity=".2" width="24" height="20" fill="#99999e"/><path opacity=".4" fill-rule="evenodd" clip-rule="evenodd" d="M162.8 194.4h-5.6c-0.4 0-0.8 .4-0.8 .8v5.6c0 .4 .4 .8 .8 .8h5.6c.4 0 .8-0.4 .8-0.8v-5.6c0-0.4-0.4-0.8-0.8-0.8Zm0 .8v5.6h-5.6v-5.6h5.6Zm-3.1 4.3l1.2-1.6l1.5 2.1h-4.8l1.2-1.5l.9 1Z" fill="#99999e"/></g><g><rect x="178" y="188" opacity=".2" width="24" height="20" fill="#99999e"/><path opacity=".4" fill-rule="evenodd" clip-rule="evenodd" d="M192.8 194.4h-5.6c-0.4 0-0.8 .4-0.8 .8v5.6c0 .4 .4 .8 .8 .8h5.6c.4 0 .8-0.4 .8-0.8v-5.6c0-0.4-0.4-0.8-0.8-0.8Zm0 .8v5.6h-5.6v-5.6h5.6Zm-3.1 4.3l1.2-1.6l1.5 2.1h-4.8l1.2-1.5l.9 1Z" fill="#99999e"/></g><g><rect x="208" y="188" opacity=".2" width="24" height="20" fill="#99999e"/><path opacity=".4" fill-rule="evenodd" clip-rule="evenodd" d="M222.8 194.4h-5.6c-0.4 0-0.8 .4-0.8 .8v5.6c0 .4 .4 .8 .8 .8h5.6c.4 0 .8-0.4 .8-0.8v-5.6c0-0.4-0.4-0.8-0.8-0.8Zm0 .8v5.6h-5.6v-5.6h5.6Zm-3.1 4.3l1.2-1.6l1.5 2.1h-4.8l1.2-1.5l.9 1Z" fill="#99999e"/></g><g><rect x="238" y="188" opacity=".2" width="24" height="20" fill="#99999e"/><path opacity=".4" fill-rule="evenodd" clip-rule="evenodd" d="M252.8 194.4h-5.6c-0.4 0-0.8 .4-0.8 .8v5.6c0 .4 .4 .8 .8 .8h5.6c.4 0 .8-0.4 .8-0.8v-5.6c0-0.4-0.4-0.8-0.8-0.8Zm0 .8v5.6h-5.6v-5.6h5.6Zm-3.1 4.3l1.2-1.6l1.5 2.1h-4.8l1.2-1.5l.9 1Z" fill="#99999e"/></g><g><rect x="118" y="216" opacity=".2" width="24" height="20" fill="#99999e"/><path opacity=".4" fill-rule="evenodd" clip-rule="evenodd" d="M132.8 222.4h-5.6c-0.4 0-0.8 .4-0.8 .8v5.6c0 .4 .4 .8 .8 .8h5.6c.4 0 .8-0.4 .8-0.8v-5.6c0-0.4-0.4-0.8-0.8-0.8Zm0 .8v5.6h-5.6v-5.6h5.6Zm-3.1 4.3l1.2-1.6l1.5 2.1h-4.8l1.2-1.5l.9 1Z" fill="#99999e"/></g><g><rect x="148" y="216" opacity=".2" width="24" height="20" fill="#99999e"/><path opacity=".4" fill-rule="evenodd" clip-rule="evenodd" d="M162.8 222.4h-5.6c-0.4 0-0.8 .4-0.8 .8v5.6c0 .4 .4 .8 .8 .8h5.6c.4 0 .8-0.4 .8-0.8v-5.6c0-0.4-0.4-0.8-0.8-0.8Zm0 .8v5.6h-5.6v-5.6h5.6Zm-3.1 4.3l1.2-1.6l1.5 2.1h-4.8l1.2-1.5l.9 1Z" fill="#99999e"/></g><g><rect x="178" y="216" opacity=".2" width="24" height="20" fill="#99999e"/><path opacity=".4" fill-rule="evenodd" clip-rule="evenodd" d="M192.8 222.4h-5.6c-0.4 0-0.8 .4-0.8 .8v5.6c0 .4 .4 .8 .8 .8h5.6c.4 0 .8-0.4 .8-0.8v-5.6c0-0.4-0.4-0.8-0.8-0.8Zm0 .8v5.6h-5.6v-5.6h5.6Zm-3.1 4.3l1.2-1.6l1.5 2.1h-4.8l1.2-1.5l.9 1Z" fill="#99999e"/></g></g><g opacity="0" transform="translate(-10,0)" style="animation: 20s linear infinite both a12_t, 20s linear infinite both a12_o;"><rect width="23.5" height="19.5" stroke="#b3cfff" stroke-width=".5" fill="#f0f0f1" transform="translate(208.2,216.2)" style="animation: 20s linear infinite both a13_f;"/><path d="M222 226.4h-1.6v1.6h-0.8v-1.6h-1.6v-0.8h1.6v-1.6h.8v1.6h1.6v.8Zm.8-4h-5.6c-0.4 0-0.8 .4-0.8 .8v5.6c0 .2 .1 .4 .2 .6c.2 .1 .4 .2 .6 .2h5.6c.2 0 .4-0.1 .6-0.2c.1-0.2 .2-0.4 .2-0.6v-5.6c0-0.4-0.4-0.8-0.8-0.8Z" fill="#2979ff" style="animation: 20s linear infinite both a14_f;"/></g><g opacity="0" transform="translate(0,10)" style="animation: 20s linear infinite both a15_t, 20s linear infinite both a15_o;"><rect x="216" y="260" width="54" height="8" fill="#f44336"/><g><path fill-rule="evenodd" clip-rule="evenodd" d="M264.6 264l1.4 1.4l-0.6 .6l-1.4-1.4l-1.4 1.4l-0.6-0.6l1.4-1.4l-1.4-1.4l.6-0.6l1.4 1.4l1.4-1.4l.6 .6l-1.4 1.4Z" fill="#fff"/></g><g><rect x="220" y="264" opacity=".5" width="20" height=".5" fill="#fff"/><rect x="243" y="264" opacity=".5" width="13" height=".5" fill="#fff"/></g></g><g opacity="0" transform="translate(-10,0)" style="animation: 20s linear infinite both a16_t, 20s linear infinite both a16_o;"><rect x="208" y="216" width="24" height="20" fill="#b3cfff"/><path fill-rule="evenodd" clip-rule="evenodd" d="M222.8 222.4h-5.6c-0.4 0-0.8 .4-0.8 .8v5.6c0 .4 .4 .8 .8 .8h5.6c.4 0 .8-0.4 .8-0.8v-5.6c0-0.4-0.4-0.8-0.8-0.8Zm0 .8v5.6h-5.6v-5.6h5.6Zm-3.1 4.3l1.2-1.6l1.5 2.1h-4.8l1.2-1.5l.9 1Z" fill="#2979ff"/></g><g opacity="0" transform="translate(0,10)" style="animation: 20s linear infinite both a17_t, 20s linear infinite both a17_o;"><rect x="216" y="260" width="54" height="8" fill="#43a047"/><g><path fill-rule="evenodd" clip-rule="evenodd" d="M266.2 262.7l-2.9 3l-1.6-1.5l.6-0.6l.9 1l2.5-2.5l.6 .6h-0.1Z" fill="#fff"/></g><g><rect x="220" y="264" opacity=".5" width="20" height=".5" fill="#fff"/><rect x="243" y="264" opacity=".5" width="13" height=".5" fill="#fff"/></g></g></svg>