<svg xmlns="http://www.w3.org/2000/svg" viewBox="0 0 405 333" fill="none">
    <style>
@keyframes a0_t { 0% { transform: translate(196.2px,125.2px); } 12.987% { transform: translate(196.2px,125.2px); } 14.286% { transform: translate(188.2px,133.2px); animation-timing-function: steps(1); } 14.292% { transform: translate(196.2px,125.2px); } 27.273% { transform: translate(196.2px,125.2px); } 28.571% { transform: translate(188.2px,133.2px); animation-timing-function: steps(1); } 28.578% { transform: translate(196.2px,125.2px); } 41.558% { transform: translate(196.2px,125.2px); } 42.857% { transform: translate(188.2px,133.2px); animation-timing-function: steps(1); } 42.864% { transform: translate(196.2px,125.2px); } 55.844% { transform: translate(196.2px,125.2px); } 57.143% { transform: translate(188.2px,133.2px); animation-timing-function: steps(1); } 57.149% { transform: translate(196.2px,125.2px); } 70.13% { transform: translate(196.2px,125.2px); } 71.428% { transform: translate(188.2px,133.2px); animation-timing-function: steps(1); } 71.435% { transform: translate(196.2px,125.2px); } 84.415% { transform: translate(196.2px,125.2px); } 85.714% { transform: translate(188.2px,133.2px); animation-timing-function: steps(1); } 85.721% { transform: translate(196.2px,125.2px); } 98.701% { transform: translate(196.2px,125.2px); } 100% { transform: translate(188.2px,133.2px); } }
@keyframes a0_o { 0% { opacity: 0; } 12.987% { opacity: 0; } 14.286% { opacity: 1; } 14.292% { opacity: 0; } 27.273% { opacity: 0; } 28.571% { opacity: 1; } 28.578% { opacity: 0; } 41.558% { opacity: 0; } 42.857% { opacity: 1; } 42.864% { opacity: 0; } 55.844% { opacity: 0; } 57.143% { opacity: 1; } 57.149% { opacity: 0; } 70.13% { opacity: 0; } 71.428% { opacity: 1; } 71.435% { opacity: 0; } 84.416% { opacity: 0; } 85.714% { opacity: 1; } 85.721% { opacity: 0; } 98.701% { opacity: 0; } 100% { opacity: 1; } }
@keyframes a1_t { 0% { transform: translate(188.2px,133.2px); } 12.987% { transform: translate(188.2px,133.2px); } 14.286% { transform: translate(180.2px,141.2px); animation-timing-function: steps(1); } 14.292% { transform: translate(188.2px,133.2px); } 27.273% { transform: translate(188.2px,133.2px); } 28.571% { transform: translate(180.2px,141.2px); animation-timing-function: steps(1); } 28.578% { transform: translate(188.2px,133.2px); } 41.558% { transform: translate(188.2px,133.2px); } 42.857% { transform: translate(180.2px,141.2px); animation-timing-function: steps(1); } 42.864% { transform: translate(188.2px,133.2px); } 55.844% { transform: translate(188.2px,133.2px); } 57.143% { transform: translate(180.2px,141.2px); animation-timing-function: steps(1); } 57.149% { transform: translate(188.2px,133.2px); } 70.13% { transform: translate(188.2px,133.2px); } 71.428% { transform: translate(180.2px,141.2px); animation-timing-function: steps(1); } 71.435% { transform: translate(188.2px,133.2px); } 84.415% { transform: translate(188.2px,133.2px); } 85.714% { transform: translate(180.2px,141.2px); animation-timing-function: steps(1); } 85.721% { transform: translate(188.2px,133.2px); } 98.701% { transform: translate(188.2px,133.2px); } 100% { transform: translate(180.2px,141.2px); } }
@keyframes a2_t { 0% { transform: translate(180.2px,141.2px); } 12.987% { transform: translate(180.2px,141.2px); } 14.286% { transform: translate(172.2px,149.2px); animation-timing-function: steps(1); } 14.292% { transform: translate(180.2px,141.2px); } 27.273% { transform: translate(180.2px,141.2px); } 28.571% { transform: translate(172.2px,149.2px); animation-timing-function: steps(1); } 28.578% { transform: translate(180.2px,141.2px); } 41.558% { transform: translate(180.2px,141.2px); } 42.857% { transform: translate(172.2px,149.2px); animation-timing-function: steps(1); } 42.864% { transform: translate(180.2px,141.2px); } 55.844% { transform: translate(180.2px,141.2px); } 57.143% { transform: translate(172.2px,149.2px); animation-timing-function: steps(1); } 57.149% { transform: translate(180.2px,141.2px); } 70.13% { transform: translate(180.2px,141.2px); } 71.428% { transform: translate(172.2px,149.2px); animation-timing-function: steps(1); } 71.435% { transform: translate(180.2px,141.2px); } 84.415% { transform: translate(180.2px,141.2px); } 85.714% { transform: translate(172.2px,149.2px); animation-timing-function: steps(1); } 85.721% { transform: translate(180.2px,141.2px); } 98.701% { transform: translate(180.2px,141.2px); } 100% { transform: translate(172.2px,149.2px); } }
@keyframes a3_t { 0% { transform: translate(172.2px,149.2px); } 12.987% { transform: translate(172.2px,149.2px); } 14.286% { transform: translate(164.2px,157.2px); animation-timing-function: steps(1); } 14.292% { transform: translate(172.2px,149.2px); } 27.273% { transform: translate(172.2px,149.2px); } 28.571% { transform: translate(164.2px,157.2px); animation-timing-function: steps(1); } 28.578% { transform: translate(172.2px,149.2px); } 41.558% { transform: translate(172.2px,149.2px); } 42.857% { transform: translate(164.2px,157.2px); animation-timing-function: steps(1); } 42.864% { transform: translate(172.2px,149.2px); } 55.844% { transform: translate(172.2px,149.2px); } 57.143% { transform: translate(164.2px,157.2px); animation-timing-function: steps(1); } 57.149% { transform: translate(172.2px,149.2px); } 70.13% { transform: translate(172.2px,149.2px); } 71.428% { transform: translate(164.2px,157.2px); animation-timing-function: steps(1); } 71.435% { transform: translate(172.2px,149.2px); } 84.415% { transform: translate(172.2px,149.2px); } 85.714% { transform: translate(164.2px,157.2px); animation-timing-function: steps(1); } 85.721% { transform: translate(172.2px,149.2px); } 98.701% { transform: translate(172.2px,149.2px); } 100% { transform: translate(164.2px,157.2px); } }
@keyframes a4_t { 0% { transform: translate(164.2px,157.2px); } 12.987% { transform: translate(164.2px,157.2px); } 14.286% { transform: translate(156.2px,165.2px); animation-timing-function: steps(1); } 14.292% { transform: translate(164.2px,157.2px); } 27.273% { transform: translate(164.2px,157.2px); } 28.571% { transform: translate(156.2px,165.2px); animation-timing-function: steps(1); } 28.578% { transform: translate(164.2px,157.2px); } 41.558% { transform: translate(164.2px,157.2px); } 42.857% { transform: translate(156.2px,165.2px); animation-timing-function: steps(1); } 42.864% { transform: translate(164.2px,157.2px); } 55.844% { transform: translate(164.2px,157.2px); } 57.143% { transform: translate(156.2px,165.2px); animation-timing-function: steps(1); } 57.149% { transform: translate(164.2px,157.2px); } 70.13% { transform: translate(164.2px,157.2px); } 71.428% { transform: translate(156.2px,165.2px); animation-timing-function: steps(1); } 71.435% { transform: translate(164.2px,157.2px); } 84.415% { transform: translate(164.2px,157.2px); } 85.714% { transform: translate(156.2px,165.2px); animation-timing-function: steps(1); } 85.721% { transform: translate(164.2px,157.2px); } 98.701% { transform: translate(164.2px,157.2px); } 100% { transform: translate(156.2px,165.2px); } }
@keyframes a5_t { 0% { transform: translate(156.2px,165.2px); } 12.987% { transform: translate(156.2px,165.2px); } 14.286% { transform: translate(148.2px,173.2px); animation-timing-function: steps(1); } 14.292% { transform: translate(156.2px,165.2px); } 27.273% { transform: translate(156.2px,165.2px); } 28.571% { transform: translate(148.2px,173.2px); animation-timing-function: steps(1); } 28.578% { transform: translate(156.2px,165.2px); } 41.558% { transform: translate(156.2px,165.2px); } 42.857% { transform: translate(148.2px,173.2px); animation-timing-function: steps(1); } 42.864% { transform: translate(156.2px,165.2px); } 55.844% { transform: translate(156.2px,165.2px); } 57.143% { transform: translate(148.2px,173.2px); animation-timing-function: steps(1); } 57.149% { transform: translate(156.2px,165.2px); } 70.13% { transform: translate(156.2px,165.2px); } 71.428% { transform: translate(148.2px,173.2px); animation-timing-function: steps(1); } 71.435% { transform: translate(156.2px,165.2px); } 84.415% { transform: translate(156.2px,165.2px); } 85.714% { transform: translate(148.2px,173.2px); animation-timing-function: steps(1); } 85.721% { transform: translate(156.2px,165.2px); } 98.701% { transform: translate(156.2px,165.2px); } 100% { transform: translate(148.2px,173.2px); } }
@keyframes a6_t { 0% { transform: translate(148.2px,173.2px); } 12.987% { transform: translate(148.2px,173.2px); } 14.286% { transform: translate(140.2px,181.2px); animation-timing-function: steps(1); } 14.292% { transform: translate(148.2px,173.2px); } 27.273% { transform: translate(148.2px,173.2px); } 28.571% { transform: translate(140.2px,181.2px); animation-timing-function: steps(1); } 28.578% { transform: translate(148.2px,173.2px); } 41.558% { transform: translate(148.2px,173.2px); } 42.857% { transform: translate(140.2px,181.2px); animation-timing-function: steps(1); } 42.864% { transform: translate(148.2px,173.2px); } 55.844% { transform: translate(148.2px,173.2px); } 57.143% { transform: translate(140.2px,181.2px); animation-timing-function: steps(1); } 57.149% { transform: translate(148.2px,173.2px); } 70.13% { transform: translate(148.2px,173.2px); } 71.428% { transform: translate(140.2px,181.2px); animation-timing-function: steps(1); } 71.435% { transform: translate(148.2px,173.2px); } 84.415% { transform: translate(148.2px,173.2px); } 85.714% { transform: translate(140.2px,181.2px); animation-timing-function: steps(1); } 85.721% { transform: translate(148.2px,173.2px); } 98.701% { transform: translate(148.2px,173.2px); } 100% { transform: translate(140.2px,181.2px); } }
@keyframes a6_o { 0% { opacity: 1; } 12.987% { opacity: 1; } 14.286% { opacity: 0; } 14.292% { opacity: 1; } 27.273% { opacity: 1; } 28.571% { opacity: 0; } 28.578% { opacity: 1; } 41.558% { opacity: 1; } 42.857% { opacity: 0; } 42.864% { opacity: 1; } 55.844% { opacity: 1; } 57.143% { opacity: 0; } 57.149% { opacity: 1; } 70.13% { opacity: 1; } 71.428% { opacity: 0; } 71.435% { opacity: 1; } 84.416% { opacity: 1; } 85.714% { opacity: 0; } 85.721% { opacity: 1; } 98.701% { opacity: 1; } 100% { opacity: 0; } }
@keyframes a7_o { 0% { opacity: 0; animation-timing-function: cubic-bezier(0.4,0,1,1); } 1.299% { opacity: 1; } 11.688% { opacity: 1; animation-timing-function: cubic-bezier(0,0,0.6,1); } 12.987% { opacity: 0; } 14.286% { opacity: 0; } 14.292% { opacity: 0; animation-timing-function: cubic-bezier(0.4,0,1,1); } 15.584% { opacity: 1; } 25.974% { opacity: 1; animation-timing-function: cubic-bezier(0,0,0.6,1); } 27.273% { opacity: 0; } 28.571% { opacity: 0; } 28.578% { opacity: 0; animation-timing-function: cubic-bezier(0.4,0,1,1); } 29.87% { opacity: 1; } 40.26% { opacity: 1; animation-timing-function: cubic-bezier(0,0,0.6,1); } 41.558% { opacity: 0; } 42.857% { opacity: 0; } 42.864% { opacity: 0; animation-timing-function: cubic-bezier(0.4,0,1,1); } 44.156% { opacity: 1; } 54.545% { opacity: 1; animation-timing-function: cubic-bezier(0,0,0.6,1); } 55.844% { opacity: 0; } 57.143% { opacity: 0; } 57.149% { opacity: 0; animation-timing-function: cubic-bezier(0.4,0,1,1); } 58.442% { opacity: 1; } 68.831% { opacity: 1; animation-timing-function: cubic-bezier(0,0,0.6,1); } 70.13% { opacity: 0; } 71.428% { opacity: 0; } 71.435% { opacity: 0; animation-timing-function: cubic-bezier(0.4,0,1,1); } 72.727% { opacity: 1; } 83.117% { opacity: 1; animation-timing-function: cubic-bezier(0,0,0.6,1); } 84.416% { opacity: 0; } 85.714% { opacity: 0; } 85.721% { opacity: 0; animation-timing-function: cubic-bezier(0.4,0,1,1); } 87.013% { opacity: 1; } 97.403% { opacity: 1; animation-timing-function: cubic-bezier(0,0,0.6,1); } 98.701% { opacity: 0; } 100% { opacity: 0; } }
@keyframes a8_o { 0% { opacity: 0; animation-timing-function: cubic-bezier(0.4,0,1,1); } 1.299% { opacity: 1; } 11.688% { opacity: 1; animation-timing-function: cubic-bezier(0,0,0.6,1); } 12.987% { opacity: 0; } 100% { opacity: 0; } }
@keyframes a9_o { 0% { opacity: 0; } 14.286% { opacity: 0; animation-timing-function: cubic-bezier(0.4,0,1,1); } 15.584% { opacity: 1; } 25.974% { opacity: 1; animation-timing-function: cubic-bezier(0,0,0.6,1); } 27.273% { opacity: 0; } 100% { opacity: 0; } }
@keyframes a10_o { 0% { opacity: 0; } 28.571% { opacity: 0; animation-timing-function: cubic-bezier(0.4,0,1,1); } 29.87% { opacity: 1; } 40.26% { opacity: 1; animation-timing-function: cubic-bezier(0,0,0.6,1); } 41.558% { opacity: 0; } 100% { opacity: 0; } }
@keyframes a11_o { 0% { opacity: 0; } 42.857% { opacity: 0; animation-timing-function: cubic-bezier(0.4,0,1,1); } 44.156% { opacity: 1; } 54.545% { opacity: 1; animation-timing-function: cubic-bezier(0,0,0.6,1); } 55.844% { opacity: 0; } 100% { opacity: 0; } }
@keyframes a12_o { 0% { opacity: 0; } 57.143% { opacity: 0; animation-timing-function: cubic-bezier(0.4,0,1,1); } 58.442% { opacity: 1; } 68.831% { opacity: 1; animation-timing-function: cubic-bezier(0,0,0.6,1); } 70.13% { opacity: 0; } 100% { opacity: 0; } }
@keyframes a13_o { 0% { opacity: 0; } 71.429% { opacity: 0; animation-timing-function: cubic-bezier(0.4,0,1,1); } 72.727% { opacity: 1; } 83.117% { opacity: 1; animation-timing-function: cubic-bezier(0,0,0.6,1); } 84.416% { opacity: 0; } 100% { opacity: 0; } }
@keyframes a14_o { 0% { opacity: 0; } 85.714% { opacity: 0; animation-timing-function: cubic-bezier(0.4,0,1,1); } 87.013% { opacity: 1; } 97.403% { opacity: 1; animation-timing-function: cubic-bezier(0,0,0.6,1); } 98.701% { opacity: 0; } 100% { opacity: 0; } }
    </style>
    <g transform="translate(-71.4,-51.5)">
        <rect width="203.5" height="137.5" fill="#19191D" stroke="#F0F0F1" stroke-width="0.5" opacity="0" transform="translate(8,-8) translate(188.2,133.2)" style="animation: 15.4s linear infinite both a0_t, 15.4s linear infinite both a0_o;"/>
        <rect width="203.5" height="137.5" fill="#19191D" stroke="#F0F0F1" stroke-width="0.5" transform="translate(0,0) translate(188.2,133.2)" style="animation: 15.4s linear infinite both a1_t;"/>
        <rect width="203.5" height="137.5" fill="#19191D" stroke="#F0F0F1" stroke-width="0.5" transform="translate(0,0) translate(180.2,141.2)" style="animation: 15.4s linear infinite both a2_t;"/>
        <rect width="203.5" height="137.5" fill="#19191D" stroke="#F0F0F1" stroke-width="0.5" transform="translate(0,0) translate(172.2,149.2)" style="animation: 15.4s linear infinite both a3_t;"/>
        <rect width="203.5" height="137.5" fill="#19191D" stroke="#F0F0F1" stroke-width="0.5" transform="translate(0,0) translate(164.2,157.2)" style="animation: 15.4s linear infinite both a4_t;"/>
        <rect width="203.5" height="137.5" fill="#19191D" stroke="#F0F0F1" stroke-width="0.5" transform="translate(0,0) translate(156.2,165.2)" style="animation: 15.4s linear infinite both a5_t;"/>
        <rect width="203.5" height="137.5" fill="#19191D" stroke="#F0F0F1" stroke-width="0.5" transform="translate(0,0) translate(148.2,173.2)" style="animation: 15.4s linear infinite both a6_t, 15.4s linear infinite both a6_o;"/>
        <g opacity="0" transform="translate(148,173.2)" style="isolation: isolate; animation: 15.4s linear infinite both a7_o;">
            <rect x="2.2" y="2" width="4" height="4" fill="#FF9800" rx="4"/>
            <path stroke="#F0F0F1" stroke-width="0.5" d="M0,7.5L204,7.5"/>
        </g>
    </g>
    <path fill="#FF9800" opacity="0" d="M-35.1,-11.9L-35.1,-15.9L-14.1,-28.3L-14.1,-24.1L-31.3,-14.1L-31.3,-13.7L-14.1,-3.6L-14.1,0.6ZM-9.1,7.5L3.9,-37L7.5,-37L-5.5,7.5ZM14.1,-3.6L31.3,-13.7L31.3,-14.1L14.1,-24.1L14.1,-28.3L35.1,-15.9L35.1,-11.9L14.1,0.6Z" transform="translate(178.6,209.2)" style="animation: 15.4s linear infinite both a8_o;"/>
    <path fill="#FF9800" opacity="0" d="M-59.1,-11.9L-59.1,-15.9L-38.1,-28.3L-38.1,-24.1L-55.4,-14.1L-55.4,-13.7L-38.1,-3.6L-38.1,0.6ZM-26.8,0.6C-27.9,0.6,-28.7,0.3,-29.2,-0.2C-29.7,-0.7,-29.9,-1.4,-29.9,-2.3L-29.9,-2.9C-29.9,-3.8,-29.7,-4.5,-29.2,-5C-28.7,-5.6,-27.9,-5.8,-26.8,-5.8C-25.8,-5.8,-25,-5.6,-24.5,-5C-24,-4.5,-23.8,-3.8,-23.8,-2.9L-23.8,-2.3C-23.8,-1.4,-24,-0.7,-24.5,-0.2C-25,0.3,-25.8,0.6,-26.8,0.6ZM-15.8,-25.8L-11.8,-25.8L-11.8,-21.6L-11.6,-21.6C-10.9,-23.2,-10,-24.4,-8.7,-25.2C-7.4,-26,-5.9,-26.4,-4.1,-26.4C-2.5,-26.4,-1,-26.1,0.3,-25.4C1.6,-24.8,2.7,-23.9,3.6,-22.8C4.5,-21.6,5.2,-20.2,5.7,-18.5C6.2,-16.8,6.4,-15,6.4,-12.9C6.4,-10.8,6.2,-9,5.7,-7.3C5.2,-5.6,4.5,-4.2,3.6,-3C2.7,-1.9,1.6,-1,0.3,-0.3C-1,0.3,-2.5,0.6,-4.1,0.6C-7.6,0.6,-10.1,-1,-11.6,-4.2L-11.8,-4.2L-11.8,10L-15.8,10ZM-5.2,-3C-2.9,-3,-1.1,-3.7,0.2,-5.1C1.5,-6.5,2.1,-8.4,2.1,-10.7L2.1,-15.1C2.1,-17.4,1.5,-19.3,0.2,-20.7C-1.1,-22.1,-2.9,-22.8,-5.2,-22.8C-6.1,-22.8,-6.9,-22.7,-7.7,-22.4C-8.5,-22.2,-9.3,-21.8,-9.9,-21.4C-10.5,-21,-10.9,-20.4,-11.3,-19.8C-11.6,-19.2,-11.8,-18.6,-11.8,-17.9L-11.8,-8.2C-11.8,-7.4,-11.6,-6.7,-11.3,-6C-10.9,-5.4,-10.5,-4.8,-9.9,-4.4C-9.3,-3.9,-8.5,-3.6,-7.7,-3.3C-6.9,-3.1,-6.1,-3,-5.2,-3ZM28.8,-25.8L32.8,-25.8L21.2,6C20.9,6.8,20.6,7.4,20.3,7.9C20,8.4,19.7,8.9,19.2,9.2C18.8,9.5,18.3,9.7,17.6,9.8C17,9.9,16.2,10,15.2,10L13.2,10L13.2,6.5L17.2,6.5L19.2,1L9.5,-25.8L13.5,-25.8L19.7,-8.2L20.9,-4L21.2,-4L22.6,-8.2ZM38.1,-3.6L55.4,-13.7L55.4,-14.1L38.1,-24.1L38.1,-28.3L59.1,-15.9L59.1,-11.9L38.1,0.6Z" transform="translate(178.6,209.2)" style="animation: 15.4s linear infinite both a9_o;"/>
    <path fill="#FF9800" opacity="0" d="M-59.2,-11.9L-59.2,-15.9L-38.2,-28.3L-38.2,-24.1L-55.5,-14.1L-55.5,-13.7L-38.2,-3.6L-38.2,0.6ZM-26.9,0.6C-28,0.6,-28.8,0.3,-29.3,-0.2C-29.7,-0.7,-30,-1.4,-30,-2.3L-30,-2.9C-30,-3.8,-29.7,-4.5,-29.3,-5C-28.8,-5.6,-28,-5.8,-26.9,-5.8C-25.9,-5.8,-25.1,-5.6,-24.6,-5C-24.1,-4.5,-23.9,-3.8,-23.9,-2.9L-23.9,-2.3C-23.9,-1.4,-24.1,-0.7,-24.6,-0.2C-25.1,0.3,-25.9,0.6,-26.9,0.6ZM5.6,2.8C5.6,5.5,4.6,7.5,2.5,8.7C0.4,10,-2.7,10.6,-6.9,10.6C-10.9,10.6,-13.8,10.1,-15.6,9C-17.3,7.8,-18.2,6.3,-18.2,4.2C-18.2,2.8,-17.9,1.8,-17.1,1C-16.4,0.2,-15.4,-0.4,-14.1,-0.8L-14.1,-1.3C-15.7,-2,-16.4,-3.2,-16.4,-4.9C-16.4,-6.2,-16,-7.2,-15.2,-7.9C-14.3,-8.6,-13.3,-9.1,-12,-9.4L-12,-9.6C-13.5,-10.3,-14.7,-11.4,-15.6,-12.8C-16.4,-14.1,-16.8,-15.7,-16.8,-17.5C-16.8,-18.8,-16.6,-20,-16.1,-21.1C-15.7,-22.2,-15,-23.1,-14.2,-23.9C-13.3,-24.7,-12.3,-25.3,-11.1,-25.8C-9.9,-26.2,-8.6,-26.4,-7.1,-26.4C-5.3,-26.4,-3.7,-26.1,-2.2,-25.4L-2.2,-25.9C-2.2,-26.9,-2,-27.7,-1.5,-28.3C-1.1,-29,-0.3,-29.3,0.8,-29.3L4.6,-29.3L4.6,-25.8L-0.3,-25.8L-0.3,-24.2C0.7,-23.4,1.4,-22.4,1.9,-21.3C2.4,-20.2,2.7,-18.9,2.7,-17.5C2.7,-16.2,2.4,-15,2,-13.9C1.5,-12.8,0.8,-11.9,0,-11.1C-0.9,-10.3,-1.9,-9.7,-3.1,-9.2C-4.3,-8.8,-5.6,-8.6,-7.1,-8.6C-7.9,-8.6,-8.7,-8.7,-9.6,-8.9C-10.4,-8.6,-11.2,-8.3,-11.9,-7.8C-12.6,-7.4,-13,-6.8,-13,-6C-13,-5.2,-12.6,-4.7,-11.9,-4.4C-11.1,-4.1,-10.2,-4,-9,-4L-3.5,-4C-0.3,-4,2,-3.4,3.4,-2.2C4.9,-1,5.6,0.7,5.6,2.8ZM1.9,3.1C1.9,2.1,1.5,1.3,0.7,0.7C-0.1,0.1,-1.5,-0.2,-3.5,-0.2L-12.1,-0.2C-13.7,0.5,-14.5,1.7,-14.5,3.2C-14.5,4.4,-14.1,5.3,-13.2,6.1C-12.4,7,-10.9,7.3,-8.9,7.3L-5.2,7.3C-2.9,7.3,-1.2,7,0,6.3C1.3,5.6,1.9,4.5,1.9,3.1ZM-7.1,-11.8C-5.4,-11.8,-4,-12.2,-3,-13C-2,-13.8,-1.5,-15.1,-1.5,-16.8L-1.5,-18.2C-1.5,-19.9,-2,-21.2,-3,-22C-4,-22.8,-5.4,-23.2,-7.1,-23.2C-8.8,-23.2,-10.1,-22.8,-11.1,-22C-12.1,-21.2,-12.6,-19.9,-12.6,-18.2L-12.6,-16.8C-12.6,-15.1,-12.1,-13.8,-11.1,-13C-10.1,-12.2,-8.8,-11.8,-7.1,-11.8ZM19.7,0.6C18,0.6,16.4,0.3,15,-0.3C13.5,-1,12.3,-1.9,11.3,-3.1C10.3,-4.3,9.5,-5.7,8.9,-7.3C8.4,-9,8.1,-10.8,8.1,-12.9C8.1,-14.9,8.4,-16.8,8.9,-18.4C9.5,-20.1,10.3,-21.5,11.3,-22.7C12.3,-23.9,13.5,-24.8,15,-25.4C16.4,-26.1,18,-26.4,19.7,-26.4C21.5,-26.4,23,-26.1,24.5,-25.4C25.9,-24.8,27.1,-23.9,28.1,-22.7C29.2,-21.5,30,-20.1,30.5,-18.4C31.1,-16.8,31.4,-14.9,31.4,-12.9C31.4,-10.8,31.1,-9,30.5,-7.3C30,-5.7,29.2,-4.3,28.1,-3.1C27.1,-1.9,25.9,-1,24.5,-0.3C23,0.3,21.5,0.6,19.7,0.6ZM19.7,-2.9C21.9,-2.9,23.7,-3.6,25,-5C26.4,-6.3,27.1,-8.3,27.1,-11.1L27.1,-14.8C27.1,-17.5,26.4,-19.5,25,-20.9C23.7,-22.2,21.9,-22.9,19.7,-22.9C17.6,-22.9,15.8,-22.2,14.4,-20.9C13.1,-19.5,12.4,-17.5,12.4,-14.8L12.4,-11.1C12.4,-8.3,13.1,-6.3,14.4,-5C15.8,-3.6,17.6,-2.9,19.7,-2.9ZM38.2,-3.6L55.5,-13.7L55.5,-14.1L38.2,-24.1L38.2,-28.3L59.2,-15.9L59.2,-11.9L38.2,0.6Z" transform="translate(178.6,209.2)" style="animation: 15.4s linear infinite both a10_o;"/>
    <path fill="#FF9800" opacity="0" d="M-75.5,-11.9L-75.5,-15.9L-54.5,-28.3L-54.5,-24.1L-71.8,-14.1L-71.8,-13.7L-54.5,-3.6L-54.5,0.6ZM-43.2,0.6C-44.3,0.6,-45,0.3,-45.5,-0.2C-46,-0.7,-46.2,-1.4,-46.2,-2.3L-46.2,-2.9C-46.2,-3.8,-46,-4.5,-45.5,-5C-45,-5.6,-44.3,-5.8,-43.2,-5.8C-42.1,-5.8,-41.4,-5.6,-40.9,-5C-40.4,-4.5,-40.1,-3.8,-40.1,-2.9L-40.1,-2.3C-40.1,-1.4,-40.4,-0.7,-40.9,-0.2C-41.4,0.3,-42.1,0.6,-43.2,0.6ZM-32.2,-25.8L-28.2,-25.8L-28.2,-21.6L-28,-21.6C-27.3,-23.2,-26.3,-24.4,-25,-25.2C-23.7,-26,-22.2,-26.4,-20.4,-26.4C-18.8,-26.4,-17.4,-26.1,-16.1,-25.4C-14.8,-24.8,-13.6,-23.9,-12.7,-22.8C-11.8,-21.6,-11.1,-20.2,-10.6,-18.5C-10.1,-16.8,-9.9,-15,-9.9,-12.9C-9.9,-10.8,-10.1,-9,-10.6,-7.3C-11.1,-5.6,-11.8,-4.2,-12.7,-3C-13.6,-1.9,-14.8,-1,-16.1,-0.3C-17.4,0.3,-18.8,0.6,-20.4,0.6C-23.9,0.6,-26.4,-1,-28,-4.2L-28.2,-4.2L-28.2,10L-32.2,10ZM-21.5,-3C-19.2,-3,-17.5,-3.7,-16.2,-5.1C-14.9,-6.5,-14.2,-8.4,-14.2,-10.7L-14.2,-15.1C-14.2,-17.4,-14.9,-19.3,-16.2,-20.7C-17.5,-22.1,-19.2,-22.8,-21.5,-22.8C-22.4,-22.8,-23.3,-22.7,-24.1,-22.4C-24.9,-22.2,-25.6,-21.8,-26.2,-21.4C-26.8,-21,-27.3,-20.4,-27.6,-19.8C-28,-19.2,-28.2,-18.6,-28.2,-17.9L-28.2,-8.2C-28.2,-7.4,-28,-6.7,-27.6,-6C-27.3,-5.4,-26.8,-4.8,-26.2,-4.4C-25.6,-3.9,-24.9,-3.6,-24.1,-3.3C-23.3,-3.1,-22.4,-3,-21.5,-3ZM-3.2,-37L0.8,-37L0.8,-21.6L1,-21.6C1.7,-23.1,2.6,-24.2,3.7,-25.1C4.9,-26,6.4,-26.4,8.3,-26.4C11,-26.4,13.1,-25.5,14.7,-23.8C16.2,-22.1,17,-19.7,17,-16.6L17,0L13,0L13,-15.9C13,-20.5,11,-22.8,7.1,-22.8C6.3,-22.8,5.6,-22.7,4.8,-22.5C4.1,-22.3,3.4,-22,2.8,-21.6C2.2,-21.2,1.7,-20.7,1.4,-20.1C1,-19.5,0.8,-18.7,0.8,-17.9L0.8,0L-3.2,0ZM25.2,-25.8L29.2,-25.8L29.2,-21.6L29.4,-21.6C30.1,-23.2,31.1,-24.4,32.4,-25.2C33.7,-26,35.2,-26.4,37,-26.4C38.6,-26.4,40,-26.1,41.3,-25.4C42.6,-24.8,43.8,-23.9,44.7,-22.8C45.6,-21.6,46.3,-20.2,46.8,-18.5C47.3,-16.8,47.5,-15,47.5,-12.9C47.5,-10.8,47.3,-9,46.8,-7.3C46.3,-5.6,45.6,-4.2,44.7,-3C43.8,-1.9,42.6,-1,41.3,-0.3C40,0.3,38.6,0.6,37,0.6C33.5,0.6,31,-1,29.4,-4.2L29.2,-4.2L29.2,10L25.2,10ZM35.9,-3C38.2,-3,39.9,-3.7,41.2,-5.1C42.5,-6.5,43.2,-8.4,43.2,-10.7L43.2,-15.1C43.2,-17.4,42.5,-19.3,41.2,-20.7C39.9,-22.1,38.2,-22.8,35.9,-22.8C35,-22.8,34.1,-22.7,33.3,-22.4C32.5,-22.2,31.8,-21.8,31.2,-21.4C30.6,-21,30.1,-20.4,29.8,-19.8C29.4,-19.2,29.2,-18.6,29.2,-17.9L29.2,-8.2C29.2,-7.4,29.4,-6.7,29.8,-6C30.1,-5.4,30.6,-4.8,31.2,-4.4C31.8,-3.9,32.5,-3.6,33.3,-3.3C34.1,-3.1,35,-3,35.9,-3ZM54.5,-3.6L71.8,-13.7L71.8,-14.1L54.5,-24.1L54.5,-28.3L75.5,-15.9L75.5,-11.9L54.5,0.6Z" transform="translate(178.6,209.2)" style="animation: 15.4s linear infinite both a11_o;"/>
    <path fill="#FF9800" opacity="0" d="M-77.1,-11.9L-77.1,-15.9L-56.1,-28.3L-56.1,-24.1L-73.4,-14.1L-73.4,-13.7L-56.1,-3.6L-56.1,0.6ZM-44.8,0.6C-45.9,0.6,-46.7,0.3,-47.1,-0.2C-47.6,-0.7,-47.9,-1.4,-47.9,-2.3L-47.9,-2.9C-47.9,-3.8,-47.6,-4.5,-47.1,-5C-46.7,-5.6,-45.9,-5.8,-44.8,-5.8C-43.8,-5.8,-43,-5.6,-42.5,-5C-42,-4.5,-41.8,-3.8,-41.8,-2.9L-41.8,-2.3C-41.8,-1.4,-42,-0.7,-42.5,-0.2C-43,0.3,-43.8,0.6,-44.8,0.6ZM-33.8,-25.8L-29.8,-25.8L-29.8,4C-29.8,5.8,-30.2,7.2,-31.1,8.4C-32,9.5,-33.4,10,-35.4,10L-38,10L-38,6.5L-33.8,6.5ZM-31.8,-31.9C-32.6,-31.9,-33.3,-32.1,-33.6,-32.5C-34,-32.9,-34.2,-33.4,-34.2,-34.1L-34.2,-34.8C-34.2,-35.4,-34,-36,-33.6,-36.4C-33.3,-36.8,-32.6,-37,-31.8,-37C-30.9,-37,-30.3,-36.8,-29.9,-36.4C-29.5,-36,-29.3,-35.4,-29.3,-34.8L-29.3,-34.1C-29.3,-33.4,-29.5,-32.9,-29.9,-32.5C-30.3,-32.1,-30.9,-31.9,-31.8,-31.9ZM-2.5,0C-4,0,-5.1,-0.4,-5.7,-1.2C-6.4,-2,-6.8,-3,-7,-4.2L-7.2,-4.2C-7.8,-2.6,-8.7,-1.4,-10,-0.6C-11.3,0.2,-12.9,0.6,-14.7,0.6C-17.4,0.6,-19.5,-0.1,-21,-1.5C-22.6,-2.9,-23.3,-4.8,-23.3,-7.2C-23.3,-9.6,-22.4,-11.5,-20.6,-12.8C-18.9,-14.1,-16.1,-14.8,-12.3,-14.8L-7.2,-14.8L-7.2,-17.3C-7.2,-19.1,-7.7,-20.5,-8.7,-21.5C-9.7,-22.5,-11.3,-22.9,-13.3,-22.9C-14.9,-22.9,-16.2,-22.6,-17.2,-21.9C-18.3,-21.2,-19.2,-20.3,-19.9,-19.1L-22.3,-21.4C-21.6,-22.8,-20.5,-23.9,-18.9,-24.9C-17.4,-25.9,-15.5,-26.4,-13.1,-26.4C-10,-26.4,-7.6,-25.6,-5.8,-24.1C-4.1,-22.6,-3.2,-20.4,-3.2,-17.7L-3.2,-3.5L-0.3,-3.5L-0.3,0ZM-14,-2.8C-13,-2.8,-12.1,-2.9,-11.3,-3.1C-10.4,-3.4,-9.7,-3.7,-9.1,-4.1C-8.5,-4.6,-8.1,-5.1,-7.7,-5.6C-7.4,-6.2,-7.2,-6.8,-7.2,-7.5L-7.2,-11.8L-12.5,-11.8C-14.8,-11.8,-16.5,-11.4,-17.5,-10.8C-18.6,-10.1,-19.1,-9.1,-19.1,-7.8L-19.1,-6.8C-19.1,-5.5,-18.7,-4.5,-17.7,-3.8C-16.8,-3.1,-15.6,-2.8,-14,-2.8ZM10.7,0L1.7,-25.8L5.7,-25.8L10.2,-13L13,-4.2L13.2,-4.2L16,-13L20.6,-25.8L24.5,-25.8L15.4,0ZM47.9,0C46.4,0,45.3,-0.4,44.7,-1.2C44,-2,43.6,-3,43.5,-4.2L43.2,-4.2C42.6,-2.6,41.7,-1.4,40.4,-0.6C39.1,0.2,37.6,0.6,35.8,0.6C33,0.6,30.9,-0.1,29.4,-1.5C27.9,-2.9,27.1,-4.8,27.1,-7.2C27.1,-9.6,28,-11.5,29.8,-12.8C31.6,-14.1,34.3,-14.8,38.1,-14.8L43.2,-14.8L43.2,-17.3C43.2,-19.1,42.7,-20.5,41.7,-21.5C40.7,-22.5,39.2,-22.9,37.1,-22.9C35.5,-22.9,34.2,-22.6,33.2,-21.9C32.1,-21.2,31.3,-20.3,30.6,-19.1L28.2,-21.4C28.9,-22.8,30,-23.9,31.5,-24.9C33,-25.9,35,-26.4,37.3,-26.4C40.4,-26.4,42.9,-25.6,44.6,-24.1C46.3,-22.6,47.2,-20.4,47.2,-17.7L47.2,-3.5L50.2,-3.5L50.2,0ZM36.4,-2.8C37.4,-2.8,38.3,-2.9,39.2,-3.1C40,-3.4,40.7,-3.7,41.3,-4.1C41.9,-4.6,42.4,-5.1,42.7,-5.6C43,-6.2,43.2,-6.8,43.2,-7.5L43.2,-11.8L37.9,-11.8C35.6,-11.8,33.9,-11.4,32.9,-10.8C31.8,-10.1,31.3,-9.1,31.3,-7.8L31.3,-6.8C31.3,-5.5,31.8,-4.5,32.7,-3.8C33.6,-3.1,34.8,-2.8,36.4,-2.8ZM56.1,-3.6L73.4,-13.7L73.4,-14.1L56.1,-24.1L56.1,-28.3L77.1,-15.9L77.1,-11.9L56.1,0.6Z" transform="translate(178.6,209.2)" style="animation: 15.4s linear infinite both a12_o;"/>
    <path fill="#FF9800" opacity="0" d="M-52.9,-11.9L-52.9,-15.9L-31.9,-28.3L-31.9,-24.1L-49.1,-14.1L-49.1,-13.7L-31.9,-3.6L-31.9,0.6ZM-20.6,0.6C-21.6,0.6,-22.4,0.3,-22.9,-0.2C-23.4,-0.7,-23.6,-1.4,-23.6,-2.3L-23.6,-2.9C-23.6,-3.8,-23.4,-4.5,-22.9,-5C-22.4,-5.6,-21.6,-5.8,-20.6,-5.8C-19.5,-5.8,-18.7,-5.6,-18.2,-5C-17.8,-4.5,-17.5,-3.8,-17.5,-2.9L-17.5,-2.3C-17.5,-1.4,-17.8,-0.7,-18.2,-0.2C-18.7,0.3,-19.5,0.6,-20.6,0.6ZM-4.6,0C-6,0,-7,-0.4,-7.7,-1.2C-8.5,-2,-8.8,-3,-8.8,-4.2L-8.8,-22.3L-13.1,-22.3L-13.1,-25.8L-10.7,-25.8C-9.8,-25.8,-9.2,-26,-8.9,-26.3C-8.6,-26.7,-8.4,-27.3,-8.4,-28.2L-8.4,-32.9L-4.8,-32.9L-4.8,-25.8L0.8,-25.8L0.8,-22.3L-4.8,-22.3L-4.8,-3.5L0.4,-3.5L0.4,0ZM15,0.6C12.6,0.6,10.6,0.1,9,-0.8C7.4,-1.7,6,-2.9,4.8,-4.5L7.7,-6.8C8.7,-5.5,9.8,-4.5,11,-3.8C12.3,-3.1,13.7,-2.8,15.3,-2.8C17,-2.8,18.3,-3.2,19.3,-3.9C20.2,-4.6,20.7,-5.7,20.7,-7C20.7,-8,20.4,-8.9,19.7,-9.6C19.1,-10.3,17.9,-10.8,16.2,-11.1L14.2,-11.4C13,-11.5,11.9,-11.8,10.9,-12.1C9.9,-12.5,9,-12.9,8.2,-13.5C7.5,-14.1,6.9,-14.8,6.5,-15.7C6.1,-16.6,5.9,-17.6,5.9,-18.8C5.9,-20.1,6.1,-21.2,6.6,-22.1C7,-23.1,7.7,-23.9,8.5,-24.5C9.3,-25.1,10.3,-25.6,11.4,-25.9C12.6,-26.2,13.8,-26.4,15.1,-26.4C17.2,-26.4,18.9,-26,20.3,-25.3C21.8,-24.6,23,-23.6,24.1,-22.2L21.4,-19.9C20.9,-20.7,20,-21.4,18.9,-22C17.8,-22.7,16.4,-23,14.8,-23C13.1,-23,11.8,-22.6,11,-21.9C10.1,-21.2,9.7,-20.2,9.7,-19C9.7,-17.7,10.1,-16.8,11,-16.2C11.8,-15.7,13.1,-15.3,14.7,-15L16.7,-14.7C19.5,-14.3,21.6,-13.4,22.8,-12.2C24,-11,24.6,-9.4,24.6,-7.5C24.6,-5,23.7,-3,22,-1.6C20.3,-0.1,18,0.6,15,0.6ZM31.9,-3.6L49.1,-13.7L49.1,-14.1L31.9,-24.1L31.9,-28.3L52.9,-15.9L52.9,-11.9L31.9,0.6Z" transform="translate(178.6,209.2)" style="animation: 15.4s linear infinite both a13_o;"/>
    <path fill="#FF9800" opacity="0" d="M-82.5,-11.9L-82.5,-15.9L-61.5,-28.3L-61.5,-24.1L-78.8,-14.1L-78.8,-13.7L-61.5,-3.6L-61.5,0.6ZM-50.2,0.6C-51.3,0.6,-52.1,0.3,-52.5,-0.2C-53,-0.7,-53.3,-1.4,-53.3,-2.3L-53.3,-2.9C-53.3,-3.8,-53,-4.5,-52.5,-5C-52.1,-5.6,-51.3,-5.8,-50.2,-5.8C-49.2,-5.8,-48.4,-5.6,-47.9,-5C-47.4,-4.5,-47.2,-3.8,-47.2,-2.9L-47.2,-2.3C-47.2,-1.4,-47.4,-0.7,-47.9,-0.2C-48.4,0.3,-49.2,0.6,-50.2,0.6ZM-39.2,0L-39.2,-25.8L-35.2,-25.8L-35.2,-21.1L-34.9,-21.1C-34.5,-22.3,-33.6,-23.4,-32.4,-24.4C-31.2,-25.3,-29.6,-25.8,-27.5,-25.8L-25.9,-25.8L-25.9,-21.8L-28.3,-21.8C-30.4,-21.8,-32.1,-21.4,-33.4,-20.6C-34.6,-19.8,-35.2,-18.7,-35.2,-17.5L-35.2,0ZM-4.9,-4.2L-5.1,-4.2C-5.4,-3.6,-5.7,-3,-6.1,-2.4C-6.5,-1.8,-7,-1.3,-7.5,-0.9C-8.1,-0.4,-8.8,-0.1,-9.6,0.2C-10.4,0.5,-11.3,0.6,-12.4,0.6C-15.1,0.6,-17.2,-0.3,-18.7,-2C-20.3,-3.7,-21.1,-6.1,-21.1,-9.2L-21.1,-25.8L-17.1,-25.8L-17.1,-10C-17.1,-5.3,-15.1,-3,-11.2,-3C-10.4,-3,-9.6,-3.1,-8.9,-3.3C-8.1,-3.5,-7.4,-3.8,-6.9,-4.2C-6.3,-4.6,-5.8,-5.1,-5.5,-5.7C-5.1,-6.3,-4.9,-7.1,-4.9,-8L-4.9,-25.8L-0.9,-25.8L-0.9,0L-4.9,0ZM7.6,-37L11.6,-37L11.6,-21.6L11.8,-21.6C12.4,-23.2,13.4,-24.4,14.7,-25.2C16,-26,17.5,-26.4,19.3,-26.4C20.9,-26.4,22.4,-26.1,23.7,-25.4C25,-24.8,26.1,-23.9,27,-22.8C27.9,-21.6,28.6,-20.2,29.1,-18.5C29.6,-16.8,29.8,-15,29.8,-12.9C29.8,-10.8,29.6,-9,29.1,-7.3C28.6,-5.6,27.9,-4.2,27,-3C26.1,-1.9,25,-1,23.7,-0.3C22.4,0.3,20.9,0.6,19.3,0.6C15.8,0.6,13.3,-1,11.8,-4.2L11.6,-4.2L11.6,0L7.6,0ZM18.2,-3C20.5,-3,22.3,-3.7,23.6,-5.1C24.9,-6.5,25.5,-8.4,25.5,-10.7L25.5,-15.1C25.5,-17.4,24.9,-19.3,23.6,-20.7C22.3,-22.1,20.5,-22.8,18.2,-22.8C17.3,-22.8,16.5,-22.7,15.6,-22.4C14.8,-22.2,14.1,-21.8,13.5,-21.4C12.9,-21,12.4,-20.4,12.1,-19.8C11.7,-19.2,11.6,-18.6,11.6,-17.9L11.6,-8.2C11.6,-7.4,11.7,-6.7,12.1,-6C12.4,-5.4,12.9,-4.8,13.5,-4.4C14.1,-3.9,14.8,-3.6,15.6,-3.3C16.5,-3.1,17.3,-3,18.2,-3ZM52.2,-25.8L56.2,-25.8L44.6,6C44.3,6.8,44,7.4,43.7,7.9C43.4,8.4,43.1,8.9,42.6,9.2C42.2,9.5,41.6,9.7,41,9.8C40.3,9.9,39.6,10,38.6,10L36.6,10L36.6,6.5L40.6,6.5L42.6,1L32.9,-25.8L36.9,-25.8L43.1,-8.2L44.3,-4L44.6,-4L46,-8.2ZM61.5,-3.6L78.8,-13.7L78.8,-14.1L61.5,-24.1L61.5,-28.3L82.5,-15.9L82.5,-11.9L61.5,0.6Z" transform="translate(178.6,209.2)" style="animation: 15.4s linear infinite both a14_o;"/>
</svg>
