<svg xmlns="http://www.w3.org/2000/svg" width="405" height="333" viewBox="0 0 405 333" fill="none"><style>
@keyframes a0_t { 0% { transform: translate(-10px,0px); } 9.655% { transform: translate(-10px,0px); animation-timing-function: cubic-bezier(.4,0,1,1); } 11.034% { transform: translate(0px,0px); } 97.931% { transform: translate(0px,0px); animation-timing-function: cubic-bezier(0,0,.6,1); } 99.31% { transform: translate(-10px,0px); } 100% { transform: translate(-10px,0px); } }
@keyframes a0_o { 0% { opacity: 0; } 9.655% { opacity: 0; animation-timing-function: cubic-bezier(.4,0,1,1); } 11.034% { opacity: 1; } 97.931% { opacity: 1; animation-timing-function: cubic-bezier(0,0,.6,1); } 99.31% { opacity: 0; } 100% { opacity: 0; } }
@keyframes a1_t { 0% { transform: translate(-10px,0px); } 8.966% { transform: translate(-10px,0px); animation-timing-function: cubic-bezier(.4,0,1,1); } 10.345% { transform: translate(0px,0px); } 97.241% { transform: translate(0px,0px); animation-timing-function: cubic-bezier(0,0,.6,1); } 98.621% { transform: translate(-10px,0px); } 100% { transform: translate(-10px,0px); } }
@keyframes a1_o { 0% { opacity: 0; } 8.966% { opacity: 0; animation-timing-function: cubic-bezier(.4,0,1,1); } 10.345% { opacity: 1; } 97.241% { opacity: 1; animation-timing-function: cubic-bezier(0,0,.6,1); } 98.621% { opacity: 0; } 100% { opacity: 0; } }
@keyframes a2_f { 0% { fill: #f0f0f1; } 57.241% { fill: #f0f0f1; } 58.621% { fill: #00a571; } 100% { fill: #00a571; } }
@keyframes a3_f { 0% { fill: #f0f0f1; } 57.241% { fill: #f0f0f1; } 58.621% { fill: #00a571; } 100% { fill: #00a571; } }
@keyframes a4_t { 0% { transform: translate(-10px,0px); } 8.276% { transform: translate(-10px,0px); animation-timing-function: cubic-bezier(.4,0,1,1); } 9.655% { transform: translate(0px,0px); } 96.552% { transform: translate(0px,0px); animation-timing-function: cubic-bezier(0,0,.6,1); } 97.931% { transform: translate(-10px,0px); } 100% { transform: translate(-10px,0px); } }
@keyframes a4_o { 0% { opacity: 0; } 8.276% { opacity: 0; animation-timing-function: cubic-bezier(.4,0,1,1); } 9.655% { opacity: 1; } 96.552% { opacity: 1; animation-timing-function: cubic-bezier(0,0,.6,1); } 97.931% { opacity: 0; } 100% { opacity: 0; } }
@keyframes a5_t { 0% { transform: translate(-10px,0px); } 7.586% { transform: translate(-10px,0px); animation-timing-function: cubic-bezier(.4,0,1,1); } 8.966% { transform: translate(0px,0px); } 95.862% { transform: translate(0px,0px); animation-timing-function: cubic-bezier(0,0,.6,1); } 97.241% { transform: translate(-10px,0px); } 100% { transform: translate(-10px,0px); } }
@keyframes a5_o { 0% { opacity: 0; } 7.586% { opacity: 0; animation-timing-function: cubic-bezier(.4,0,1,1); } 8.966% { opacity: 1; } 95.862% { opacity: 1; animation-timing-function: cubic-bezier(0,0,.6,1); } 97.241% { opacity: 0; } 100% { opacity: 0; } }
@keyframes a6_t { 0% { transform: translate(-10px,0px); } 6.896% { transform: translate(-10px,0px); animation-timing-function: cubic-bezier(.4,0,1,1); } 8.276% { transform: translate(0px,0px); } 95.172% { transform: translate(0px,0px); animation-timing-function: cubic-bezier(0,0,.6,1); } 96.552% { transform: translate(-10px,0px); } 100% { transform: translate(-10px,0px); } }
@keyframes a6_o { 0% { opacity: 0; } 6.897% { opacity: 0; animation-timing-function: cubic-bezier(.4,0,1,1); } 8.276% { opacity: 1; } 95.172% { opacity: 1; animation-timing-function: cubic-bezier(0,0,.6,1); } 96.552% { opacity: 0; } 100% { opacity: 0; } }
@keyframes a7_t { 0% { transform: translate(-10px,0px); } 6.207% { transform: translate(-10px,0px); animation-timing-function: cubic-bezier(.4,0,1,1); } 7.586% { transform: translate(0px,0px); } 94.483% { transform: translate(0px,0px); animation-timing-function: cubic-bezier(0,0,.6,1); } 95.862% { transform: translate(-10px,0px); } 100% { transform: translate(-10px,0px); } }
@keyframes a7_o { 0% { opacity: 0; } 6.207% { opacity: 0; animation-timing-function: cubic-bezier(.4,0,1,1); } 7.586% { opacity: 1; } 94.483% { opacity: 1; animation-timing-function: cubic-bezier(0,0,.6,1); } 95.862% { opacity: 0; } 100% { opacity: 0; } }
@keyframes a8_f { 0% { fill: #00a571; } 56.552% { fill: #00a571; } 57.931% { fill: #f0f0f1; } 100% { fill: #f0f0f1; } }
@keyframes a9_f { 0% { fill: #00a571; } 56.552% { fill: #00a571; } 57.931% { fill: #f0f0f1; } 100% { fill: #f0f0f1; } }
@keyframes a10_t { 0% { transform: translate(-10px,0px); } 5.517% { transform: translate(-10px,0px); animation-timing-function: cubic-bezier(.4,0,1,1); } 6.896% { transform: translate(0px,0px); } 93.793% { transform: translate(0px,0px); animation-timing-function: cubic-bezier(0,0,.6,1); } 95.172% { transform: translate(-10px,0px); } 100% { transform: translate(-10px,0px); } }
@keyframes a10_o { 0% { opacity: 0; } 5.517% { opacity: 0; animation-timing-function: cubic-bezier(.4,0,1,1); } 6.897% { opacity: 1; } 93.793% { opacity: 1; animation-timing-function: cubic-bezier(0,0,.6,1); } 95.172% { opacity: 0; } 100% { opacity: 0; } }
@keyframes a11_t { 0% { transform: translate(-10px,0px); } 4.827% { transform: translate(-10px,0px); animation-timing-function: cubic-bezier(.4,0,1,1); } 6.207% { transform: translate(0px,0px); } 93.103% { transform: translate(0px,0px); animation-timing-function: cubic-bezier(0,0,.6,1); } 94.483% { transform: translate(-10px,0px); } 100% { transform: translate(-10px,0px); } }
@keyframes a11_o { 0% { opacity: 0; } 4.828% { opacity: 0; animation-timing-function: cubic-bezier(.4,0,1,1); } 6.207% { opacity: 1; } 93.103% { opacity: 1; animation-timing-function: cubic-bezier(0,0,.6,1); } 94.483% { opacity: 0; } 100% { opacity: 0; } }
@keyframes a12_t { 0% { transform: translate(-10px,0px); } 4.138% { transform: translate(-10px,0px); animation-timing-function: cubic-bezier(.4,0,1,1); } 5.517% { transform: translate(0px,0px); } 92.414% { transform: translate(0px,0px); animation-timing-function: cubic-bezier(0,0,.6,1); } 93.793% { transform: translate(-10px,0px); } 100% { transform: translate(-10px,0px); } }
@keyframes a12_o { 0% { opacity: 0; } 4.138% { opacity: 0; animation-timing-function: cubic-bezier(.4,0,1,1); } 5.517% { opacity: 1; } 92.414% { opacity: 1; animation-timing-function: cubic-bezier(0,0,.6,1); } 93.793% { opacity: 0; } 100% { opacity: 0; } }
@keyframes a13_f { 0% { fill: #00a571; } 55.862% { fill: #00a571; } 57.241% { fill: #f0f0f1; } 100% { fill: #f0f0f1; } }
@keyframes a14_f { 0% { fill: #00a571; } 55.862% { fill: #00a571; } 57.241% { fill: #f0f0f1; } 100% { fill: #f0f0f1; } }
@keyframes a15_t { 0% { transform: translate(-10px,0px); } 3.448% { transform: translate(-10px,0px); animation-timing-function: cubic-bezier(.4,0,1,1); } 4.827% { transform: translate(0px,0px); } 91.724% { transform: translate(0px,0px); animation-timing-function: cubic-bezier(0,0,.6,1); } 93.103% { transform: translate(-10px,0px); } 100% { transform: translate(-10px,0px); } }
@keyframes a15_o { 0% { opacity: 0; } 3.448% { opacity: 0; animation-timing-function: cubic-bezier(.4,0,1,1); } 4.828% { opacity: 1; } 91.724% { opacity: 1; animation-timing-function: cubic-bezier(0,0,.6,1); } 93.103% { opacity: 0; } 100% { opacity: 0; } }
@keyframes a16_t { 0% { transform: translate(-10px,0px); } 10.345% { transform: translate(-10px,0px); animation-timing-function: cubic-bezier(.4,0,1,1); } 11.724% { transform: translate(0px,0px); } 53.103% { transform: translate(0px,0px); animation-timing-function: cubic-bezier(0,0,.6,1); } 54.483% { transform: translate(-10px,0px); } 100% { transform: translate(-10px,0px); } }
@keyframes a16_o { 0% { opacity: 0; } 10.345% { opacity: 0; animation-timing-function: cubic-bezier(.4,0,1,1); } 11.724% { opacity: 1; } 53.103% { opacity: 1; animation-timing-function: cubic-bezier(0,0,.6,1); } 54.483% { opacity: 0; } 100% { opacity: 0; } }
@keyframes a17_t { 0% { transform: translate(-10px,0px); } 54.483% { transform: translate(-10px,0px); animation-timing-function: cubic-bezier(.4,0,1,1); } 55.862% { transform: translate(0px,0px); } 98.621% { transform: translate(0px,0px); animation-timing-function: cubic-bezier(0,0,.6,1); } 100% { transform: translate(-10px,0px); } }
@keyframes a17_o { 0% { opacity: 0; } 54.483% { opacity: 0; animation-timing-function: cubic-bezier(.4,0,1,1); } 55.862% { opacity: 1; } 98.621% { opacity: 1; animation-timing-function: cubic-bezier(0,0,.6,1); } 100% { opacity: 0; } }
@keyframes a18_t { 0% { transform: translate(0px,0px); } 22.069% { transform: translate(0px,0px); animation-timing-function: cubic-bezier(.4,0,1,1); } 24.138% { transform: translate(-33px,0px); } 48.276% { transform: translate(-33px,0px); animation-timing-function: cubic-bezier(0,0,.6,1); } 50.345% { transform: translate(0px,0px); } 72.414% { transform: translate(0px,0px); animation-timing-function: cubic-bezier(.4,0,1,1); } 74.483% { transform: translate(-33px,0px); } 100% { transform: translate(-33px,0px); } }
@keyframes a18_o { 0% { opacity: 1; } 22.759% { opacity: 1; animation-timing-function: cubic-bezier(.4,0,1,1); } 24.138% { opacity: 0; } 48.276% { opacity: 0; animation-timing-function: cubic-bezier(0,0,.6,1); } 49.655% { opacity: 1; } 73.103% { opacity: 1; animation-timing-function: cubic-bezier(.4,0,1,1); } 74.483% { opacity: 0; } 100% { opacity: 0; } }
@keyframes a19_f { 0% { fill: #dedede; } 17.241% { fill: #dedede; } 18.621% { fill: #6be2bd; } 22.759% { fill: #6be2bd; } 24.138% { fill: #dedede; } 62.069% { fill: #dedede; } 63.448% { fill: #6be2bd; } 67.586% { fill: #6be2bd; } 68.966% { fill: #dedede; } 100% { fill: #dedede; } }
@keyframes a20_f { 0% { fill: #99999e; } 17.241% { fill: #99999e; } 18.621% { fill: #fff; } 22.759% { fill: #fff; } 24.138% { fill: #99999e; } 62.069% { fill: #99999e; } 63.448% { fill: #fff; } 67.586% { fill: #fff; } 68.966% { fill: #99999e; } 100% { fill: #99999e; } }
@keyframes a21_s { 0% { stroke: #99999e; } 17.241% { stroke: #99999e; } 18.621% { stroke: #fff; } 22.759% { stroke: #fff; } 24.138% { stroke: #99999e; } 62.069% { stroke: #99999e; } 63.448% { stroke: #fff; } 67.586% { stroke: #fff; } 68.966% { stroke: #99999e; } 100% { stroke: #99999e; } }
@keyframes a22_s { 0% { stroke: #99999e; } 17.241% { stroke: #99999e; } 18.621% { stroke: #fff; } 22.759% { stroke: #fff; } 24.138% { stroke: #99999e; } 62.069% { stroke: #99999e; } 63.448% { stroke: #fff; } 67.586% { stroke: #fff; } 68.966% { stroke: #99999e; } 100% { stroke: #99999e; } }
@keyframes a23_s { 0% { stroke: #99999e; } 17.241% { stroke: #99999e; } 18.621% { stroke: #fff; } 22.759% { stroke: #fff; } 24.138% { stroke: #99999e; } 62.069% { stroke: #99999e; } 63.448% { stroke: #fff; } 67.586% { stroke: #fff; } 68.966% { stroke: #99999e; } 100% { stroke: #99999e; } }
@keyframes a24_s { 0% { stroke: #99999e; } 17.241% { stroke: #99999e; } 18.621% { stroke: #fff; } 22.759% { stroke: #fff; } 24.138% { stroke: #99999e; } 62.069% { stroke: #99999e; } 63.448% { stroke: #fff; } 67.586% { stroke: #fff; } 68.966% { stroke: #99999e; } 100% { stroke: #99999e; } }
@keyframes a25_s { 0% { stroke: #99999e; } 17.241% { stroke: #99999e; } 18.621% { stroke: #fff; } 22.759% { stroke: #fff; } 24.138% { stroke: #99999e; } 62.069% { stroke: #99999e; } 63.448% { stroke: #fff; } 67.586% { stroke: #fff; } 68.966% { stroke: #99999e; } 100% { stroke: #99999e; } }
@keyframes a26_s { 0% { stroke: #99999e; } 17.241% { stroke: #99999e; } 18.621% { stroke: #fff; } 22.759% { stroke: #fff; } 24.138% { stroke: #99999e; } 62.069% { stroke: #99999e; } 63.448% { stroke: #fff; } 67.586% { stroke: #fff; } 68.966% { stroke: #99999e; } 100% { stroke: #99999e; } }
@keyframes a27_t { 0% { transform: translate(10px,0px); } 27.586% { transform: translate(10px,0px); animation-timing-function: cubic-bezier(0,0,.6,1); } 29.655% { transform: translate(0px,0px); } 42.069% { transform: translate(0px,0px); animation-timing-function: cubic-bezier(.4,0,1,1); } 44.138% { transform: translate(10px,0px); } 77.931% { transform: translate(10px,0px); animation-timing-function: cubic-bezier(0,0,.6,1); } 80% { transform: translate(0px,0px); } 89.655% { transform: translate(0px,0px); animation-timing-function: cubic-bezier(.4,0,1,1); } 91.724% { transform: translate(10px,0px); } 100% { transform: translate(10px,0px); } }
@keyframes a27_o { 0% { opacity: 0; } 27.586% { opacity: 0; animation-timing-function: cubic-bezier(0,0,.6,1); } 28.966% { opacity: 1; } 42.759% { opacity: 1; animation-timing-function: cubic-bezier(.4,0,1,1); } 44.138% { opacity: 0; } 77.931% { opacity: 0; animation-timing-function: cubic-bezier(0,0,.6,1); } 79.31% { opacity: 1; } 90.345% { opacity: 1; animation-timing-function: cubic-bezier(.4,0,1,1); } 91.724% { opacity: 0; } 100% { opacity: 0; } }
@keyframes a28_f { 0% { fill: #00a571; } 37.241% { fill: #00a571; } 38.621% { fill: #19191d; } 75.862% { fill: #19191d; } 77.241% { fill: #5a5b6a; } 100% { fill: #5a5b6a; } }
@keyframes a29_s { 0% { stroke: #00a571; } 75.862% { stroke: #00a571; } 77.241% { stroke: #5a5b6a; } 100% { stroke: #5a5b6a; } }
@keyframes a29_f { 0% { fill: #00a571; } 75.862% { fill: #00a571; } 77.241% { fill: #5a5b6a; } 100% { fill: #5a5b6a; } }
@keyframes a30_s { 0% { stroke: #99999e; } 75.862% { stroke: #99999e; } 77.241% { stroke: #5a5b6a; } 100% { stroke: #5a5b6a; } }
@keyframes a31_s { 0% { stroke: #00a571; } 75.862% { stroke: #00a571; } 77.241% { stroke: #5a5b6a; } 100% { stroke: #5a5b6a; } }
@keyframes a31_f { 0% { fill: #fff; } 32.414% { fill: #fff; } 33.793% { fill: #00a571; } 75.862% { fill: #00a571; } 77.241% { fill: #fff; } 100% { fill: #fff; } }
@keyframes a32_s { 0% { stroke: #99999e; } 75.862% { stroke: #99999e; } 77.241% { stroke: #5a5b6a; } 100% { stroke: #5a5b6a; } }
@keyframes a33_s { 0% { stroke: #99999e; } 75.862% { stroke: #99999e; } 77.241% { stroke: #5a5b6a; } 100% { stroke: #5a5b6a; } }
@keyframes a34_f { 0% { fill: #fff; } 75.862% { fill: #fff; } 77.241% { fill: #c6c6c6; } 100% { fill: #c6c6c6; } }
@keyframes a35_s { 0% { stroke: #00a571; } 75.862% { stroke: #00a571; } 77.241% { stroke: #5a5b6a; } 100% { stroke: #5a5b6a; } }
@keyframes a36_f { 0% { fill: #fff; } 75.862% { fill: #fff; } 77.241% { fill: #c6c6c6; } 100% { fill: #c6c6c6; } }
@keyframes a37_s { 0% { stroke: #00a571; } 75.862% { stroke: #00a571; } 77.241% { stroke: #5a5b6a; } 100% { stroke: #5a5b6a; } }
@keyframes a38_f { 0% { fill: #fff; } 75.862% { fill: #fff; } 77.241% { fill: #c6c6c6; } 100% { fill: #c6c6c6; } }
@keyframes a39_s { 0% { stroke: #00a571; } 75.862% { stroke: #00a571; } 77.241% { stroke: #5a5b6a; } 100% { stroke: #5a5b6a; } }
@keyframes a40_s { 0% { stroke: #00a571; } 75.862% { stroke: #00a571; } 77.241% { stroke: #5a5b6a; } 100% { stroke: #5a5b6a; } }
</style><g><rect x="128.2" y="60.2" width="203.5" height="137.5" fill="#19191d" stroke="#f0f0f1" stroke-width=".5"/><g opacity="0" transform="translate(-10,0)" style="animation: 14.5s linear infinite both a0_t, 14.5s linear infinite both a0_o;"><rect x="138" y="127" width="12" height=".5" fill="#f0f0f1"/><rect x="154" y="127" width="19" height=".5" fill="#f0f0f1"/></g><g opacity="0" transform="translate(-10,0)" style="animation: 14.5s linear infinite both a1_t, 14.5s linear infinite both a1_o;"><rect width="14" height=".5" fill="#f0f0f1" transform="translate(149,122)" style="animation: 14.5s linear infinite both a2_f;"/><rect width="24" height=".5" fill="#f0f0f1" transform="translate(167,122)" style="animation: 14.5s linear infinite both a3_f;"/></g><g opacity="0" transform="translate(-10,0)" style="animation: 14.5s linear infinite both a4_t, 14.5s linear infinite both a4_o;"><rect x="145" y="116.5" width="24" height=".5" fill="#f0f0f1"/><rect x="173" y="116.5" width="8" height=".5" fill="#f0f0f1"/></g><g opacity="0" transform="translate(-10,0)" style="animation: 14.5s linear infinite both a5_t, 14.5s linear infinite both a5_o;"><rect x="145" y="111" width="24" height=".5" fill="#f0f0f1"/><rect x="173" y="111" width="16" height=".5" fill="#f0f0f1"/></g><g opacity="0" transform="translate(-10,0)" style="animation: 14.5s linear infinite both a6_t, 14.5s linear infinite both a6_o;"><rect x="145" y="105.5" width="14" height=".5" fill="#f0f0f1"/><rect x="163" y="105.5" width="8" height=".5" fill="#f0f0f1"/><rect x="175" y="105.5" width="7" height=".5" fill="#00a571"/></g><g opacity="0" transform="translate(-10,0)" style="animation: 14.5s linear infinite both a7_t, 14.5s linear infinite both a7_o;"><rect width="24" height=".5" fill="#00a571" transform="translate(145,100)" style="animation: 14.5s linear infinite both a8_f;"/><rect width="16" height=".5" fill="#00a571" transform="translate(173,100)" style="animation: 14.5s linear infinite both a9_f;"/></g><g opacity="0" transform="translate(-10,0)" style="animation: 14.5s linear infinite both a10_t, 14.5s linear infinite both a10_o;"><rect x="161" y="94.5" width="16" height=".5" fill="#f0f0f1"/><rect x="181" y="94.5" width="4.2" height=".5" fill="#f0f0f1"/><rect x="145" y="94.5" width="12" height=".5" fill="#f0f0f1"/></g><g opacity="0" transform="translate(-10,0)" style="animation: 14.5s linear infinite both a11_t, 14.5s linear infinite both a11_o;"><rect x="145" y="89" width="7.7" height=".5" fill="#f0f0f1"/><rect x="157" y="89" width="11.7" height=".5" fill="#f0f0f1"/></g><g opacity="0" transform="translate(-10,0)" style="animation: 14.5s linear infinite both a12_t, 14.5s linear infinite both a12_o;"><rect width="8" height=".5" fill="#00a571" transform="translate(145,83.5)" style="animation: 14.5s linear infinite both a13_f;"/><rect width="38" height=".5" fill="#00a571" transform="translate(157,83.5)" style="animation: 14.5s linear infinite both a14_f;"/></g><g opacity="0" transform="translate(-10,0)" style="animation: 14.5s linear infinite both a15_t, 14.5s linear infinite both a15_o;"><rect x="138" y="78" width="12" height=".5" fill="#f0f0f1"/><rect x="154" y="78" width="19" height=".5" fill="#f0f0f1"/></g><path stroke="#f0f0f1" stroke-width=".5" d="M128 67.8h204"/><rect x="130" y="62" width="4" height="4" rx="2" fill="#00a571"/><path d="M288 86c-0.4 0-0.7-0.1-0.8-0.3c-0.2-0.2-0.3-0.4-0.3-0.7h-0.1c-0.1 .4-0.4 .6-0.7 .8c-0.3 .2-0.7 .3-1.2 .3c-0.6 0-1.1-0.1-1.5-0.5c-0.4-0.3-0.6-0.8-0.6-1.3c0-0.6 .2-1.1 .6-1.4c.5-0.3 1.1-0.4 2.1-0.4h1.3v-0.7c0-0.4-0.1-0.7-0.4-1c-0.2-0.2-0.6-0.3-1.1-0.3c-0.4 0-0.7 .1-1 .2c-0.3 .2-0.5 .4-0.6 .7l-0.7-0.5c.1-0.1 .2-0.3 .3-0.5c.2-0.1 .3-0.2 .5-0.4c.2-0.1 .5-0.2 .7-0.2c.3-0.1 .6-0.1 .9-0.1c.7 0 1.3 .1 1.7 .5c.4 .4 .7 .9 .7 1.6v3.4h.8v.8h-0.6Zm-2.9-0.7c.3 0 .5 0 .7 0c.2-0.1 .4-0.2 .5-0.3c.2-0.1 .3-0.2 .4-0.3c.1-0.2 .1-0.3 .1-0.5v-1h-1.3c-0.6 0-1 .1-1.3 .2c-0.2 .2-0.4 .4-0.4 .7v.3c0 .3 .1 .5 .4 .7c.2 .2 .5 .2 .9 .2Zm9.2-0.3c-0.4 .8-1.1 1.1-1.9 1.1c-0.8 0-1.4-0.2-1.8-0.8c-0.4-0.6-0.7-1.4-0.7-2.4c0-1 .3-1.8 .7-2.4c.4-0.6 1-0.8 1.8-0.8c.8 0 1.5 .3 1.9 1.1v-3.7h1v8.9h-1v-1Zm-1.6 .3c.3 0 .5 0 .6-0.1c.2 0 .4-0.1 .6-0.2c.1-0.1 .2-0.3 .3-0.4c.1-0.2 .1-0.4 .1-0.6v-2.2c0-0.2 0-0.4-0.1-0.6c-0.1-0.1-0.2-0.2-0.3-0.3c-0.2-0.2-0.4-0.2-0.6-0.3c-0.1-0.1-0.3-0.1-0.6-0.1c-0.5 0-1 .2-1.3 .5c-0.3 .4-0.4 .8-0.4 1.4v1c0 .6 .1 1 .4 1.4c.3 .3 .8 .5 1.3 .5Zm4.4 .7v-6.2h.9v.7c.1-0.2 .2-0.4 .4-0.6c.2-0.2 .4-0.2 .8-0.2c.3 0 .6 .1 .8 .2c.2 .2 .3 .4 .3 .7h.1c.1-0.2 .2-0.5 .4-0.7c.2-0.1 .5-0.2 .9-0.2c.5 0 .8 .1 1 .5c.2 .3 .3 .8 .3 1.5v4.3h-0.9v-4.1c0-0.6-0.1-0.9-0.2-1.1c-0.1-0.2-0.3-0.3-0.6-0.3c-0.2 0-0.4 0-0.6 .2c-0.2 .2-0.2 .4-0.2 .8v4.5h-0.9v-4.1c0-0.6-0.1-0.9-0.2-1.1c-0.1-0.2-0.3-0.3-0.6-0.3c-0.2 0-0.4 0-0.6 .2c-0.2 .2-0.2 .4-0.2 .8v4.5h-0.9Zm10.5-7.6c-0.3 0-0.5 0-0.6-0.1c-0.1-0.1-0.2-0.3-0.2-0.5v-0.2c0-0.1 .1-0.3 .2-0.4c.1-0.1 .3-0.2 .6-0.2c.3 0 .5 .1 .6 .2c.1 .1 .1 .3 .1 .4v.2c0 .2 0 .4-0.1 .5c-0.1 .1-0.3 .1-0.6 .1Zm-2.7 6.8h2.2v-4.6h-2.2v-0.8h3.2v5.4h2.1v.8h-5.3v-0.8Zm7.1 .8v-6.2h.9v1h.1c.1-0.1 .1-0.3 .2-0.4c.1-0.2 .2-0.3 .4-0.4c.1-0.1 .3-0.2 .5-0.2c.2-0.1 .4-0.1 .7-0.1c.6 0 1.1 .2 1.5 .6c.4 .4 .6 1 .6 1.7v4h-1v-3.8c0-0.6-0.1-1-0.3-1.3c-0.3-0.2-0.6-0.4-1.1-0.4c-0.2 0-0.4 0-0.6 .1c-0.2 0-0.3 .1-0.5 .2c-0.1 .1-0.2 .2-0.3 .4c-0.1 .1-0.2 .3-0.2 .5v4.3h-0.9Z" fill="#f0f0f1" opacity="0" transform="translate(-10,0)" style="animation: 14.5s linear infinite both a16_t, 14.5s linear infinite both a16_o;"/><path d="M288.8 86.7c0 .6-0.3 1.1-0.8 1.4c-0.5 .3-1.3 .4-2.4 .4c-1 0-1.7-0.1-2.1-0.4c-0.5-0.2-0.7-0.6-0.7-1.1c0-0.3 .1-0.6 .3-0.8c.2-0.2 .4-0.3 .7-0.4v-0.1c-0.1-0.1-0.3-0.2-0.4-0.4c-0.1-0.1-0.1-0.3-0.1-0.5c0-0.3 .1-0.5 .3-0.7c.2-0.2 .5-0.3 .8-0.4c-0.4-0.2-0.7-0.4-0.9-0.7c-0.2-0.4-0.3-0.8-0.3-1.2c0-0.3 0-0.6 .2-0.9c.1-0.2 .2-0.5 .4-0.6c.3-0.2 .5-0.4 .8-0.5c.3-0.1 .6-0.1 1-0.1c.5 0 .9 0 1.2 .2v-0.1c0-0.2 .1-0.4 .2-0.6c.1-0.2 .3-0.2 .6-0.2h1.1v.8h-1.4v.4c.2 .2 .4 .4 .5 .7c.1 .3 .2 .6 .2 .9c0 .3-0.1 .6-0.2 .9c-0.1 .2-0.3 .5-0.5 .6c-0.2 .2-0.4 .4-0.7 .5c-0.3 .1-0.7 .1-1 .1c-0.1 0-0.2 0-0.3 0c-0.1 0-0.2 0-0.3 0c-0.1 0-0.2 0-0.3 .1c-0.1 0-0.2 .1-0.3 .1c-0.1 .1-0.1 .1-0.2 .2c-0.1 .1-0.1 .2-0.1 .3c0 .2 .1 .3 .3 .4c.2 0 .4 .1 .7 .1h1.4c.8 0 1.4 .1 1.7 .4c.4 .3 .6 .7 .6 1.2Zm-0.9 .1c0-0.3-0.1-0.5-0.3-0.6c-0.2-0.2-0.6-0.3-1.1-0.3h-2.1c-0.5 .2-0.7 .5-0.7 .9c0 .3 .1 .5 .4 .7c.2 .2 .5 .3 1 .3h1c.5 0 1-0.1 1.3-0.3c.3-0.2 .5-0.4 .5-0.7Zm-2.3-3.6c.5 0 .8-0.1 1-0.3c.3-0.3 .4-0.6 .4-0.9v-0.4c0-0.3-0.1-0.6-0.4-0.9c-0.2-0.2-0.5-0.3-1-0.3c-0.5 0-0.8 .1-1.1 .3c-0.2 .3-0.3 .6-0.3 .9v.4c0 .3 .1 .6 .3 .9c.3 .2 .6 .3 1.1 .3Zm8.7 1.8h-0.1c0 .1-0.1 .3-0.2 .4c-0.1 .2-0.2 .3-0.4 .4c-0.1 .1-0.3 .2-0.5 .2c-0.1 .1-0.4 .1-0.6 .1c-0.7 0-1.2-0.2-1.6-0.6c-0.4-0.4-0.6-1-0.6-1.7v-4h1v3.8c0 .6 .1 1 .4 1.3c.2 .3 .6 .4 1 .4c.2 0 .4 0 .6-0.1c.2 0 .4-0.1 .5-0.2c.1-0.1 .3-0.2 .4-0.4c0-0.1 .1-0.3 .1-0.5v-4.3h.9v6.2h-0.9v-1Zm5.8 1.1c-0.4 0-0.8 0-1.2-0.2c-0.3-0.1-0.6-0.4-0.9-0.6c-0.3-0.3-0.4-0.7-0.6-1.1c-0.1-0.4-0.2-0.8-0.2-1.3c0-0.5 .1-0.9 .2-1.3c.2-0.4 .4-0.8 .6-1c.3-0.3 .6-0.6 .9-0.7c.3-0.2 .7-0.2 1.2-0.2c.4 0 .8 0 1.1 .2c.3 .1 .6 .4 .9 .6c.2 .3 .4 .6 .5 1c.1 .3 .2 .7 .2 1.2v.4h-4.6v.3c0 .3 .1 .6 .2 .8c0 .2 .2 .4 .3 .6c.2 .2 .4 .3 .6 .4c.3 .1 .5 .1 .8 .1c.4 0 .8-0.1 1.1-0.3c.3-0.2 .5-0.4 .7-0.8l.7 .5c-0.2 .4-0.5 .8-0.9 1c-0.4 .3-1 .4-1.6 .4Zm0-5.6c-0.3 0-0.5 0-0.8 .1c-0.2 .1-0.4 .2-0.6 .4c-0.1 .2-0.2 .4-0.3 .6c-0.1 .2-0.2 .5-0.2 .7v.1h3.6v-0.1c0-0.3-0.1-0.5-0.2-0.8c0-0.2-0.2-0.4-0.3-0.5c-0.1-0.2-0.3-0.3-0.5-0.4c-0.2-0.1-0.5-0.1-0.7-0.1Zm7.2 5.6c-0.7 0-1.2-0.1-1.7-0.3c-0.5-0.2-0.9-0.5-1.2-0.9l.7-0.5c.3 .3 .6 .5 .9 .7c.4 .2 .8 .2 1.3 .2c.5 0 .9 0 1.2-0.2c.3-0.2 .4-0.5 .4-0.8c0-0.2 0-0.3 0-0.4c-0.1-0.1-0.2-0.2-0.3-0.3c-0.1-0.1-0.2-0.1-0.3-0.1c-0.2-0.1-0.3-0.1-0.4-0.1l-1-0.2c-0.2 0-0.5 0-0.7-0.1c-0.3-0.1-0.5-0.1-0.7-0.3c-0.2-0.1-0.4-0.3-0.5-0.5c-0.2-0.2-0.2-0.5-0.2-0.8c0-0.3 0-0.6 .1-0.8c.2-0.2 .3-0.4 .6-0.6c.2-0.1 .5-0.2 .8-0.3c.3-0.1 .6-0.1 1-0.1c.5 0 1 .1 1.4 .2c.4 .2 .8 .4 1.1 .8l-0.6 .5c-0.1 0-0.2-0.1-0.3-0.2c-0.1-0.1-0.3-0.2-0.4-0.3c-0.2 0-0.4-0.1-0.6-0.2c-0.2 0-0.4 0-0.7 0c-0.5 0-0.8 .1-1.1 .2c-0.3 .2-0.4 .4-0.4 .8c0 .1 0 .2 .1 .4c.1 .1 .1 .1 .2 .2c.1 .1 .3 .1 .4 .2c.1 0 .3 0 .4 .1l1 .1c.2 0 .4 .1 .7 .1c.2 .1 .5 .2 .7 .3c.2 .1 .3 .3 .5 .5c.1 .2 .2 .5 .2 .8c0 .6-0.2 1.1-0.7 1.4c-0.5 .4-1.1 .5-1.9 .5Zm7.4-0.1c-0.5 0-0.8-0.1-1-0.4c-0.3-0.3-0.4-0.6-0.4-1v-4h-2v-0.8h1.5c.2 0 .4 0 .4-0.1c.1-0.1 .2-0.2 .2-0.5v-1.6h.9v2.2h2.8v.8h-2.8v4.6h2.8v.8h-2.4Z" fill="#f0f0f1" opacity="0" transform="translate(-10,0)" style="animation: 14.5s linear infinite both a17_t, 14.5s linear infinite both a17_o;"/><rect x="72.2" y="136.2" width="203.5" height="137.5" fill="#f0f0f1" stroke="#19191d" stroke-width=".5"/><rect x="74" y="138" width="4" height="4" rx="2" fill="#19191d"/><path stroke="#19191d" stroke-width=".5" d="M72 143.8l204-0.1"/><path stroke="#99999e" stroke-width=".5" d="M118 154.8l22-0.1"/><g style="animation: 14.5s linear infinite both a18_t, 14.5s linear infinite both a18_o;"><g><rect x="118" y="159" width="150" height="6" fill="#dedede"/><rect x="120" y="161" width="2" height="2" fill="#99999e"/><path stroke="#99999e" stroke-width=".5" d="M125 162h11"/><path stroke="#99999e" stroke-width=".5" d="M196 162h22"/><path stroke="#99999e" stroke-width=".5" d="M150 162h7"/><path stroke="#99999e" stroke-width=".5" d="M232 162h7"/><path stroke="#99999e" stroke-width=".5" d="M171 162h11"/><path stroke="#99999e" stroke-width=".5" d="M253 162h11"/></g><g><rect x="118" y="167" width="150" height="6" fill="#dedede"/><rect x="120" y="169" width="2" height="2" fill="#99999e"/><path stroke="#99999e" stroke-width=".5" d="M125 170h11"/><path stroke="#99999e" stroke-width=".5" d="M196 170h22"/><path stroke="#99999e" stroke-width=".5" d="M150 170h7"/><path stroke="#99999e" stroke-width=".5" d="M232 170h7"/><path stroke="#99999e" stroke-width=".5" d="M171 170h11"/><path stroke="#99999e" stroke-width=".5" d="M253 170h11"/></g><g><rect x="118" y="175" width="150" height="6" fill="#dedede"/><rect x="120" y="177" width="2" height="2" fill="#99999e"/><path stroke="#99999e" stroke-width=".5" d="M125 178h11"/><path stroke="#99999e" stroke-width=".5" d="M196 178h22"/><path stroke="#99999e" stroke-width=".5" d="M150 178h7"/><path stroke="#99999e" stroke-width=".5" d="M232 178h7"/><path stroke="#99999e" stroke-width=".5" d="M171 178h11"/><path stroke="#99999e" stroke-width=".5" d="M253 178h11"/></g><g><rect x="118" y="183" width="150" height="6" fill="#dedede"/><rect x="120" y="185" width="2" height="2" fill="#99999e"/><path stroke="#99999e" stroke-width=".5" d="M125 186h11"/><path stroke="#99999e" stroke-width=".5" d="M196 186h22"/><path stroke="#99999e" stroke-width=".5" d="M150 186h7"/><path stroke="#99999e" stroke-width=".5" d="M232 186h7"/><path stroke="#99999e" stroke-width=".5" d="M171 186h11"/><path stroke="#99999e" stroke-width=".5" d="M253 186h11"/></g><g><rect x="118" y="191" width="150" height="6" fill="#dedede"/><rect x="120" y="193" width="2" height="2" fill="#99999e"/><path stroke="#99999e" stroke-width=".5" d="M125 194h11"/><path stroke="#99999e" stroke-width=".5" d="M196 194h22"/><path stroke="#99999e" stroke-width=".5" d="M150 194h7"/><path stroke="#99999e" stroke-width=".5" d="M232 194h7"/><path stroke="#99999e" stroke-width=".5" d="M171 194h11"/><path stroke="#99999e" stroke-width=".5" d="M253 194h11"/></g><rect width="150" height="6" fill="#dedede" transform="translate(118,199)" style="animation: 14.5s linear infinite both a19_f;"/><rect width="2" height="2" fill="#99999e" transform="translate(120,201)" style="animation: 14.5s linear infinite both a20_f;"/><g><path stroke="#99999e" stroke-width=".5" d="M125 202h11" style="animation: 14.5s linear infinite both a21_s;"/><path stroke="#99999e" stroke-width=".5" d="M196 202h22" style="animation: 14.5s linear infinite both a22_s;"/><path stroke="#99999e" stroke-width=".5" d="M150 202h7" style="animation: 14.5s linear infinite both a23_s;"/><path stroke="#99999e" stroke-width=".5" d="M232 202h7" style="animation: 14.5s linear infinite both a24_s;"/><path stroke="#99999e" stroke-width=".5" d="M171 202h11" style="animation: 14.5s linear infinite both a25_s;"/><path stroke="#99999e" stroke-width=".5" d="M253 202h11" style="animation: 14.5s linear infinite both a26_s;"/></g><g><rect x="118" y="207" width="150" height="6" fill="#dedede"/><rect x="120" y="209" width="2" height="2" fill="#99999e"/><path stroke="#99999e" stroke-width=".5" d="M125 210h11"/><path stroke="#99999e" stroke-width=".5" d="M196 210h22"/><path stroke="#99999e" stroke-width=".5" d="M150 210h7"/><path stroke="#99999e" stroke-width=".5" d="M232 210h7"/><path stroke="#99999e" stroke-width=".5" d="M171 210h11"/><path stroke="#99999e" stroke-width=".5" d="M253 210h11"/></g><g><rect x="118" y="215" width="150" height="6" fill="#dedede"/><rect x="120" y="217" width="2" height="2" fill="#99999e"/><path stroke="#99999e" stroke-width=".5" d="M125 218h11"/><path stroke="#99999e" stroke-width=".5" d="M196 218h22"/><path stroke="#99999e" stroke-width=".5" d="M150 218h7"/><path stroke="#99999e" stroke-width=".5" d="M232 218h7"/><path stroke="#99999e" stroke-width=".5" d="M171 218h11"/><path stroke="#99999e" stroke-width=".5" d="M253 218h11"/></g><g><rect x="118" y="223" width="150" height="6" fill="#dedede"/><rect x="120" y="225" width="2" height="2" fill="#99999e"/><g><g><path stroke="#99999e" stroke-width=".5" d="M125 226h11"/><path stroke="#99999e" stroke-width=".5" d="M196 226h22"/><path stroke="#99999e" stroke-width=".5" d="M150 226h7"/><path stroke="#99999e" stroke-width=".5" d="M232 226h7"/><path stroke="#99999e" stroke-width=".5" d="M171 226h11"/><path stroke="#99999e" stroke-width=".5" d="M253 226h11"/></g></g></g></g><g opacity="0" transform="translate(10,0)" style="animation: 14.5s linear infinite both a27_t, 14.5s linear infinite both a27_o;"><rect width="60" height="8" fill="#00a571" transform="translate(118,235)" style="animation: 14.5s linear infinite both a28_f;"/><g><rect width="3.5" height="3.5" fill="#00a571" stroke="#00a571" stroke-width=".5" transform="translate(118.2,206.2)" style="animation: 14.5s linear infinite both a29_s, 14.5s linear infinite both a29_f;"/><path stroke="#99999e" stroke-width=".5" d="M125 208h16" style="animation: 14.5s linear infinite both a30_s;"/></g><g><rect width="3.5" height="3.5" fill="#fff" stroke="#00a571" stroke-width=".5" transform="translate(118.2,198.2)" style="animation: 14.5s linear infinite both a31_s, 14.5s linear infinite both a31_f;"/><path stroke="#99999e" stroke-width=".5" d="M125 200h20" style="animation: 14.5s linear infinite both a32_s;"/><path stroke="#99999e" stroke-width=".5" d="M147 200h7" style="animation: 14.5s linear infinite both a33_s;"/></g><g><rect width="60" height="8" fill="#fff" transform="translate(118,159)" style="animation: 14.5s linear infinite both a34_f;"/><path stroke="#00a571" stroke-width=".5" d="M121 162.8l38-0.1" style="animation: 14.5s linear infinite both a35_s;"/></g><g><rect width="60" height="8" fill="#fff" transform="translate(118,171)" style="animation: 14.5s linear infinite both a36_f;"/><path stroke="#00a571" stroke-width=".5" d="M121 174.8l17-0.1" style="animation: 14.5s linear infinite both a37_s;"/></g><g><rect width="60" height="8" fill="#fff" transform="translate(118,183)" style="animation: 14.5s linear infinite both a38_f;"/><path stroke="#00a571" stroke-width=".5" d="M121 187.8l21-0.1" style="animation: 14.5s linear infinite both a39_s;"/><path stroke="#00a571" stroke-width=".5" d="M144 187.8l17-0.1" style="animation: 14.5s linear infinite both a40_s;"/></g></g><rect x="76" y="149.5" width="36.2" height="119" fill="#f0f0f1"/><g><rect x="80" y="173" width="23" height=".5" fill="#99999e"/><rect x="80" y="195.5" width="18" height=".5" fill="#99999e"/><rect x="80" y="180.5" width="20" height=".5" fill="#99999e"/><rect x="80" y="203" width="20" height=".5" fill="#99999e"/><rect x="80" y="188" width="22" height=".5" fill="#99999e"/><rect x="80" y="210.5" width="15" height=".5" fill="#99999e"/><ellipse cx="85" cy="159" fill="#99999e" rx="5" ry="5"/><rect x="92" y="159" width="4" height=".5" fill="#99999e"/><rect x="97" y="159" width="9" height=".5" fill="#99999e"/><path stroke="#99999e" stroke-width=".5" d="M112.2 154v110"/></g></g></svg>