<?xml version="1.0" encoding="UTF-8" standalone="no"?>
<svg width="89px" height="41px" viewBox="0 0 89 41" version="1.1" xmlns="http://www.w3.org/2000/svg" xmlns:xlink="http://www.w3.org/1999/xlink">
    <!-- Generator: Sketch 48.2 (47327) - http://www.bohemiancoding.com/sketch -->
    <title>Group</title>
    <desc>Created with Sketch.</desc>
    <defs></defs>
    <g id="Desktop-HD" stroke="none" stroke-width="1" fill="none" fill-rule="evenodd" transform="translate(-122.000000, -28.000000)">
        <g id="Hero" fill="#FFFFFF">
            <g id="Header" transform="translate(122.000000, 28.000000)">
                <g id="Group">
                    <g id="Logo">
                        <g id="Ory/logo_white_40px">
                            <g id="Group">
                                <path d="M10.4176638,40.9144726 C10.2807631,40.9851726 10.1192806,40.9851726 9.98228275,40.9144726 L8.03234716,39.9087726 L0.536234716,36.0413726 C0.207537118,35.8718726 0,35.5258726 0,35.1474726 L0,32.1007726 C0,31.7288726 0.380484716,31.4870726 0.703546943,31.6538726 L10.2000218,36.5547726 L19.7004803,31.6536726 C20.0234454,31.4869726 20.4039301,31.7287726 20.4039301,32.1006726 L20.4039301,35.1435726 C20.4039301,35.5218726 20.196393,35.8678726 19.8677926,36.0373726 L14.5324563,38.7907726 L12.3647817,39.9097726 L10.4176638,40.9144726" id="Fill-12"></path>
                                <path d="M9.98626638,0.053025 C10.123167,-0.017675 10.2846496,-0.017675 10.4216474,0.053025 L12.371583,1.058725 L19.8676954,4.926125 C20.196393,5.095625 20.4039301,5.441725 20.4039301,5.820125 L20.4039301,8.866725 C20.4039301,9.238625 20.0234454,9.480325 19.7003832,9.313625 L10.2039083,4.412725 L0.703546943,9.313825 C0.380387555,9.480425 0,9.238725 0,8.866825 L0,5.824025 C0,5.445625 0.207439956,5.099725 0.536137555,4.930025 L5.8714738,2.176725 L8.03914847,1.057725 L9.98626638,0.053025" id="Fill-13"></path>
                                <path d="M10.2019651,27 C6.71405895,27 3.88646288,24.0898 3.88646288,20.5 C3.88646288,16.9102 6.71405895,14 10.2019651,14 C13.6898712,14 16.5174672,16.9102 16.5174672,20.5 C16.5174672,24.0898 13.6898712,27 10.2019651,27 Z M10.2019651,10 C4.5675655,10 0,14.701 0,20.5 C0,26.299 4.5675655,31 10.2019651,31 C15.8363646,31 20.4039301,26.299 20.4039301,20.5 C20.4039301,14.701 15.8363646,10 10.2019651,10 Z" id="Fill-14"></path>
                                <path d="M40.5163755,27 C37.0284694,27 34.2008734,24.0898 34.2008734,20.5 C34.2008734,16.9102 37.0284694,14 40.5163755,14 C44.0042817,14 46.8318777,16.9102 46.8318777,20.5 C46.8318777,24.0898 44.0042817,27 40.5163755,27 Z M40.5163755,10 C34.881976,10 30.3144105,14.701 30.3144105,20.5 C30.3144105,26.299 34.881976,31 40.5163755,31 C46.1507751,31 50.7183406,26.299 50.7183406,20.5 C50.7183406,14.701 46.1507751,10 40.5163755,10 Z" id="Fill-15"></path>
                                <path d="M63.9323144,19 L63.3590611,19 L63.3085371,18.916 L60.3577402,14 L63.9323144,14 C65.2741157,14 66.3613537,15.119 66.3613537,16.5 C66.3613537,17.881 65.2741157,19 63.9323144,19 Z M65.6180677,22.765 C68.2725218,22.011 70.2254694,19.518 70.246845,16.551 C70.2478166,16.534 70.2478166,16.517 70.2478166,16.5 C70.2478166,16.483 70.2478166,16.466 70.246845,16.449 C70.2206114,12.882 67.4038974,10 63.9323144,10 L56.1593886,10 C55.8910284,10 55.6735808,10.2239 55.6735808,10.5 L55.6735808,13.663 C55.6735808,13.7559 55.6986485,13.8468 55.7460633,13.9258 L58.7914956,19 L56.1593886,19 C55.8910284,19 55.6735808,19.2238 55.6735808,19.5 L55.6735808,30.5 C55.6735808,30.7762 55.8910284,31 56.1593886,31 L59.0742358,31 C59.3425961,31 59.5600437,30.7762 59.5600437,30.5 L59.5600437,23 L61.1913865,23 L65.7074563,30.5255 C65.8843876,30.8204 66.1972478,31 66.5340098,31 L69.6886517,31 C70.0690393,31 70.3019356,30.5704 70.1019771,30.2373 L65.6180677,22.765 Z" id="Fill-16"></path>
                                <path d="M88.9486117,10.7241 L79.4639905,30.4481 C79.3012449,30.7864 78.969341,31 78.6062482,31 L75.6834338,31 C75.3266565,31 75.094829,30.6084 75.2546598,30.2759 L79.9564054,20.502 L75.2544654,10.7241 C75.0947318,10.3916 75.3265593,10 75.6833366,10 L78.6024589,10 C78.9655517,10 79.2974556,10.2136 79.4601041,10.5518 L82.1015386,16.043 L84.7429731,10.5518 C84.9056216,10.2136 85.2375255,10 85.6006183,10 L88.5197405,10 C88.8765178,10 89.1083454,10.3916 88.9486117,10.7241" id="Fill-17"></path>
                            </g>
                        </g>
                    </g>
                </g>
            </g>
        </g>
    </g>
</svg>